<svg width="90" height="73" viewBox="0 0 90 73" fill="none" xmlns="http://www.w3.org/2000/svg">
<path d="M44.7188 0.812503L67.375 41.4375L22.0625 41.4375L44.7188 0.812503Z" fill="#181716"/>
<path d="M77.5313 22.6875L89.25 41.4375L65.8125 41.4375L77.5313 22.6875Z" fill="#181716"/>
<path d="M11.9063 22.6875L23.625 41.4375L0.187495 41.4375L11.9063 22.6875Z" fill="#181716"/>
<path fill-rule="evenodd" clip-rule="evenodd" d="M89.25 46.125H0.1875V72.6875H89.25V46.125ZM44.7588 52.4143L37.7668 59.4062L44.7588 66.3982L51.7508 59.4062L44.7588 52.4143ZM67.375 59.4062L72.883 53.8982L78.3911 59.4062L72.883 64.9143L67.375 59.4062ZM16.633 53.8982L11.125 59.4062L16.633 64.9143L22.1411 59.4062L16.633 53.8982Z" fill="#181716"/>
</svg>
