<svg width="101" height="77" viewBox="0 0 101 77" fill="none" xmlns="http://www.w3.org/2000/svg">
<path d="M44.9583 0H75.4167C78.7304 0 81.4167 2.68629 81.4167 6V54.1667H50.9583C47.6446 54.1667 44.9583 51.4804 44.9583 48.1667V0Z" fill="#181716"/>
<path d="M44.9583 0C40.9312 0 37.6667 3.26459 37.6667 7.29167H52.25C52.25 3.26459 48.9854 0 44.9583 0Z" fill="#181716"/>
<path d="M81.4167 54.1666C83.1425 54.1666 84.5417 52.7675 84.5417 51.0416L78.2917 51.0416C78.2917 52.7675 79.6908 54.1666 81.4167 54.1666Z" fill="#181716"/>
<path fill-rule="evenodd" clip-rule="evenodd" d="M55.4971 27.4766H58.4543V30.6192C60.9357 31.1205 62.688 33.4786 62.688 36.1199H60.133C60.133 34.3264 58.8321 33.0764 57.4676 33.0764H55.8315C54.8262 33.0764 53.8164 34.0073 53.8164 35.4071C53.8164 36.7493 54.7536 37.6755 55.7265 37.7347L58.3782 37.8962C60.895 38.0494 62.688 40.2862 62.688 42.7741C62.688 45.2484 60.913 47.4611 58.4543 47.6472V50.1637H55.4971V47.5624C53.0146 47.062 51.2614 44.7033 51.2614 42.0613H53.8164C53.8164 43.8548 55.1173 45.1048 56.4818 45.1048H58.118C59.1233 45.1048 60.133 44.1739 60.133 42.7741C60.133 41.4319 59.1958 40.5057 58.223 40.4465L55.5712 40.285C53.0545 40.1318 51.2614 37.895 51.2614 35.4071C51.2614 32.9322 53.0373 30.719 55.4971 30.5339V27.4766Z" fill="white"/>
<rect x="51.2083" y="10.9589" width="22.9167" height="5.47945" fill="white"/>
<rect x="51.2086" y="18.918" width="18.75" height="5.47945" fill="white"/>
<path fill-rule="evenodd" clip-rule="evenodd" d="M6.98462 64.678L93.3483 64.678L93.3483 10.1326L6.98463 10.1326L6.98462 64.678ZM13.1663 57.8601L85.8935 57.8601V16.951L83.5303 16.951V10.1328L40.5303 10.1328V16.951L13.1663 16.951L13.1663 57.8601Z" fill="#181716"/>
<path fill-rule="evenodd" clip-rule="evenodd" d="M43.7361 66.9508H0.166656V68.0417C0.166656 72.46 3.74838 76.0417 8.16665 76.0417H92.1667C96.5849 76.0417 100.167 72.46 100.167 68.0417V66.9508H56.5963C55.6602 69.5988 53.1348 71.496 50.1662 71.496C47.1976 71.496 44.6721 69.5988 43.7361 66.9508Z" fill="#181716"/>
</svg>
