<svg width="144" height="42" viewBox="0 0 144 42" fill="none" xmlns="http://www.w3.org/2000/svg">
<path fill-rule="evenodd" clip-rule="evenodd" d="M14.4425 7.14313C14.4473 1.36652 21.7989 -1.54596 26.1438 2.5074C30.5253 6.59489 27.4724 13.6586 21.3228 13.662L18.5503 13.6635L18.5473 17.1942L22.3852 17.1942L22.3852 21.0906L18.544 21.0906L18.5399 25.9741C18.5329 34.3351 7.35457 37.9482 1.95357 31.3353C-2.75554 25.5695 1.58284 17.1942 9.27861 17.1942H14.434L14.437 13.6658L10.4084 13.668L10.406 9.77165L14.4403 9.76943L14.4425 7.14313ZM18.5536 9.76716L21.3204 9.76564C23.7914 9.76428 25.0181 6.92595 23.2576 5.28352C21.5117 3.65482 18.5577 4.8251 18.5558 7.14624L18.5536 9.76716ZM14.4307 21.0906H9.27861C5.00083 21.0906 2.58929 25.7461 5.2069 28.9511C8.20912 32.627 14.4227 30.6185 14.4266 25.971L14.4307 21.0906Z" fill="white"/>
<path d="M25.0305 34.4775V17.0841H29.695V34.4775H25.0305Z" fill="white"/>
<path d="M32.6975 34.4775V17.0841H37.288V19.3635H37.9543C38.2505 18.7556 38.8058 18.1828 39.6202 17.6451C40.4347 17.0841 41.6687 16.8035 43.3222 16.8035C44.7537 16.8035 46 17.1191 47.0612 17.7504C48.1471 18.3582 48.9863 19.2115 49.5786 20.3103C50.1709 21.3857 50.467 22.6481 50.467 24.0976V34.4775H45.8025V24.4482C45.8025 23.139 45.457 22.1572 44.766 21.5026C44.0996 20.848 43.1371 20.5207 41.8784 20.5207C40.447 20.5207 39.3364 20.9766 38.5467 21.8883C37.7569 22.7767 37.362 24.0274 37.362 25.6405V34.4775H32.6975Z" fill="white"/>
<path d="M59.7298 34.9685C58.4218 34.9685 57.2495 34.7581 56.2129 34.3373C55.1764 33.8931 54.3496 33.2619 53.7326 32.4436C53.1403 31.602 52.8441 30.585 52.8441 29.3927C52.8441 28.2004 53.1403 27.2069 53.7326 26.412C54.3496 25.5938 55.1887 24.9859 56.2499 24.5885C57.3359 24.1677 58.5698 23.9573 59.9519 23.9573H64.9866V22.9754C64.9866 22.1572 64.7151 21.4909 64.1722 20.9766C63.6292 20.4389 62.7654 20.17 61.5808 20.17C60.4208 20.17 59.557 20.4272 58.9894 20.9415C58.4218 21.4324 58.0516 22.0753 57.8788 22.8702L53.5845 21.5026C53.8807 20.6142 54.3496 19.8076 54.9913 19.0829C55.6576 18.3348 56.5338 17.7387 57.6197 17.2945C58.7303 16.8269 60.0753 16.5931 61.6548 16.5931C64.0735 16.5931 65.9861 17.1659 67.3929 18.3114C68.7997 19.457 69.503 21.1168 69.503 23.291V29.7785C69.503 30.4798 69.8485 30.8305 70.5396 30.8305H72.0204V34.4775H68.9107C67.9976 34.4775 67.2448 34.2671 66.6525 33.8463C66.0602 33.4255 65.764 32.8644 65.764 32.1631V32.128H65.0607C64.9619 32.4085 64.7398 32.7826 64.3943 33.2502C64.0488 33.6944 63.5058 34.0918 62.7654 34.4425C62.025 34.7931 61.0132 34.9685 59.7298 34.9685ZM60.5442 31.3916C61.8523 31.3916 62.9135 31.0526 63.7279 30.3746C64.5671 29.6733 64.9866 28.7498 64.9866 27.6043V27.2536H60.2851C59.4213 27.2536 58.7426 27.429 58.249 27.7796C57.7554 28.1303 57.5086 28.6213 57.5086 29.2525C57.5086 29.8837 57.7677 30.398 58.286 30.7954C58.8043 31.1929 59.557 31.3916 60.5442 31.3916Z" fill="white"/>
<path d="M73.95 34.4775V9.93031H78.6145V34.4775H73.95Z" fill="white"/>
<path d="M91.0393 34.9685C89.213 34.9685 87.5718 34.6178 86.1157 33.9164C84.6595 33.2151 83.5119 32.1981 82.6728 30.8656C81.8337 29.533 81.4142 27.9316 81.4142 26.0613V25.5003C81.4142 23.63 81.8337 22.0286 82.6728 20.696C83.5119 19.3635 84.6595 18.3465 86.1157 17.6451C87.5718 16.9438 89.213 16.5931 91.0393 16.5931C92.8656 16.5931 94.5068 16.9438 95.9629 17.6451C97.4191 18.3465 98.5667 19.3635 99.4058 20.696C100.245 22.0286 100.664 23.63 100.664 25.5003V26.0613C100.664 27.9316 100.245 29.533 99.4058 30.8656C98.5667 32.1981 97.4191 33.2151 95.9629 33.9164C94.5068 34.6178 92.8656 34.9685 91.0393 34.9685ZM91.0393 31.0409C92.4707 31.0409 93.6554 30.6084 94.5932 29.7434C95.531 28.855 96 27.5926 96 25.9561V25.6055C96 23.969 95.531 22.7182 94.5932 21.8532C93.68 20.9649 92.4954 20.5207 91.0393 20.5207C89.6079 20.5207 88.4232 20.9649 87.4854 21.8532C86.5476 22.7182 86.0787 23.969 86.0787 25.6055V25.9561C86.0787 27.5926 86.5476 28.855 87.4854 29.7434C88.4232 30.6084 89.6079 31.0409 91.0393 31.0409Z" fill="white"/>
<path d="M112.226 34.9685C110.4 34.9685 108.758 34.6178 107.302 33.9164C105.846 33.2151 104.699 32.1981 103.859 30.8656C103.02 29.533 102.601 27.9316 102.601 26.0613V25.5003C102.601 23.63 103.02 22.0286 103.859 20.696C104.699 19.3635 105.846 18.3465 107.302 17.6451C108.758 16.9438 110.4 16.5931 112.226 16.5931C114.052 16.5931 115.693 16.9438 117.15 17.6451C118.606 18.3465 119.753 19.3635 120.592 20.696C121.432 22.0286 121.851 23.63 121.851 25.5003V26.0613C121.851 27.9316 121.432 29.533 120.592 30.8656C119.753 32.1981 118.606 33.2151 117.15 33.9164C115.693 34.6178 114.052 34.9685 112.226 34.9685ZM112.226 31.0409C113.657 31.0409 114.842 30.6084 115.78 29.7434C116.718 28.855 117.187 27.5926 117.187 25.9561V25.6055C117.187 23.969 116.718 22.7182 115.78 21.8532C114.867 20.9649 113.682 20.5207 112.226 20.5207C110.794 20.5207 109.61 20.9649 108.672 21.8532C107.734 22.7182 107.265 23.969 107.265 25.6055V25.9561C107.265 27.5926 107.734 28.855 108.672 29.7434C109.61 30.6084 110.794 31.0409 112.226 31.0409Z" fill="white"/>
<path d="M124.676 41.491V17.0841H129.266V19.1881H129.933C130.352 18.5101 131.006 17.914 131.895 17.3997C132.783 16.862 134.054 16.5931 135.708 16.5931C137.189 16.5931 138.558 16.9438 139.817 17.6451C141.076 18.3231 142.087 19.3284 142.853 20.6609C143.618 21.9935 144 23.6066 144 25.5003V26.0613C144 27.955 143.618 29.5681 142.853 30.9006C142.087 32.2332 141.076 33.2502 139.817 33.9515C138.558 34.6295 137.189 34.9685 135.708 34.9685C134.597 34.9685 133.659 34.8399 132.894 34.5827C132.154 34.3489 131.549 34.045 131.08 33.671C130.636 33.2735 130.278 32.8761 130.007 32.4787H129.34V41.491H124.676ZM134.301 31.111C135.757 31.111 136.954 30.6786 137.892 29.8136C138.854 28.9252 139.336 27.6394 139.336 25.9561V25.6055C139.336 23.9222 138.854 22.6481 137.892 21.7831C136.929 20.8947 135.732 20.4505 134.301 20.4505C132.87 20.4505 131.673 20.8947 130.71 21.7831C129.748 22.6481 129.266 23.9222 129.266 25.6055V25.9561C129.266 27.6394 129.748 28.9252 130.71 29.8136C131.673 30.6786 132.87 31.111 134.301 31.111Z" fill="white"/>
</svg>
