<svg width="144" height="44" viewBox="0 0 144 44" fill="none" xmlns="http://www.w3.org/2000/svg">
<path fill-rule="evenodd" clip-rule="evenodd" d="M14.4425 7.36147C14.4473 1.28371 21.7989 -1.78061 26.1438 2.48406C30.5253 6.78465 27.4724 14.2166 21.3228 14.2202L18.5503 14.2218L18.5473 17.9365L22.3852 17.9365L22.3852 22.036L18.544 22.036L18.5399 27.1741C18.5329 35.971 7.35457 39.7725 1.95357 32.8149C-2.75554 26.7485 1.58284 17.9365 9.27861 17.9365H14.434L14.437 14.2242L10.4084 14.2265L10.406 10.127L14.4403 10.1247L14.4425 7.36147ZM18.5536 10.1223L21.3204 10.1207C23.7914 10.1193 25.0181 7.13297 23.2576 5.40492C21.5117 3.6913 18.5577 4.9226 18.5558 7.36474L18.5536 10.1223ZM14.4307 22.036H9.27861C5.00083 22.036 2.58929 26.9343 5.2069 30.3063C8.20912 34.1738 14.4227 32.0607 14.4266 27.1709L14.4307 22.036Z" fill="#181716"/>
<path d="M25.0305 36.1209V17.8207H29.695V36.1209H25.0305Z" fill="#181716"/>
<path d="M32.6975 36.1209V17.8207H37.288V20.2189H37.9543C38.2505 19.5793 38.8058 18.9767 39.6202 18.411C40.4347 17.8207 41.6687 17.5255 43.3222 17.5255C44.7537 17.5255 46 17.8576 47.0612 18.5217C48.1471 19.1612 48.9863 20.059 49.5786 21.2151C50.1709 22.3465 50.467 23.6748 50.467 25.1998V36.1209H45.8025V25.5687C45.8025 24.1913 45.457 23.1582 44.766 22.4695C44.0996 21.7808 43.1371 21.4364 41.8784 21.4364C40.447 21.4364 39.3364 21.9161 38.5467 22.8754C37.7569 23.81 37.362 25.126 37.362 26.8232V36.1209H32.6975Z" fill="#181716"/>
<path d="M59.7298 36.6374C58.4218 36.6374 57.2495 36.416 56.2129 35.9733C55.1764 35.506 54.3496 34.8418 53.7326 33.9809C53.1403 33.0954 52.8441 32.0255 52.8441 30.771C52.8441 29.5166 53.1403 28.4712 53.7326 27.6349C54.3496 26.774 55.1887 26.1345 56.2499 25.7163C57.3359 25.2736 58.5698 25.0522 59.9519 25.0522H64.9866V24.0191C64.9866 23.1582 64.7151 22.4572 64.1722 21.9161C63.6292 21.3503 62.7654 21.0675 61.5808 21.0675C60.4208 21.0675 59.557 21.338 58.9894 21.8792C58.4218 22.3957 58.0516 23.0721 57.8788 23.9084L53.5845 22.4695C53.8807 21.5348 54.3496 20.6862 54.9913 19.9237C55.6576 19.1366 56.5338 18.5094 57.6197 18.042C58.7303 17.5501 60.0753 17.3041 61.6548 17.3041C64.0735 17.3041 65.9861 17.9067 67.3929 19.112C68.7997 20.3173 69.503 22.0637 69.503 24.3512V31.1769C69.503 31.9148 69.8485 32.2837 70.5396 32.2837H72.0204V36.1209H68.9107C67.9976 36.1209 67.2448 35.8995 66.6525 35.4568C66.0602 35.014 65.764 34.4237 65.764 33.6858V33.6489H65.0607C64.9619 33.944 64.7398 34.3376 64.3943 34.8295C64.0488 35.2969 63.5058 35.715 62.7654 36.084C62.025 36.4529 61.0132 36.6374 59.7298 36.6374ZM60.5442 32.8741C61.8523 32.8741 62.9135 32.5174 63.7279 31.8041C64.5671 31.0662 64.9866 30.0946 64.9866 28.8893V28.5204H60.2851C59.4213 28.5204 58.7426 28.7049 58.249 29.0738C57.7554 29.4428 57.5086 29.9593 57.5086 30.6234C57.5086 31.2876 57.7677 31.8287 58.286 32.2468C58.8043 32.665 59.557 32.8741 60.5442 32.8741Z" fill="#181716"/>
<path d="M73.95 36.1209V10.294H78.6145V36.1209H73.95Z" fill="#181716"/>
<path d="M91.0393 36.6374C89.213 36.6374 87.5718 36.2685 86.1157 35.5305C84.6595 34.7926 83.5119 33.7227 82.6728 32.3206C81.8337 30.9186 81.4142 29.2337 81.4142 27.2659V26.6756C81.4142 24.7078 81.8337 23.0229 82.6728 21.6209C83.5119 20.2189 84.6595 19.1489 86.1157 18.411C87.5718 17.6731 89.213 17.3041 91.0393 17.3041C92.8656 17.3041 94.5068 17.6731 95.9629 18.411C97.4191 19.1489 98.5667 20.2189 99.4058 21.6209C100.245 23.0229 100.664 24.7078 100.664 26.6756V27.2659C100.664 29.2337 100.245 30.9186 99.4058 32.3206C98.5667 33.7227 97.4191 34.7926 95.9629 35.5305C94.5068 36.2685 92.8656 36.6374 91.0393 36.6374ZM91.0393 32.5051C92.4707 32.5051 93.6554 32.0501 94.5932 31.14C95.531 30.2053 96 28.877 96 27.1552V26.7863C96 25.0645 95.531 23.7485 94.5932 22.8385C93.68 21.9038 92.4954 21.4364 91.0393 21.4364C89.6079 21.4364 88.4232 21.9038 87.4854 22.8385C86.5476 23.7485 86.0787 25.0645 86.0787 26.7863V27.1552C86.0787 28.877 86.5476 30.2053 87.4854 31.14C88.4232 32.0501 89.6079 32.5051 91.0393 32.5051Z" fill="#181716"/>
<path d="M112.226 36.6374C110.4 36.6374 108.758 36.2685 107.302 35.5305C105.846 34.7926 104.699 33.7227 103.859 32.3206C103.02 30.9186 102.601 29.2337 102.601 27.2659V26.6756C102.601 24.7078 103.02 23.0229 103.859 21.6209C104.699 20.2189 105.846 19.1489 107.302 18.411C108.758 17.6731 110.4 17.3041 112.226 17.3041C114.052 17.3041 115.693 17.6731 117.15 18.411C118.606 19.1489 119.753 20.2189 120.592 21.6209C121.432 23.0229 121.851 24.7078 121.851 26.6756V27.2659C121.851 29.2337 121.432 30.9186 120.592 32.3206C119.753 33.7227 118.606 34.7926 117.15 35.5305C115.693 36.2685 114.052 36.6374 112.226 36.6374ZM112.226 32.5051C113.657 32.5051 114.842 32.0501 115.78 31.14C116.718 30.2053 117.187 28.877 117.187 27.1552V26.7863C117.187 25.0645 116.718 23.7485 115.78 22.8385C114.867 21.9038 113.682 21.4364 112.226 21.4364C110.794 21.4364 109.61 21.9038 108.672 22.8385C107.734 23.7485 107.265 25.0645 107.265 26.7863V27.1552C107.265 28.877 107.734 30.2053 108.672 31.14C109.61 32.0501 110.794 32.5051 112.226 32.5051Z" fill="#181716"/>
<path d="M124.676 43.5V17.8207H129.266V20.0344H129.933C130.352 19.3211 131.006 18.6939 131.895 18.1527C132.783 17.587 134.054 17.3041 135.708 17.3041C137.189 17.3041 138.558 17.6731 139.817 18.411C141.076 19.1243 142.087 20.182 142.853 21.584C143.618 22.986 144 24.6832 144 26.6756V27.2659C144 29.2583 143.618 30.9555 142.853 32.3575C142.087 33.7596 141.076 34.8295 139.817 35.5674C138.558 36.2808 137.189 36.6374 135.708 36.6374C134.597 36.6374 133.659 36.5021 132.894 36.2316C132.154 35.9856 131.549 35.6658 131.08 35.2723C130.636 34.8541 130.278 34.436 130.007 34.0178H129.34V43.5H124.676ZM134.301 32.5789C135.757 32.5789 136.954 32.1239 137.892 31.2138C138.854 30.2791 139.336 28.9262 139.336 27.1552V26.7863C139.336 25.0153 138.854 23.6748 137.892 22.7647C136.929 21.83 135.732 21.3626 134.301 21.3626C132.87 21.3626 131.673 21.83 130.71 22.7647C129.748 23.6748 129.266 25.0153 129.266 26.7863V27.1552C129.266 28.9262 129.748 30.2791 130.71 31.2138C131.673 32.1239 132.87 32.5789 134.301 32.5789Z" fill="#181716"/>
</svg>
