<svg width="183" height="236" viewBox="0 0 183 236" fill="none" xmlns="http://www.w3.org/2000/svg">
<g filter="url(#filter0_d_1_505)">
<rect x="6.64648" y="4.77734" width="169.032" height="221.335" rx="11.97" fill="white" shape-rendering="crispEdges"/>
<path d="M25.5455 28.7496H23.272V27.832H25.5455C25.9859 27.832 26.3424 27.7618 26.6151 27.6216C26.8879 27.4813 27.0866 27.2865 27.2113 27.0371C27.3399 26.7877 27.4042 26.5033 27.4042 26.1838C27.4042 25.8915 27.3399 25.6168 27.2113 25.3597C27.0866 25.1025 26.8879 24.896 26.6151 24.7401C26.3424 24.5804 25.9859 24.5005 25.5455 24.5005H23.535V32.0869H22.4069V23.577H25.5455C26.1885 23.577 26.732 23.6881 27.1762 23.9102C27.6204 24.1323 27.9575 24.4401 28.1874 24.8336C28.4172 25.2233 28.5322 25.6694 28.5322 26.1721C28.5322 26.7176 28.4172 27.1832 28.1874 27.569C27.9575 27.9547 27.6204 28.2489 27.1762 28.4515C26.732 28.6502 26.1885 28.7496 25.5455 28.7496ZM30.8759 26.7565V32.0869H29.7947V25.7629H30.8467L30.8759 26.7565ZM32.8514 25.7279L32.8456 26.7332C32.756 26.7137 32.6702 26.702 32.5884 26.6981C32.5105 26.6903 32.4209 26.6864 32.3196 26.6864C32.0702 26.6864 31.85 26.7254 31.6591 26.8033C31.4682 26.8812 31.3065 26.9903 31.174 27.1306C31.0415 27.2709 30.9363 27.4384 30.8584 27.6332C30.7844 27.8242 30.7357 28.0346 30.7123 28.2645L30.4083 28.4398C30.4083 28.058 30.4454 27.6995 30.5194 27.3644C30.5973 27.0293 30.7162 26.7332 30.8759 26.476C31.0357 26.2149 31.2383 26.0123 31.4838 25.8681C31.7331 25.7201 32.0293 25.646 32.3722 25.646C32.4501 25.646 32.5397 25.6558 32.641 25.6753C32.7423 25.6909 32.8125 25.7084 32.8514 25.7279ZM33.4476 28.9951V28.8606C33.4476 28.4047 33.5138 27.982 33.6463 27.5923C33.7788 27.1988 33.9697 26.8578 34.2191 26.5695C34.4685 26.2773 34.7704 26.0513 35.125 25.8915C35.4796 25.7279 35.877 25.646 36.3173 25.646C36.7615 25.646 37.1609 25.7279 37.5155 25.8915C37.874 26.0513 38.1779 26.2773 38.4273 26.5695C38.6806 26.8578 38.8734 27.1988 39.0059 27.5923C39.1384 27.982 39.2046 28.4047 39.2046 28.8606V28.9951C39.2046 29.451 39.1384 29.8737 39.0059 30.2634C38.8734 30.653 38.6806 30.994 38.4273 31.2862C38.1779 31.5745 37.8759 31.8005 37.5214 31.9642C37.1707 32.1239 36.7732 32.2038 36.329 32.2038C35.8848 32.2038 35.4854 32.1239 35.1309 31.9642C34.7763 31.8005 34.4724 31.5745 34.2191 31.2862C33.9697 30.994 33.7788 30.653 33.6463 30.2634C33.5138 29.8737 33.4476 29.451 33.4476 28.9951ZM34.5289 28.8606V28.9951C34.5289 29.3107 34.5659 29.6088 34.6399 29.8893C34.7139 30.166 34.825 30.4114 34.9731 30.6257C35.125 30.84 35.314 31.0095 35.54 31.1342C35.766 31.255 36.029 31.3154 36.329 31.3154C36.6252 31.3154 36.8843 31.255 37.1064 31.1342C37.3324 31.0095 37.5194 30.84 37.6675 30.6257C37.8155 30.4114 37.9266 30.166 38.0006 29.8893C38.0786 29.6088 38.1175 29.3107 38.1175 28.9951V28.8606C38.1175 28.5489 38.0786 28.2547 38.0006 27.9781C37.9266 27.6975 37.8136 27.4501 37.6616 27.2358C37.5136 27.0176 37.3265 26.8462 37.1005 26.7215C36.8784 26.5968 36.6174 26.5344 36.3173 26.5344C36.0212 26.5344 35.7602 26.5968 35.5342 26.7215C35.3121 26.8462 35.125 27.0176 34.9731 27.2358C34.825 27.4501 34.7139 27.6975 34.6399 27.9781C34.5659 28.2547 34.5289 28.5489 34.5289 28.8606ZM42.0042 32.0869H40.923V25.2135C40.923 24.7343 41.0165 24.329 41.2035 23.9978C41.3906 23.6666 41.6575 23.4153 42.0042 23.2439C42.351 23.0724 42.7621 22.9867 43.2375 22.9867C43.518 22.9867 43.7927 23.0218 44.0616 23.0919C44.3304 23.1581 44.6071 23.2419 44.8915 23.3432L44.7103 24.255C44.5311 24.1849 44.3226 24.1186 44.085 24.0563C43.8512 23.99 43.594 23.9569 43.3135 23.9569C42.8498 23.9569 42.5147 24.0621 42.3082 24.2725C42.1056 24.4791 42.0042 24.7927 42.0042 25.2135V32.0869ZM43.2959 25.7629V26.5929H39.9235V25.7629H43.2959ZM45.4234 25.7629V32.0869H44.3421V25.7629H45.4234ZM49.8478 25.7629V26.5929H46.4287V25.7629H49.8478ZM47.5859 24.2258H48.6672V30.5205C48.6672 30.7348 48.7003 30.8965 48.7666 31.0056C48.8328 31.1147 48.9185 31.1868 49.0237 31.2219C49.1289 31.257 49.2419 31.2745 49.3627 31.2745C49.4524 31.2745 49.5459 31.2667 49.6433 31.2511C49.7446 31.2316 49.8206 31.2161 49.8712 31.2044L49.8771 32.0869C49.7913 32.1142 49.6783 32.1395 49.5381 32.1629C49.4017 32.1902 49.2361 32.2038 49.0413 32.2038C48.7763 32.2038 48.5328 32.1512 48.3107 32.046C48.0886 31.9408 47.9113 31.7655 47.7788 31.52C47.6502 31.2706 47.5859 30.9355 47.5859 30.5147V24.2258ZM55.6575 27.3644L56.9316 26.4585C57.1771 26.2909 57.3661 26.1234 57.4986 25.9558C57.6349 25.7844 57.7031 25.5506 57.7031 25.2545C57.7031 25.0246 57.6135 24.8161 57.4343 24.6291C57.255 24.4381 57.0018 24.3427 56.6745 24.3427C56.4485 24.3427 56.2575 24.3953 56.1017 24.5005C55.9458 24.6057 55.8289 24.746 55.751 24.9213C55.6731 25.0927 55.6341 25.2817 55.6341 25.4882C55.6341 25.6636 55.677 25.8448 55.7627 26.0318C55.8484 26.2188 55.9673 26.4137 56.1192 26.6163C56.2712 26.8189 56.4446 27.0332 56.6394 27.2592L60.6664 32.0869H59.3689L56.0666 28.1359C55.7744 27.793 55.5133 27.4793 55.2834 27.1949C55.0535 26.9066 54.8723 26.628 54.7399 26.3591C54.6113 26.0902 54.547 25.8116 54.547 25.5233C54.547 25.0791 54.6347 24.705 54.81 24.4011C54.9892 24.0933 55.2386 23.8595 55.5581 23.6998C55.8776 23.54 56.2517 23.4601 56.6803 23.4601C57.0972 23.4601 57.4557 23.5439 57.7557 23.7114C58.0597 23.8751 58.2934 24.0933 58.4571 24.3661C58.6208 24.6349 58.7026 24.931 58.7026 25.2545C58.7026 25.5272 58.6539 25.7727 58.5565 25.9909C58.459 26.2052 58.3227 26.402 58.1473 26.5812C57.9759 26.7604 57.7752 26.9358 57.5453 27.1072L55.8562 28.3638C55.5757 28.5703 55.3711 28.7671 55.2425 28.9542C55.1139 29.1412 55.0302 29.3068 54.9912 29.451C54.9561 29.5951 54.9386 29.7101 54.9386 29.7958C54.9386 30.0724 54.999 30.3257 55.1198 30.5556C55.2406 30.7855 55.4237 30.9706 55.6692 31.1108C55.9186 31.2472 56.2303 31.3154 56.6043 31.3154C56.9316 31.3154 57.2492 31.2414 57.557 31.0933C57.8687 30.9414 58.1473 30.727 58.3928 30.4504C58.6383 30.1698 58.8331 29.8367 58.9773 29.451C59.1253 29.0613 59.1994 28.6307 59.1994 28.1593H60.1696C60.1696 28.545 60.1326 28.9093 60.0586 29.2522C59.9845 29.5951 59.8696 29.9146 59.7137 30.2108C59.5618 30.503 59.3669 30.7699 59.1292 31.0115C59.0942 31.0466 59.0669 31.0875 59.0474 31.1342C59.0279 31.181 59.0007 31.2219 58.9656 31.257C58.6734 31.5726 58.3129 31.8103 57.8843 31.97C57.4596 32.1259 57.0329 32.2038 56.6043 32.2038C56.0393 32.2038 55.5503 32.1006 55.1373 31.894C54.7282 31.6875 54.4126 31.4031 54.1905 31.0407C53.9684 30.6783 53.8573 30.2634 53.8573 29.7958C53.8573 29.4373 53.9333 29.1217 54.0853 28.8489C54.2411 28.5762 54.4535 28.321 54.7223 28.0833C54.9951 27.8456 55.3068 27.606 55.6575 27.3644ZM69.8251 31.1693V32.0869H65.5701V31.1693H69.8251ZM65.7922 23.577V32.0869H64.6642V23.577H65.7922ZM70.6667 28.9951V28.8606C70.6667 28.4047 70.7329 27.982 70.8654 27.5923C70.9979 27.1988 71.1888 26.8578 71.4382 26.5695C71.6876 26.2773 71.9895 26.0513 72.3441 25.8915C72.6987 25.7279 73.0961 25.646 73.5364 25.646C73.9806 25.646 74.38 25.7279 74.7346 25.8915C75.0931 26.0513 75.397 26.2773 75.6464 26.5695C75.8997 26.8578 76.0925 27.1988 76.225 27.5923C76.3575 27.982 76.4237 28.4047 76.4237 28.8606V28.9951C76.4237 29.451 76.3575 29.8737 76.225 30.2634C76.0925 30.653 75.8997 30.994 75.6464 31.2862C75.397 31.5745 75.095 31.8005 74.7405 31.9642C74.3898 32.1239 73.9923 32.2038 73.5481 32.2038C73.1039 32.2038 72.7046 32.1239 72.35 31.9642C71.9954 31.8005 71.6915 31.5745 71.4382 31.2862C71.1888 30.994 70.9979 30.653 70.8654 30.2634C70.7329 29.8737 70.6667 29.451 70.6667 28.9951ZM71.748 28.8606V28.9951C71.748 29.3107 71.785 29.6088 71.859 29.8893C71.933 30.166 72.0441 30.4114 72.1922 30.6257C72.3441 30.84 72.5331 31.0095 72.7591 31.1342C72.9851 31.255 73.2481 31.3154 73.5481 31.3154C73.8443 31.3154 74.1034 31.255 74.3255 31.1342C74.5515 31.0095 74.7385 30.84 74.8866 30.6257C75.0346 30.4114 75.1457 30.166 75.2197 29.8893C75.2977 29.6088 75.3366 29.3107 75.3366 28.9951V28.8606C75.3366 28.5489 75.2977 28.2547 75.2197 27.9781C75.1457 27.6975 75.0327 27.4501 74.8807 27.2358C74.7327 27.0176 74.5456 26.8462 74.3196 26.7215C74.0975 26.5968 73.8365 26.5344 73.5364 26.5344C73.2403 26.5344 72.9793 26.5968 72.7533 26.7215C72.5312 26.8462 72.3441 27.0176 72.1922 27.2358C72.0441 27.4501 71.933 27.6975 71.859 27.9781C71.785 28.2547 71.748 28.5489 71.748 28.8606ZM81.4619 30.4095C81.4619 30.2536 81.4268 30.1095 81.3567 29.977C81.2904 29.8406 81.1521 29.7179 80.9417 29.6088C80.7352 29.4958 80.4235 29.3983 80.0065 29.3165C79.6559 29.2425 79.3383 29.1548 79.0539 29.0535C78.7733 28.9522 78.5337 28.8295 78.335 28.6853C78.1401 28.5411 77.9901 28.3716 77.8849 28.1768C77.7797 27.982 77.7271 27.754 77.7271 27.493C77.7271 27.2436 77.7817 27.0079 77.8908 26.7858C78.0038 26.5637 78.1616 26.3669 78.3642 26.1954C78.5707 26.024 78.8181 25.8896 79.1065 25.7922C79.3948 25.6948 79.7163 25.646 80.0708 25.646C80.5774 25.646 81.0099 25.7357 81.3684 25.9149C81.7268 26.0941 82.0015 26.3338 82.1925 26.6338C82.3834 26.9299 82.4788 27.2592 82.4788 27.6216H81.3976C81.3976 27.4462 81.345 27.2767 81.2398 27.1131C81.1385 26.9455 80.9884 26.8072 80.7897 26.6981C80.5949 26.589 80.3553 26.5344 80.0708 26.5344C79.7708 26.5344 79.5273 26.5812 79.3402 26.6747C79.1571 26.7643 79.0227 26.8793 78.937 27.0196C78.8551 27.1598 78.8142 27.3079 78.8142 27.4637C78.8142 27.5806 78.8337 27.6858 78.8727 27.7794C78.9155 27.869 78.9896 27.9528 79.0948 28.0307C79.2 28.1047 79.348 28.1749 79.539 28.2411C79.7299 28.3073 79.9734 28.3736 80.2696 28.4398C80.7878 28.5567 81.2144 28.697 81.5495 28.8606C81.8846 29.0243 82.134 29.225 82.2977 29.4626C82.4613 29.7003 82.5431 29.9887 82.5431 30.3277C82.5431 30.6043 82.4847 30.8576 82.3678 31.0875C82.2548 31.3174 82.0892 31.5161 81.871 31.6836C81.6567 31.8473 81.3995 31.9759 81.0995 32.0694C80.8034 32.159 80.4702 32.2038 80.1001 32.2038C79.5429 32.2038 79.0714 32.1044 78.6856 31.9057C78.2999 31.707 78.0076 31.4498 77.8089 31.1342C77.6102 30.8186 77.5108 30.4855 77.5108 30.1348H78.598C78.6135 30.4309 78.6993 30.6667 78.8551 30.842C79.011 31.0134 79.2019 31.1362 79.4279 31.2102C79.6539 31.2803 79.878 31.3154 80.1001 31.3154C80.3962 31.3154 80.6436 31.2764 80.8423 31.1985C81.0449 31.1206 81.1989 31.0134 81.3041 30.8771C81.4093 30.7407 81.4619 30.5848 81.4619 30.4095ZM87.6456 30.4095C87.6456 30.2536 87.6105 30.1095 87.5404 29.977C87.4741 29.8406 87.3358 29.7179 87.1254 29.6088C86.9189 29.4958 86.6072 29.3983 86.1902 29.3165C85.8396 29.2425 85.522 29.1548 85.2376 29.0535C84.957 28.9522 84.7174 28.8295 84.5187 28.6853C84.3238 28.5411 84.1738 28.3716 84.0686 28.1768C83.9634 27.982 83.9108 27.754 83.9108 27.493C83.9108 27.2436 83.9654 27.0079 84.0745 26.7858C84.1875 26.5637 84.3453 26.3669 84.5479 26.1954C84.7544 26.024 85.0018 25.8896 85.2902 25.7922C85.5785 25.6948 85.9 25.646 86.2545 25.646C86.7611 25.646 87.1936 25.7357 87.5521 25.9149C87.9105 26.0941 88.1852 26.3338 88.3762 26.6338C88.5671 26.9299 88.6626 27.2592 88.6626 27.6216H87.5813C87.5813 27.4462 87.5287 27.2767 87.4235 27.1131C87.3222 26.9455 87.1721 26.8072 86.9734 26.6981C86.7786 26.589 86.539 26.5344 86.2545 26.5344C85.9545 26.5344 85.711 26.5812 85.5239 26.6747C85.3408 26.7643 85.2064 26.8793 85.1207 27.0196C85.0388 27.1598 84.9979 27.3079 84.9979 27.4637C84.9979 27.5806 85.0174 27.6858 85.0564 27.7794C85.0992 27.869 85.1733 27.9528 85.2785 28.0307C85.3837 28.1047 85.5317 28.1749 85.7227 28.2411C85.9136 28.3073 86.1571 28.3736 86.4533 28.4398C86.9715 28.5567 87.3981 28.697 87.7332 28.8606C88.0683 29.0243 88.3177 29.225 88.4814 29.4626C88.645 29.7003 88.7268 29.9887 88.7268 30.3277C88.7268 30.6043 88.6684 30.8576 88.5515 31.0875C88.4385 31.3174 88.2729 31.5161 88.0547 31.6836C87.8404 31.8473 87.5832 31.9759 87.2832 32.0694C86.9871 32.159 86.6539 32.2038 86.2838 32.2038C85.7266 32.2038 85.2551 32.1044 84.8693 31.9057C84.4836 31.707 84.1913 31.4498 83.9926 31.1342C83.7939 30.8186 83.6945 30.4855 83.6945 30.1348H84.7817C84.7973 30.4309 84.883 30.6667 85.0388 30.842C85.1947 31.0134 85.3856 31.1362 85.6116 31.2102C85.8376 31.2803 86.0617 31.3154 86.2838 31.3154C86.5799 31.3154 86.8273 31.2764 87.026 31.1985C87.2286 31.1206 87.3826 31.0134 87.4878 30.8771C87.593 30.7407 87.6456 30.5848 87.6456 30.4095Z" fill="#181716"/>
<path opacity="0.5" d="M25.0225 51.305V53.728C24.9407 53.8492 24.8104 53.9856 24.6316 54.1371C24.4528 54.2856 24.2058 54.4159 23.8906 54.5281C23.5784 54.6372 23.1754 54.6917 22.6814 54.6917C22.2783 54.6917 21.9071 54.622 21.5676 54.4826C21.2312 54.3402 20.9388 54.1341 20.6903 53.8644C20.4448 53.5916 20.2539 53.2613 20.1175 52.8734C19.9842 52.4824 19.9175 52.04 19.9175 51.546V51.0323C19.9175 50.5383 19.9751 50.0974 20.0902 49.7094C20.2084 49.3215 20.3812 48.9927 20.6085 48.723C20.8358 48.4502 21.1146 48.2442 21.4449 48.1047C21.7752 47.9623 22.1541 47.8911 22.5814 47.8911C23.0875 47.8911 23.5103 47.979 23.8497 48.1548C24.1921 48.3275 24.4588 48.5669 24.6498 48.873C24.8437 49.1791 24.968 49.5276 25.0225 49.9186H24.1452C24.1058 49.6791 24.027 49.4609 23.9088 49.2639C23.7936 49.067 23.6284 48.9094 23.4133 48.7912C23.1981 48.67 22.9208 48.6093 22.5814 48.6093C22.2753 48.6093 22.0101 48.6654 21.7858 48.7775C21.5616 48.8897 21.3767 49.0503 21.2312 49.2594C21.0858 49.4685 20.9767 49.7216 20.9039 50.0186C20.8342 50.3156 20.7994 50.6504 20.7994 51.0232V51.546C20.7994 51.9278 20.8433 52.2688 20.9312 52.5688C21.0221 52.8688 21.1509 53.1249 21.3176 53.3371C21.4843 53.5462 21.6828 53.7053 21.9131 53.8144C22.1465 53.9235 22.4041 53.978 22.6859 53.978C22.9981 53.978 23.2511 53.9523 23.4451 53.9007C23.6391 53.8462 23.7906 53.7826 23.8997 53.7098C24.0088 53.6341 24.0921 53.5628 24.1497 53.4962V52.0142H22.6177V51.305H25.0225ZM27.1909 50.455V54.6008H26.3499V49.6822H27.1682L27.1909 50.455ZM28.7274 49.6549L28.7229 50.4368C28.6532 50.4216 28.5865 50.4125 28.5228 50.4095C28.4622 50.4034 28.3925 50.4004 28.3137 50.4004C28.1198 50.4004 27.9486 50.4307 27.8001 50.4913C27.6516 50.5519 27.5258 50.6368 27.4227 50.7459C27.3197 50.855 27.2379 50.9853 27.1773 51.1369C27.1197 51.2853 27.0818 51.449 27.0636 51.6278L26.8272 51.7642C26.8272 51.4672 26.856 51.1884 26.9136 50.9277C26.9742 50.6671 27.0666 50.4368 27.1909 50.2368C27.3152 50.0337 27.4727 49.8761 27.6637 49.764C27.8576 49.6488 28.088 49.5912 28.3547 49.5912C28.4153 49.5912 28.485 49.5988 28.5638 49.614C28.6426 49.6261 28.6971 49.6397 28.7274 49.6549ZM29.1911 52.196V52.0915C29.1911 51.7369 29.2426 51.4081 29.3457 51.105C29.4487 50.7989 29.5972 50.5338 29.7911 50.3095C29.9851 50.0822 30.22 49.9064 30.4958 49.7822C30.7715 49.6549 31.0807 49.5912 31.4231 49.5912C31.7686 49.5912 32.0792 49.6549 32.355 49.7822C32.6338 49.9064 32.8702 50.0822 33.0642 50.3095C33.2612 50.5338 33.4112 50.7989 33.5142 51.105C33.6173 51.4081 33.6688 51.7369 33.6688 52.0915V52.196C33.6688 52.5506 33.6173 52.8794 33.5142 53.1825C33.4112 53.4856 33.2612 53.7507 33.0642 53.978C32.8702 54.2023 32.6354 54.3781 32.3596 54.5054C32.0868 54.6296 31.7777 54.6917 31.4322 54.6917C31.0867 54.6917 30.7761 54.6296 30.5003 54.5054C30.2245 54.3781 29.9881 54.2023 29.7911 53.978C29.5972 53.7507 29.4487 53.4856 29.3457 53.1825C29.2426 52.8794 29.1911 52.5506 29.1911 52.196ZM30.0321 52.0915V52.196C30.0321 52.4415 30.0609 52.6734 30.1185 52.8916C30.176 53.1067 30.2624 53.2977 30.3776 53.4643C30.4958 53.631 30.6427 53.7629 30.8185 53.8598C30.9943 53.9538 31.1989 54.0008 31.4322 54.0008C31.6625 54.0008 31.8641 53.9538 32.0368 53.8598C32.2126 53.7629 32.3581 53.631 32.4732 53.4643C32.5884 53.2977 32.6748 53.1067 32.7323 52.8916C32.7929 52.6734 32.8233 52.4415 32.8233 52.196V52.0915C32.8233 51.849 32.7929 51.6202 32.7323 51.4051C32.6748 51.1869 32.5869 50.9944 32.4687 50.8277C32.3535 50.658 32.208 50.5247 32.0323 50.4277C31.8595 50.3307 31.6565 50.2822 31.4231 50.2822C31.1928 50.2822 30.9897 50.3307 30.814 50.4277C30.6412 50.5247 30.4958 50.658 30.3776 50.8277C30.2624 50.9944 30.176 51.1869 30.1185 51.4051C30.0609 51.6202 30.0321 51.849 30.0321 52.0915ZM37.5873 53.2961C37.5873 53.1749 37.5601 53.0628 37.5055 52.9598C37.454 52.8537 37.3464 52.7582 37.1828 52.6734C37.0221 52.5855 36.7797 52.5097 36.4554 52.4461C36.1827 52.3885 35.9357 52.3203 35.7144 52.2415C35.4962 52.1627 35.3099 52.0672 35.1553 51.9551C35.0038 51.843 34.8871 51.7111 34.8053 51.5596C34.7234 51.4081 34.6825 51.2308 34.6825 51.0277C34.6825 50.8338 34.7249 50.6504 34.8098 50.4777C34.8977 50.305 35.0204 50.1519 35.178 50.0186C35.3386 49.8852 35.5311 49.7807 35.7553 49.7049C35.9796 49.6291 36.2296 49.5912 36.5054 49.5912C36.8994 49.5912 37.2358 49.661 37.5146 49.8004C37.7934 49.9398 38.0071 50.1261 38.1556 50.3595C38.3041 50.5898 38.3783 50.8459 38.3783 51.1278H37.5373C37.5373 50.9914 37.4964 50.8596 37.4146 50.7323C37.3358 50.602 37.2191 50.4944 37.0646 50.4095C36.913 50.3247 36.7267 50.2822 36.5054 50.2822C36.2721 50.2822 36.0827 50.3186 35.9372 50.3913C35.7947 50.461 35.6902 50.5504 35.6235 50.6595C35.5599 50.7686 35.5281 50.8838 35.5281 51.005C35.5281 51.0959 35.5432 51.1778 35.5735 51.2505C35.6069 51.3202 35.6644 51.3854 35.7463 51.446C35.8281 51.5036 35.9432 51.5581 36.0917 51.6096C36.2402 51.6611 36.4297 51.7127 36.66 51.7642C37.063 51.8551 37.3949 51.9642 37.6555 52.0915C37.9162 52.2188 38.1101 52.3748 38.2374 52.5597C38.3647 52.7446 38.4283 52.9688 38.4283 53.2325C38.4283 53.4477 38.3829 53.6447 38.292 53.8235C38.2041 54.0023 38.0753 54.1568 37.9056 54.2871C37.7389 54.4144 37.5389 54.5144 37.3055 54.5872C37.0752 54.6569 36.8161 54.6917 36.5282 54.6917C36.0948 54.6917 35.7281 54.6145 35.428 54.4599C35.128 54.3053 34.9007 54.1053 34.7462 53.8598C34.5916 53.6144 34.5143 53.3552 34.5143 53.0825H35.3599C35.372 53.3128 35.4387 53.4962 35.5599 53.6325C35.6811 53.7659 35.8296 53.8614 36.0054 53.9189C36.1811 53.9735 36.3554 54.0008 36.5282 54.0008C36.7585 54.0008 36.9509 53.9705 37.1055 53.9098C37.2631 53.8492 37.3828 53.7659 37.4646 53.6598C37.5464 53.5537 37.5873 53.4325 37.5873 53.2961ZM42.3969 53.2961C42.3969 53.1749 42.3696 53.0628 42.3151 52.9598C42.2635 52.8537 42.156 52.7582 41.9923 52.6734C41.8317 52.5855 41.5892 52.5097 41.265 52.4461C40.9922 52.3885 40.7452 52.3203 40.524 52.2415C40.3058 52.1627 40.1194 52.0672 39.9648 51.9551C39.8133 51.843 39.6966 51.7111 39.6148 51.5596C39.533 51.4081 39.4921 51.2308 39.4921 51.0277C39.4921 50.8338 39.5345 50.6504 39.6194 50.4777C39.7072 50.305 39.83 50.1519 39.9876 50.0186C40.1482 49.8852 40.3406 49.7807 40.5649 49.7049C40.7892 49.6291 41.0392 49.5912 41.315 49.5912C41.7089 49.5912 42.0453 49.661 42.3242 49.8004C42.603 49.9398 42.8166 50.1261 42.9651 50.3595C43.1136 50.5898 43.1879 50.8459 43.1879 51.1278H42.3469C42.3469 50.9914 42.306 50.8596 42.2241 50.7323C42.1453 50.602 42.0287 50.4944 41.8741 50.4095C41.7226 50.3247 41.5362 50.2822 41.315 50.2822C41.0816 50.2822 40.8922 50.3186 40.7467 50.3913C40.6043 50.461 40.4997 50.5504 40.4331 50.6595C40.3694 50.7686 40.3376 50.8838 40.3376 51.005C40.3376 51.0959 40.3528 51.1778 40.3831 51.2505C40.4164 51.3202 40.474 51.3854 40.5558 51.446C40.6376 51.5036 40.7528 51.5581 40.9013 51.6096C41.0498 51.6611 41.2392 51.7127 41.4695 51.7642C41.8726 51.8551 42.2044 51.9642 42.4651 52.0915C42.7257 52.2188 42.9197 52.3748 43.047 52.5597C43.1742 52.7446 43.2379 52.9688 43.2379 53.2325C43.2379 53.4477 43.1924 53.6447 43.1015 53.8235C43.0136 54.0023 42.8848 54.1568 42.7151 54.2871C42.5484 54.4144 42.3484 54.5144 42.115 54.5872C41.8847 54.6569 41.6256 54.6917 41.3377 54.6917C40.9043 54.6917 40.5376 54.6145 40.2376 54.4599C39.9376 54.3053 39.7103 54.1053 39.5557 53.8598C39.4012 53.6144 39.3239 53.3552 39.3239 53.0825H40.1694C40.1815 53.3128 40.2482 53.4962 40.3694 53.6325C40.4906 53.7659 40.6391 53.8614 40.8149 53.9189C40.9907 53.9735 41.165 54.0008 41.3377 54.0008C41.568 54.0008 41.7605 53.9705 41.915 53.9098C42.0726 53.8492 42.1923 53.7659 42.2741 53.6598C42.356 53.5537 42.3969 53.4325 42.3969 53.2961ZM49.5157 53.2961C49.5157 53.1749 49.4885 53.0628 49.4339 52.9598C49.3824 52.8537 49.2748 52.7582 49.1112 52.6734C48.9505 52.5855 48.7081 52.5097 48.3838 52.4461C48.1111 52.3885 47.8641 52.3203 47.6428 52.2415C47.4246 52.1627 47.2383 52.0672 47.0837 51.9551C46.9322 51.843 46.8155 51.7111 46.7337 51.5596C46.6518 51.4081 46.6109 51.2308 46.6109 51.0277C46.6109 50.8338 46.6534 50.6504 46.7382 50.4777C46.8261 50.305 46.9488 50.1519 47.1064 50.0186C47.267 49.8852 47.4595 49.7807 47.6838 49.7049C47.908 49.6291 48.158 49.5912 48.4338 49.5912C48.8278 49.5912 49.1642 49.661 49.443 49.8004C49.7218 49.9398 49.9355 50.1261 50.084 50.3595C50.2325 50.5898 50.3067 50.8459 50.3067 51.1278H49.4657C49.4657 50.9914 49.4248 50.8596 49.343 50.7323C49.2642 50.602 49.1475 50.4944 48.993 50.4095C48.8414 50.3247 48.6551 50.2822 48.4338 50.2822C48.2005 50.2822 48.0111 50.3186 47.8656 50.3913C47.7231 50.461 47.6186 50.5504 47.5519 50.6595C47.4883 50.7686 47.4565 50.8838 47.4565 51.005C47.4565 51.0959 47.4716 51.1778 47.5019 51.2505C47.5353 51.3202 47.5928 51.3854 47.6747 51.446C47.7565 51.5036 47.8716 51.5581 48.0201 51.6096C48.1686 51.6611 48.3581 51.7127 48.5884 51.7642C48.9915 51.8551 49.3233 51.9642 49.5839 52.0915C49.8446 52.2188 50.0385 52.3748 50.1658 52.5597C50.2931 52.7446 50.3567 52.9688 50.3567 53.2325C50.3567 53.4477 50.3113 53.6447 50.2204 53.8235C50.1325 54.0023 50.0037 54.1568 49.834 54.2871C49.6673 54.4144 49.4673 54.5144 49.2339 54.5872C49.0036 54.6569 48.7445 54.6917 48.4566 54.6917C48.0232 54.6917 47.6565 54.6145 47.3564 54.4599C47.0564 54.3053 46.8291 54.1053 46.6746 53.8598C46.52 53.6144 46.4427 53.3552 46.4427 53.0825H47.2883C47.3004 53.3128 47.3671 53.4962 47.4883 53.6325C47.6095 53.7659 47.758 53.8614 47.9338 53.9189C48.1095 53.9735 48.2838 54.0008 48.4566 54.0008C48.6869 54.0008 48.8793 53.9705 49.0339 53.9098C49.1915 53.8492 49.3112 53.7659 49.393 53.6598C49.4748 53.5537 49.5157 53.4325 49.5157 53.2961ZM54.3617 53.7598V51.2278C54.3617 51.0338 54.3223 50.8656 54.2435 50.7232C54.1677 50.5777 54.0525 50.4656 53.898 50.3868C53.7434 50.308 53.5525 50.2686 53.3252 50.2686C53.1131 50.2686 52.9267 50.305 52.7661 50.3777C52.6085 50.4504 52.4842 50.5459 52.3933 50.6641C52.3054 50.7823 52.2615 50.9096 52.2615 51.0459H51.4205C51.4205 50.8702 51.4659 50.6959 51.5568 50.5232C51.6478 50.3504 51.7781 50.1943 51.9478 50.0549C52.1205 49.9125 52.3266 49.8004 52.566 49.7185C52.8085 49.6337 53.0782 49.5912 53.3752 49.5912C53.7328 49.5912 54.048 49.6519 54.3207 49.7731C54.5965 49.8943 54.8117 50.0777 54.9663 50.3231C55.1238 50.5656 55.2026 50.8702 55.2026 51.2369V53.528C55.2026 53.6916 55.2163 53.8659 55.2436 54.0508C55.2739 54.2356 55.3178 54.3947 55.3754 54.5281V54.6008H54.498C54.4556 54.5038 54.4223 54.375 54.398 54.2144C54.3738 54.0508 54.3617 53.8992 54.3617 53.7598ZM54.5071 51.6187L54.5162 52.2097H53.6661C53.4267 52.2097 53.2131 52.2294 53.0252 52.2688C52.8373 52.3051 52.6797 52.3612 52.5524 52.437C52.4251 52.5127 52.3281 52.6082 52.2615 52.7234C52.1948 52.8355 52.1614 52.9673 52.1614 53.1189C52.1614 53.2734 52.1963 53.4143 52.266 53.5416C52.3357 53.6689 52.4403 53.7704 52.5797 53.8462C52.7221 53.9189 52.8964 53.9553 53.1024 53.9553C53.36 53.9553 53.5873 53.9007 53.7843 53.7916C53.9813 53.6825 54.1374 53.5492 54.2526 53.3916C54.3707 53.234 54.4344 53.081 54.4435 52.9325L54.8026 53.3371C54.7814 53.4643 54.7238 53.6053 54.6299 53.7598C54.5359 53.9144 54.4101 54.0629 54.2526 54.2053C54.098 54.3447 53.9131 54.4614 53.698 54.5554C53.4858 54.6463 53.2464 54.6917 52.9797 54.6917C52.6463 54.6917 52.3539 54.6266 52.1024 54.4963C51.8538 54.3659 51.6599 54.1917 51.5205 53.9735C51.3841 53.7522 51.3159 53.5053 51.3159 53.2325C51.3159 52.9688 51.3674 52.737 51.4705 52.537C51.5735 52.3339 51.722 52.1657 51.916 52.0324C52.1099 51.896 52.3433 51.793 52.616 51.7233C52.8888 51.6536 53.1934 51.6187 53.5298 51.6187H54.5071ZM57.4392 47.6183V54.6008H56.5937V47.6183H57.4392ZM60.8304 54.6917C60.488 54.6917 60.1774 54.6342 59.8985 54.519C59.6228 54.4008 59.3849 54.2356 59.1848 54.0235C58.9878 53.8113 58.8363 53.5598 58.7302 53.2689C58.6242 52.9779 58.5711 52.6597 58.5711 52.3142V52.1233C58.5711 51.7233 58.6302 51.3672 58.7484 51.055C58.8666 50.7398 59.0272 50.4732 59.2303 50.2549C59.4333 50.0367 59.6637 49.8716 59.9213 49.7594C60.1789 49.6473 60.4456 49.5912 60.7213 49.5912C61.0729 49.5912 61.376 49.6519 61.6305 49.7731C61.8881 49.8943 62.0988 50.064 62.2624 50.2822C62.4261 50.4974 62.5473 50.752 62.6261 51.0459C62.7049 51.3369 62.7443 51.6551 62.7443 52.0006V52.3779H59.0712V51.6914H61.9033V51.6278C61.8912 51.4096 61.8457 51.1975 61.7669 50.9914C61.6911 50.7853 61.5699 50.6156 61.4032 50.4822C61.2365 50.3489 61.0093 50.2822 60.7213 50.2822C60.5304 50.2822 60.3546 50.3231 60.194 50.405C60.0334 50.4838 59.8955 50.602 59.7803 50.7595C59.6652 50.9171 59.5758 51.1096 59.5121 51.3369C59.4485 51.5642 59.4167 51.8263 59.4167 52.1233V52.3142C59.4167 52.5476 59.4485 52.7673 59.5121 52.9734C59.5788 53.1764 59.6743 53.3552 59.7985 53.5098C59.9258 53.6644 60.0789 53.7856 60.2577 53.8735C60.4395 53.9614 60.6456 54.0053 60.8759 54.0053C61.1729 54.0053 61.4244 53.9447 61.6305 53.8235C61.8366 53.7022 62.0169 53.5401 62.1715 53.3371L62.6806 53.7416C62.5746 53.9023 62.4397 54.0553 62.276 54.2008C62.1124 54.3462 61.9109 54.4644 61.6714 54.5554C61.4351 54.6463 61.1547 54.6917 60.8304 54.6917ZM66.5901 53.2961C66.5901 53.1749 66.5628 53.0628 66.5083 52.9598C66.4567 52.8537 66.3492 52.7582 66.1855 52.6734C66.0249 52.5855 65.7824 52.5097 65.4582 52.4461C65.1854 52.3885 64.9384 52.3203 64.7172 52.2415C64.499 52.1627 64.3126 52.0672 64.158 51.9551C64.0065 51.843 63.8898 51.7111 63.808 51.5596C63.7262 51.4081 63.6853 51.2308 63.6853 51.0277C63.6853 50.8338 63.7277 50.6504 63.8125 50.4777C63.9004 50.305 64.0232 50.1519 64.1808 50.0186C64.3414 49.8852 64.5338 49.7807 64.7581 49.7049C64.9824 49.6291 65.2324 49.5912 65.5082 49.5912C65.9021 49.5912 66.2385 49.661 66.5173 49.8004C66.7962 49.9398 67.0098 50.1261 67.1583 50.3595C67.3068 50.5898 67.3811 50.8459 67.3811 51.1278H66.5401C66.5401 50.9914 66.4992 50.8596 66.4173 50.7323C66.3385 50.602 66.2219 50.4944 66.0673 50.4095C65.9158 50.3247 65.7294 50.2822 65.5082 50.2822C65.2748 50.2822 65.0854 50.3186 64.9399 50.3913C64.7975 50.461 64.6929 50.5504 64.6263 50.6595C64.5626 50.7686 64.5308 50.8838 64.5308 51.005C64.5308 51.0959 64.5459 51.1778 64.5763 51.2505C64.6096 51.3202 64.6672 51.3854 64.749 51.446C64.8308 51.5036 64.946 51.5581 65.0945 51.6096C65.243 51.6611 65.4324 51.7127 65.6627 51.7642C66.0658 51.8551 66.3976 51.9642 66.6583 52.0915C66.9189 52.2188 67.1129 52.3748 67.2401 52.5597C67.3674 52.7446 67.4311 52.9688 67.4311 53.2325C67.4311 53.4477 67.3856 53.6447 67.2947 53.8235C67.2068 54.0023 67.078 54.1568 66.9083 54.2871C66.7416 54.4144 66.5416 54.5144 66.3082 54.5872C66.0779 54.6569 65.8188 54.6917 65.5309 54.6917C65.0975 54.6917 64.7308 54.6145 64.4308 54.4599C64.1308 54.3053 63.9035 54.1053 63.7489 53.8598C63.5943 53.6144 63.5171 53.3552 63.5171 53.0825H64.3626C64.3747 53.3128 64.4414 53.4962 64.5626 53.6325C64.6838 53.7659 64.8323 53.8614 65.0081 53.9189C65.1839 53.9735 65.3581 54.0008 65.5309 54.0008C65.7612 54.0008 65.9537 53.9705 66.1082 53.9098C66.2658 53.8492 66.3855 53.7659 66.4673 53.6598C66.5492 53.5537 66.5901 53.4325 66.5901 53.2961Z" fill="#181716"/>
<path d="M118.218 45.5357V47.1203H117.438V45.5357H118.218ZM118.124 54.0196V55.4068H117.35V54.0196H118.124ZM119.163 52.3779C119.163 52.1701 119.116 51.9831 119.023 51.8168C118.929 51.6506 118.775 51.4982 118.561 51.3597C118.346 51.2211 118.058 51.093 117.698 50.9752C117.262 50.8401 116.884 50.6756 116.566 50.4817C116.25 50.2877 116.006 50.047 115.833 49.7595C115.663 49.472 115.578 49.1239 115.578 48.7153C115.578 48.2892 115.67 47.9221 115.854 47.6138C116.037 47.3056 116.297 47.0683 116.633 46.9021C116.969 46.7358 117.364 46.6527 117.818 46.6527C118.171 46.6527 118.486 46.7064 118.763 46.8138C119.04 46.9177 119.274 47.0735 119.465 47.2814C119.658 47.4892 119.806 47.7437 119.906 48.0451C120.01 48.3464 120.062 48.6945 120.062 49.0893H119.106C119.106 48.8573 119.078 48.6442 119.023 48.4503C118.967 48.2563 118.884 48.0884 118.774 47.9463C118.663 47.8009 118.528 47.69 118.368 47.6138C118.209 47.5342 118.025 47.4944 117.818 47.4944C117.527 47.4944 117.286 47.5446 117.095 47.645C116.908 47.7455 116.77 47.8875 116.68 48.071C116.59 48.2511 116.545 48.4607 116.545 48.6997C116.545 48.9213 116.59 49.1153 116.68 49.2815C116.77 49.4478 116.922 49.5985 117.137 49.7335C117.355 49.8651 117.655 49.995 118.036 50.1232C118.483 50.2652 118.862 50.4332 119.174 50.6271C119.485 50.8176 119.723 51.0531 119.885 51.3337C120.048 51.6108 120.13 51.9554 120.13 52.3675C120.13 52.8143 120.029 53.1919 119.828 53.5001C119.627 53.8049 119.345 54.037 118.981 54.1963C118.618 54.3556 118.192 54.4353 117.703 54.4353C117.409 54.4353 117.118 54.3954 116.83 54.3158C116.543 54.2361 116.283 54.1062 116.051 53.9261C115.819 53.7426 115.634 53.5019 115.495 53.204C115.357 52.9027 115.287 52.5338 115.287 52.0974H116.254C116.254 52.3918 116.295 52.636 116.379 52.8299C116.465 53.0204 116.579 53.1728 116.721 53.2871C116.863 53.3979 117.019 53.4776 117.189 53.5261C117.362 53.5711 117.534 53.5936 117.703 53.5936C118.015 53.5936 118.278 53.5451 118.493 53.4482C118.711 53.3477 118.877 53.2057 118.992 53.0222C119.106 52.8386 119.163 52.6238 119.163 52.3779ZM126.218 46.7618V47.3021L123.086 54.3262H122.073L125.2 47.5515H121.106V46.7618H126.218ZM128.53 50.7258L127.761 50.5284L128.141 46.7618H132.022V47.6502H128.956L128.728 49.7076C128.866 49.6279 129.041 49.5534 129.252 49.4842C129.467 49.4149 129.713 49.3803 129.99 49.3803C130.34 49.3803 130.653 49.4409 130.931 49.5621C131.208 49.6798 131.443 49.8496 131.637 50.0712C131.835 50.2929 131.985 50.5596 132.089 50.8713C132.193 51.183 132.245 51.5311 132.245 51.9156C132.245 52.2792 132.195 52.6135 132.094 52.9182C131.997 53.223 131.85 53.4897 131.653 53.7183C131.455 53.9435 131.206 54.1184 130.905 54.243C130.607 54.3677 130.255 54.4301 129.85 54.4301C129.545 54.4301 129.256 54.3885 128.982 54.3054C128.712 54.2188 128.47 54.0889 128.255 53.9157C128.044 53.7391 127.87 53.5209 127.735 53.2611C127.604 52.9979 127.521 52.6897 127.486 52.3364H128.4C128.442 52.6204 128.525 52.8594 128.65 53.0533C128.774 53.2473 128.937 53.3945 129.138 53.4949C129.342 53.5919 129.58 53.6404 129.85 53.6404C130.078 53.6404 130.281 53.6006 130.458 53.5209C130.634 53.4412 130.783 53.3269 130.905 53.178C131.026 53.0291 131.118 52.849 131.18 52.6377C131.246 52.4264 131.279 52.1892 131.279 51.9259C131.279 51.687 131.246 51.4653 131.18 51.2609C131.114 51.0566 131.015 50.8782 130.884 50.7258C130.756 50.5734 130.598 50.4557 130.411 50.3726C130.224 50.286 130.009 50.2427 129.767 50.2427C129.445 50.2427 129.2 50.286 129.034 50.3726C128.871 50.4591 128.703 50.5769 128.53 50.7258ZM138.412 51.7805V52.5702H132.946V52.0039L136.334 46.7618H137.118L136.276 48.2788L134.037 51.7805H138.412ZM137.357 46.7618V54.3262H136.396V46.7618H137.357ZM140.261 53.1832V53.9573C140.261 54.2725 140.182 54.605 140.022 54.9548C139.863 55.3081 139.64 55.6025 139.352 55.838L138.807 55.4587C138.917 55.3064 139.011 55.1505 139.087 54.9912C139.163 54.8353 139.22 54.6725 139.259 54.5028C139.3 54.3366 139.321 54.1599 139.321 53.9729V53.1832H140.261ZM145.072 46.7514H145.155V47.5671H145.072C144.563 47.5671 144.137 47.6502 143.794 47.8165C143.451 47.9793 143.179 48.1992 142.978 48.4763C142.778 48.7499 142.632 49.0581 142.542 49.401C142.455 49.7439 142.412 50.092 142.412 50.4453V51.5571C142.412 51.893 142.452 52.1909 142.532 52.4507C142.611 52.707 142.72 52.9234 142.859 53.1001C142.997 53.2767 143.153 53.4101 143.327 53.5001C143.503 53.5902 143.687 53.6352 143.877 53.6352C144.099 53.6352 144.296 53.5936 144.469 53.5105C144.643 53.4239 144.788 53.3044 144.906 53.152C145.027 52.9962 145.119 52.8126 145.181 52.6013C145.244 52.3901 145.275 52.158 145.275 51.9052C145.275 51.68 145.247 51.4636 145.192 51.2558C145.136 51.0445 145.051 50.8574 144.937 50.6947C144.823 50.5284 144.679 50.3985 144.506 50.305C144.336 50.208 144.134 50.1595 143.898 50.1595C143.631 50.1595 143.382 50.2254 143.15 50.357C142.921 50.4851 142.733 50.6548 142.584 50.8661C142.438 51.0739 142.355 51.3008 142.334 51.5467L141.825 51.5415C141.874 51.1536 141.964 50.8228 142.095 50.5492C142.23 50.2721 142.397 50.047 142.594 49.8738C142.795 49.6972 143.018 49.569 143.264 49.4894C143.514 49.4062 143.777 49.3647 144.054 49.3647C144.431 49.3647 144.757 49.4357 145.031 49.5777C145.304 49.7197 145.529 49.9102 145.706 50.1492C145.883 50.3847 146.012 50.6514 146.096 50.9492C146.182 51.2436 146.225 51.5467 146.225 51.8584C146.225 52.2151 146.175 52.5494 146.075 52.8611C145.974 53.1728 145.824 53.4464 145.623 53.682C145.425 53.9175 145.181 54.101 144.89 54.2327C144.599 54.3643 144.262 54.4301 143.877 54.4301C143.469 54.4301 143.112 54.347 142.807 54.1807C142.502 54.011 142.249 53.7859 142.048 53.5053C141.848 53.2248 141.697 52.9131 141.596 52.5702C141.496 52.2273 141.446 51.8792 141.446 51.5259V51.0739C141.446 50.5405 141.499 50.0175 141.607 49.5049C141.714 48.9923 141.9 48.5282 142.163 48.1126C142.429 47.697 142.798 47.3662 143.269 47.1203C143.74 46.8744 144.341 46.7514 145.072 46.7514ZM152.481 51.7805V52.5702H147.015V52.0039L150.402 46.7618H151.187L150.345 48.2788L148.106 51.7805H152.481ZM151.426 46.7618V54.3262H150.465V46.7618H151.426ZM154.569 50.7258L153.8 50.5284L154.179 46.7618H158.06V47.6502H154.995L154.767 49.7076C154.905 49.6279 155.08 49.5534 155.291 49.4842C155.506 49.4149 155.752 49.3803 156.029 49.3803C156.379 49.3803 156.692 49.4409 156.969 49.5621C157.246 49.6798 157.482 49.8496 157.676 50.0712C157.873 50.2929 158.024 50.5596 158.128 50.8713C158.232 51.183 158.284 51.5311 158.284 51.9156C158.284 52.2792 158.234 52.6135 158.133 52.9182C158.036 53.223 157.889 53.4897 157.691 53.7183C157.494 53.9435 157.245 54.1184 156.943 54.243C156.646 54.3677 156.294 54.4301 155.889 54.4301C155.584 54.4301 155.295 54.3885 155.021 54.3054C154.751 54.2188 154.509 54.0889 154.294 53.9157C154.082 53.7391 153.909 53.5209 153.774 53.2611C153.643 52.9979 153.56 52.6897 153.525 52.3364H154.439C154.481 52.6204 154.564 52.8594 154.689 53.0533C154.813 53.2473 154.976 53.3945 155.177 53.4949C155.381 53.5919 155.619 53.6404 155.889 53.6404C156.117 53.6404 156.32 53.6006 156.497 53.5209C156.673 53.4412 156.822 53.3269 156.943 53.178C157.065 53.0291 157.156 52.849 157.219 52.6377C157.285 52.4264 157.317 52.1892 157.317 51.9259C157.317 51.687 157.285 51.4653 157.219 51.2609C157.153 51.0566 157.054 50.8782 156.923 50.7258C156.794 50.5734 156.637 50.4557 156.45 50.3726C156.263 50.286 156.048 50.2427 155.806 50.2427C155.483 50.2427 155.239 50.286 155.073 50.3726C154.91 50.4591 154.742 50.5769 154.569 50.7258Z" fill="#181716"/>
<line opacity="0.3" x1="20.7207" y1="38.8902" x2="159.136" y2="38.8902" stroke="#181716" stroke-width="0.664998"/>
<line opacity="0.3" x1="20.7207" y1="174.115" x2="159.136" y2="174.115" stroke="#181716" stroke-width="0.664998"/>
<path opacity="0.5" d="M25.219 95.871H26.0918C26.0464 96.2892 25.9267 96.6635 25.7327 96.9939C25.5388 97.3242 25.2645 97.5863 24.9099 97.7803C24.5553 97.9712 24.1129 98.0667 23.5825 98.0667C23.1946 98.0667 22.8415 97.994 22.5233 97.8485C22.2081 97.703 21.9369 97.4969 21.7096 97.2302C21.4823 96.9605 21.3065 96.6378 21.1823 96.262C21.0611 95.8831 21.0004 95.4619 21.0004 94.9982V94.3391C21.0004 93.8754 21.0611 93.4556 21.1823 93.0799C21.3065 92.701 21.4838 92.3768 21.7142 92.107C21.9475 91.8373 22.2278 91.6297 22.5551 91.4842C22.8824 91.3388 23.2507 91.266 23.6598 91.266C24.1598 91.266 24.5826 91.36 24.9281 91.5479C25.2736 91.7358 25.5418 91.9964 25.7327 92.3298C25.9267 92.6601 26.0464 93.0435 26.0918 93.4799H25.219C25.1766 93.1708 25.0978 92.9056 24.9826 92.6844C24.8675 92.4601 24.7038 92.2874 24.4917 92.1661C24.2795 92.0449 24.0022 91.9843 23.6598 91.9843C23.3658 91.9843 23.1067 92.0404 22.8824 92.1525C22.6612 92.2646 22.4748 92.4237 22.3233 92.6298C22.1748 92.8359 22.0627 93.0829 21.9869 93.3708C21.9111 93.6587 21.8733 93.9784 21.8733 94.33V94.9982C21.8733 95.3225 21.9066 95.6271 21.9733 95.9119C22.043 96.1968 22.1475 96.4468 22.2869 96.662C22.4263 96.8772 22.6036 97.0469 22.8188 97.1711C23.034 97.2924 23.2885 97.353 23.5825 97.353C23.9553 97.353 24.2523 97.2939 24.4735 97.1757C24.6947 97.0575 24.8614 96.8878 24.9736 96.6666C25.0887 96.4453 25.1705 96.1801 25.219 95.871ZM32.3833 94.4573V94.8755C32.3833 95.3725 32.3212 95.818 32.197 96.212C32.0727 96.6059 31.8939 96.9408 31.6605 97.2166C31.4272 97.4924 31.1469 97.703 30.8196 97.8485C30.4953 97.994 30.1316 98.0667 29.7285 98.0667C29.3376 98.0667 28.9785 97.994 28.6512 97.8485C28.3269 97.703 28.0451 97.4924 27.8056 97.2166C27.5693 96.9408 27.3859 96.6059 27.2556 96.212C27.1253 95.818 27.0601 95.3725 27.0601 94.8755V94.4573C27.0601 93.9602 27.1238 93.5163 27.251 93.1253C27.3814 92.7313 27.5647 92.3965 27.8011 92.1207C28.0375 91.8419 28.3178 91.6297 28.6421 91.4842C28.9694 91.3388 29.3285 91.266 29.7195 91.266C30.1225 91.266 30.4862 91.3388 30.8105 91.4842C31.1378 91.6297 31.4181 91.8419 31.6515 92.1207C31.8878 92.3965 32.0682 92.7313 32.1924 93.1253C32.3197 93.5163 32.3833 93.9602 32.3833 94.4573ZM31.5151 94.8755V94.4482C31.5151 94.0542 31.4742 93.7057 31.3923 93.4026C31.3135 93.0996 31.1969 92.845 31.0423 92.6389C30.8877 92.4328 30.6983 92.2767 30.4741 92.1707C30.2528 92.0646 30.0013 92.0116 29.7195 92.0116C29.4467 92.0116 29.1997 92.0646 28.9785 92.1707C28.7603 92.2767 28.5724 92.4328 28.4148 92.6389C28.2602 92.845 28.1405 93.0996 28.0557 93.4026C27.9708 93.7057 27.9284 94.0542 27.9284 94.4482V94.8755C27.9284 95.2725 27.9708 95.624 28.0557 95.9301C28.1405 96.2332 28.2617 96.4893 28.4193 96.6984C28.58 96.9045 28.7694 97.0605 28.9876 97.1666C29.2088 97.2727 29.4558 97.3257 29.7285 97.3257C30.0134 97.3257 30.2665 97.2727 30.4877 97.1666C30.7089 97.0605 30.8953 96.9045 31.0469 96.6984C31.2014 96.4893 31.3181 96.2332 31.3969 95.9301C31.4757 95.624 31.5151 95.2725 31.5151 94.8755ZM38.5885 94.68V97.103C38.5067 97.2242 38.3763 97.3606 38.1975 97.5121C38.0187 97.6606 37.7717 97.7909 37.4566 97.903C37.1444 98.0121 36.7413 98.0667 36.2473 98.0667C35.8443 98.0667 35.473 97.997 35.1336 97.8576C34.7972 97.7151 34.5048 97.5091 34.2562 97.2393C34.0108 96.9666 33.8198 96.6362 33.6835 96.2483C33.5501 95.8574 33.4834 95.4149 33.4834 94.9209V94.4072C33.4834 93.9133 33.541 93.4723 33.6562 93.0844C33.7744 92.6965 33.9471 92.3677 34.1744 92.0979C34.4017 91.8252 34.6805 91.6191 35.0109 91.4797C35.3412 91.3373 35.72 91.266 36.1473 91.266C36.6534 91.266 37.0762 91.3539 37.4156 91.5297C37.7581 91.7024 38.0248 91.9419 38.2157 92.248C38.4097 92.554 38.5339 92.9026 38.5885 93.2935H37.7111C37.6717 93.0541 37.5929 92.8359 37.4747 92.6389C37.3596 92.4419 37.1944 92.2843 36.9792 92.1661C36.7641 92.0449 36.4868 91.9843 36.1473 91.9843C35.8412 91.9843 35.5761 92.0404 35.3518 92.1525C35.1275 92.2646 34.9427 92.4252 34.7972 92.6344C34.6517 92.8435 34.5426 93.0965 34.4699 93.3935C34.4002 93.6905 34.3653 94.0254 34.3653 94.3982V94.9209C34.3653 95.3028 34.4093 95.6437 34.4972 95.9438C34.5881 96.2438 34.7169 96.4999 34.8836 96.712C35.0503 96.9211 35.2488 97.0802 35.4791 97.1893C35.7124 97.2984 35.97 97.353 36.2519 97.353C36.564 97.353 36.8171 97.3272 37.0111 97.2757C37.205 97.2212 37.3565 97.1575 37.4656 97.0848C37.5747 97.009 37.6581 96.9378 37.7157 96.8711V95.3892H36.1837V94.68H38.5885ZM43.5708 96.3029C43.5708 96.1483 43.5465 96.0119 43.498 95.8938C43.4526 95.7725 43.3707 95.6634 43.2526 95.5665C43.1374 95.4695 42.9768 95.377 42.7707 95.2892C42.5676 95.2013 42.31 95.1119 41.9979 95.0209C41.6706 94.924 41.3751 94.8164 41.1114 94.6982C40.8478 94.577 40.622 94.4391 40.4341 94.2845C40.2462 94.13 40.1023 93.9527 40.0022 93.7526C39.9022 93.5526 39.8522 93.3238 39.8522 93.0662C39.8522 92.8086 39.9053 92.5707 40.0113 92.3525C40.1174 92.1343 40.2689 91.9449 40.4659 91.7843C40.6659 91.6206 40.9038 91.4933 41.1796 91.4024C41.4554 91.3115 41.763 91.266 42.1024 91.266C42.5995 91.266 43.0207 91.3615 43.3662 91.5524C43.7147 91.7403 43.9799 91.9873 44.1617 92.2934C44.3436 92.5965 44.4345 92.9207 44.4345 93.2662H43.5617C43.5617 93.0177 43.5086 92.798 43.4026 92.6071C43.2965 92.4131 43.1359 92.2616 42.9207 92.1525C42.7055 92.0404 42.4328 91.9843 42.1024 91.9843C41.7903 91.9843 41.5327 92.0313 41.3296 92.1252C41.1266 92.2192 40.9751 92.3464 40.8751 92.5071C40.7781 92.6677 40.7296 92.851 40.7296 93.0571C40.7296 93.1965 40.7584 93.3238 40.816 93.439C40.8766 93.5511 40.969 93.6557 41.0933 93.7526C41.2205 93.8496 41.3812 93.939 41.5751 94.0208C41.7721 94.1027 42.007 94.1815 42.2797 94.2572C42.6555 94.3633 42.9798 94.4815 43.2526 94.6118C43.5253 94.7421 43.7496 94.8891 43.9253 95.0528C44.1041 95.2134 44.236 95.3967 44.3208 95.6028C44.4087 95.8059 44.4527 96.0362 44.4527 96.2938C44.4527 96.5635 44.3981 96.8075 44.289 97.0257C44.1799 97.2439 44.0238 97.4303 43.8208 97.5848C43.6177 97.7394 43.3738 97.8591 43.0889 97.9439C42.8071 98.0258 42.4919 98.0667 42.1434 98.0667C41.8373 98.0667 41.5357 98.0243 41.2387 97.9394C40.9448 97.8545 40.6766 97.7273 40.4341 97.5575C40.1947 97.3878 40.0022 97.1787 39.8568 96.9302C39.7143 96.6787 39.6431 96.3877 39.6431 96.0574H40.5159C40.5159 96.2847 40.5599 96.4802 40.6478 96.6438C40.7356 96.8044 40.8554 96.9378 41.0069 97.0439C41.1614 97.1499 41.3357 97.2287 41.5297 97.2802C41.7267 97.3287 41.9312 97.353 42.1434 97.353C42.4494 97.353 42.7086 97.3106 42.9207 97.2257C43.1328 97.1408 43.2935 97.0196 43.4026 96.862C43.5147 96.7044 43.5708 96.5181 43.5708 96.3029Z" fill="#181716"/>
<path d="M114.486 94.0875V94.8772H111.951V94.0875H114.486ZM118.196 88.9078V90.4924H117.416V88.9078H118.196ZM118.102 97.3917V98.7789H117.328V97.3917H118.102ZM119.141 95.75C119.141 95.5422 119.095 95.3552 119.001 95.1889C118.907 95.0227 118.753 94.8703 118.539 94.7317C118.324 94.5932 118.036 94.465 117.676 94.3473C117.24 94.2122 116.862 94.0477 116.544 93.8537C116.228 93.6598 115.984 93.4191 115.811 93.1316C115.641 92.8441 115.557 92.496 115.557 92.0873C115.557 91.6613 115.648 91.2942 115.832 90.9859C116.015 90.6777 116.275 90.4404 116.611 90.2742C116.947 90.1079 117.342 90.0248 117.796 90.0248C118.149 90.0248 118.464 90.0785 118.741 90.1858C119.018 90.2898 119.252 90.4456 119.443 90.6534C119.637 90.8612 119.784 91.1158 119.884 91.4171C119.988 91.7185 120.04 92.0665 120.04 92.4614H119.084C119.084 92.2293 119.056 92.0163 119.001 91.8224C118.946 91.6284 118.862 91.4604 118.752 91.3184C118.641 91.173 118.506 91.0621 118.346 90.9859C118.187 90.9063 118.003 90.8664 117.796 90.8664C117.505 90.8664 117.264 90.9166 117.074 91.0171C116.887 91.1175 116.748 91.2595 116.658 91.4431C116.568 91.6232 116.523 91.8328 116.523 92.0717C116.523 92.2934 116.568 92.4874 116.658 92.6536C116.748 92.8199 116.9 92.9705 117.115 93.1056C117.333 93.2372 117.633 93.3671 118.014 93.4952C118.461 93.6373 118.84 93.8052 119.152 93.9992C119.463 94.1897 119.701 94.4252 119.863 94.7058C120.026 94.9828 120.108 95.3275 120.108 95.7396C120.108 96.1864 120.007 96.5639 119.806 96.8722C119.605 97.177 119.323 97.409 118.959 97.5684C118.596 97.7277 118.17 97.8073 117.681 97.8073C117.387 97.8073 117.096 97.7675 116.809 97.6879C116.521 97.6082 116.261 97.4783 116.029 97.2982C115.797 97.1146 115.612 96.8739 115.473 96.5761C115.335 96.2747 115.266 95.9059 115.266 95.4695H116.232C116.232 95.7639 116.273 96.008 116.357 96.202C116.443 96.3925 116.557 96.5449 116.699 96.6592C116.841 96.77 116.997 96.8497 117.167 96.8982C117.34 96.9432 117.512 96.9657 117.681 96.9657C117.993 96.9657 118.256 96.9172 118.471 96.8202C118.689 96.7198 118.856 96.5778 118.97 96.3942C119.084 96.2107 119.141 95.9959 119.141 95.75ZM126.264 96.9086V97.6982H121.313V97.0073L123.791 94.2486C124.096 93.9091 124.331 93.6217 124.498 93.3861C124.667 93.1472 124.785 92.9342 124.851 92.7471C124.92 92.5566 124.955 92.3627 124.955 92.1653C124.955 91.9159 124.903 91.6907 124.799 91.4899C124.698 91.2855 124.55 91.1227 124.352 91.0015C124.155 90.8803 123.916 90.8197 123.635 90.8197C123.299 90.8197 123.019 90.8855 122.794 91.0171C122.572 91.1452 122.406 91.3253 122.295 91.5574C122.184 91.7895 122.129 92.0562 122.129 92.3575H121.167C121.167 91.9315 121.261 91.5418 121.448 91.1885C121.635 90.8353 121.912 90.5547 122.279 90.3469C122.646 90.1356 123.098 90.03 123.635 90.03C124.113 90.03 124.522 90.1148 124.861 90.2846C125.201 90.4508 125.46 90.6863 125.641 90.9911C125.824 91.2924 125.916 91.6457 125.916 92.051C125.916 92.2726 125.878 92.4978 125.802 92.7263C125.729 92.9515 125.627 93.1766 125.495 93.4017C125.367 93.6269 125.216 93.8485 125.043 94.0667C124.873 94.2849 124.692 94.4997 124.498 94.7109L122.471 96.9086H126.264ZM132.405 95.1525V95.9422H126.939V95.3759L130.327 90.1339H131.111L130.27 91.6509L128.03 95.1525H132.405ZM131.35 90.1339V97.6982H130.389V90.1339H131.35ZM134.493 94.0979L133.724 93.9005L134.104 90.1339H137.985V91.0223H134.919L134.691 93.0796C134.829 93 135.004 92.9255 135.216 92.8562C135.43 92.787 135.676 92.7523 135.953 92.7523C136.303 92.7523 136.617 92.8129 136.894 92.9342C137.171 93.0519 137.406 93.2216 137.6 93.4433C137.798 93.665 137.948 93.9317 138.052 94.2434C138.156 94.5551 138.208 94.9032 138.208 95.2876C138.208 95.6513 138.158 95.9855 138.057 96.2903C137.96 96.5951 137.813 96.8618 137.616 97.0904C137.418 97.3155 137.169 97.4904 136.868 97.6151C136.57 97.7398 136.218 97.8021 135.813 97.8021C135.508 97.8021 135.219 97.7606 134.945 97.6775C134.675 97.5909 134.433 97.461 134.218 97.2878C134.007 97.1112 133.834 96.893 133.698 96.6332C133.567 96.37 133.484 96.0617 133.449 95.7084H134.363C134.405 95.9925 134.488 96.2314 134.613 96.4254C134.738 96.6194 134.9 96.7666 135.101 96.867C135.306 96.964 135.543 97.0125 135.813 97.0125C136.042 97.0125 136.244 96.9726 136.421 96.893C136.597 96.8133 136.746 96.699 136.868 96.5501C136.989 96.4011 137.081 96.221 137.143 96.0098C137.209 95.7985 137.242 95.5612 137.242 95.298C137.242 95.059 137.209 94.8374 137.143 94.633C137.077 94.4287 136.978 94.2503 136.847 94.0979C136.719 93.9455 136.561 93.8277 136.374 93.7446C136.187 93.658 135.972 93.6147 135.73 93.6147C135.408 93.6147 135.164 93.658 134.997 93.7446C134.835 93.8312 134.667 93.949 134.493 94.0979ZM140.239 96.5553V97.3294C140.239 97.6446 140.16 97.9771 140 98.3269C139.841 98.6802 139.618 98.9746 139.33 99.2101L138.785 98.8308C138.896 98.6784 138.989 98.5226 139.065 98.3632C139.141 98.2074 139.199 98.0446 139.237 97.8749C139.278 97.7086 139.299 97.532 139.299 97.345V96.5553H140.239ZM146.318 96.9086V97.6982H141.367V97.0073L143.845 94.2486C144.15 93.9091 144.385 93.6217 144.551 93.3861C144.721 93.1472 144.839 92.9342 144.905 92.7471C144.974 92.5566 145.009 92.3627 145.009 92.1653C145.009 91.9159 144.957 91.6907 144.853 91.4899C144.752 91.2855 144.603 91.1227 144.406 91.0015C144.209 90.8803 143.97 90.8197 143.689 90.8197C143.353 90.8197 143.073 90.8855 142.847 91.0171C142.626 91.1452 142.459 91.3253 142.349 91.5574C142.238 91.7895 142.182 92.0562 142.182 92.3575H141.221C141.221 91.9315 141.315 91.5418 141.502 91.1885C141.689 90.8353 141.966 90.5547 142.333 90.3469C142.7 90.1356 143.152 90.03 143.689 90.03C144.167 90.03 144.576 90.1148 144.915 90.2846C145.255 90.4508 145.514 90.6863 145.694 90.9911C145.878 91.2924 145.97 91.6457 145.97 92.051C145.97 92.2726 145.932 92.4978 145.855 92.7263C145.783 92.9515 145.681 93.1766 145.549 93.4017C145.421 93.6269 145.27 93.8485 145.097 94.0667C144.927 94.2849 144.745 94.4997 144.551 94.7109L142.525 96.9086H146.318ZM152.459 95.1525V95.9422H146.993V95.3759L150.381 90.1339H151.165L150.323 91.6509L148.084 95.1525H152.459ZM151.404 90.1339V97.6982H150.443V90.1339H151.404ZM158.08 93.3134V94.4668C158.08 95.0867 158.025 95.6097 157.914 96.0357C157.803 96.4618 157.644 96.8047 157.436 97.0644C157.228 97.3242 156.977 97.5129 156.682 97.6307C156.392 97.745 156.062 97.8021 155.695 97.8021C155.404 97.8021 155.136 97.7658 154.89 97.693C154.644 97.6203 154.423 97.5043 154.225 97.345C154.031 97.1822 153.865 96.9709 153.726 96.7111C153.588 96.4514 153.482 96.1362 153.409 95.7656C153.337 95.395 153.3 94.9621 153.3 94.4668V93.3134C153.3 92.6934 153.356 92.1739 153.467 91.7548C153.581 91.3357 153.742 90.9998 153.95 90.7469C154.158 90.4906 154.407 90.3071 154.698 90.1962C154.992 90.0854 155.321 90.03 155.685 90.03C155.979 90.03 156.25 90.0664 156.495 90.1391C156.745 90.2084 156.966 90.3209 157.16 90.4768C157.354 90.6292 157.519 90.8335 157.654 91.0898C157.793 91.3427 157.898 91.6526 157.971 92.0198C158.044 92.3869 158.08 92.8181 158.08 93.3134ZM157.114 94.6226V93.1524C157.114 92.8129 157.093 92.5151 157.051 92.2588C157.013 91.999 156.956 91.7773 156.88 91.5938C156.804 91.4102 156.707 91.2613 156.589 91.147C156.475 91.0327 156.341 90.9496 156.189 90.8976C156.04 90.8422 155.872 90.8145 155.685 90.8145C155.456 90.8145 155.254 90.8578 155.077 90.9444C154.9 91.0275 154.752 91.1608 154.63 91.3444C154.513 91.528 154.423 91.7687 154.36 92.0665C154.298 92.3644 154.267 92.7263 154.267 93.1524V94.6226C154.267 94.9621 154.286 95.2616 154.324 95.5214C154.365 95.7812 154.426 96.0063 154.506 96.1968C154.585 96.3838 154.682 96.538 154.797 96.6592C154.911 96.7804 155.042 96.8705 155.191 96.9293C155.344 96.9848 155.512 97.0125 155.695 97.0125C155.931 97.0125 156.137 96.9674 156.314 96.8774C156.49 96.7873 156.637 96.6471 156.755 96.4566C156.876 96.2626 156.966 96.015 157.025 95.7136C157.084 95.4088 157.114 95.0452 157.114 94.6226Z" fill="#181716"/>
<path opacity="0.5" d="M25.8448 134.093V140.712H24.9629L21.6308 135.607V140.712H20.7534V134.093H21.6308L24.9765 139.212V134.093H25.8448ZM29.3133 140.803C28.9708 140.803 28.6602 140.745 28.3814 140.63C28.1056 140.512 27.8677 140.347 27.6677 140.135C27.4707 139.922 27.3192 139.671 27.2131 139.38C27.107 139.089 27.054 138.771 27.054 138.425V138.234C27.054 137.834 27.1131 137.478 27.2313 137.166C27.3495 136.851 27.5101 136.584 27.7132 136.366C27.9162 136.148 28.1465 135.983 28.4041 135.871C28.6617 135.758 28.9284 135.702 29.2042 135.702C29.5558 135.702 29.8588 135.763 30.1134 135.884C30.371 136.005 30.5816 136.175 30.7453 136.393C30.9089 136.608 31.0301 136.863 31.1089 137.157C31.1877 137.448 31.2271 137.766 31.2271 138.112V138.489H27.554V137.803H30.3861V137.739C30.374 137.521 30.3286 137.309 30.2498 137.102C30.174 136.896 30.0528 136.727 29.8861 136.593C29.7194 136.46 29.4921 136.393 29.2042 136.393C29.0133 136.393 28.8375 136.434 28.6769 136.516C28.5163 136.595 28.3784 136.713 28.2632 136.871C28.148 137.028 28.0586 137.221 27.995 137.448C27.9314 137.675 27.8995 137.937 27.8995 138.234V138.425C27.8995 138.659 27.9314 138.878 27.995 139.084C28.0617 139.288 28.1571 139.466 28.2814 139.621C28.4087 139.775 28.5617 139.897 28.7405 139.985C28.9224 140.072 29.1284 140.116 29.3588 140.116C29.6558 140.116 29.9073 140.056 30.1134 139.935C30.3195 139.813 30.4998 139.651 30.6543 139.448L31.1635 139.853C31.0574 140.013 30.9225 140.166 30.7589 140.312C30.5952 140.457 30.3937 140.576 30.1543 140.666C29.9179 140.757 29.6376 140.803 29.3133 140.803ZM34.2683 135.793V136.439H31.609V135.793H34.2683ZM32.5091 134.598H33.3501V139.494C33.3501 139.66 33.3758 139.786 33.4273 139.871C33.4789 139.956 33.5455 140.012 33.6273 140.039C33.7092 140.066 33.7971 140.08 33.891 140.08C33.9607 140.08 34.0334 140.074 34.1092 140.062C34.188 140.047 34.2471 140.035 34.2865 140.025L34.291 140.712C34.2244 140.733 34.1365 140.753 34.0274 140.771C33.9213 140.792 33.7925 140.803 33.641 140.803C33.4349 140.803 33.2455 140.762 33.0728 140.68C32.9 140.598 32.7621 140.462 32.6591 140.271C32.5591 140.077 32.5091 139.816 32.5091 139.489V134.598ZM38.6324 134.093V140.712H37.755V134.093H38.6324ZM40.9417 136.843V140.712H40.1007V135.793H40.8962L40.9417 136.843ZM40.7417 138.066L40.3916 138.053C40.3947 137.716 40.4447 137.406 40.5416 137.121C40.6386 136.833 40.775 136.583 40.9508 136.371C41.1265 136.158 41.3357 135.995 41.5781 135.88C41.8236 135.761 42.0948 135.702 42.3918 135.702C42.6343 135.702 42.8525 135.736 43.0464 135.802C43.2404 135.866 43.4055 135.969 43.5419 136.111C43.6813 136.254 43.7874 136.439 43.8601 136.666C43.9329 136.89 43.9692 137.165 43.9692 137.489V140.712H43.1237V137.48C43.1237 137.222 43.0858 137.016 43.0101 136.862C42.9343 136.704 42.8237 136.59 42.6782 136.521C42.5327 136.448 42.3539 136.411 42.1418 136.411C41.9327 136.411 41.7418 136.455 41.569 136.543C41.3993 136.631 41.2523 136.752 41.1281 136.907C41.0068 137.062 40.9114 137.239 40.8417 137.439C40.775 137.636 40.7417 137.845 40.7417 138.066ZM47.215 140.112C47.415 140.112 47.5999 140.071 47.7696 139.989C47.9393 139.907 48.0787 139.795 48.1878 139.653C48.2969 139.507 48.359 139.342 48.3742 139.157H49.1743C49.1591 139.448 49.0606 139.719 48.8788 139.971C48.7 140.219 48.4651 140.421 48.1742 140.576C47.8832 140.727 47.5635 140.803 47.215 140.803C46.8453 140.803 46.5225 140.738 46.2467 140.607C45.974 140.477 45.7467 140.298 45.5648 140.071C45.386 139.844 45.2512 139.583 45.1603 139.289C45.0724 138.992 45.0284 138.678 45.0284 138.348V138.157C45.0284 137.827 45.0724 137.515 45.1603 137.221C45.2512 136.924 45.386 136.662 45.5648 136.434C45.7467 136.207 45.974 136.028 46.2467 135.898C46.5225 135.767 46.8453 135.702 47.215 135.702C47.5999 135.702 47.9363 135.781 48.2242 135.939C48.5121 136.093 48.7379 136.305 48.9015 136.575C49.0682 136.842 49.1591 137.145 49.1743 137.484H48.3742C48.359 137.281 48.3015 137.098 48.2015 136.934C48.1045 136.771 47.9711 136.64 47.8014 136.543C47.6347 136.443 47.4393 136.393 47.215 136.393C46.9574 136.393 46.7407 136.445 46.5649 136.548C46.3922 136.648 46.2543 136.784 46.1513 136.957C46.0513 137.127 45.9785 137.316 45.9331 137.525C45.8906 137.731 45.8694 137.942 45.8694 138.157V138.348C45.8694 138.563 45.8906 138.775 45.9331 138.984C45.9755 139.194 46.0467 139.383 46.1467 139.553C46.2498 139.722 46.3876 139.859 46.5604 139.962C46.7362 140.062 46.9544 140.112 47.215 140.112ZM49.8971 138.307V138.203C49.8971 137.848 49.9486 137.519 50.0516 137.216C50.1547 136.91 50.3032 136.645 50.4971 136.421C50.6911 136.193 50.926 136.017 51.2017 135.893C51.4775 135.766 51.7866 135.702 52.1291 135.702C52.4746 135.702 52.7852 135.766 53.061 135.893C53.3398 136.017 53.5762 136.193 53.7702 136.421C53.9672 136.645 54.1172 136.91 54.2202 137.216C54.3232 137.519 54.3748 137.848 54.3748 138.203V138.307C54.3748 138.662 54.3232 138.991 54.2202 139.294C54.1172 139.597 53.9672 139.862 53.7702 140.089C53.5762 140.313 53.3413 140.489 53.0656 140.616C52.7928 140.741 52.4837 140.803 52.1382 140.803C51.7927 140.803 51.4821 140.741 51.2063 140.616C50.9305 140.489 50.6941 140.313 50.4971 140.089C50.3032 139.862 50.1547 139.597 50.0516 139.294C49.9486 138.991 49.8971 138.662 49.8971 138.307ZM50.7381 138.203V138.307C50.7381 138.553 50.7669 138.784 50.8244 139.003C50.882 139.218 50.9684 139.409 51.0835 139.575C51.2017 139.742 51.3487 139.874 51.5245 139.971C51.7003 140.065 51.9048 140.112 52.1382 140.112C52.3685 140.112 52.5701 140.065 52.7428 139.971C52.9186 139.874 53.064 139.742 53.1792 139.575C53.2944 139.409 53.3807 139.218 53.4383 139.003C53.4989 138.784 53.5292 138.553 53.5292 138.307V138.203C53.5292 137.96 53.4989 137.731 53.4383 137.516C53.3807 137.298 53.2928 137.105 53.1747 136.939C53.0595 136.769 52.914 136.636 52.7382 136.539C52.5655 136.442 52.3625 136.393 52.1291 136.393C51.8988 136.393 51.6957 136.442 51.52 136.539C51.3472 136.636 51.2017 136.769 51.0835 136.939C50.9684 137.105 50.882 137.298 50.8244 137.516C50.7669 137.731 50.7381 137.96 50.7381 138.203ZM56.2659 136.771V140.712H55.4203V135.793H56.2204L56.2659 136.771ZM56.0931 138.066L55.7022 138.053C55.7052 137.716 55.7491 137.406 55.834 137.121C55.9189 136.833 56.0446 136.583 56.2113 136.371C56.378 136.158 56.5856 135.995 56.8341 135.88C57.0826 135.761 57.3705 135.702 57.6978 135.702C57.9281 135.702 58.1403 135.736 58.3342 135.802C58.5282 135.866 58.6964 135.967 58.8388 136.107C58.9813 136.246 59.0919 136.425 59.1707 136.643C59.2495 136.862 59.2889 137.125 59.2889 137.434V140.712H58.4479V137.475C58.4479 137.218 58.4039 137.012 58.316 136.857C58.2312 136.702 58.11 136.59 57.9524 136.521C57.7948 136.448 57.6099 136.411 57.3978 136.411C57.1493 136.411 56.9417 136.455 56.775 136.543C56.6083 136.631 56.475 136.752 56.375 136.907C56.2749 137.062 56.2022 137.239 56.1568 137.439C56.1143 137.636 56.0931 137.845 56.0931 138.066ZM59.2798 137.602L58.7161 137.775C58.7191 137.506 58.7631 137.246 58.8479 136.998C58.9358 136.749 59.0616 136.528 59.2252 136.334C59.3919 136.14 59.5965 135.987 59.8389 135.875C60.0814 135.76 60.3587 135.702 60.6708 135.702C60.9345 135.702 61.1678 135.737 61.3709 135.807C61.577 135.877 61.7497 135.984 61.8891 136.13C62.0316 136.272 62.1391 136.455 62.2119 136.68C62.2846 136.904 62.321 137.171 62.321 137.48V140.712H61.4754V137.471C61.4754 137.195 61.4315 136.981 61.3436 136.83C61.2587 136.675 61.1375 136.568 60.9799 136.507C60.8254 136.443 60.6405 136.411 60.4253 136.411C60.2405 136.411 60.0768 136.443 59.9344 136.507C59.7919 136.571 59.6722 136.658 59.5753 136.771C59.4783 136.88 59.404 137.005 59.3525 137.148C59.304 137.29 59.2798 137.442 59.2798 137.602ZM65.6349 140.803C65.2925 140.803 64.9818 140.745 64.703 140.63C64.4272 140.512 64.1893 140.347 63.9893 140.135C63.7923 139.922 63.6408 139.671 63.5347 139.38C63.4287 139.089 63.3756 138.771 63.3756 138.425V138.234C63.3756 137.834 63.4347 137.478 63.5529 137.166C63.6711 136.851 63.8317 136.584 64.0348 136.366C64.2378 136.148 64.4681 135.983 64.7257 135.871C64.9833 135.758 65.25 135.702 65.5258 135.702C65.8774 135.702 66.1804 135.763 66.435 135.884C66.6926 136.005 66.9032 136.175 67.0669 136.393C67.2305 136.608 67.3518 136.863 67.4305 137.157C67.5093 137.448 67.5487 137.766 67.5487 138.112V138.489H63.8757V137.803H66.7078V137.739C66.6956 137.521 66.6502 137.309 66.5714 137.102C66.4956 136.896 66.3744 136.727 66.2077 136.593C66.041 136.46 65.8137 136.393 65.5258 136.393C65.3349 136.393 65.1591 136.434 64.9985 136.516C64.8379 136.595 64.7 136.713 64.5848 136.871C64.4697 137.028 64.3803 137.221 64.3166 137.448C64.253 137.675 64.2212 137.937 64.2212 138.234V138.425C64.2212 138.659 64.253 138.878 64.3166 139.084C64.3833 139.288 64.4788 139.466 64.603 139.621C64.7303 139.775 64.8833 139.897 65.0621 139.985C65.244 140.072 65.4501 140.116 65.6804 140.116C65.9774 140.116 66.2289 140.056 66.435 139.935C66.6411 139.813 66.8214 139.651 66.976 139.448L67.4851 139.853C67.379 140.013 67.2442 140.166 67.0805 140.312C66.9169 140.457 66.7153 140.576 66.4759 140.666C66.2395 140.757 65.9592 140.803 65.6349 140.803Z" fill="#181716"/>
<path d="M118.218 132.283V133.867H117.438V132.283H118.218ZM118.124 140.767V142.154H117.35V140.767H118.124ZM119.163 139.125C119.163 138.917 119.116 138.73 119.023 138.564C118.929 138.398 118.775 138.245 118.561 138.107C118.346 137.968 118.058 137.84 117.698 137.722C117.262 137.587 116.884 137.423 116.566 137.229C116.25 137.035 116.006 136.794 115.833 136.507C115.663 136.219 115.578 135.871 115.578 135.462C115.578 135.036 115.67 134.669 115.854 134.361C116.037 134.053 116.297 133.815 116.633 133.649C116.969 133.483 117.364 133.4 117.818 133.4C118.171 133.4 118.486 133.453 118.763 133.561C119.04 133.665 119.274 133.821 119.465 134.028C119.658 134.236 119.806 134.491 119.906 134.792C120.01 135.093 120.062 135.442 120.062 135.836H119.106C119.106 135.604 119.078 135.391 119.023 135.197C118.967 135.003 118.884 134.835 118.774 134.693C118.663 134.548 118.528 134.437 118.368 134.361C118.209 134.281 118.025 134.241 117.818 134.241C117.527 134.241 117.286 134.292 117.095 134.392C116.908 134.493 116.77 134.635 116.68 134.818C116.59 134.998 116.545 135.208 116.545 135.447C116.545 135.668 116.59 135.862 116.68 136.029C116.77 136.195 116.922 136.346 117.137 136.481C117.355 136.612 117.655 136.742 118.036 136.87C118.483 137.012 118.862 137.18 119.174 137.374C119.485 137.565 119.723 137.8 119.885 138.081C120.048 138.358 120.13 138.702 120.13 139.115C120.13 139.561 120.029 139.939 119.828 140.247C119.627 140.552 119.345 140.784 118.981 140.943C118.618 141.103 118.192 141.182 117.703 141.182C117.409 141.182 117.118 141.143 116.83 141.063C116.543 140.983 116.283 140.853 116.051 140.673C115.819 140.49 115.634 140.249 115.495 139.951C115.357 139.65 115.287 139.281 115.287 138.844H116.254C116.254 139.139 116.295 139.383 116.379 139.577C116.465 139.767 116.579 139.92 116.721 140.034C116.863 140.145 117.019 140.225 117.189 140.273C117.362 140.318 117.534 140.341 117.703 140.341C118.015 140.341 118.278 140.292 118.493 140.195C118.711 140.095 118.877 139.953 118.992 139.769C119.106 139.586 119.163 139.371 119.163 139.125ZM122.732 136.818H123.418C123.754 136.818 124.031 136.763 124.249 136.652C124.471 136.538 124.636 136.384 124.743 136.19C124.854 135.992 124.909 135.771 124.909 135.525C124.909 135.234 124.861 134.99 124.764 134.792C124.667 134.595 124.521 134.446 124.327 134.345C124.133 134.245 123.887 134.195 123.59 134.195C123.319 134.195 123.08 134.248 122.873 134.356C122.668 134.46 122.507 134.609 122.389 134.803C122.275 134.996 122.218 135.225 122.218 135.488H121.257C121.257 135.104 121.354 134.754 121.548 134.439C121.742 134.124 122.014 133.873 122.363 133.686C122.717 133.499 123.125 133.405 123.59 133.405C124.047 133.405 124.447 133.486 124.79 133.649C125.133 133.808 125.399 134.047 125.59 134.366C125.78 134.681 125.876 135.074 125.876 135.545C125.876 135.736 125.83 135.94 125.74 136.158C125.654 136.373 125.517 136.574 125.33 136.761C125.146 136.948 124.907 137.102 124.613 137.224C124.319 137.341 123.965 137.4 123.553 137.4H122.732V136.818ZM122.732 137.608V137.031H123.553C124.035 137.031 124.433 137.088 124.748 137.203C125.063 137.317 125.311 137.469 125.491 137.66C125.675 137.85 125.803 138.06 125.876 138.289C125.952 138.514 125.99 138.739 125.99 138.964C125.99 139.317 125.929 139.631 125.808 139.904C125.69 140.178 125.522 140.41 125.304 140.6C125.089 140.791 124.836 140.935 124.546 141.032C124.255 141.129 123.938 141.177 123.595 141.177C123.266 141.177 122.956 141.13 122.665 141.037C122.377 140.943 122.123 140.808 121.901 140.632C121.679 140.452 121.506 140.232 121.382 139.972C121.257 139.709 121.195 139.409 121.195 139.073H122.156C122.156 139.336 122.213 139.567 122.327 139.764C122.445 139.961 122.611 140.116 122.826 140.226C123.044 140.334 123.3 140.387 123.595 140.387C123.889 140.387 124.142 140.337 124.353 140.237C124.568 140.133 124.733 139.977 124.847 139.769C124.965 139.561 125.023 139.3 125.023 138.985C125.023 138.67 124.958 138.412 124.826 138.211C124.694 138.006 124.507 137.856 124.265 137.759C124.026 137.658 123.744 137.608 123.418 137.608H122.732ZM132.084 139.026C132.084 139.487 131.977 139.878 131.762 140.2C131.55 140.519 131.263 140.762 130.899 140.928C130.539 141.094 130.132 141.177 129.678 141.177C129.225 141.177 128.816 141.094 128.452 140.928C128.089 140.762 127.801 140.519 127.59 140.2C127.379 139.878 127.273 139.487 127.273 139.026C127.273 138.725 127.33 138.45 127.444 138.2C127.562 137.947 127.727 137.727 127.938 137.54C128.153 137.353 128.406 137.21 128.697 137.109C128.991 137.005 129.315 136.953 129.668 136.953C130.132 136.953 130.546 137.043 130.91 137.224C131.273 137.4 131.559 137.644 131.767 137.956C131.978 138.268 132.084 138.625 132.084 139.026ZM131.118 139.006C131.118 138.725 131.057 138.477 130.936 138.263C130.814 138.044 130.645 137.875 130.427 137.753C130.208 137.632 129.956 137.572 129.668 137.572C129.374 137.572 129.119 137.632 128.904 137.753C128.693 137.875 128.529 138.044 128.411 138.263C128.293 138.477 128.234 138.725 128.234 139.006C128.234 139.296 128.291 139.546 128.406 139.754C128.523 139.958 128.69 140.116 128.904 140.226C129.123 140.334 129.381 140.387 129.678 140.387C129.976 140.387 130.233 140.334 130.447 140.226C130.662 140.116 130.827 139.958 130.941 139.754C131.059 139.546 131.118 139.296 131.118 139.006ZM131.907 135.478C131.907 135.845 131.81 136.176 131.616 136.47C131.422 136.765 131.157 136.997 130.821 137.166C130.485 137.336 130.104 137.421 129.678 137.421C129.246 137.421 128.859 137.336 128.52 137.166C128.184 136.997 127.921 136.765 127.73 136.47C127.54 136.176 127.444 135.845 127.444 135.478C127.444 135.038 127.54 134.664 127.73 134.356C127.924 134.047 128.189 133.812 128.525 133.649C128.861 133.486 129.244 133.405 129.673 133.405C130.106 133.405 130.491 133.486 130.827 133.649C131.163 133.812 131.426 134.047 131.616 134.356C131.81 134.664 131.907 135.038 131.907 135.478ZM130.946 135.493C130.946 135.241 130.892 135.017 130.785 134.823C130.678 134.629 130.529 134.477 130.338 134.366C130.148 134.252 129.926 134.195 129.673 134.195C129.42 134.195 129.199 134.248 129.008 134.356C128.821 134.46 128.674 134.609 128.567 134.803C128.463 134.996 128.411 135.227 128.411 135.493C128.411 135.753 128.463 135.98 128.567 136.174C128.674 136.368 128.823 136.519 129.013 136.626C129.204 136.733 129.426 136.787 129.678 136.787C129.931 136.787 130.151 136.733 130.338 136.626C130.529 136.519 130.678 136.368 130.785 136.174C130.892 135.98 130.946 135.753 130.946 135.493ZM134.515 137.473L133.746 137.275L134.126 133.509H138.007V134.397H134.941L134.713 136.455C134.851 136.375 135.026 136.3 135.237 136.231C135.452 136.162 135.698 136.127 135.975 136.127C136.325 136.127 136.638 136.188 136.916 136.309C137.193 136.427 137.428 136.597 137.622 136.818C137.819 137.04 137.97 137.307 138.074 137.618C138.178 137.93 138.23 138.278 138.23 138.663C138.23 139.026 138.18 139.361 138.079 139.665C137.982 139.97 137.835 140.237 137.638 140.465C137.44 140.691 137.191 140.865 136.89 140.99C136.592 141.115 136.24 141.177 135.835 141.177C135.53 141.177 135.241 141.136 134.967 141.052C134.697 140.966 134.455 140.836 134.24 140.663C134.029 140.486 133.855 140.268 133.72 140.008C133.589 139.745 133.506 139.437 133.471 139.083H134.385C134.427 139.367 134.51 139.606 134.635 139.8C134.759 139.994 134.922 140.142 135.123 140.242C135.327 140.339 135.565 140.387 135.835 140.387C136.063 140.387 136.266 140.348 136.443 140.268C136.619 140.188 136.768 140.074 136.89 139.925C137.011 139.776 137.103 139.596 137.165 139.385C137.231 139.173 137.264 138.936 137.264 138.673C137.264 138.434 137.231 138.212 137.165 138.008C137.099 137.804 137 137.625 136.869 137.473C136.741 137.321 136.583 137.203 136.396 137.12C136.209 137.033 135.994 136.99 135.752 136.99C135.43 136.99 135.185 137.033 135.019 137.12C134.856 137.206 134.688 137.324 134.515 137.473ZM140.261 139.93V140.704C140.261 141.02 140.182 141.352 140.022 141.702C139.863 142.055 139.64 142.35 139.352 142.585L138.807 142.206C138.917 142.053 139.011 141.898 139.087 141.738C139.163 141.582 139.22 141.42 139.259 141.25C139.3 141.084 139.321 140.907 139.321 140.72V139.93H140.261ZM146.34 140.284V141.073H141.389V140.382L143.867 137.624C144.172 137.284 144.407 136.997 144.573 136.761C144.743 136.522 144.861 136.309 144.927 136.122C144.996 135.932 145.031 135.738 145.031 135.54C145.031 135.291 144.979 135.066 144.875 134.865C144.774 134.661 144.625 134.498 144.428 134.377C144.23 134.255 143.992 134.195 143.711 134.195C143.375 134.195 143.094 134.26 142.869 134.392C142.648 134.52 142.481 134.7 142.371 134.932C142.26 135.164 142.204 135.431 142.204 135.732H141.243C141.243 135.306 141.337 134.917 141.524 134.564C141.711 134.21 141.988 133.93 142.355 133.722C142.722 133.511 143.174 133.405 143.711 133.405C144.189 133.405 144.598 133.49 144.937 133.66C145.276 133.826 145.536 134.061 145.716 134.366C145.9 134.667 145.992 135.021 145.992 135.426C145.992 135.648 145.954 135.873 145.877 136.101C145.805 136.326 145.702 136.552 145.571 136.777C145.443 137.002 145.292 137.224 145.119 137.442C144.949 137.66 144.767 137.875 144.573 138.086L142.547 140.284H146.34ZM152.257 133.509V134.049L149.124 141.073H148.111L151.239 134.299H147.145V133.509H152.257ZM158.102 136.688V137.842C158.102 138.462 158.047 138.985 157.936 139.411C157.825 139.837 157.666 140.18 157.458 140.439C157.25 140.699 156.999 140.888 156.704 141.006C156.413 141.12 156.084 141.177 155.717 141.177C155.426 141.177 155.158 141.141 154.912 141.068C154.666 140.995 154.444 140.879 154.247 140.72C154.053 140.557 153.887 140.346 153.748 140.086C153.61 139.826 153.504 139.511 153.431 139.141C153.359 138.77 153.322 138.337 153.322 137.842V136.688C153.322 136.068 153.378 135.549 153.489 135.13C153.603 134.711 153.764 134.375 153.972 134.122C154.179 133.866 154.429 133.682 154.72 133.571C155.014 133.46 155.343 133.405 155.707 133.405C156.001 133.405 156.271 133.441 156.517 133.514C156.767 133.583 156.988 133.696 157.182 133.852C157.376 134.004 157.541 134.209 157.676 134.465C157.814 134.718 157.92 135.028 157.993 135.395C158.066 135.762 158.102 136.193 158.102 136.688ZM157.136 137.998V136.527C157.136 136.188 157.115 135.89 157.073 135.634C157.035 135.374 156.978 135.152 156.902 134.969C156.826 134.785 156.729 134.636 156.611 134.522C156.497 134.408 156.363 134.325 156.211 134.273C156.062 134.217 155.894 134.189 155.707 134.189C155.478 134.189 155.276 134.233 155.099 134.319C154.922 134.402 154.773 134.536 154.652 134.719C154.534 134.903 154.444 135.144 154.382 135.442C154.32 135.739 154.289 136.101 154.289 136.527V137.998C154.289 138.337 154.308 138.637 154.346 138.896C154.387 139.156 154.448 139.381 154.528 139.572C154.607 139.759 154.704 139.913 154.818 140.034C154.933 140.155 155.064 140.245 155.213 140.304C155.366 140.36 155.534 140.387 155.717 140.387C155.953 140.387 156.159 140.342 156.336 140.252C156.512 140.162 156.659 140.022 156.777 139.832C156.898 139.638 156.988 139.39 157.047 139.089C157.106 138.784 157.136 138.42 157.136 137.998Z" fill="#181716"/>
<rect x="89.5664" y="45.6006" width="20.4114" height="10.2057" rx="5.10283" fill="#338B3C"/>
<path d="M99.1183 50.8159V51.3324H96.1555V50.8159H99.1183ZM97.913 49.5541V52.701H97.3638V49.5541H97.913ZM100.428 51.0771L99.9881 50.9643L100.205 48.812H102.423V49.3196H100.671L100.54 50.4952C100.619 50.4497 100.719 50.4072 100.84 50.3676C100.963 50.328 101.103 50.3082 101.262 50.3082C101.462 50.3082 101.641 50.3428 101.799 50.4121C101.957 50.4794 102.092 50.5764 102.203 50.703C102.316 50.8297 102.402 50.9821 102.461 51.1602C102.52 51.3384 102.55 51.5373 102.55 51.7569C102.55 51.9648 102.521 52.1558 102.464 52.3299C102.409 52.5041 102.325 52.6565 102.212 52.7871C102.099 52.9157 101.956 53.0157 101.784 53.0869C101.614 53.1582 101.413 53.1938 101.182 53.1938C101.007 53.1938 100.842 53.1701 100.686 53.1226C100.531 53.0731 100.393 52.9989 100.27 52.8999C100.149 52.799 100.05 52.6743 99.9733 52.5259C99.8981 52.3754 99.8506 52.1993 99.8308 51.9974H100.353C100.377 52.1597 100.425 52.2963 100.496 52.4071C100.567 52.5179 100.66 52.6021 100.775 52.6594C100.892 52.7149 101.027 52.7426 101.182 52.7426C101.312 52.7426 101.428 52.7198 101.529 52.6743C101.63 52.6288 101.715 52.5635 101.784 52.4784C101.853 52.3932 101.906 52.2903 101.942 52.1696C101.979 52.0489 101.998 51.9133 101.998 51.7629C101.998 51.6263 101.979 51.4997 101.942 51.3829C101.904 51.2661 101.848 51.1642 101.772 51.0771C101.699 50.99 101.609 50.9227 101.502 50.8752C101.395 50.8258 101.273 50.801 101.134 50.801C100.95 50.801 100.81 50.8258 100.715 50.8752C100.622 50.9247 100.526 50.992 100.428 51.0771ZM103.105 49.8718V49.6432C103.105 49.4789 103.141 49.3295 103.212 49.1949C103.283 49.0603 103.385 48.9525 103.518 48.8713C103.651 48.7902 103.808 48.7496 103.99 48.7496C104.176 48.7496 104.334 48.7902 104.465 48.8713C104.598 48.9525 104.7 49.0603 104.771 49.1949C104.842 49.3295 104.878 49.4789 104.878 49.6432V49.8718C104.878 50.0321 104.842 50.1796 104.771 50.3141C104.702 50.4487 104.601 50.5566 104.468 50.6377C104.337 50.7189 104.18 50.7595 103.996 50.7595C103.812 50.7595 103.653 50.7189 103.518 50.6377C103.385 50.5566 103.283 50.4487 103.212 50.3141C103.141 50.1796 103.105 50.0321 103.105 49.8718ZM103.518 49.6432V49.8718C103.518 49.9628 103.535 50.0489 103.568 50.1301C103.604 50.2112 103.658 50.2775 103.729 50.329C103.8 50.3785 103.889 50.4032 103.996 50.4032C104.103 50.4032 104.191 50.3785 104.26 50.329C104.329 50.2775 104.381 50.2112 104.415 50.1301C104.448 50.0489 104.465 49.9628 104.465 49.8718V49.6432C104.465 49.5502 104.447 49.4631 104.412 49.382C104.378 49.2988 104.325 49.2325 104.254 49.1831C104.185 49.1316 104.097 49.1059 103.99 49.1059C103.885 49.1059 103.797 49.1316 103.726 49.1831C103.657 49.2325 103.604 49.2988 103.568 49.382C103.535 49.4631 103.518 49.5502 103.518 49.6432ZM105.21 52.3062V52.0746C105.21 51.9123 105.246 51.7639 105.317 51.6293C105.388 51.4947 105.49 51.3868 105.623 51.3057C105.755 51.2246 105.913 51.184 106.095 51.184C106.281 51.184 106.439 51.2246 106.57 51.3057C106.702 51.3868 106.804 51.4947 106.876 51.6293C106.947 51.7639 106.982 51.9123 106.982 52.0746V52.3062C106.982 52.4685 106.947 52.6169 106.876 52.7515C106.806 52.8861 106.705 52.9939 106.573 53.0751C106.442 53.1562 106.285 53.1968 106.101 53.1968C105.917 53.1968 105.758 53.1562 105.626 53.0751C105.493 52.9939 105.39 52.8861 105.317 52.7515C105.246 52.6169 105.21 52.4685 105.21 52.3062ZM105.623 52.0746V52.3062C105.623 52.3972 105.64 52.4843 105.673 52.5674C105.709 52.6486 105.762 52.7149 105.834 52.7663C105.905 52.8158 105.994 52.8405 106.101 52.8405C106.208 52.8405 106.296 52.8158 106.365 52.7663C106.436 52.7149 106.489 52.6486 106.522 52.5674C106.556 52.4863 106.573 52.3992 106.573 52.3062V52.0746C106.573 51.9816 106.555 51.8945 106.519 51.8134C106.486 51.7322 106.433 51.6669 106.362 51.6174C106.293 51.566 106.204 51.5402 106.095 51.5402C105.99 51.5402 105.902 51.566 105.831 51.6174C105.761 51.6669 105.709 51.7322 105.673 51.8134C105.64 51.8945 105.623 51.9816 105.623 52.0746ZM106.231 49.4265L104.121 52.8049L103.812 52.609L105.923 49.2306L106.231 49.4265Z" fill="#F8F6F5"/>
<rect x="86.5664" y="89.9756" width="21.6871" height="10.2057" rx="5.10283" fill="#338B3C"/>
<path d="M96.6878 94.5153V95.0319H93.725V94.5153H96.6878ZM95.4825 93.2536V96.4005H94.9332V93.2536H95.4825ZM98.1039 94.4025H98.4957C98.6877 94.4025 98.846 94.3708 98.9707 94.3075C99.0974 94.2422 99.1914 94.1541 99.2528 94.0433C99.3161 93.9305 99.3478 93.8038 99.3478 93.6633C99.3478 93.497 99.3201 93.3575 99.2646 93.2447C99.2092 93.1319 99.1261 93.0468 99.0153 92.9894C98.9044 92.932 98.7639 92.9033 98.5937 92.9033C98.4393 92.9033 98.3028 92.934 98.184 92.9953C98.0672 93.0547 97.9752 93.1398 97.9079 93.2506C97.8426 93.3615 97.81 93.4921 97.81 93.6425H97.2607C97.2607 93.4228 97.3162 93.2229 97.427 93.0428C97.5378 92.8627 97.6932 92.7192 97.8931 92.6123C98.095 92.5055 98.3285 92.452 98.5937 92.452C98.855 92.452 99.0835 92.4985 99.2795 92.5916C99.4754 92.6826 99.6278 92.8192 99.7367 93.0012C99.8455 93.1814 99.9 93.406 99.9 93.6752C99.9 93.784 99.8742 93.9008 99.8228 94.0255C99.7733 94.1482 99.6951 94.263 99.5882 94.3698C99.4833 94.4767 99.3468 94.5648 99.1785 94.6341C99.0103 94.7013 98.8084 94.735 98.5729 94.735H98.1039V94.4025ZM98.1039 94.8537V94.5242H98.5729C98.848 94.5242 99.0756 94.5569 99.2557 94.6222C99.4358 94.6875 99.5773 94.7746 99.6803 94.8834C99.7852 94.9923 99.8584 95.112 99.9 95.2426C99.9435 95.3713 99.9653 95.4999 99.9653 95.6286C99.9653 95.8305 99.9306 96.0096 99.8614 96.1659C99.7941 96.3223 99.6981 96.4549 99.5734 96.5637C99.4507 96.6726 99.3062 96.7547 99.14 96.8101C98.9737 96.8656 98.7926 96.8933 98.5967 96.8933C98.4087 96.8933 98.2315 96.8665 98.0653 96.8131C97.901 96.7597 97.7555 96.6825 97.6289 96.5815C97.5022 96.4786 97.4032 96.353 97.332 96.2045C97.2607 96.0541 97.2251 95.8829 97.2251 95.6909H97.7743C97.7743 95.8413 97.807 95.973 97.8723 96.0858C97.9396 96.1986 98.0346 96.2867 98.1573 96.35C98.282 96.4113 98.4284 96.442 98.5967 96.442C98.7649 96.442 98.9094 96.4133 99.0301 96.3559C99.1528 96.2966 99.2468 96.2075 99.3121 96.0887C99.3794 95.97 99.4131 95.8206 99.4131 95.6405C99.4131 95.4604 99.3755 95.3129 99.3003 95.1981C99.2251 95.0813 99.1182 94.9953 98.9796 94.9398C98.8431 94.8824 98.6818 94.8537 98.4957 94.8537H98.1039ZM100.675 93.5712V93.3427C100.675 93.1784 100.71 93.029 100.782 92.8944C100.853 92.7598 100.955 92.6519 101.087 92.5708C101.22 92.4896 101.377 92.4491 101.559 92.4491C101.746 92.4491 101.904 92.4896 102.034 92.5708C102.167 92.6519 102.269 92.7598 102.34 92.8944C102.412 93.029 102.447 93.1784 102.447 93.3427V93.5712C102.447 93.7316 102.412 93.879 102.34 94.0136C102.271 94.1482 102.17 94.256 102.037 94.3372C101.907 94.4183 101.749 94.4589 101.565 94.4589C101.381 94.4589 101.222 94.4183 101.087 94.3372C100.955 94.256 100.853 94.1482 100.782 94.0136C100.71 93.879 100.675 93.7316 100.675 93.5712ZM101.087 93.3427V93.5712C101.087 93.6623 101.104 93.7484 101.138 93.8295C101.174 93.9107 101.227 93.977 101.298 94.0284C101.369 94.0779 101.459 94.1027 101.565 94.1027C101.672 94.1027 101.76 94.0779 101.83 94.0284C101.899 93.977 101.95 93.9107 101.984 93.8295C102.018 93.7484 102.034 93.6623 102.034 93.5712V93.3427C102.034 93.2496 102.017 93.1626 101.981 93.0814C101.947 92.9983 101.895 92.932 101.824 92.8825C101.754 92.831 101.666 92.8053 101.559 92.8053C101.455 92.8053 101.367 92.831 101.295 92.8825C101.226 92.932 101.174 92.9983 101.138 93.0814C101.104 93.1626 101.087 93.2496 101.087 93.3427ZM102.78 96.0056V95.7741C102.78 95.6118 102.815 95.4633 102.887 95.3287C102.958 95.1942 103.06 95.0863 103.192 95.0051C103.325 94.924 103.482 94.8834 103.664 94.8834C103.85 94.8834 104.009 94.924 104.139 95.0051C104.272 95.0863 104.374 95.1942 104.445 95.3287C104.516 95.4633 104.552 95.6118 104.552 95.7741V96.0056C104.552 96.1679 104.516 96.3163 104.445 96.4509C104.376 96.5855 104.275 96.6934 104.142 96.7745C104.012 96.8557 103.854 96.8962 103.67 96.8962C103.486 96.8962 103.328 96.8557 103.195 96.7745C103.063 96.6934 102.96 96.5855 102.887 96.4509C102.815 96.3163 102.78 96.1679 102.78 96.0056ZM103.192 95.7741V96.0056C103.192 96.0967 103.209 96.1837 103.243 96.2669C103.278 96.348 103.332 96.4143 103.403 96.4658C103.474 96.5152 103.563 96.54 103.67 96.54C103.777 96.54 103.865 96.5152 103.934 96.4658C104.006 96.4143 104.058 96.348 104.092 96.2669C104.125 96.1857 104.142 96.0986 104.142 96.0056V95.7741C104.142 95.681 104.124 95.5939 104.089 95.5128C104.055 95.4317 104.003 95.3663 103.931 95.3169C103.862 95.2654 103.773 95.2397 103.664 95.2397C103.559 95.2397 103.471 95.2654 103.4 95.3169C103.331 95.3663 103.278 95.4317 103.243 95.5128C103.209 95.5939 103.192 95.681 103.192 95.7741ZM103.801 93.1259L101.69 96.5044L101.381 96.3084L103.492 92.93L103.801 93.1259Z" fill="#F8F6F5"/>
<rect opacity="0.15" x="20.7207" y="60.9082" width="51.6664" height="3.82712" rx="1.91356" fill="#9A8A7E"/>
<rect opacity="0.15" x="20.7207" y="104.283" width="44.0121" height="3.82712" rx="1.91356" fill="#9A8A7E"/>
<rect opacity="0.15" x="20.7207" y="147.657" width="31.2549" height="3.82713" rx="1.91356" fill="#9A8A7E"/>
<rect opacity="0.15" x="131.668" y="60.9082" width="28.7035" height="3.82712" rx="1.91356" fill="#9A8A7E"/>
<rect opacity="0.15" x="131.668" y="104.283" width="28.7035" height="3.82712" rx="1.91356" fill="#9A8A7E"/>
<rect opacity="0.15" x="140.594" y="147.657" width="19.7735" height="3.82713" rx="1.91356" fill="#9A8A7E"/>
<rect opacity="0.15" x="20.7207" y="67.2881" width="33.8064" height="3.82713" rx="1.91356" fill="#9A8A7E"/>
<rect opacity="0.15" x="20.7207" y="110.664" width="44.0121" height="3.82712" rx="1.91356" fill="#9A8A7E"/>
<rect opacity="0.15" x="20.7207" y="154.036" width="38.2714" height="3.82712" rx="1.91356" fill="#9A8A7E"/>
<rect opacity="0.15" x="20.7207" y="73.667" width="38.2714" height="3.82713" rx="1.91356" fill="#9A8A7E"/>
<rect opacity="0.15" x="20.7207" y="117.042" width="38.2714" height="3.82712" rx="1.91356" fill="#9A8A7E"/>
<rect opacity="0.15" x="20.7207" y="160.416" width="44.0121" height="3.82712" rx="1.91356" fill="#9A8A7E"/>
<rect opacity="0.15" x="126.562" y="67.2891" width="33.8064" height="3.82713" rx="1.91356" fill="#9A8A7E"/>
<rect opacity="0.15" x="136.133" y="110.664" width="24.2385" height="3.82712" rx="1.91356" fill="#9A8A7E"/>
<rect opacity="0.15" x="136.133" y="154.036" width="24.2385" height="3.82712" rx="1.91356" fill="#9A8A7E"/>
<rect opacity="0.15" x="131.668" y="73.667" width="28.7035" height="3.82713" rx="1.91356" fill="#9A8A7E"/>
<rect opacity="0.15" x="131.668" y="117.042" width="28.7035" height="3.82712" rx="1.91356" fill="#9A8A7E"/>
<rect opacity="0.15" x="136.129" y="160.416" width="24.2385" height="3.82712" rx="1.91356" fill="#9A8A7E"/>
<path d="M21.953 204.629L38.9299 209.225C42.3592 210.153 46.0414 208.926 48.0581 206.184L51.9361 200.909C54.0027 198.099 57.8099 196.888 61.293 197.933L62.1283 198.184C65.7186 199.262 69.6375 197.94 71.652 194.972L77.9536 185.688C80.6603 181.7 86.5516 180.899 90.3717 183.999L114.03 203.197C116.767 205.419 120.743 205.717 123.827 203.931L134.014 198.033C136.056 196.85 138.55 196.554 140.845 197.222L144.391 198.253C147.965 199.292 151.843 197.966 153.842 195.02L160.368 185.405" stroke="#338B3C" stroke-width="1.33"/>
<path d="M160.369 208.455L143.392 213.051C139.963 213.979 136.281 212.752 134.264 210.01L130.386 204.735C128.319 201.925 124.512 200.714 121.029 201.759L120.194 202.01C116.603 203.088 112.685 201.766 110.67 198.798L104.369 189.514C101.662 185.526 95.7705 184.725 91.9504 187.825L75.1445 200.007C72.9308 201.803 69.9075 202.342 67.2007 201.538C65.9371 201.162 64.6452 200.787 63.3299 200.873L50.3256 201.726C49.0102 201.812 47.7183 201.437 46.4546 201.062C44.8519 200.586 43.1142 200.572 41.4775 201.048L37.9314 202.079C34.3575 203.118 30.4793 201.792 28.4798 198.846L21.9543 189.231" stroke="#D1581F" stroke-width="1.33"/>
</g>
<defs>
<filter id="filter0_d_1_505" x="-0.00349426" y="0.787357" width="182.332" height="234.635" filterUnits="userSpaceOnUse" color-interpolation-filters="sRGB">
<feFlood flood-opacity="0" result="BackgroundImageFix"/>
<feColorMatrix in="SourceAlpha" type="matrix" values="0 0 0 0 0 0 0 0 0 0 0 0 0 0 0 0 0 0 127 0" result="hardAlpha"/>
<feOffset dy="2.65999"/>
<feGaussianBlur stdDeviation="3.32499"/>
<feComposite in2="hardAlpha" operator="out"/>
<feColorMatrix type="matrix" values="0 0 0 0 0 0 0 0 0 0 0 0 0 0 0 0 0 0 0.1 0"/>
<feBlend mode="normal" in2="BackgroundImageFix" result="effect1_dropShadow_1_505"/>
<feBlend mode="normal" in="SourceGraphic" in2="effect1_dropShadow_1_505" result="shape"/>
</filter>
</defs>
</svg>
