<svg width="183" height="236" viewBox="0 0 183 236" fill="none" xmlns="http://www.w3.org/2000/svg">
<g filter="url(#filter0_d_1_539)">
<rect x="6.67773" y="4.69336" width="169.032" height="221.337" rx="11.97" fill="#D9E4EA" shape-rendering="crispEdges"/>
<path d="M22.1279 23.4453V32.002H21.0466V24.7954L18.8666 25.5903V24.6142L21.9584 23.4453H22.1279ZM28.861 23.4453V32.002H27.7798V24.7954L25.5997 25.5903V24.6142L28.6915 23.4453H28.861ZM37.6164 31.1136V32.002H32.0464V31.2246L34.8343 28.1211C35.1772 27.7392 35.4422 27.4158 35.6292 27.1508C35.8202 26.882 35.9526 26.6423 36.0267 26.4319C36.1046 26.2176 36.1436 25.9994 36.1436 25.7773C36.1436 25.4968 36.0851 25.2435 35.9682 25.0175C35.8552 24.7876 35.6877 24.6045 35.4656 24.4681C35.2435 24.3317 34.9746 24.2635 34.659 24.2635C34.281 24.2635 33.9654 24.3376 33.7122 24.4856C33.4628 24.6298 33.2757 24.8324 33.1511 25.0935C33.0264 25.3546 32.964 25.6546 32.964 25.9936H31.8828C31.8828 25.5143 31.988 25.076 32.1984 24.6785C32.4088 24.2811 32.7205 23.9655 33.1335 23.7317C33.5466 23.494 34.055 23.3751 34.659 23.3751C35.1967 23.3751 35.6565 23.4706 36.0384 23.6615C36.4202 23.8486 36.7124 24.1135 36.9151 24.4564C37.1216 24.7954 37.2248 25.1928 37.2248 25.6487C37.2248 25.8981 37.182 26.1514 37.0963 26.4086C37.0144 26.6618 36.8995 26.9151 36.7514 27.1684C36.6072 27.4216 36.4377 27.671 36.2429 27.9165C36.052 28.162 35.8474 28.4036 35.6292 28.6412L33.3498 31.1136H37.6164ZM44.1158 27.069V28.3665C44.1158 29.064 44.0534 29.6524 43.9287 30.1316C43.804 30.6109 43.6248 30.9967 43.391 31.2889C43.1572 31.5811 42.8747 31.7935 42.5435 31.926C42.2162 32.0546 41.8461 32.1188 41.433 32.1188C41.1057 32.1188 40.8038 32.0779 40.5271 31.9961C40.2505 31.9143 40.0011 31.7838 39.779 31.6045C39.5608 31.4214 39.3737 31.1837 39.2179 30.8915C39.062 30.5992 38.9432 30.2446 38.8614 29.8277C38.7795 29.4108 38.7386 28.9237 38.7386 28.3665V27.069C38.7386 26.3715 38.801 25.7871 38.9256 25.3156C39.0542 24.8441 39.2354 24.4662 39.4692 24.1817C39.703 23.8934 39.9835 23.6869 40.3108 23.5622C40.6421 23.4375 41.0122 23.3751 41.4213 23.3751C41.7525 23.3751 42.0565 23.4161 42.3331 23.4979C42.6137 23.5758 42.863 23.7024 43.0812 23.8778C43.2995 24.0492 43.4845 24.2791 43.6365 24.5675C43.7924 24.8519 43.9112 25.2006 43.993 25.6137C44.0749 26.0267 44.1158 26.5118 44.1158 27.069ZM43.0286 28.5419V26.8878C43.0286 26.506 43.0053 26.1709 42.9585 25.8825C42.9156 25.5903 42.8514 25.3409 42.7656 25.1344C42.6799 24.9279 42.5708 24.7603 42.4383 24.6318C42.3097 24.5032 42.1597 24.4097 41.9883 24.3512C41.8207 24.2889 41.6318 24.2577 41.4213 24.2577C41.1642 24.2577 40.9362 24.3064 40.7375 24.4038C40.5388 24.4973 40.3712 24.6473 40.2349 24.8539C40.1024 25.0604 40.0011 25.3312 39.9309 25.6663C39.8608 26.0014 39.8257 26.4086 39.8257 26.8878V28.5419C39.8257 28.9237 39.8472 29.2608 39.89 29.553C39.9368 29.8452 40.005 30.0985 40.0946 30.3128C40.1842 30.5232 40.2933 30.6966 40.4219 30.833C40.5505 30.9694 40.6985 31.0707 40.8661 31.1369C41.0375 31.1993 41.2265 31.2304 41.433 31.2304C41.698 31.2304 41.9298 31.1798 42.1286 31.0785C42.3273 30.9772 42.4929 30.8194 42.6254 30.6051C42.7617 30.3869 42.863 30.1083 42.9293 29.7693C42.9955 29.4264 43.0286 29.0172 43.0286 28.5419ZM50.3229 29.8511C50.3229 29.6524 50.2917 29.477 50.2293 29.3251C50.1709 29.1692 50.0657 29.0289 49.9137 28.9042C49.7657 28.7796 49.5592 28.6607 49.2942 28.5477C49.0331 28.4347 48.7019 28.3198 48.3006 28.2029C47.8798 28.0782 47.4999 27.9399 47.1609 27.7879C46.8219 27.632 46.5316 27.4548 46.29 27.256C46.0484 27.0573 45.8633 26.8294 45.7348 26.5722C45.6062 26.315 45.5419 26.0209 45.5419 25.6897C45.5419 25.3584 45.6101 25.0526 45.7464 24.772C45.8828 24.4915 46.0776 24.248 46.3309 24.0414C46.5881 23.831 46.894 23.6674 47.2485 23.5505C47.6031 23.4336 47.9986 23.3751 48.435 23.3751C49.074 23.3751 49.6156 23.4979 50.0598 23.7434C50.5079 23.9849 50.8489 24.3025 51.0827 24.696C51.3165 25.0857 51.4334 25.5026 51.4334 25.9468H50.3112C50.3112 25.6273 50.243 25.3448 50.1066 25.0993C49.9702 24.85 49.7637 24.6551 49.4871 24.5149C49.2104 24.3707 48.8597 24.2986 48.435 24.2986C48.0337 24.2986 47.7025 24.359 47.4414 24.4798C47.1803 24.6006 46.9855 24.7642 46.8569 24.9707C46.7323 25.1773 46.6699 25.413 46.6699 25.678C46.6699 25.8572 46.7069 26.0209 46.781 26.1689C46.8589 26.3131 46.9777 26.4475 47.1375 26.5722C47.3011 26.6969 47.5077 26.8118 47.757 26.917C48.0103 27.0222 48.3123 27.1236 48.663 27.221C49.1461 27.3573 49.563 27.5093 49.9137 27.6769C50.2644 27.8444 50.5528 28.0334 50.7787 28.2438C51.0086 28.4503 51.1781 28.686 51.2872 28.951C51.4002 29.2121 51.4567 29.5082 51.4567 29.8394C51.4567 30.1862 51.3866 30.4999 51.2463 30.7804C51.1061 31.061 50.9054 31.3006 50.6443 31.4993C50.3833 31.698 50.0696 31.8519 49.7033 31.961C49.3409 32.0662 48.9357 32.1188 48.4876 32.1188C48.0941 32.1188 47.7064 32.0643 47.3245 31.9552C46.9466 31.8461 46.6017 31.6824 46.29 31.4642C45.9822 31.246 45.7348 30.9772 45.5477 30.6577C45.3646 30.3343 45.273 29.9602 45.273 29.5355H46.3952C46.3952 29.8277 46.4517 30.079 46.5647 30.2894C46.6777 30.496 46.8316 30.6674 47.0264 30.8038C47.2252 30.9402 47.4492 31.0415 47.6986 31.1077C47.9519 31.1701 48.2149 31.2012 48.4876 31.2012C48.8812 31.2012 49.2143 31.1467 49.4871 31.0376C49.7598 30.9285 49.9663 30.7726 50.1066 30.57C50.2508 30.3674 50.3229 30.1277 50.3229 29.8511ZM61.7435 23.492V32.002H60.633V23.492H61.7435ZM64.4788 23.492V24.4155H57.9035V23.492H64.4788ZM68.6402 30.9207V27.6652C68.6402 27.4158 68.5896 27.1995 68.4883 27.0164C68.3909 26.8294 68.2428 26.6852 68.0441 26.5839C67.8453 26.4826 67.5999 26.4319 67.3076 26.4319C67.0349 26.4319 66.7952 26.4787 66.5887 26.5722C66.3861 26.6657 66.2264 26.7885 66.1095 26.9404C65.9965 27.0924 65.94 27.256 65.94 27.4314H64.8587C64.8587 27.2054 64.9171 26.9813 65.034 26.7592C65.1509 26.5371 65.3185 26.3365 65.5367 26.1572C65.7588 25.9741 66.0237 25.8299 66.3316 25.7247C66.6433 25.6156 66.9901 25.5611 67.3719 25.5611C67.8317 25.5611 68.2369 25.639 68.5876 25.7949C68.9422 25.9507 69.2189 26.1865 69.4176 26.5021C69.6202 26.8138 69.7215 27.2054 69.7215 27.6769V30.6226C69.7215 30.833 69.739 31.0571 69.7741 31.2947C69.8131 31.5324 69.8696 31.737 69.9436 31.9084V32.002H68.8156C68.761 31.8773 68.7182 31.7117 68.687 31.5052C68.6558 31.2947 68.6402 31.0999 68.6402 30.9207ZM68.8273 28.1678L68.8389 28.9276H67.746C67.4382 28.9276 67.1635 28.953 66.9219 29.0036C66.6803 29.0504 66.4777 29.1225 66.314 29.2199C66.1504 29.3173 66.0257 29.44 65.94 29.5881C65.8542 29.7323 65.8114 29.9017 65.8114 30.0966C65.8114 30.2953 65.8562 30.4765 65.9458 30.6401C66.0354 30.8038 66.1699 30.9343 66.3491 31.0317C66.5322 31.1252 66.7563 31.172 67.0212 31.172C67.3524 31.172 67.6447 31.1019 67.8979 30.9616C68.1512 30.8213 68.3519 30.6499 68.5 30.4473C68.6519 30.2446 68.7337 30.0479 68.7454 29.8569L69.2072 30.3771C69.1799 30.5408 69.1059 30.722 68.9851 30.9207C68.8643 31.1194 68.7026 31.3103 68.5 31.4935C68.3012 31.6727 68.0635 31.8227 67.7869 31.9435C67.5141 32.0604 67.2063 32.1188 66.8634 32.1188C66.4348 32.1188 66.0588 32.0351 65.7354 31.8675C65.4159 31.7 65.1665 31.4759 64.9873 31.1954C64.8119 30.9109 64.7243 30.5934 64.7243 30.2427C64.7243 29.9037 64.7905 29.6056 64.923 29.3484C65.0555 29.0874 65.2464 28.8711 65.4958 28.6997C65.7451 28.5243 66.0452 28.3919 66.3959 28.3022C66.7465 28.2126 67.1381 28.1678 67.5706 28.1678H68.8273ZM72.1529 25.678L73.5381 27.9808L74.9408 25.678H76.2091L74.1401 28.799L76.2734 32.002H75.0227L73.5615 29.629L72.1003 32.002H70.8437L72.9712 28.799L70.908 25.678H72.1529ZM80.4933 23.492H83.3105C83.9495 23.492 84.4892 23.5894 84.9295 23.7843C85.3737 23.9791 85.7107 24.2674 85.9406 24.6493C86.1744 25.0272 86.2913 25.4929 86.2913 26.0462C86.2913 26.4358 86.2114 26.7924 86.0517 27.1158C85.8958 27.4353 85.6698 27.708 85.3737 27.934C85.0814 28.1561 84.7308 28.3217 84.3216 28.4308L84.006 28.5536H81.3583L81.3467 27.6359H83.3456C83.7508 27.6359 84.0878 27.5658 84.3567 27.4255C84.6255 27.2814 84.8282 27.0885 84.9645 26.8469C85.1009 26.6053 85.1691 26.3384 85.1691 26.0462C85.1691 25.7189 85.1048 25.4325 84.9762 25.187C84.8476 24.9415 84.645 24.7525 84.3684 24.6201C84.0956 24.4837 83.743 24.4155 83.3105 24.4155H81.6214V32.002H80.4933V23.492ZM85.4672 32.002L83.3982 28.1444L84.5729 28.1386L86.6712 31.9318V32.002H85.4672ZM90.33 32.1188C89.8897 32.1188 89.4903 32.0448 89.1318 31.8967C88.7772 31.7448 88.4714 31.5324 88.2142 31.2597C87.9609 30.9869 87.7661 30.6635 87.6297 30.2894C87.4934 29.9154 87.4252 29.5063 87.4252 29.0621V28.8166C87.4252 28.3022 87.5011 27.8444 87.6531 27.4431C87.8051 27.0378 88.0116 26.6949 88.2727 26.4144C88.5337 26.1338 88.8298 25.9215 89.161 25.7773C89.4923 25.6332 89.8351 25.5611 90.1897 25.5611C90.6417 25.5611 91.0314 25.639 91.3587 25.7949C91.6899 25.9507 91.9607 26.1689 92.1711 26.4495C92.3815 26.7261 92.5374 27.0534 92.6387 27.4314C92.74 27.8054 92.7906 28.2146 92.7906 28.6588V29.1439H88.0681V28.2613H91.7093V28.1795C91.6938 27.899 91.6353 27.6262 91.534 27.3612C91.4366 27.0963 91.2807 26.8781 91.0664 26.7066C90.8521 26.5352 90.5599 26.4495 90.1897 26.4495C89.9442 26.4495 89.7182 26.5021 89.5117 26.6073C89.3052 26.7086 89.1279 26.8605 88.9799 27.0632C88.8318 27.2658 88.7169 27.5132 88.635 27.8054C88.5532 28.0977 88.5123 28.4347 88.5123 28.8166V29.0621C88.5123 29.3621 88.5532 29.6446 88.635 29.9095C88.7207 30.1706 88.8435 30.4005 89.0032 30.5992C89.1669 30.7979 89.3637 30.9538 89.5936 31.0668C89.8273 31.1798 90.0923 31.2363 90.3884 31.2363C90.7703 31.2363 91.0937 31.1584 91.3587 31.0025C91.6236 30.8466 91.8555 30.6382 92.0542 30.3771L92.7088 30.8973C92.5724 31.1038 92.399 31.3006 92.1886 31.4876C91.9782 31.6746 91.7191 31.8266 91.4113 31.9435C91.1073 32.0604 90.7469 32.1188 90.33 32.1188ZM96.7008 25.678V26.5079H93.2816V25.678H96.7008ZM94.4388 24.1408H95.5201V30.4356C95.5201 30.6499 95.5532 30.8116 95.6195 30.9207C95.6857 31.0298 95.7714 31.1019 95.8766 31.1369C95.9819 31.172 96.0949 31.1895 96.2156 31.1895C96.3053 31.1895 96.3988 31.1817 96.4962 31.1662C96.5975 31.1467 96.6735 31.1311 96.7241 31.1194L96.73 32.002C96.6443 32.0292 96.5313 32.0546 96.391 32.0779C96.2546 32.1052 96.089 32.1188 95.8942 32.1188C95.6292 32.1188 95.3857 32.0662 95.1636 31.961C94.9415 31.8558 94.7642 31.6805 94.6317 31.435C94.5031 31.1856 94.4388 30.8505 94.4388 30.4297V24.1408ZM101.838 30.5408V25.678H102.925V32.002H101.891L101.838 30.5408ZM102.043 29.2082L102.493 29.1965C102.493 29.6173 102.448 30.007 102.358 30.3654C102.273 30.72 102.132 31.0278 101.938 31.2889C101.743 31.55 101.488 31.7545 101.172 31.9026C100.856 32.0468 100.473 32.1188 100.021 32.1188C99.7127 32.1188 99.4302 32.074 99.1731 31.9844C98.9198 31.8948 98.7016 31.7565 98.5185 31.5694C98.3353 31.3824 98.1931 31.1389 98.0918 30.8389C97.9944 30.5388 97.9457 30.1784 97.9457 29.7576V25.678H99.0269V29.7693C99.0269 30.0537 99.0581 30.2894 99.1205 30.4765C99.1867 30.6596 99.2744 30.8057 99.3835 30.9148C99.4965 31.02 99.6212 31.0941 99.7575 31.1369C99.8978 31.1798 100.042 31.2012 100.19 31.2012C100.65 31.2012 101.014 31.1136 101.283 30.9382C101.552 30.759 101.745 30.5193 101.862 30.2193C101.982 29.9154 102.043 29.5783 102.043 29.2082ZM105.655 26.6716V32.002H104.574V25.678H105.626L105.655 26.6716ZM107.63 25.6429L107.625 26.6482C107.535 26.6287 107.449 26.617 107.367 26.6131C107.289 26.6053 107.2 26.6014 107.099 26.6014C106.849 26.6014 106.629 26.6404 106.438 26.7183C106.247 26.7963 106.085 26.9054 105.953 27.0456C105.82 27.1859 105.715 27.3534 105.637 27.5483C105.563 27.7392 105.515 27.9496 105.491 28.1795L105.187 28.3548C105.187 27.973 105.224 27.6145 105.298 27.2794C105.376 26.9443 105.495 26.6482 105.655 26.391C105.815 26.13 106.017 25.9273 106.263 25.7832C106.512 25.6351 106.808 25.5611 107.151 25.5611C107.229 25.5611 107.319 25.5708 107.42 25.5903C107.521 25.6059 107.591 25.6234 107.63 25.6429ZM109.711 27.0281V32.002H108.63V25.678H109.653L109.711 27.0281ZM109.454 28.6003L109.004 28.5828C109.008 28.1503 109.072 27.7509 109.197 27.3846C109.321 27.0145 109.497 26.693 109.723 26.4202C109.949 26.1475 110.218 25.9371 110.529 25.789C110.845 25.637 111.194 25.5611 111.576 25.5611C111.887 25.5611 112.168 25.6039 112.417 25.6897C112.667 25.7715 112.879 25.904 113.054 26.0871C113.234 26.2702 113.37 26.5079 113.463 26.8001C113.557 27.0885 113.604 27.4411 113.604 27.858V32.002H112.517V27.8464C112.517 27.5152 112.468 27.2502 112.37 27.0515C112.273 26.8489 112.131 26.7027 111.944 26.6131C111.757 26.5196 111.527 26.4728 111.254 26.4728C110.985 26.4728 110.74 26.5293 110.518 26.6423C110.299 26.7553 110.11 26.9112 109.951 27.1099C109.795 27.3086 109.672 27.5366 109.583 27.7938C109.497 28.047 109.454 28.3159 109.454 28.6003Z" fill="#181716"/>
<line opacity="0.3" x1="21.9883" y1="38.8042" x2="160.403" y2="38.8042" stroke="#181716" stroke-width="0.665"/>
<rect opacity="0.15" x="21.9883" y="44.2393" width="42.7364" height="13.395" rx="2.66" fill="#9A8A7E"/>
<path opacity="0.5" d="M24.8192 74.8195V77.2424C24.7374 77.3636 24.6071 77.5 24.4283 77.6516C24.2495 77.8001 24.0025 77.9304 23.6873 78.0425C23.3752 78.1516 22.9721 78.2062 22.4781 78.2062C22.075 78.2062 21.7038 78.1364 21.3644 77.997C21.028 77.8546 20.7355 77.6485 20.487 77.3788C20.2415 77.106 20.0506 76.7757 19.9142 76.3878C19.7809 75.9968 19.7142 75.5544 19.7142 75.0604V74.5467C19.7142 74.0527 19.7718 73.6118 19.8869 73.2238C20.0051 72.8359 20.1779 72.5071 20.4052 72.2374C20.6325 71.9646 20.9113 71.7586 21.2416 71.6191C21.5719 71.4767 21.9508 71.4055 22.3781 71.4055C22.8842 71.4055 23.307 71.4934 23.6464 71.6692C23.9888 71.8419 24.2555 72.0813 24.4465 72.3874C24.6404 72.6935 24.7647 73.042 24.8192 73.433H23.9419C23.9025 73.1935 23.8237 72.9753 23.7055 72.7784C23.5903 72.5814 23.4252 72.4238 23.21 72.3056C22.9948 72.1844 22.7175 72.1237 22.3781 72.1237C22.072 72.1237 21.8068 72.1798 21.5826 72.2919C21.3583 72.4041 21.1734 72.5647 21.028 72.7738C20.8825 72.9829 20.7734 73.236 20.7007 73.533C20.6309 73.83 20.5961 74.1649 20.5961 74.5376V75.0604C20.5961 75.4422 20.64 75.7832 20.7279 76.0832C20.8188 76.3832 20.9476 76.6393 21.1143 76.8515C21.281 77.0606 21.4795 77.2197 21.7098 77.3288C21.9432 77.4379 22.2008 77.4924 22.4826 77.4924C22.7948 77.4924 23.0478 77.4667 23.2418 77.4152C23.4358 77.3606 23.5873 77.297 23.6964 77.2242C23.8055 77.1485 23.8888 77.0773 23.9464 77.0106V75.5286H22.4145V74.8195H24.8192ZM26.9876 73.9694V78.1152H26.1466V73.1966H26.9649L26.9876 73.9694ZM28.5241 73.1693L28.5196 73.9512C28.4499 73.936 28.3832 73.9269 28.3196 73.9239C28.259 73.9179 28.1893 73.9148 28.1105 73.9148C27.9165 73.9148 27.7453 73.9451 27.5968 74.0057C27.4483 74.0664 27.3225 74.1512 27.2195 74.2603C27.1164 74.3694 27.0346 74.4997 26.974 74.6513C26.9164 74.7998 26.8785 74.9634 26.8603 75.1422L26.624 75.2786C26.624 74.9816 26.6527 74.7028 26.7103 74.4421C26.7709 74.1815 26.8634 73.9512 26.9876 73.7512C27.1119 73.5481 27.2695 73.3905 27.4604 73.2784C27.6544 73.1632 27.8847 73.1057 28.1514 73.1057C28.212 73.1057 28.2817 73.1132 28.3605 73.1284C28.4393 73.1405 28.4938 73.1541 28.5241 73.1693ZM28.9878 75.7105V75.6059C28.9878 75.2513 29.0393 74.9225 29.1424 74.6194C29.2454 74.3133 29.3939 74.0482 29.5879 73.8239C29.7818 73.5966 30.0167 73.4208 30.2925 73.2966C30.5683 73.1693 30.8774 73.1057 31.2199 73.1057C31.5653 73.1057 31.876 73.1693 32.1518 73.2966C32.4306 73.4208 32.667 73.5966 32.8609 73.8239C33.0579 74.0482 33.2079 74.3133 33.311 74.6194C33.414 74.9225 33.4655 75.2513 33.4655 75.6059V75.7105C33.4655 76.065 33.414 76.3939 33.311 76.6969C33.2079 77 33.0579 77.2652 32.8609 77.4924C32.667 77.7167 32.4321 77.8925 32.1563 78.0198C31.8836 78.144 31.5744 78.2062 31.2289 78.2062C30.8835 78.2062 30.5728 78.144 30.297 78.0198C30.0213 77.8925 29.7849 77.7167 29.5879 77.4924C29.3939 77.2652 29.2454 77 29.1424 76.6969C29.0393 76.3939 28.9878 76.065 28.9878 75.7105ZM29.8288 75.6059V75.7105C29.8288 75.9559 29.8576 76.1878 29.9152 76.406C29.9728 76.6211 30.0591 76.8121 30.1743 76.9788C30.2925 77.1454 30.4395 77.2773 30.6153 77.3743C30.791 77.4682 30.9956 77.5152 31.2289 77.5152C31.4593 77.5152 31.6608 77.4682 31.8336 77.3743C32.0093 77.2773 32.1548 77.1454 32.27 76.9788C32.3851 76.8121 32.4715 76.6211 32.5291 76.406C32.5897 76.1878 32.62 75.9559 32.62 75.7105V75.6059C32.62 75.3635 32.5897 75.1346 32.5291 74.9195C32.4715 74.7013 32.3836 74.5088 32.2654 74.3421C32.1502 74.1724 32.0048 74.0391 31.829 73.9421C31.6563 73.8451 31.4532 73.7966 31.2199 73.7966C30.9895 73.7966 30.7865 73.8451 30.6107 73.9421C30.438 74.0391 30.2925 74.1724 30.1743 74.3421C30.0591 74.5088 29.9728 74.7013 29.9152 74.9195C29.8576 75.1346 29.8288 75.3635 29.8288 75.6059ZM37.3841 76.8106C37.3841 76.6893 37.3568 76.5772 37.3023 76.4742C37.2507 76.3681 37.1432 76.2726 36.9795 76.1878C36.8189 76.0999 36.5764 76.0241 36.2522 75.9605C35.9794 75.9029 35.7324 75.8347 35.5112 75.7559C35.293 75.6771 35.1066 75.5817 34.952 75.4695C34.8005 75.3574 34.6838 75.2256 34.602 75.074C34.5202 74.9225 34.4793 74.7452 34.4793 74.5422C34.4793 74.3482 34.5217 74.1649 34.6065 73.9921C34.6944 73.8194 34.8172 73.6663 34.9748 73.533C35.1354 73.3996 35.3278 73.2951 35.5521 73.2193C35.7764 73.1435 36.0264 73.1057 36.3022 73.1057C36.6961 73.1057 37.0325 73.1754 37.3114 73.3148C37.5902 73.4542 37.8038 73.6406 37.9523 73.8739C38.1008 74.1042 38.1751 74.3603 38.1751 74.6422H37.3341C37.3341 74.5058 37.2932 74.374 37.2113 74.2467C37.1326 74.1164 37.0159 74.0088 36.8613 73.9239C36.7098 73.8391 36.5234 73.7966 36.3022 73.7966C36.0688 73.7966 35.8794 73.833 35.7339 73.9057C35.5915 73.9754 35.4869 74.0648 35.4203 74.1739C35.3566 74.283 35.3248 74.3982 35.3248 74.5194C35.3248 74.6103 35.34 74.6922 35.3703 74.7649C35.4036 74.8346 35.4612 74.8998 35.543 74.9604C35.6248 75.018 35.74 75.0725 35.8885 75.124C36.037 75.1756 36.2264 75.2271 36.4567 75.2786C36.8598 75.3695 37.1916 75.4786 37.4523 75.6059C37.7129 75.7332 37.9069 75.8893 38.0342 76.0741C38.1614 76.259 38.2251 76.4833 38.2251 76.7469C38.2251 76.9621 38.1796 77.1591 38.0887 77.3379C38.0008 77.5167 37.872 77.6713 37.7023 77.8016C37.5356 77.9289 37.3356 78.0289 37.1022 78.1016C36.8719 78.1713 36.6128 78.2062 36.3249 78.2062C35.8915 78.2062 35.5248 78.1289 35.2248 77.9743C34.9248 77.8198 34.6975 77.6197 34.5429 77.3743C34.3883 77.1288 34.3111 76.8697 34.3111 76.5969H35.1566C35.1687 76.8272 35.2354 77.0106 35.3566 77.147C35.4778 77.2803 35.6263 77.3758 35.8021 77.4333C35.9779 77.4879 36.1522 77.5152 36.3249 77.5152C36.5552 77.5152 36.7477 77.4849 36.9022 77.4243C37.0598 77.3636 37.1795 77.2803 37.2614 77.1742C37.3432 77.0682 37.3841 76.9469 37.3841 76.8106ZM42.1937 76.8106C42.1937 76.6893 42.1664 76.5772 42.1118 76.4742C42.0603 76.3681 41.9527 76.2726 41.7891 76.1878C41.6284 76.0999 41.386 76.0241 41.0617 75.9605C40.789 75.9029 40.542 75.8347 40.3207 75.7559C40.1025 75.6771 39.9162 75.5817 39.7616 75.4695C39.6101 75.3574 39.4934 75.2256 39.4116 75.074C39.3297 74.9225 39.2888 74.7452 39.2888 74.5422C39.2888 74.3482 39.3313 74.1649 39.4161 73.9921C39.504 73.8194 39.6267 73.6663 39.7843 73.533C39.9449 73.3996 40.1374 73.2951 40.3617 73.2193C40.5859 73.1435 40.8359 73.1057 41.1117 73.1057C41.5057 73.1057 41.8421 73.1754 42.1209 73.3148C42.3997 73.4542 42.6134 73.6406 42.7619 73.8739C42.9104 74.1042 42.9846 74.3603 42.9846 74.6422H42.1436C42.1436 74.5058 42.1027 74.374 42.0209 74.2467C41.9421 74.1164 41.8254 74.0088 41.6709 73.9239C41.5193 73.8391 41.333 73.7966 41.1117 73.7966C40.8784 73.7966 40.689 73.833 40.5435 73.9057C40.4011 73.9754 40.2965 74.0648 40.2298 74.1739C40.1662 74.283 40.1344 74.3982 40.1344 74.5194C40.1344 74.6103 40.1495 74.6922 40.1798 74.7649C40.2132 74.8346 40.2707 74.8998 40.3526 74.9604C40.4344 75.018 40.5496 75.0725 40.6981 75.124C40.8466 75.1756 41.036 75.2271 41.2663 75.2786C41.6694 75.3695 42.0012 75.4786 42.2618 75.6059C42.5225 75.7332 42.7164 75.8893 42.8437 76.0741C42.971 76.259 43.0346 76.4833 43.0346 76.7469C43.0346 76.9621 42.9892 77.1591 42.8983 77.3379C42.8104 77.5167 42.6816 77.6713 42.5119 77.8016C42.3452 77.9289 42.1452 78.0289 41.9118 78.1016C41.6815 78.1713 41.4224 78.2062 41.1345 78.2062C40.7011 78.2062 40.3344 78.1289 40.0344 77.9743C39.7343 77.8198 39.507 77.6197 39.3525 77.3743C39.1979 77.1288 39.1206 76.8697 39.1206 76.5969H39.9662C39.9783 76.8272 40.045 77.0106 40.1662 77.147C40.2874 77.2803 40.4359 77.3758 40.6117 77.4333C40.7875 77.4879 40.9617 77.5152 41.1345 77.5152C41.3648 77.5152 41.5572 77.4849 41.7118 77.4243C41.8694 77.3636 41.9891 77.2803 42.0709 77.1742C42.1527 77.0682 42.1937 76.9469 42.1937 76.8106ZM47.2896 73.9694V78.1152H46.4486V73.1966H47.2669L47.2896 73.9694ZM48.8261 73.1693L48.8216 73.9512C48.7519 73.936 48.6852 73.9269 48.6215 73.9239C48.5609 73.9179 48.4912 73.9148 48.4124 73.9148C48.2185 73.9148 48.0472 73.9451 47.8988 74.0057C47.7503 74.0664 47.6245 74.1512 47.5214 74.2603C47.4184 74.3694 47.3366 74.4997 47.276 74.6513C47.2184 74.7998 47.1805 74.9634 47.1623 75.1422L46.9259 75.2786C46.9259 74.9816 46.9547 74.7028 47.0123 74.4421C47.0729 74.1815 47.1653 73.9512 47.2896 73.7512C47.4139 73.5481 47.5714 73.3905 47.7624 73.2784C47.9563 73.1632 48.1867 73.1057 48.4534 73.1057C48.514 73.1057 48.5837 73.1132 48.6625 73.1284C48.7413 73.1405 48.7958 73.1541 48.8261 73.1693ZM51.5537 78.2062C51.2112 78.2062 50.9006 78.1486 50.6217 78.0334C50.346 77.9152 50.1081 77.75 49.908 77.5379C49.711 77.3258 49.5595 77.0742 49.4534 76.7833C49.3474 76.4923 49.2943 76.1741 49.2943 75.8286V75.6377C49.2943 75.2377 49.3534 74.8816 49.4716 74.5694C49.5898 74.2543 49.7504 73.9876 49.9535 73.7694C50.1565 73.5512 50.3869 73.386 50.6445 73.2739C50.9021 73.1617 51.1688 73.1057 51.4446 73.1057C51.7961 73.1057 52.0992 73.1663 52.3537 73.2875C52.6113 73.4087 52.822 73.5784 52.9856 73.7966C53.1493 74.0118 53.2705 74.2664 53.3493 74.5603C53.4281 74.8513 53.4675 75.1695 53.4675 75.515V75.8923H49.7944V75.2059H52.6265V75.1422C52.6144 74.924 52.5689 74.7119 52.4901 74.5058C52.4143 74.2997 52.2931 74.13 52.1264 73.9967C51.9598 73.8633 51.7325 73.7966 51.4446 73.7966C51.2536 73.7966 51.0778 73.8375 50.9172 73.9194C50.7566 73.9982 50.6187 74.1164 50.5035 74.274C50.3884 74.4315 50.299 74.624 50.2353 74.8513C50.1717 75.0786 50.1399 75.3407 50.1399 75.6377V75.8286C50.1399 76.062 50.1717 76.2817 50.2353 76.4878C50.302 76.6909 50.3975 76.8697 50.5217 77.0242C50.649 77.1788 50.8021 77.3 50.9809 77.3879C51.1627 77.4758 51.3688 77.5197 51.5991 77.5197C51.8961 77.5197 52.1476 77.4591 52.3537 77.3379C52.5598 77.2167 52.7401 77.0545 52.8947 76.8515L53.4038 77.2561C53.2978 77.4167 53.1629 77.5697 52.9992 77.7152C52.8356 77.8607 52.6341 77.9789 52.3946 78.0698C52.1583 78.1607 51.8779 78.2062 51.5537 78.2062ZM56.4178 77.5152C56.6178 77.5152 56.8026 77.4743 56.9724 77.3924C57.1421 77.3106 57.2815 77.1985 57.3906 77.056C57.4997 76.9106 57.5618 76.7454 57.577 76.5605H58.377C58.3619 76.8515 58.2634 77.1227 58.0816 77.3743C57.9028 77.6228 57.6679 77.8243 57.3769 77.9789C57.086 78.1304 56.7663 78.2062 56.4178 78.2062C56.048 78.2062 55.7253 78.141 55.4495 78.0107C55.1767 77.8804 54.9494 77.7016 54.7676 77.4743C54.5888 77.247 54.4539 76.9863 54.363 76.6924C54.2751 76.3954 54.2312 76.0817 54.2312 75.7514V75.5604C54.2312 75.2301 54.2751 74.918 54.363 74.624C54.4539 74.327 54.5888 74.0648 54.7676 73.8375C54.9494 73.6103 55.1767 73.4314 55.4495 73.3011C55.7253 73.1708 56.048 73.1057 56.4178 73.1057C56.8026 73.1057 57.139 73.1845 57.427 73.342C57.7149 73.4966 57.9406 73.7087 58.1043 73.9785C58.271 74.2452 58.3619 74.5482 58.377 74.8876H57.577C57.5618 74.6846 57.5042 74.5012 57.4042 74.3376C57.3072 74.1739 57.1739 74.0436 57.0042 73.9466C56.8375 73.8466 56.642 73.7966 56.4178 73.7966C56.1602 73.7966 55.9435 73.8482 55.7677 73.9512C55.595 74.0512 55.4571 74.1876 55.354 74.3603C55.254 74.53 55.1813 74.7194 55.1358 74.9286C55.0934 75.1346 55.0722 75.3453 55.0722 75.5604V75.7514C55.0722 75.9665 55.0934 76.1787 55.1358 76.3878C55.1782 76.5969 55.2495 76.7863 55.3495 76.956C55.4525 77.1257 55.5904 77.2621 55.7632 77.3652C55.9389 77.4652 56.1571 77.5152 56.4178 77.5152ZM61.3637 78.2062C61.0212 78.2062 60.7106 78.1486 60.4318 78.0334C60.156 77.9152 59.9181 77.75 59.7181 77.5379C59.5211 77.3258 59.3696 77.0742 59.2635 76.7833C59.1574 76.4923 59.1044 76.1741 59.1044 75.8286V75.6377C59.1044 75.2377 59.1635 74.8816 59.2817 74.5694C59.3999 74.2543 59.5605 73.9876 59.7635 73.7694C59.9666 73.5512 60.1969 73.386 60.4545 73.2739C60.7121 73.1617 60.9788 73.1057 61.2546 73.1057C61.6061 73.1057 61.9092 73.1663 62.1638 73.2875C62.4214 73.4087 62.632 73.5784 62.7957 73.7966C62.9593 74.0118 63.0805 74.2664 63.1593 74.5603C63.2381 74.8513 63.2775 75.1695 63.2775 75.515V75.8923H59.6044V75.2059H62.4365V75.1422C62.4244 74.924 62.3789 74.7119 62.3002 74.5058C62.2244 74.2997 62.1032 74.13 61.9365 73.9967C61.7698 73.8633 61.5425 73.7966 61.2546 73.7966C61.0637 73.7966 60.8879 73.8375 60.7273 73.9194C60.5666 73.9982 60.4288 74.1164 60.3136 74.274C60.1984 74.4315 60.109 74.624 60.0454 74.8513C59.9817 75.0786 59.9499 75.3407 59.9499 75.6377V75.8286C59.9499 76.062 59.9817 76.2817 60.0454 76.4878C60.1121 76.6909 60.2075 76.8697 60.3318 77.0242C60.4591 77.1788 60.6121 77.3 60.7909 77.3879C60.9727 77.4758 61.1788 77.5197 61.4092 77.5197C61.7062 77.5197 61.9577 77.4591 62.1638 77.3379C62.3699 77.2167 62.5502 77.0545 62.7047 76.8515L63.2139 77.2561C63.1078 77.4167 62.9729 77.5697 62.8093 77.7152C62.6456 77.8607 62.4441 77.9789 62.2047 78.0698C61.9683 78.1607 61.688 78.2062 61.3637 78.2062ZM65.1732 73.1966V78.1152H64.3276V73.1966H65.1732ZM64.264 71.8919C64.264 71.7555 64.3049 71.6404 64.3867 71.5464C64.4716 71.4525 64.5958 71.4055 64.7595 71.4055C64.9201 71.4055 65.0428 71.4525 65.1277 71.5464C65.2156 71.6404 65.2595 71.7555 65.2595 71.8919C65.2595 72.0222 65.2156 72.1343 65.1277 72.2283C65.0428 72.3192 64.9201 72.3647 64.7595 72.3647C64.5958 72.3647 64.4716 72.3192 64.3867 72.2283C64.3049 72.1343 64.264 72.0222 64.264 71.8919ZM67.3643 74.1421V80.0063H66.5187V73.1966H67.2915L67.3643 74.1421ZM70.6782 75.615V75.7105C70.6782 76.0681 70.6358 76.3999 70.551 76.706C70.4661 77.0091 70.3418 77.2727 70.1782 77.497C70.0176 77.7213 69.8191 77.8955 69.5827 78.0198C69.3463 78.144 69.0751 78.2062 68.769 78.2062C68.4568 78.2062 68.181 78.1546 67.9416 78.0516C67.7022 77.9486 67.4991 77.7985 67.3325 77.6015C67.1658 77.4046 67.0324 77.1682 66.9324 76.8924C66.8354 76.6166 66.7688 76.306 66.7324 75.9605V75.4513C66.7688 75.0877 66.837 74.7619 66.937 74.474C67.037 74.1861 67.1688 73.9406 67.3325 73.7375C67.4991 73.5315 67.7007 73.3754 67.9371 73.2693C68.1735 73.1602 68.4462 73.1057 68.7553 73.1057C69.0644 73.1057 69.3387 73.1663 69.5781 73.2875C69.8176 73.4057 70.0191 73.5754 70.1827 73.7966C70.3464 74.0179 70.4691 74.283 70.551 74.5922C70.6358 74.8983 70.6782 75.2392 70.6782 75.615ZM69.8327 75.7105V75.615C69.8327 75.3695 69.8069 75.1392 69.7554 74.924C69.7039 74.7058 69.6236 74.5149 69.5145 74.3512C69.4084 74.1845 69.272 74.0542 69.1054 73.9603C68.9387 73.8633 68.7402 73.8148 68.5098 73.8148C68.2977 73.8148 68.1128 73.8512 67.9552 73.9239C67.8007 73.9967 67.6689 74.0951 67.5598 74.2194C67.4507 74.3406 67.3613 74.48 67.2915 74.6376C67.2249 74.7922 67.1749 74.9528 67.1415 75.1195V76.2969C67.2021 76.509 67.287 76.709 67.3961 76.8969C67.5052 77.0818 67.6507 77.2318 67.8325 77.347C68.0143 77.4591 68.2432 77.5152 68.5189 77.5152C68.7462 77.5152 68.9417 77.4682 69.1054 77.3743C69.272 77.2773 69.4084 77.1454 69.5145 76.9788C69.6236 76.8121 69.7039 76.6211 69.7554 76.406C69.8069 76.1878 69.8327 75.9559 69.8327 75.7105ZM73.8104 73.1966V73.8421H71.151V73.1966H73.8104ZM72.0511 72.001H72.8921V76.8969C72.8921 77.0636 72.9179 77.1894 72.9694 77.2742C73.0209 77.3591 73.0876 77.4152 73.1694 77.4424C73.2512 77.4697 73.3391 77.4834 73.4331 77.4834C73.5028 77.4834 73.5755 77.4773 73.6513 77.4652C73.7301 77.45 73.7891 77.4379 73.8285 77.4288L73.8331 78.1152C73.7664 78.1364 73.6785 78.1561 73.5694 78.1743C73.4634 78.1955 73.3346 78.2062 73.183 78.2062C72.9769 78.2062 72.7875 78.1652 72.6148 78.0834C72.442 78.0016 72.3042 77.8652 72.2011 77.6743C72.1011 77.4803 72.0511 77.2197 72.0511 76.8924V72.001ZM77.6607 76.8106C77.6607 76.6893 77.6335 76.5772 77.5789 76.4742C77.5274 76.3681 77.4198 76.2726 77.2562 76.1878C77.0955 76.0999 76.8531 76.0241 76.5288 75.9605C76.2561 75.9029 76.0091 75.8347 75.7878 75.7559C75.5696 75.6771 75.3832 75.5817 75.2287 75.4695C75.0772 75.3574 74.9605 75.2256 74.8786 75.074C74.7968 74.9225 74.7559 74.7452 74.7559 74.5422C74.7559 74.3482 74.7983 74.1649 74.8832 73.9921C74.9711 73.8194 75.0938 73.6663 75.2514 73.533C75.412 73.3996 75.6045 73.2951 75.8287 73.2193C76.053 73.1435 76.303 73.1057 76.5788 73.1057C76.9728 73.1057 77.3092 73.1754 77.588 73.3148C77.8668 73.4542 78.0805 73.6406 78.229 73.8739C78.3775 74.1042 78.4517 74.3603 78.4517 74.6422H77.6107C77.6107 74.5058 77.5698 74.374 77.488 74.2467C77.4092 74.1164 77.2925 74.0088 77.138 73.9239C76.9864 73.8391 76.8 73.7966 76.5788 73.7966C76.3455 73.7966 76.156 73.833 76.0106 73.9057C75.8681 73.9754 75.7636 74.0648 75.6969 74.1739C75.6333 74.283 75.6014 74.3982 75.6014 74.5194C75.6014 74.6103 75.6166 74.6922 75.6469 74.7649C75.6802 74.8346 75.7378 74.8998 75.8196 74.9604C75.9015 75.018 76.0166 75.0725 76.1651 75.124C76.3136 75.1756 76.503 75.2271 76.7334 75.2786C77.1364 75.3695 77.4683 75.4786 77.7289 75.6059C77.9896 75.7332 78.1835 75.8893 78.3108 76.0741C78.4381 76.259 78.5017 76.4833 78.5017 76.7469C78.5017 76.9621 78.4563 77.1591 78.3653 77.3379C78.2775 77.5167 78.1487 77.6713 77.9789 77.8016C77.8123 77.9289 77.6122 78.0289 77.3789 78.1016C77.1486 78.1713 76.8894 78.2062 76.6015 78.2062C76.1682 78.2062 75.8015 78.1289 75.5014 77.9743C75.2014 77.8198 74.9741 77.6197 74.8196 77.3743C74.665 77.1288 74.5877 76.8697 74.5877 76.5969H75.4332C75.4454 76.8272 75.512 77.0106 75.6333 77.147C75.7545 77.2803 75.903 77.3758 76.0788 77.4333C76.2545 77.4879 76.4288 77.5152 76.6015 77.5152C76.8319 77.5152 77.0243 77.4849 77.1789 77.4243C77.3365 77.3636 77.4562 77.2803 77.538 77.1742C77.6198 77.0682 77.6607 76.9469 77.6607 76.8106Z" fill="#181716"/>
<path d="M118.995 69.0494V70.6339H118.216V69.0494H118.995ZM118.901 77.5333V78.9205H118.127V77.5333H118.901ZM119.94 75.8916C119.94 75.6838 119.894 75.4968 119.8 75.3305C119.707 75.1643 119.553 75.0119 119.338 74.8733C119.123 74.7348 118.836 74.6066 118.475 74.4889C118.039 74.3538 117.661 74.1893 117.343 73.9953C117.028 73.8014 116.783 73.5606 116.61 73.2732C116.441 72.9857 116.356 72.6376 116.356 72.2289C116.356 71.8029 116.447 71.4358 116.631 71.1275C116.815 70.8192 117.074 70.582 117.41 70.4157C117.746 70.2495 118.141 70.1664 118.595 70.1664C118.948 70.1664 119.263 70.2201 119.54 70.3274C119.818 70.4313 120.051 70.5872 120.242 70.795C120.436 71.0028 120.583 71.2574 120.683 71.5587C120.787 71.86 120.839 72.2081 120.839 72.603H119.883C119.883 72.3709 119.856 72.1579 119.8 71.9639C119.745 71.77 119.662 71.602 119.551 71.46C119.44 71.3145 119.305 71.2037 119.146 71.1275C118.986 71.0478 118.803 71.008 118.595 71.008C118.304 71.008 118.063 71.0582 117.873 71.1587C117.686 71.2591 117.547 71.4011 117.457 71.5847C117.367 71.7648 117.322 71.9743 117.322 72.2133C117.322 72.435 117.367 72.6289 117.457 72.7952C117.547 72.9614 117.7 73.1121 117.914 73.2472C118.133 73.3788 118.432 73.5087 118.813 73.6368C119.26 73.7788 119.639 73.9468 119.951 74.1408C120.263 74.3313 120.5 74.5668 120.663 74.8473C120.825 75.1244 120.907 75.4691 120.907 75.8812C120.907 76.328 120.806 76.7055 120.605 77.0138C120.405 77.3186 120.122 77.5506 119.759 77.71C119.395 77.8693 118.969 77.9489 118.481 77.9489C118.186 77.9489 117.895 77.9091 117.608 77.8295C117.32 77.7498 117.061 77.6199 116.828 77.4398C116.596 77.2562 116.411 77.0155 116.273 76.7177C116.134 76.4163 116.065 76.0475 116.065 75.6111H117.031C117.031 75.9055 117.073 76.1496 117.156 76.3436C117.242 76.5341 117.357 76.6865 117.499 76.8008C117.641 76.9116 117.797 76.9913 117.966 77.0398C118.139 77.0848 118.311 77.1073 118.481 77.1073C118.792 77.1073 119.056 77.0588 119.27 76.9618C119.488 76.8614 119.655 76.7194 119.769 76.5358C119.883 76.3523 119.94 76.1375 119.94 75.8916ZM126.996 70.2755V70.8158L123.863 77.8398H122.85L125.977 71.0652H121.884V70.2755H126.996ZM129.308 74.2395L128.539 74.0421L128.918 70.2755H132.799V71.1639H129.734L129.505 73.2212C129.644 73.1416 129.818 73.0671 130.03 72.9978C130.245 72.9285 130.49 72.8939 130.768 72.8939C131.117 72.8939 131.431 72.9545 131.708 73.0757C131.985 73.1935 132.22 73.3632 132.414 73.5849C132.612 73.8066 132.763 74.0732 132.866 74.385C132.97 74.6967 133.022 75.0448 133.022 75.4292C133.022 75.7929 132.972 76.1271 132.872 76.4319C132.775 76.7367 132.627 77.0034 132.43 77.232C132.233 77.4571 131.983 77.632 131.682 77.7567C131.384 77.8814 131.032 77.9437 130.627 77.9437C130.322 77.9437 130.033 77.9022 129.76 77.8191C129.489 77.7325 129.247 77.6026 129.032 77.4294C128.821 77.2528 128.648 77.0346 128.513 76.7748C128.381 76.5116 128.298 76.2033 128.263 75.85H129.178C129.219 76.1341 129.302 76.373 129.427 76.567C129.552 76.761 129.715 76.9082 129.915 77.0086C130.12 77.1056 130.357 77.1541 130.627 77.1541C130.856 77.1541 131.058 77.1142 131.235 77.0346C131.412 76.9549 131.561 76.8406 131.682 76.6917C131.803 76.5427 131.895 76.3626 131.957 76.1514C132.023 75.9401 132.056 75.7028 132.056 75.4396C132.056 75.2006 132.023 74.979 131.957 74.7746C131.891 74.5703 131.793 74.3919 131.661 74.2395C131.533 74.0871 131.375 73.9693 131.188 73.8862C131.001 73.7996 130.787 73.7563 130.544 73.7563C130.222 73.7563 129.978 73.7996 129.812 73.8862C129.649 73.9728 129.481 74.0906 129.308 74.2395ZM139.189 75.2941V76.0838H133.724V75.5175L137.111 70.2755H137.895L137.054 71.7925L134.815 75.2941H139.189ZM138.134 70.2755V77.8398H137.173V70.2755H138.134ZM141.039 76.6969V77.471C141.039 77.7862 140.959 78.1187 140.8 78.4685C140.64 78.8218 140.417 79.1162 140.129 79.3517L139.584 78.9724C139.695 78.82 139.788 78.6642 139.864 78.5048C139.941 78.349 139.998 78.1862 140.036 78.0165C140.077 77.8502 140.098 77.6736 140.098 77.4866V76.6969H141.039ZM145.849 70.2651H145.933V71.0807H145.849C145.34 71.0807 144.914 71.1639 144.571 71.3301C144.229 71.4929 143.957 71.7128 143.756 71.9899C143.555 72.2635 143.409 72.5718 143.319 72.9147C143.233 73.2576 143.189 73.6057 143.189 73.9589V75.0707C143.189 75.4067 143.229 75.7046 143.309 75.9643C143.389 76.2206 143.498 76.4371 143.636 76.6138C143.775 76.7904 143.931 76.9237 144.104 77.0138C144.281 77.1038 144.464 77.1489 144.655 77.1489C144.876 77.1489 145.074 77.1073 145.247 77.0242C145.42 76.9376 145.565 76.8181 145.683 76.6657C145.804 76.5098 145.896 76.3263 145.959 76.115C146.021 75.9037 146.052 75.6717 146.052 75.4188C146.052 75.1937 146.024 74.9772 145.969 74.7694C145.914 74.5581 145.829 74.3711 145.714 74.2083C145.6 74.0421 145.456 73.9122 145.283 73.8187C145.113 73.7217 144.911 73.6732 144.675 73.6732C144.409 73.6732 144.159 73.739 143.927 73.8706C143.699 73.9988 143.51 74.1685 143.361 74.3798C143.215 74.5876 143.132 74.8144 143.112 75.0604L142.602 75.0552C142.651 74.6672 142.741 74.3365 142.873 74.0629C143.008 73.7858 143.174 73.5606 143.371 73.3875C143.572 73.2108 143.796 73.0827 144.042 73.003C144.291 72.9199 144.554 72.8783 144.831 72.8783C145.209 72.8783 145.534 72.9493 145.808 73.0913C146.082 73.2333 146.307 73.4238 146.483 73.6628C146.66 73.8983 146.79 74.165 146.873 74.4629C146.96 74.7573 147.003 75.0604 147.003 75.3721C147.003 75.7288 146.953 76.063 146.852 76.3748C146.752 76.6865 146.601 76.9601 146.4 77.1956C146.203 77.4311 145.959 77.6147 145.668 77.7463C145.377 77.8779 145.039 77.9437 144.655 77.9437C144.246 77.9437 143.889 77.8606 143.584 77.6944C143.28 77.5247 143.027 77.2995 142.826 77.019C142.625 76.7384 142.474 76.4267 142.374 76.0838C142.273 75.7409 142.223 75.3929 142.223 75.0396V74.5876C142.223 74.0542 142.277 73.5312 142.384 73.0186C142.492 72.506 142.677 72.0419 142.94 71.6263C143.207 71.2106 143.576 70.8799 144.047 70.6339C144.518 70.388 145.119 70.2651 145.849 70.2651ZM153.258 75.2941V76.0838H147.793V75.5175L151.18 70.2755H151.964L151.123 71.7925L148.884 75.2941H153.258ZM152.203 70.2755V77.8398H151.242V70.2755H152.203ZM155.347 74.2395L154.578 74.0421L154.957 70.2755H158.838V71.1639H155.773L155.544 73.2212C155.682 73.1416 155.857 73.0671 156.069 72.9978C156.283 72.9285 156.529 72.8939 156.806 72.8939C157.156 72.8939 157.47 72.9545 157.747 73.0757C158.024 73.1935 158.259 73.3632 158.453 73.5849C158.651 73.8066 158.801 74.0732 158.905 74.385C159.009 74.6967 159.061 75.0448 159.061 75.4292C159.061 75.7929 159.011 76.1271 158.911 76.4319C158.814 76.7367 158.666 77.0034 158.469 77.232C158.271 77.4571 158.022 77.632 157.721 77.7567C157.423 77.8814 157.071 77.9437 156.666 77.9437C156.361 77.9437 156.072 77.9022 155.799 77.8191C155.528 77.7325 155.286 77.6026 155.071 77.4294C154.86 77.2528 154.687 77.0346 154.552 76.7748C154.42 76.5116 154.337 76.2033 154.302 75.85H155.217C155.258 76.1341 155.341 76.373 155.466 76.567C155.591 76.761 155.753 76.9082 155.954 77.0086C156.159 77.1056 156.396 77.1541 156.666 77.1541C156.895 77.1541 157.097 77.1142 157.274 77.0346C157.451 76.9549 157.6 76.8406 157.721 76.6917C157.842 76.5427 157.934 76.3626 157.996 76.1514C158.062 75.9401 158.095 75.7028 158.095 75.4396C158.095 75.2006 158.062 74.979 157.996 74.7746C157.93 74.5703 157.832 74.3919 157.7 74.2395C157.572 74.0871 157.414 73.9693 157.227 73.8862C157.04 73.7996 156.825 73.7563 156.583 73.7563C156.261 73.7563 156.017 73.7996 155.85 73.8862C155.688 73.9728 155.52 74.0906 155.347 74.2395Z" fill="#181716"/>
<rect opacity="0.15" x="21.9883" y="84.4248" width="58.0449" height="3.82715" rx="1.91357" fill="#9A8A7E"/>
<rect opacity="0.15" x="21.9883" y="90.8027" width="33.8064" height="3.82714" rx="1.91357" fill="#9A8A7E"/>
<rect opacity="0.15" x="126.598" y="90.8027" width="33.8064" height="3.82714" rx="1.91357" fill="#9A8A7E"/>
<rect opacity="0.15" x="126.598" y="84.4258" width="33.8064" height="3.82715" rx="1.91357" fill="#9A8A7E"/>
<rect opacity="0.15" x="69.8223" y="44.2393" width="42.7364" height="13.395" rx="2.66" fill="#9A8A7E"/>
<rect opacity="0.15" x="117.666" y="44.2393" width="42.7364" height="13.395" rx="2.66" fill="#9A8A7E"/>
<rect opacity="0.15" x="21.9883" y="121.421" width="44.6499" height="3.82714" rx="1.91357" fill="#9A8A7E"/>
<rect opacity="0.15" x="21.9883" y="127.799" width="52.3042" height="3.82714" rx="1.91357" fill="#9A8A7E"/>
<rect opacity="0.15" x="136.166" y="127.799" width="24.2385" height="3.82714" rx="1.91357" fill="#9A8A7E"/>
<rect opacity="0.15" x="140.629" y="121.42" width="19.7735" height="3.82714" rx="1.91357" fill="#9A8A7E"/>
<path opacity="0.5" d="M25.1632 107.162V113.781H24.2994V107.162H25.1632ZM27.2906 107.162V107.881H22.1765V107.162H27.2906ZM27.4679 111.376V111.272C27.4679 110.917 27.5195 110.589 27.6225 110.285C27.7255 109.979 27.874 109.714 28.068 109.49C28.262 109.263 28.4968 109.087 28.7726 108.963C29.0484 108.835 29.3575 108.772 29.7 108.772C30.0455 108.772 30.3561 108.835 30.6319 108.963C30.9107 109.087 31.1471 109.263 31.341 109.49C31.538 109.714 31.688 109.979 31.7911 110.285C31.8941 110.589 31.9456 110.917 31.9456 111.272V111.376C31.9456 111.731 31.8941 112.06 31.7911 112.363C31.688 112.666 31.538 112.931 31.341 113.158C31.1471 113.383 30.9122 113.559 30.6364 113.686C30.3637 113.81 30.0546 113.872 29.7091 113.872C29.3636 113.872 29.0529 113.81 28.7772 113.686C28.5014 113.559 28.265 113.383 28.068 113.158C27.874 112.931 27.7255 112.666 27.6225 112.363C27.5195 112.06 27.4679 111.731 27.4679 111.376ZM28.3089 111.272V111.376C28.3089 111.622 28.3377 111.854 28.3953 112.072C28.4529 112.287 28.5393 112.478 28.6544 112.645C28.7726 112.811 28.9196 112.943 29.0954 113.04C29.2711 113.134 29.4757 113.181 29.7091 113.181C29.9394 113.181 30.1409 113.134 30.3137 113.04C30.4894 112.943 30.6349 112.811 30.7501 112.645C30.8652 112.478 30.9516 112.287 31.0092 112.072C31.0698 111.854 31.1001 111.622 31.1001 111.376V111.272C31.1001 111.029 31.0698 110.801 31.0092 110.585C30.9516 110.367 30.8637 110.175 30.7455 110.008C30.6304 109.838 30.4849 109.705 30.3091 109.608C30.1364 109.511 29.9333 109.463 29.7 109.463C29.4696 109.463 29.2666 109.511 29.0908 109.608C28.9181 109.705 28.7726 109.838 28.6544 110.008C28.5393 110.175 28.4529 110.367 28.3953 110.585C28.3377 110.801 28.3089 111.029 28.3089 111.272ZM35.0596 108.863V109.508H32.4002V108.863H35.0596ZM33.3003 107.667H34.1413V112.563C34.1413 112.73 34.1671 112.855 34.2186 112.94C34.2701 113.025 34.3368 113.081 34.4186 113.108C34.5004 113.136 34.5883 113.149 34.6823 113.149C34.752 113.149 34.8247 113.143 34.9005 113.131C34.9793 113.116 35.0384 113.104 35.0778 113.095L35.0823 113.781C35.0156 113.802 34.9278 113.822 34.8187 113.84C34.7126 113.862 34.5838 113.872 34.4323 113.872C34.2262 113.872 34.0368 113.831 33.864 113.749C33.6913 113.668 33.5534 113.531 33.4503 113.34C33.3503 113.146 33.3003 112.886 33.3003 112.558V107.667ZM38.9463 112.94V110.408C38.9463 110.214 38.9069 110.046 38.8281 109.904C38.7524 109.758 38.6372 109.646 38.4826 109.567C38.3281 109.488 38.1372 109.449 37.9099 109.449C37.6977 109.449 37.5113 109.485 37.3507 109.558C37.1931 109.631 37.0689 109.726 36.978 109.845C36.8901 109.963 36.8461 110.09 36.8461 110.226H36.0051C36.0051 110.051 36.0506 109.876 36.1415 109.704C36.2324 109.531 36.3627 109.375 36.5325 109.235C36.7052 109.093 36.9113 108.981 37.1507 108.899C37.3931 108.814 37.6629 108.772 37.9599 108.772C38.3175 108.772 38.6327 108.832 38.9054 108.954C39.1812 109.075 39.3964 109.258 39.5509 109.504C39.7085 109.746 39.7873 110.051 39.7873 110.417V112.708C39.7873 112.872 39.801 113.046 39.8282 113.231C39.8585 113.416 39.9025 113.575 39.9601 113.709V113.781H39.0827C39.0403 113.684 39.0069 113.555 38.9827 113.395C38.9584 113.231 38.9463 113.08 38.9463 112.94ZM39.0918 110.799L39.1009 111.39H38.2508C38.0114 111.39 37.7977 111.41 37.6098 111.449C37.4219 111.486 37.2643 111.542 37.1371 111.617C37.0098 111.693 36.9128 111.789 36.8461 111.904C36.7794 112.016 36.7461 112.148 36.7461 112.299C36.7461 112.454 36.781 112.595 36.8507 112.722C36.9204 112.849 37.0249 112.951 37.1643 113.027C37.3068 113.099 37.481 113.136 37.6871 113.136C37.9447 113.136 38.172 113.081 38.369 112.972C38.566 112.863 38.7221 112.73 38.8372 112.572C38.9554 112.414 39.0191 112.261 39.0282 112.113L39.3873 112.517C39.3661 112.645 39.3085 112.786 39.2145 112.94C39.1206 113.095 38.9948 113.243 38.8372 113.386C38.6827 113.525 38.4978 113.642 38.2826 113.736C38.0705 113.827 37.8311 113.872 37.5644 113.872C37.231 113.872 36.9386 113.807 36.687 113.677C36.4385 113.546 36.2445 113.372 36.1051 113.154C35.9688 112.933 35.9006 112.686 35.9006 112.413C35.9006 112.149 35.9521 111.917 36.0551 111.717C36.1582 111.514 36.3067 111.346 36.5006 111.213C36.6946 111.076 36.9279 110.973 37.2007 110.904C37.4735 110.834 37.778 110.799 38.1144 110.799H39.0918ZM42.0239 106.799V113.781H41.1784V106.799H42.0239ZM48.7836 112.827V106.799H49.6292V113.781H48.8564L48.7836 112.827ZM45.4742 111.376V111.281C45.4742 110.905 45.5197 110.564 45.6106 110.258C45.7046 109.949 45.8364 109.684 46.0061 109.463C46.1788 109.241 46.3834 109.072 46.6198 108.954C46.8592 108.832 47.1259 108.772 47.4199 108.772C47.729 108.772 47.9987 108.826 48.229 108.935C48.4624 109.041 48.6594 109.197 48.82 109.404C48.9837 109.607 49.1125 109.852 49.2064 110.14C49.3004 110.428 49.3655 110.754 49.4019 111.117V111.536C49.3686 111.896 49.3034 112.22 49.2064 112.508C49.1125 112.796 48.9837 113.042 48.82 113.245C48.6594 113.448 48.4624 113.604 48.229 113.713C47.9957 113.819 47.7229 113.872 47.4108 113.872C47.1229 113.872 46.8592 113.81 46.6198 113.686C46.3834 113.562 46.1788 113.387 46.0061 113.163C45.8364 112.939 45.7046 112.675 45.6106 112.372C45.5197 112.066 45.4742 111.734 45.4742 111.376ZM46.3198 111.281V111.376C46.3198 111.622 46.344 111.852 46.3925 112.067C46.444 112.283 46.5228 112.472 46.6289 112.636C46.735 112.799 46.8698 112.928 47.0335 113.022C47.1971 113.113 47.3926 113.158 47.6199 113.158C47.8987 113.158 48.1275 113.099 48.3063 112.981C48.4882 112.863 48.6336 112.707 48.7427 112.513C48.8518 112.319 48.9367 112.108 48.9973 111.881V110.786C48.9609 110.619 48.9079 110.458 48.8382 110.304C48.7715 110.146 48.6836 110.007 48.5745 109.885C48.4685 109.761 48.3366 109.663 48.179 109.59C48.0245 109.517 47.8411 109.481 47.629 109.481C47.3987 109.481 47.2002 109.529 47.0335 109.626C46.8698 109.72 46.735 109.851 46.6289 110.017C46.5228 110.181 46.444 110.372 46.3925 110.59C46.344 110.805 46.3198 111.036 46.3198 111.281ZM52.9795 113.872C52.6371 113.872 52.3264 113.815 52.0476 113.699C51.7718 113.581 51.5339 113.416 51.3339 113.204C51.1369 112.992 50.9854 112.74 50.8793 112.449C50.7732 112.158 50.7202 111.84 50.7202 111.495V111.304C50.7202 110.904 50.7793 110.548 50.8975 110.235C51.0157 109.92 51.1763 109.654 51.3794 109.435C51.5824 109.217 51.8127 109.052 52.0703 108.94C52.3279 108.828 52.5946 108.772 52.8704 108.772C53.222 108.772 53.525 108.832 53.7796 108.954C54.0372 109.075 54.2478 109.244 54.4115 109.463C54.5751 109.678 54.6963 109.932 54.7751 110.226C54.8539 110.517 54.8933 110.836 54.8933 111.181V111.558H51.2202V110.872H54.0523V110.808C54.0402 110.59 53.9948 110.378 53.916 110.172C53.8402 109.966 53.719 109.796 53.5523 109.663C53.3856 109.529 53.1583 109.463 52.8704 109.463C52.6795 109.463 52.5037 109.504 52.3431 109.585C52.1825 109.664 52.0446 109.782 51.9294 109.94C51.8142 110.098 51.7248 110.29 51.6612 110.517C51.5976 110.745 51.5657 111.007 51.5657 111.304V111.495C51.5657 111.728 51.5976 111.948 51.6612 112.154C51.7279 112.357 51.8233 112.536 51.9476 112.69C52.0749 112.845 52.2279 112.966 52.4067 113.054C52.5886 113.142 52.7946 113.186 53.025 113.186C53.322 113.186 53.5735 113.125 53.7796 113.004C53.9857 112.883 54.166 112.721 54.3206 112.517L54.8297 112.922C54.7236 113.083 54.5888 113.236 54.4251 113.381C54.2615 113.527 54.0599 113.645 53.8205 113.736C53.5841 113.827 53.3038 113.872 52.9795 113.872ZM58.9755 112.827V106.799H59.8211V113.781H59.0483L58.9755 112.827ZM55.6661 111.376V111.281C55.6661 110.905 55.7116 110.564 55.8025 110.258C55.8965 109.949 56.0283 109.684 56.198 109.463C56.3708 109.241 56.5753 109.072 56.8117 108.954C57.0511 108.832 57.3178 108.772 57.6118 108.772C57.9209 108.772 58.1906 108.826 58.4209 108.935C58.6543 109.041 58.8513 109.197 59.0119 109.404C59.1756 109.607 59.3044 109.852 59.3983 110.14C59.4923 110.428 59.5574 110.754 59.5938 111.117V111.536C59.5605 111.896 59.4953 112.22 59.3983 112.508C59.3044 112.796 59.1756 113.042 59.0119 113.245C58.8513 113.448 58.6543 113.604 58.4209 113.713C58.1876 113.819 57.9148 113.872 57.6027 113.872C57.3148 113.872 57.0511 113.81 56.8117 113.686C56.5753 113.562 56.3708 113.387 56.198 113.163C56.0283 112.939 55.8965 112.675 55.8025 112.372C55.7116 112.066 55.6661 111.734 55.6661 111.376ZM56.5117 111.281V111.376C56.5117 111.622 56.5359 111.852 56.5844 112.067C56.6359 112.283 56.7147 112.472 56.8208 112.636C56.9269 112.799 57.0617 112.928 57.2254 113.022C57.389 113.113 57.5845 113.158 57.8118 113.158C58.0906 113.158 58.3194 113.099 58.4982 112.981C58.6801 112.863 58.8255 112.707 58.9346 112.513C59.0437 112.319 59.1286 112.108 59.1892 111.881V110.786C59.1528 110.619 59.0998 110.458 59.0301 110.304C58.9634 110.146 58.8755 110.007 58.7664 109.885C58.6604 109.761 58.5285 109.663 58.3709 109.59C58.2164 109.517 58.033 109.481 57.8209 109.481C57.5906 109.481 57.3921 109.529 57.2254 109.626C57.0617 109.72 56.9269 109.851 56.8208 110.017C56.7147 110.181 56.6359 110.372 56.5844 110.59C56.5359 110.805 56.5117 111.036 56.5117 111.281ZM64.1397 112.645V108.863H64.9852V113.781H64.1806L64.1397 112.645ZM64.2988 111.608L64.6488 111.599C64.6488 111.927 64.614 112.23 64.5443 112.508C64.4776 112.784 64.3685 113.024 64.217 113.227C64.0654 113.43 63.8669 113.589 63.6215 113.704C63.376 113.816 63.0775 113.872 62.7259 113.872C62.4865 113.872 62.2668 113.837 62.0668 113.768C61.8698 113.698 61.7001 113.59 61.5576 113.445C61.4152 113.299 61.3046 113.11 61.2258 112.877C61.15 112.643 61.1121 112.363 61.1121 112.036V108.863H61.9531V112.045C61.9531 112.266 61.9774 112.449 62.0258 112.595C62.0774 112.737 62.1456 112.851 62.2304 112.936C62.3183 113.018 62.4153 113.075 62.5213 113.108C62.6305 113.142 62.7426 113.158 62.8577 113.158C63.2154 113.158 63.4987 113.09 63.7078 112.954C63.9169 112.814 64.067 112.628 64.1579 112.395C64.2518 112.158 64.2988 111.896 64.2988 111.608ZM68.2355 113.181C68.4356 113.181 68.6204 113.14 68.7901 113.058C68.9599 112.977 69.0993 112.864 69.2084 112.722C69.3175 112.577 69.3796 112.411 69.3947 112.227H70.1948C70.1797 112.517 70.0812 112.789 69.8993 113.04C69.7205 113.289 69.4857 113.49 69.1947 113.645C68.9038 113.796 68.5841 113.872 68.2355 113.872C67.8658 113.872 67.543 113.807 67.2673 113.677C66.9945 113.546 66.7672 113.368 66.5854 113.14C66.4066 112.913 66.2717 112.652 66.1808 112.358C66.0929 112.061 66.049 111.748 66.049 111.417V111.226C66.049 110.896 66.0929 110.584 66.1808 110.29C66.2717 109.993 66.4066 109.731 66.5854 109.504C66.7672 109.276 66.9945 109.097 67.2673 108.967C67.543 108.837 67.8658 108.772 68.2355 108.772C68.6204 108.772 68.9568 108.85 69.2447 109.008C69.5326 109.163 69.7584 109.375 69.9221 109.644C70.0887 109.911 70.1797 110.214 70.1948 110.554H69.3947C69.3796 110.351 69.322 110.167 69.222 110.004C69.125 109.84 68.9917 109.71 68.822 109.613C68.6553 109.513 68.4598 109.463 68.2355 109.463C67.9779 109.463 67.7613 109.514 67.5855 109.617C67.4127 109.717 67.2748 109.854 67.1718 110.026C67.0718 110.196 66.9991 110.385 66.9536 110.595C66.9112 110.801 66.89 111.011 66.89 111.226V111.417C66.89 111.633 66.9112 111.845 66.9536 112.054C66.996 112.263 67.0672 112.452 67.1673 112.622C67.2703 112.792 67.4082 112.928 67.5809 113.031C67.7567 113.131 67.9749 113.181 68.2355 113.181ZM73.1997 108.863V109.508H70.5403V108.863H73.1997ZM71.4404 107.667H72.2814V112.563C72.2814 112.73 72.3071 112.855 72.3587 112.94C72.4102 113.025 72.4769 113.081 72.5587 113.108C72.6405 113.136 72.7284 113.149 72.8224 113.149C72.8921 113.149 72.9648 113.143 73.0406 113.131C73.1193 113.116 73.1784 113.104 73.2178 113.095L73.2224 113.781C73.1557 113.802 73.0678 113.822 72.9587 113.84C72.8527 113.862 72.7239 113.872 72.5723 113.872C72.3662 113.872 72.1768 113.831 72.0041 113.749C71.8313 113.668 71.6935 113.531 71.5904 113.34C71.4904 113.146 71.4404 112.886 71.4404 112.558V107.667ZM75.0998 108.863V113.781H74.2543V108.863H75.0998ZM74.1907 107.558C74.1907 107.422 74.2316 107.306 74.3134 107.212C74.3983 107.118 74.5225 107.072 74.6862 107.072C74.8468 107.072 74.9695 107.118 75.0544 107.212C75.1423 107.306 75.1862 107.422 75.1862 107.558C75.1862 107.688 75.1423 107.8 75.0544 107.894C74.9695 107.985 74.8468 108.031 74.6862 108.031C74.5225 108.031 74.3983 107.985 74.3134 107.894C74.2316 107.8 74.1907 107.688 74.1907 107.558ZM76.2272 111.376V111.272C76.2272 110.917 76.2787 110.589 76.3818 110.285C76.4848 109.979 76.6333 109.714 76.8273 109.49C77.0212 109.263 77.2561 109.087 77.5319 108.963C77.8077 108.835 78.1168 108.772 78.4593 108.772C78.8048 108.772 79.1154 108.835 79.3912 108.963C79.67 109.087 79.9064 109.263 80.1003 109.49C80.2973 109.714 80.4473 109.979 80.5504 110.285C80.6534 110.589 80.7049 110.917 80.7049 111.272V111.376C80.7049 111.731 80.6534 112.06 80.5504 112.363C80.4473 112.666 80.2973 112.931 80.1003 113.158C79.9064 113.383 79.6715 113.559 79.3957 113.686C79.123 113.81 78.8138 113.872 78.4684 113.872C78.1229 113.872 77.8122 113.81 77.5364 113.686C77.2607 113.559 77.0243 113.383 76.8273 113.158C76.6333 112.931 76.4848 112.666 76.3818 112.363C76.2787 112.06 76.2272 111.731 76.2272 111.376ZM77.0682 111.272V111.376C77.0682 111.622 77.097 111.854 77.1546 112.072C77.2122 112.287 77.2985 112.478 77.4137 112.645C77.5319 112.811 77.6789 112.943 77.8547 113.04C78.0304 113.134 78.235 113.181 78.4684 113.181C78.6987 113.181 78.9002 113.134 79.073 113.04C79.2487 112.943 79.3942 112.811 79.5094 112.645C79.6245 112.478 79.7109 112.287 79.7685 112.072C79.8291 111.854 79.8594 111.622 79.8594 111.376V111.272C79.8594 111.029 79.8291 110.801 79.7685 110.585C79.7109 110.367 79.623 110.175 79.5048 110.008C79.3897 109.838 79.2442 109.705 79.0684 109.608C78.8957 109.511 78.6926 109.463 78.4593 109.463C78.2289 109.463 78.0259 109.511 77.8501 109.608C77.6774 109.705 77.5319 109.838 77.4137 110.008C77.2985 110.175 77.2122 110.367 77.1546 110.585C77.097 110.801 77.0682 111.029 77.0682 111.272ZM82.6006 109.913V113.781H81.7596V108.863H82.5551L82.6006 109.913ZM82.4006 111.136L82.0505 111.122C82.0535 110.786 82.1036 110.475 82.2005 110.19C82.2975 109.902 82.4339 109.652 82.6097 109.44C82.7854 109.228 82.9946 109.064 83.237 108.949C83.4825 108.831 83.7537 108.772 84.0507 108.772C84.2932 108.772 84.5114 108.805 84.7053 108.872C84.8993 108.935 85.0644 109.038 85.2008 109.181C85.3402 109.323 85.4463 109.508 85.519 109.735C85.5918 109.96 85.6281 110.234 85.6281 110.558V113.781H84.7826V110.549C84.7826 110.292 84.7447 110.085 84.669 109.931C84.5932 109.773 84.4826 109.66 84.3371 109.59C84.1916 109.517 84.0128 109.481 83.8007 109.481C83.5916 109.481 83.4007 109.525 83.2279 109.613C83.0582 109.701 82.9112 109.822 82.787 109.976C82.6657 110.131 82.5703 110.308 82.5006 110.508C82.4339 110.705 82.4006 110.914 82.4006 111.136Z" fill="#181716"/>
<path d="M114.517 111.225V112.015H111.982V111.225H114.517ZM118.227 106.045V107.63H117.448V106.045H118.227ZM118.133 114.529V115.917H117.359V114.529H118.133ZM119.172 112.888C119.172 112.68 119.126 112.493 119.032 112.327C118.939 112.16 118.785 112.008 118.57 111.869C118.355 111.731 118.068 111.603 117.707 111.485C117.271 111.35 116.893 111.185 116.575 110.991C116.26 110.797 116.015 110.557 115.842 110.269C115.673 109.982 115.588 109.634 115.588 109.225C115.588 108.799 115.679 108.432 115.863 108.124C116.047 107.815 116.306 107.578 116.642 107.412C116.978 107.246 117.373 107.162 117.827 107.162C118.18 107.162 118.495 107.216 118.772 107.324C119.05 107.427 119.283 107.583 119.474 107.791C119.668 107.999 119.815 108.253 119.915 108.555C120.019 108.856 120.071 109.204 120.071 109.599H119.115C119.115 109.367 119.088 109.154 119.032 108.96C118.977 108.766 118.894 108.598 118.783 108.456C118.672 108.311 118.537 108.2 118.378 108.124C118.218 108.044 118.035 108.004 117.827 108.004C117.536 108.004 117.295 108.054 117.105 108.155C116.918 108.255 116.779 108.397 116.689 108.581C116.599 108.761 116.554 108.97 116.554 109.209C116.554 109.431 116.599 109.625 116.689 109.791C116.779 109.958 116.932 110.108 117.146 110.243C117.364 110.375 117.664 110.505 118.045 110.633C118.492 110.775 118.871 110.943 119.183 111.137C119.495 111.327 119.732 111.563 119.895 111.843C120.057 112.121 120.139 112.465 120.139 112.877C120.139 113.324 120.038 113.702 119.837 114.01C119.637 114.315 119.354 114.547 118.991 114.706C118.627 114.865 118.201 114.945 117.713 114.945C117.418 114.945 117.127 114.905 116.84 114.826C116.552 114.746 116.293 114.616 116.06 114.436C115.828 114.252 115.643 114.012 115.505 113.714C115.366 113.412 115.297 113.044 115.297 112.607H116.263C116.263 112.902 116.305 113.146 116.388 113.34C116.474 113.53 116.589 113.683 116.731 113.797C116.873 113.908 117.029 113.987 117.198 114.036C117.371 114.081 117.543 114.103 117.713 114.103C118.024 114.103 118.288 114.055 118.502 113.958C118.72 113.857 118.887 113.715 119.001 113.532C119.115 113.348 119.172 113.134 119.172 112.888ZM126.451 112.29V113.08H120.986V112.514L124.373 107.272H125.157L124.316 108.789L122.077 112.29H126.451ZM125.396 107.272V114.836H124.435V107.272H125.396ZM128.54 111.236L127.771 111.038L128.15 107.272H132.031V108.16H128.966L128.737 110.217C128.876 110.138 129.05 110.063 129.262 109.994C129.476 109.925 129.722 109.89 129.999 109.89C130.349 109.89 130.663 109.951 130.94 110.072C131.217 110.19 131.452 110.359 131.646 110.581C131.844 110.803 131.994 111.069 132.098 111.381C132.202 111.693 132.254 112.041 132.254 112.425C132.254 112.789 132.204 113.123 132.104 113.428C132.007 113.733 131.859 113.999 131.662 114.228C131.465 114.453 131.215 114.628 130.914 114.753C130.616 114.877 130.264 114.94 129.859 114.94C129.554 114.94 129.265 114.898 128.992 114.815C128.721 114.729 128.479 114.599 128.264 114.426C128.053 114.249 127.88 114.031 127.745 113.771C127.613 113.508 127.53 113.199 127.495 112.846H128.41C128.451 113.13 128.534 113.369 128.659 113.563C128.784 113.757 128.947 113.904 129.147 114.005C129.352 114.102 129.589 114.15 129.859 114.15C130.088 114.15 130.29 114.11 130.467 114.031C130.644 113.951 130.793 113.837 130.914 113.688C131.035 113.539 131.127 113.359 131.189 113.147C131.255 112.936 131.288 112.699 131.288 112.436C131.288 112.197 131.255 111.975 131.189 111.771C131.123 111.566 131.025 111.388 130.893 111.236C130.765 111.083 130.607 110.965 130.42 110.882C130.233 110.796 130.019 110.752 129.776 110.752C129.454 110.752 129.21 110.796 129.044 110.882C128.881 110.969 128.713 111.087 128.54 111.236ZM138.057 110.451V111.604C138.057 112.224 138.002 112.747 137.891 113.173C137.78 113.599 137.621 113.942 137.413 114.202C137.205 114.462 136.954 114.651 136.66 114.768C136.369 114.883 136.04 114.94 135.673 114.94C135.382 114.94 135.113 114.903 134.867 114.831C134.622 114.758 134.4 114.642 134.202 114.483C134.009 114.32 133.842 114.109 133.704 113.849C133.565 113.589 133.46 113.274 133.387 112.903C133.314 112.533 133.278 112.1 133.278 111.604V110.451C133.278 109.831 133.333 109.312 133.444 108.893C133.558 108.473 133.719 108.137 133.927 107.885C134.135 107.628 134.384 107.445 134.675 107.334C134.97 107.223 135.299 107.168 135.662 107.168C135.957 107.168 136.227 107.204 136.473 107.277C136.722 107.346 136.944 107.459 137.138 107.614C137.332 107.767 137.496 107.971 137.631 108.228C137.77 108.48 137.876 108.79 137.948 109.157C138.021 109.525 138.057 109.956 138.057 110.451ZM137.091 111.76V110.29C137.091 109.951 137.07 109.653 137.029 109.396C136.991 109.137 136.934 108.915 136.857 108.731C136.781 108.548 136.684 108.399 136.566 108.285C136.452 108.17 136.319 108.087 136.166 108.035C136.017 107.98 135.849 107.952 135.662 107.952C135.434 107.952 135.231 107.995 135.055 108.082C134.878 108.165 134.729 108.299 134.608 108.482C134.49 108.666 134.4 108.906 134.338 109.204C134.275 109.502 134.244 109.864 134.244 110.29V111.76C134.244 112.1 134.263 112.399 134.301 112.659C134.343 112.919 134.403 113.144 134.483 113.334C134.563 113.522 134.66 113.676 134.774 113.797C134.888 113.918 135.02 114.008 135.169 114.067C135.321 114.122 135.489 114.15 135.673 114.15C135.908 114.15 136.114 114.105 136.291 114.015C136.468 113.925 136.615 113.785 136.733 113.594C136.854 113.4 136.944 113.153 137.003 112.851C137.062 112.547 137.091 112.183 137.091 111.76ZM140.271 113.693V114.467C140.271 114.782 140.191 115.115 140.032 115.465C139.872 115.818 139.649 116.112 139.361 116.348L138.816 115.969C138.927 115.816 139.02 115.66 139.096 115.501C139.173 115.345 139.23 115.182 139.268 115.013C139.309 114.846 139.33 114.67 139.33 114.483V113.693H140.271ZM146.141 110.451V111.604C146.141 112.224 146.086 112.747 145.975 113.173C145.864 113.599 145.705 113.942 145.497 114.202C145.289 114.462 145.038 114.651 144.744 114.768C144.453 114.883 144.124 114.94 143.757 114.94C143.466 114.94 143.197 114.903 142.951 114.831C142.705 114.758 142.484 114.642 142.286 114.483C142.092 114.32 141.926 114.109 141.788 113.849C141.649 113.589 141.543 113.274 141.471 112.903C141.398 112.533 141.362 112.1 141.362 111.604V110.451C141.362 109.831 141.417 109.312 141.528 108.893C141.642 108.473 141.803 108.137 142.011 107.885C142.219 107.628 142.468 107.445 142.759 107.334C143.054 107.223 143.383 107.168 143.746 107.168C144.041 107.168 144.311 107.204 144.557 107.277C144.806 107.346 145.028 107.459 145.222 107.614C145.416 107.767 145.58 107.971 145.715 108.228C145.854 108.48 145.959 108.79 146.032 109.157C146.105 109.525 146.141 109.956 146.141 110.451ZM145.175 111.76V110.29C145.175 109.951 145.154 109.653 145.113 109.396C145.075 109.137 145.017 108.915 144.941 108.731C144.865 108.548 144.768 108.399 144.65 108.285C144.536 108.17 144.403 108.087 144.25 108.035C144.101 107.98 143.933 107.952 143.746 107.952C143.518 107.952 143.315 107.995 143.138 108.082C142.962 108.165 142.813 108.299 142.692 108.482C142.574 108.666 142.484 108.906 142.421 109.204C142.359 109.502 142.328 109.864 142.328 110.29V111.76C142.328 112.1 142.347 112.399 142.385 112.659C142.427 112.919 142.487 113.144 142.567 113.334C142.647 113.522 142.744 113.676 142.858 113.797C142.972 113.918 143.104 114.008 143.253 114.067C143.405 114.122 143.573 114.15 143.757 114.15C143.992 114.15 144.198 114.105 144.375 114.015C144.552 113.925 144.699 113.785 144.817 113.594C144.938 113.4 145.028 113.153 145.087 112.851C145.146 112.547 145.175 112.183 145.175 111.76ZM148.594 111.236L147.825 111.038L148.204 107.272H152.085V108.16H149.02L148.791 110.217C148.929 110.138 149.104 110.063 149.316 109.994C149.53 109.925 149.776 109.89 150.053 109.89C150.403 109.89 150.717 109.951 150.994 110.072C151.271 110.19 151.506 110.359 151.7 110.581C151.898 110.803 152.048 111.069 152.152 111.381C152.256 111.693 152.308 112.041 152.308 112.425C152.308 112.789 152.258 113.123 152.157 113.428C152.061 113.733 151.913 113.999 151.716 114.228C151.518 114.453 151.269 114.628 150.968 114.753C150.67 114.877 150.318 114.94 149.913 114.94C149.608 114.94 149.319 114.898 149.046 114.815C148.775 114.729 148.533 114.599 148.318 114.426C148.107 114.249 147.934 114.031 147.799 113.771C147.667 113.508 147.584 113.199 147.549 112.846H148.464C148.505 113.13 148.588 113.369 148.713 113.563C148.838 113.757 149 113.904 149.201 114.005C149.406 114.102 149.643 114.15 149.913 114.15C150.142 114.15 150.344 114.11 150.521 114.031C150.698 113.951 150.847 113.837 150.968 113.688C151.089 113.539 151.181 113.359 151.243 113.147C151.309 112.936 151.342 112.699 151.342 112.436C151.342 112.197 151.309 111.975 151.243 111.771C151.177 111.566 151.079 111.388 150.947 111.236C150.819 111.083 150.661 110.965 150.474 110.882C150.287 110.796 150.072 110.752 149.83 110.752C149.508 110.752 149.264 110.796 149.097 110.882C148.935 110.969 148.767 111.087 148.594 111.236ZM158.252 107.272V107.812L155.119 114.836H154.106L157.233 108.061H153.139V107.272H158.252Z" fill="#181716"/>
<rect opacity="0.15" x="21.9883" y="158.523" width="44.6499" height="3.82714" rx="1.91357" fill="#9A8A7E"/>
<rect opacity="0.15" x="21.9492" y="164.496" width="29.8571" height="4.47858" rx="2.23929" fill="#9A8A7E"/>
<rect opacity="0.15" x="136.166" y="164.794" width="24.2385" height="3.82715" rx="1.91358" fill="#9A8A7E"/>
<rect opacity="0.15" x="131.059" y="158.417" width="29.3414" height="3.82714" rx="1.91357" fill="#9A8A7E"/>
<path opacity="0.5" d="M25.1612 145.977V152.596H24.2975V145.977H25.1612ZM27.2887 145.977V146.695H22.1746V145.977H27.2887ZM30.5254 151.755V149.223C30.5254 149.029 30.486 148.86 30.4072 148.718C30.3314 148.573 30.2163 148.46 30.0617 148.382C29.9071 148.303 29.7162 148.263 29.4889 148.263C29.2768 148.263 29.0904 148.3 28.9298 148.373C28.7722 148.445 28.6479 148.541 28.557 148.659C28.4691 148.777 28.4252 148.904 28.4252 149.041H27.5842C27.5842 148.865 27.6296 148.691 27.7206 148.518C27.8115 148.345 27.9418 148.189 28.1115 148.05C28.2842 147.907 28.4903 147.795 28.7297 147.713C28.9722 147.629 29.2419 147.586 29.5389 147.586C29.8965 147.586 30.2117 147.647 30.4845 147.768C30.7602 147.889 30.9754 148.073 31.13 148.318C31.2876 148.56 31.3664 148.865 31.3664 149.232V151.523C31.3664 151.687 31.38 151.861 31.4073 152.046C31.4376 152.231 31.4815 152.39 31.5391 152.523V152.596H30.6617C30.6193 152.499 30.586 152.37 30.5617 152.209C30.5375 152.046 30.5254 151.894 30.5254 151.755ZM30.6708 149.614L30.6799 150.205H29.8299C29.5904 150.205 29.3768 150.224 29.1889 150.264C29.001 150.3 28.8434 150.356 28.7161 150.432C28.5888 150.508 28.4918 150.603 28.4252 150.718C28.3585 150.83 28.3252 150.962 28.3252 151.114C28.3252 151.268 28.36 151.409 28.4297 151.537C28.4994 151.664 28.604 151.765 28.7434 151.841C28.8858 151.914 29.0601 151.95 29.2662 151.95C29.5238 151.95 29.7511 151.896 29.948 151.787C30.145 151.677 30.3011 151.544 30.4163 151.386C30.5345 151.229 30.5981 151.076 30.6072 150.927L30.9663 151.332C30.9451 151.459 30.8875 151.6 30.7936 151.755C30.6996 151.909 30.5739 152.058 30.4163 152.2C30.2617 152.34 30.0768 152.456 29.8617 152.55C29.6495 152.641 29.4101 152.687 29.1434 152.687C28.8101 152.687 28.5176 152.621 28.2661 152.491C28.0176 152.361 27.8236 152.187 27.6842 151.968C27.5478 151.747 27.4796 151.5 27.4796 151.227C27.4796 150.964 27.5311 150.732 27.6342 150.532C27.7372 150.329 27.8857 150.161 28.0797 150.027C28.2736 149.891 28.507 149.788 28.7797 149.718C29.0525 149.648 29.3571 149.614 29.6935 149.614H30.6708ZM33.2575 147.677L34.3348 149.468L35.4258 147.677H36.4123L34.8031 150.105L36.4623 152.596H35.4895L34.353 150.75L33.2165 152.596H32.2392L33.8939 150.105L32.2892 147.677H33.2575ZM40.2081 151.755V149.223C40.2081 149.029 40.1687 148.86 40.0899 148.718C40.0142 148.573 39.899 148.46 39.7445 148.382C39.5899 148.303 39.399 148.263 39.1717 148.263C38.9595 148.263 38.7731 148.3 38.6125 148.373C38.4549 148.445 38.3307 148.541 38.2398 148.659C38.1519 148.777 38.1079 148.904 38.1079 149.041H37.2669C37.2669 148.865 37.3124 148.691 37.4033 148.518C37.4942 148.345 37.6245 148.189 37.7943 148.05C37.967 147.907 38.1731 147.795 38.4125 147.713C38.655 147.629 38.9247 147.586 39.2217 147.586C39.5793 147.586 39.8945 147.647 40.1672 147.768C40.443 147.889 40.6582 148.073 40.8127 148.318C40.9703 148.56 41.0491 148.865 41.0491 149.232V151.523C41.0491 151.687 41.0628 151.861 41.09 152.046C41.1203 152.231 41.1643 152.39 41.2219 152.523V152.596H40.3445C40.3021 152.499 40.2687 152.37 40.2445 152.209C40.2203 152.046 40.2081 151.894 40.2081 151.755ZM40.3536 149.614L40.3627 150.205H39.5126C39.2732 150.205 39.0595 150.224 38.8716 150.264C38.6837 150.3 38.5262 150.356 38.3989 150.432C38.2716 150.508 38.1746 150.603 38.1079 150.718C38.0413 150.83 38.0079 150.962 38.0079 151.114C38.0079 151.268 38.0428 151.409 38.1125 151.537C38.1822 151.664 38.2867 151.765 38.4261 151.841C38.5686 151.914 38.7428 151.95 38.9489 151.95C39.2065 151.95 39.4338 151.896 39.6308 151.787C39.8278 151.677 39.9839 151.544 40.099 151.386C40.2172 151.229 40.2809 151.076 40.29 150.927L40.6491 151.332C40.6279 151.459 40.5703 151.6 40.4763 151.755C40.3824 151.909 40.2566 152.058 40.099 152.2C39.9445 152.34 39.7596 152.456 39.5444 152.55C39.3323 152.641 39.0929 152.687 38.8262 152.687C38.4928 152.687 38.2004 152.621 37.9488 152.491C37.7003 152.361 37.5064 152.187 37.3669 151.968C37.2306 151.747 37.1624 151.5 37.1624 151.227C37.1624 150.964 37.2139 150.732 37.3169 150.532C37.42 150.329 37.5685 150.161 37.7624 150.027C37.9564 149.891 38.1898 149.788 38.4625 149.718C38.7353 149.648 39.0398 149.614 39.3762 149.614H40.3536ZM42.3674 145.613H43.213V151.641L43.1402 152.596H42.3674V145.613ZM46.536 150.095V150.191C46.536 150.549 46.4936 150.88 46.4087 151.186C46.3239 151.49 46.1996 151.753 46.036 151.977C45.8723 152.202 45.6723 152.376 45.4359 152.5C45.1995 152.624 44.9283 152.687 44.6222 152.687C44.31 152.687 44.0358 152.634 43.7994 152.528C43.566 152.418 43.369 152.262 43.2084 152.059C43.0478 151.856 42.919 151.611 42.822 151.323C42.7281 151.035 42.6629 150.711 42.6266 150.35V149.932C42.6629 149.568 42.7281 149.242 42.822 148.954C42.919 148.667 43.0478 148.421 43.2084 148.218C43.369 148.012 43.566 147.856 43.7994 147.75C44.0327 147.641 44.304 147.586 44.6131 147.586C44.9222 147.586 45.1965 147.647 45.4359 147.768C45.6753 147.886 45.8754 148.056 46.036 148.277C46.1996 148.498 46.3239 148.764 46.4087 149.073C46.4936 149.379 46.536 149.72 46.536 150.095ZM45.6905 150.191V150.095C45.6905 149.85 45.6678 149.62 45.6223 149.404C45.5768 149.186 45.5041 148.995 45.4041 148.832C45.3041 148.665 45.1723 148.535 45.0086 148.441C44.8449 148.344 44.6434 148.295 44.404 148.295C44.1919 148.295 44.007 148.332 43.8494 148.404C43.6948 148.477 43.563 148.576 43.4539 148.7C43.3448 148.821 43.2554 148.961 43.1857 149.118C43.119 149.273 43.069 149.433 43.0357 149.6V150.696C43.0842 150.908 43.163 151.112 43.2721 151.309C43.3842 151.503 43.5327 151.662 43.7176 151.787C43.9055 151.911 44.1373 151.973 44.4131 151.973C44.6404 151.973 44.8343 151.927 44.995 151.837C45.1586 151.743 45.2904 151.614 45.3905 151.45C45.4935 151.286 45.5693 151.097 45.6178 150.882C45.6662 150.667 45.6905 150.436 45.6905 150.191ZM48.5135 145.613V152.596H47.6679V145.613H48.5135ZM51.9047 152.687C51.5623 152.687 51.2516 152.629 50.9728 152.514C50.697 152.396 50.4591 152.231 50.2591 152.018C50.0621 151.806 49.9106 151.555 49.8045 151.264C49.6985 150.973 49.6454 150.655 49.6454 150.309V150.118C49.6454 149.718 49.7045 149.362 49.8227 149.05C49.9409 148.735 50.1015 148.468 50.3046 148.25C50.5076 148.032 50.7379 147.866 50.9955 147.754C51.2531 147.642 51.5198 147.586 51.7956 147.586C52.1472 147.586 52.4502 147.647 52.7048 147.768C52.9624 147.889 53.173 148.059 53.3367 148.277C53.5003 148.492 53.6216 148.747 53.7004 149.041C53.7792 149.332 53.8185 149.65 53.8185 149.995V150.373H50.1455V149.686H52.9776V149.623C52.9654 149.404 52.92 149.192 52.8412 148.986C52.7654 148.78 52.6442 148.61 52.4775 148.477C52.3108 148.344 52.0835 148.277 51.7956 148.277C51.6047 148.277 51.4289 148.318 51.2683 148.4C51.1077 148.479 50.9698 148.597 50.8546 148.754C50.7395 148.912 50.6501 149.104 50.5864 149.332C50.5228 149.559 50.491 149.821 50.491 150.118V150.309C50.491 150.542 50.5228 150.762 50.5864 150.968C50.6531 151.171 50.7486 151.35 50.8728 151.505C51.0001 151.659 51.1531 151.78 51.3319 151.868C51.5138 151.956 51.7199 152 51.9502 152C52.2472 152 52.4987 151.94 52.7048 151.818C52.9109 151.697 53.0912 151.535 53.2458 151.332L53.7549 151.737C53.6488 151.897 53.514 152.05 53.3503 152.196C53.1867 152.341 52.9851 152.459 52.7457 152.55C52.5093 152.641 52.229 152.687 51.9047 152.687ZM58.0235 147.677V152.596H57.178V147.677H58.0235ZM57.1143 146.372C57.1143 146.236 57.1552 146.121 57.2371 146.027C57.3219 145.933 57.4462 145.886 57.6098 145.886C57.7704 145.886 57.8932 145.933 57.978 146.027C58.0659 146.121 58.1099 146.236 58.1099 146.372C58.1099 146.503 58.0659 146.615 57.978 146.709C57.8932 146.8 57.7704 146.845 57.6098 146.845C57.4462 146.845 57.3219 146.8 57.2371 146.709C57.1552 146.615 57.1143 146.503 57.1143 146.372ZM60.2146 148.727V152.596H59.3736V147.677H60.1692L60.2146 148.727ZM60.0146 149.95L59.6646 149.936C59.6676 149.6 59.7176 149.289 59.8146 149.004C59.9116 148.717 60.0479 148.467 60.2237 148.254C60.3995 148.042 60.6086 147.879 60.8511 147.763C61.0965 147.645 61.3678 147.586 61.6648 147.586C61.9072 147.586 62.1254 147.619 62.3194 147.686C62.5133 147.75 62.6785 147.853 62.8149 147.995C62.9543 148.138 63.0604 148.323 63.1331 148.55C63.2058 148.774 63.2422 149.048 63.2422 149.373V152.596H62.3967V149.364C62.3967 149.106 62.3588 148.9 62.283 148.745C62.2072 148.588 62.0966 148.474 61.9512 148.404C61.8057 148.332 61.6269 148.295 61.4147 148.295C61.2056 148.295 61.0147 148.339 60.842 148.427C60.6722 148.515 60.5253 148.636 60.401 148.791C60.2798 148.945 60.1843 149.123 60.1146 149.323C60.0479 149.52 60.0146 149.729 60.0146 149.95ZM66.488 151.996C66.688 151.996 66.8728 151.955 67.0426 151.873C67.2123 151.791 67.3517 151.679 67.4608 151.537C67.5699 151.391 67.632 151.226 67.6472 151.041H68.4472C68.4321 151.332 68.3336 151.603 68.1518 151.855C67.973 152.103 67.7381 152.305 67.4471 152.459C67.1562 152.611 66.8365 152.687 66.488 152.687C66.1182 152.687 65.7955 152.621 65.5197 152.491C65.2469 152.361 65.0196 152.182 64.8378 151.955C64.659 151.727 64.5241 151.467 64.4332 151.173C64.3453 150.876 64.3014 150.562 64.3014 150.232V150.041C64.3014 149.711 64.3453 149.398 64.4332 149.104C64.5241 148.807 64.659 148.545 64.8378 148.318C65.0196 148.091 65.2469 147.912 65.5197 147.782C65.7955 147.651 66.1182 147.586 66.488 147.586C66.8728 147.586 67.2092 147.665 67.4972 147.823C67.7851 147.977 68.0108 148.189 68.1745 148.459C68.3412 148.726 68.4321 149.029 68.4472 149.368H67.6472C67.632 149.165 67.5744 148.982 67.4744 148.818C67.3774 148.654 67.2441 148.524 67.0744 148.427C66.9077 148.327 66.7122 148.277 66.488 148.277C66.2304 148.277 66.0137 148.329 65.8379 148.432C65.6652 148.532 65.5273 148.668 65.4242 148.841C65.3242 149.011 65.2515 149.2 65.206 149.409C65.1636 149.615 65.1424 149.826 65.1424 150.041V150.232C65.1424 150.447 65.1636 150.659 65.206 150.868C65.2484 151.077 65.3197 151.267 65.4197 151.436C65.5227 151.606 65.6606 151.743 65.8334 151.846C66.0091 151.946 66.2273 151.996 66.488 151.996ZM69.17 150.191V150.086C69.17 149.732 69.2216 149.403 69.3246 149.1C69.4276 148.794 69.5761 148.529 69.7701 148.304C69.9641 148.077 70.1989 147.901 70.4747 147.777C70.7505 147.65 71.0596 147.586 71.4021 147.586C71.7476 147.586 72.0582 147.65 72.334 147.777C72.6128 147.901 72.8492 148.077 73.0431 148.304C73.2401 148.529 73.3901 148.794 73.4932 149.1C73.5962 149.403 73.6478 149.732 73.6478 150.086V150.191C73.6478 150.546 73.5962 150.874 73.4932 151.177C73.3901 151.48 73.2401 151.746 73.0431 151.973C72.8492 152.197 72.6143 152.373 72.3385 152.5C72.0658 152.624 71.7567 152.687 71.4112 152.687C71.0657 152.687 70.755 152.624 70.4793 152.5C70.2035 152.373 69.9671 152.197 69.7701 151.973C69.5761 151.746 69.4276 151.48 69.3246 151.177C69.2216 150.874 69.17 150.546 69.17 150.191ZM70.011 150.086V150.191C70.011 150.436 70.0398 150.668 70.0974 150.886C70.155 151.102 70.2414 151.293 70.3565 151.459C70.4747 151.626 70.6217 151.758 70.7975 151.855C70.9732 151.949 71.1778 151.996 71.4112 151.996C71.6415 151.996 71.843 151.949 72.0158 151.855C72.1915 151.758 72.337 151.626 72.4522 151.459C72.5673 151.293 72.6537 151.102 72.7113 150.886C72.7719 150.668 72.8022 150.436 72.8022 150.191V150.086C72.8022 149.844 72.7719 149.615 72.7113 149.4C72.6537 149.182 72.5658 148.989 72.4476 148.823C72.3325 148.653 72.187 148.52 72.0112 148.423C71.8385 148.326 71.6354 148.277 71.4021 148.277C71.1718 148.277 70.9687 148.326 70.7929 148.423C70.6202 148.52 70.4747 148.653 70.3565 148.823C70.2414 148.989 70.155 149.182 70.0974 149.4C70.0398 149.615 70.011 149.844 70.011 150.086ZM75.5388 148.654V152.596H74.6933V147.677H75.4934L75.5388 148.654ZM75.3661 149.95L74.9752 149.936C74.9782 149.6 75.0221 149.289 75.107 149.004C75.1918 148.717 75.3176 148.467 75.4843 148.254C75.651 148.042 75.8586 147.879 76.1071 147.763C76.3556 147.645 76.6435 147.586 76.9708 147.586C77.2011 147.586 77.4133 147.619 77.6072 147.686C77.8012 147.75 77.9694 147.851 78.1118 147.991C78.2543 148.13 78.3649 148.309 78.4437 148.527C78.5225 148.745 78.5619 149.009 78.5619 149.318V152.596H77.7209V149.359C77.7209 149.101 77.6769 148.895 77.589 148.741C77.5042 148.586 77.383 148.474 77.2254 148.404C77.0678 148.332 76.8829 148.295 76.6708 148.295C76.4223 148.295 76.2147 148.339 76.048 148.427C75.8813 148.515 75.748 148.636 75.6479 148.791C75.5479 148.945 75.4752 149.123 75.4297 149.323C75.3873 149.52 75.3661 149.729 75.3661 149.95ZM78.5528 149.486L77.9891 149.659C77.9921 149.389 78.0361 149.13 78.1209 148.882C78.2088 148.633 78.3346 148.412 78.4982 148.218C78.6649 148.024 78.8695 147.871 79.1119 147.759C79.3544 147.644 79.6317 147.586 79.9438 147.586C80.2075 147.586 80.4408 147.621 80.6439 147.691C80.85 147.76 81.0227 147.868 81.1621 148.013C81.3046 148.156 81.4121 148.339 81.4849 148.563C81.5576 148.788 81.594 149.054 81.594 149.364V152.596H80.7484V149.354C80.7484 149.079 80.7045 148.865 80.6166 148.714C80.5318 148.559 80.4105 148.451 80.2529 148.391C80.0984 148.327 79.9135 148.295 79.6983 148.295C79.5135 148.295 79.3498 148.327 79.2074 148.391C79.0649 148.454 78.9452 148.542 78.8483 148.654C78.7513 148.764 78.677 148.889 78.6255 149.032C78.577 149.174 78.5528 149.326 78.5528 149.486ZM84.9079 152.687C84.5655 152.687 84.2548 152.629 83.976 152.514C83.7002 152.396 83.4623 152.231 83.2623 152.018C83.0653 151.806 82.9138 151.555 82.8077 151.264C82.7017 150.973 82.6486 150.655 82.6486 150.309V150.118C82.6486 149.718 82.7077 149.362 82.8259 149.05C82.9441 148.735 83.1047 148.468 83.3078 148.25C83.5108 148.032 83.7412 147.866 83.9988 147.754C84.2564 147.642 84.523 147.586 84.7988 147.586C85.1504 147.586 85.4534 147.647 85.708 147.768C85.9656 147.889 86.1762 148.059 86.3399 148.277C86.5035 148.492 86.6248 148.747 86.7036 149.041C86.7824 149.332 86.8218 149.65 86.8218 149.995V150.373H83.1487V149.686H85.9808V149.623C85.9686 149.404 85.9232 149.192 85.8444 148.986C85.7686 148.78 85.6474 148.61 85.4807 148.477C85.314 148.344 85.0867 148.277 84.7988 148.277C84.6079 148.277 84.4321 148.318 84.2715 148.4C84.1109 148.479 83.973 148.597 83.8578 148.754C83.7427 148.912 83.6533 149.104 83.5896 149.332C83.526 149.559 83.4942 149.821 83.4942 150.118V150.309C83.4942 150.542 83.526 150.762 83.5896 150.968C83.6563 151.171 83.7518 151.35 83.876 151.505C84.0033 151.659 84.1563 151.78 84.3352 151.868C84.517 151.956 84.7231 152 84.9534 152C85.2504 152 85.5019 151.94 85.708 151.818C85.9141 151.697 86.0944 151.535 86.249 151.332L86.7581 151.737C86.652 151.897 86.5172 152.05 86.3535 152.196C86.1899 152.341 85.9883 152.459 85.7489 152.55C85.5125 152.641 85.2322 152.687 84.9079 152.687Z" fill="#181716"/>
<path d="M118.995 143.041V144.625H118.216V143.041H118.995ZM118.901 151.525V152.912H118.127V151.525H118.901ZM119.94 149.883C119.94 149.675 119.894 149.488 119.8 149.322C119.707 149.155 119.553 149.003 119.338 148.865C119.123 148.726 118.836 148.598 118.475 148.48C118.039 148.345 117.661 148.18 117.343 147.987C117.028 147.793 116.783 147.552 116.61 147.264C116.441 146.977 116.356 146.629 116.356 146.22C116.356 145.794 116.447 145.427 116.631 145.119C116.815 144.81 117.074 144.573 117.41 144.407C117.746 144.241 118.141 144.158 118.595 144.158C118.948 144.158 119.263 144.211 119.54 144.319C119.818 144.423 120.051 144.578 120.242 144.786C120.436 144.994 120.583 145.249 120.683 145.55C120.787 145.851 120.839 146.199 120.839 146.594H119.883C119.883 146.362 119.856 146.149 119.8 145.955C119.745 145.761 119.662 145.593 119.551 145.451C119.44 145.306 119.305 145.195 119.146 145.119C118.986 145.039 118.803 144.999 118.595 144.999C118.304 144.999 118.063 145.049 117.873 145.15C117.686 145.25 117.547 145.392 117.457 145.576C117.367 145.756 117.322 145.966 117.322 146.205C117.322 146.426 117.367 146.62 117.457 146.786C117.547 146.953 117.7 147.103 117.914 147.238C118.133 147.37 118.432 147.5 118.813 147.628C119.26 147.77 119.639 147.938 119.951 148.132C120.263 148.322 120.5 148.558 120.663 148.839C120.825 149.116 120.907 149.46 120.907 149.872C120.907 150.319 120.806 150.697 120.605 151.005C120.405 151.31 120.122 151.542 119.759 151.701C119.395 151.86 118.969 151.94 118.481 151.94C118.186 151.94 117.895 151.9 117.608 151.821C117.32 151.741 117.061 151.611 116.828 151.431C116.596 151.247 116.411 151.007 116.273 150.709C116.134 150.408 116.065 150.039 116.065 149.602H117.031C117.031 149.897 117.073 150.141 117.156 150.335C117.242 150.525 117.357 150.678 117.499 150.792C117.641 150.903 117.797 150.982 117.966 151.031C118.139 151.076 118.311 151.099 118.481 151.099C118.792 151.099 119.056 151.05 119.27 150.953C119.488 150.853 119.655 150.711 119.769 150.527C119.883 150.343 119.94 150.129 119.94 149.883ZM123.51 147.576H124.195C124.531 147.576 124.808 147.521 125.027 147.41C125.248 147.296 125.413 147.141 125.52 146.947C125.631 146.75 125.686 146.528 125.686 146.282C125.686 145.992 125.638 145.747 125.541 145.55C125.444 145.353 125.299 145.204 125.105 145.103C124.911 145.003 124.665 144.952 124.367 144.952C124.097 144.952 123.858 145.006 123.65 145.114C123.446 145.217 123.285 145.366 123.167 145.56C123.052 145.754 122.995 145.983 122.995 146.246H122.034C122.034 145.862 122.131 145.512 122.325 145.197C122.519 144.881 122.791 144.63 123.141 144.443C123.494 144.256 123.903 144.163 124.367 144.163C124.824 144.163 125.224 144.244 125.567 144.407C125.91 144.566 126.177 144.805 126.367 145.124C126.558 145.439 126.653 145.832 126.653 146.303C126.653 146.494 126.608 146.698 126.518 146.916C126.431 147.131 126.294 147.332 126.107 147.519C125.924 147.706 125.685 147.86 125.39 147.981C125.096 148.099 124.743 148.158 124.331 148.158H123.51V147.576ZM123.51 148.366V147.789H124.331C124.812 147.789 125.21 147.846 125.525 147.961C125.841 148.075 126.088 148.227 126.268 148.418C126.452 148.608 126.58 148.818 126.653 149.046C126.729 149.271 126.767 149.497 126.767 149.722C126.767 150.075 126.707 150.388 126.585 150.662C126.468 150.936 126.3 151.168 126.081 151.358C125.867 151.549 125.614 151.693 125.323 151.789C125.032 151.886 124.715 151.935 124.372 151.935C124.043 151.935 123.733 151.888 123.442 151.795C123.155 151.701 122.9 151.566 122.678 151.389C122.457 151.209 122.284 150.989 122.159 150.73C122.034 150.466 121.972 150.167 121.972 149.831H122.933C122.933 150.094 122.99 150.324 123.104 150.522C123.222 150.719 123.388 150.873 123.603 150.984C123.821 151.092 124.078 151.145 124.372 151.145C124.666 151.145 124.919 151.095 125.131 150.995C125.345 150.891 125.51 150.735 125.624 150.527C125.742 150.319 125.801 150.058 125.801 149.743C125.801 149.427 125.735 149.169 125.603 148.968C125.472 148.764 125.285 148.613 125.042 148.516C124.803 148.416 124.521 148.366 124.195 148.366H123.51ZM132.84 147.446V148.6C132.84 149.22 132.785 149.743 132.674 150.169C132.563 150.595 132.404 150.937 132.196 151.197C131.988 151.457 131.737 151.646 131.443 151.764C131.152 151.878 130.823 151.935 130.456 151.935C130.165 151.935 129.896 151.899 129.651 151.826C129.405 151.753 129.183 151.637 128.986 151.478C128.792 151.315 128.625 151.104 128.487 150.844C128.348 150.584 128.243 150.269 128.17 149.898C128.097 149.528 128.061 149.095 128.061 148.6V147.446C128.061 146.826 128.116 146.307 128.227 145.888C128.341 145.469 128.502 145.133 128.71 144.88C128.918 144.623 129.167 144.44 129.458 144.329C129.753 144.218 130.082 144.163 130.445 144.163C130.74 144.163 131.01 144.199 131.256 144.272C131.505 144.341 131.727 144.454 131.921 144.61C132.115 144.762 132.279 144.966 132.414 145.223C132.553 145.475 132.659 145.785 132.731 146.153C132.804 146.52 132.84 146.951 132.84 147.446ZM131.874 148.755V147.285C131.874 146.946 131.853 146.648 131.812 146.392C131.774 146.132 131.717 145.91 131.64 145.727C131.564 145.543 131.467 145.394 131.349 145.28C131.235 145.165 131.102 145.082 130.949 145.03C130.8 144.975 130.632 144.947 130.445 144.947C130.217 144.947 130.014 144.991 129.838 145.077C129.661 145.16 129.512 145.294 129.391 145.477C129.273 145.661 129.183 145.901 129.121 146.199C129.058 146.497 129.027 146.859 129.027 147.285V148.755C129.027 149.095 129.046 149.394 129.084 149.654C129.126 149.914 129.186 150.139 129.266 150.33C129.346 150.517 129.443 150.671 129.557 150.792C129.671 150.913 129.803 151.003 129.952 151.062C130.104 151.118 130.272 151.145 130.456 151.145C130.691 151.145 130.897 151.1 131.074 151.01C131.251 150.92 131.398 150.78 131.516 150.589C131.637 150.395 131.727 150.148 131.786 149.846C131.845 149.542 131.874 149.178 131.874 148.755ZM139.189 149.285V150.075H133.724V149.509L137.111 144.267H137.895L137.054 145.784L134.815 149.285H139.189ZM138.134 144.267V151.831H137.173V144.267H138.134ZM141.039 150.688V151.462C141.039 151.777 140.959 152.11 140.8 152.46C140.64 152.813 140.417 153.107 140.129 153.343L139.584 152.964C139.695 152.811 139.788 152.655 139.864 152.496C139.941 152.34 139.998 152.177 140.036 152.008C140.077 151.841 140.098 151.665 140.098 151.478V150.688H141.039ZM143.377 148.231L142.608 148.033L142.987 144.267H146.868V145.155H143.803L143.574 147.212C143.712 147.133 143.887 147.058 144.099 146.989C144.313 146.92 144.559 146.885 144.836 146.885C145.186 146.885 145.5 146.946 145.777 147.067C146.054 147.185 146.289 147.354 146.483 147.576C146.681 147.798 146.831 148.064 146.935 148.376C147.039 148.688 147.091 149.036 147.091 149.42C147.091 149.784 147.041 150.118 146.941 150.423C146.844 150.728 146.696 150.995 146.499 151.223C146.301 151.448 146.052 151.623 145.751 151.748C145.453 151.873 145.101 151.935 144.696 151.935C144.391 151.935 144.102 151.893 143.829 151.81C143.558 151.724 143.316 151.594 143.101 151.421C142.89 151.244 142.717 151.026 142.582 150.766C142.45 150.503 142.367 150.195 142.332 149.841H143.247C143.288 150.125 143.371 150.364 143.496 150.558C143.621 150.752 143.783 150.899 143.984 151C144.189 151.097 144.426 151.145 144.696 151.145C144.925 151.145 145.127 151.105 145.304 151.026C145.481 150.946 145.63 150.832 145.751 150.683C145.872 150.534 145.964 150.354 146.026 150.143C146.092 149.931 146.125 149.694 146.125 149.431C146.125 149.192 146.092 148.97 146.026 148.766C145.96 148.561 145.862 148.383 145.73 148.231C145.602 148.078 145.444 147.961 145.257 147.877C145.07 147.791 144.855 147.748 144.613 147.748C144.291 147.748 144.047 147.791 143.88 147.877C143.718 147.964 143.55 148.082 143.377 148.231ZM152.915 149.784C152.915 150.245 152.808 150.636 152.593 150.958C152.382 151.277 152.094 151.519 151.731 151.686C151.37 151.852 150.963 151.935 150.51 151.935C150.056 151.935 149.647 151.852 149.284 151.686C148.92 151.519 148.632 151.277 148.421 150.958C148.21 150.636 148.104 150.245 148.104 149.784C148.104 149.483 148.161 149.207 148.276 148.958C148.393 148.705 148.558 148.485 148.769 148.298C148.984 148.111 149.237 147.967 149.528 147.867C149.822 147.763 150.146 147.711 150.499 147.711C150.963 147.711 151.377 147.801 151.741 147.981C152.105 148.158 152.39 148.402 152.598 148.714C152.809 149.026 152.915 149.382 152.915 149.784ZM151.949 149.763C151.949 149.483 151.888 149.235 151.767 149.02C151.646 148.802 151.476 148.632 151.258 148.511C151.04 148.39 150.787 148.329 150.499 148.329C150.205 148.329 149.95 148.39 149.736 148.511C149.524 148.632 149.36 148.802 149.242 149.02C149.124 149.235 149.065 149.483 149.065 149.763C149.065 150.054 149.123 150.304 149.237 150.511C149.355 150.716 149.521 150.873 149.736 150.984C149.954 151.092 150.212 151.145 150.51 151.145C150.808 151.145 151.064 151.092 151.279 150.984C151.493 150.873 151.658 150.716 151.772 150.511C151.89 150.304 151.949 150.054 151.949 149.763ZM152.738 146.236C152.738 146.603 152.641 146.934 152.448 147.228C152.254 147.522 151.989 147.754 151.653 147.924C151.317 148.094 150.936 148.179 150.51 148.179C150.077 148.179 149.691 148.094 149.351 147.924C149.015 147.754 148.752 147.522 148.561 147.228C148.371 146.934 148.276 146.603 148.276 146.236C148.276 145.796 148.371 145.422 148.561 145.114C148.755 144.805 149.02 144.57 149.356 144.407C149.692 144.244 150.075 144.163 150.504 144.163C150.937 144.163 151.322 144.244 151.658 144.407C151.994 144.57 152.257 144.805 152.448 145.114C152.641 145.422 152.738 145.796 152.738 146.236ZM151.777 146.251C151.777 145.998 151.724 145.775 151.616 145.581C151.509 145.387 151.36 145.235 151.169 145.124C150.979 145.01 150.757 144.952 150.504 144.952C150.252 144.952 150.03 145.006 149.839 145.114C149.652 145.217 149.505 145.366 149.398 145.56C149.294 145.754 149.242 145.985 149.242 146.251C149.242 146.511 149.294 146.738 149.398 146.932C149.505 147.126 149.654 147.276 149.845 147.384C150.035 147.491 150.257 147.545 150.51 147.545C150.763 147.545 150.982 147.491 151.169 147.384C151.36 147.276 151.509 147.126 151.616 146.932C151.724 146.738 151.777 146.511 151.777 146.251ZM158.9 149.784C158.9 150.245 158.793 150.636 158.578 150.958C158.367 151.277 158.079 151.519 157.716 151.686C157.355 151.852 156.948 151.935 156.495 151.935C156.041 151.935 155.632 151.852 155.269 151.686C154.905 151.519 154.617 151.277 154.406 150.958C154.195 150.636 154.089 150.245 154.089 149.784C154.089 149.483 154.146 149.207 154.261 148.958C154.378 148.705 154.543 148.485 154.754 148.298C154.969 148.111 155.222 147.967 155.513 147.867C155.807 147.763 156.131 147.711 156.484 147.711C156.948 147.711 157.362 147.801 157.726 147.981C158.09 148.158 158.375 148.402 158.583 148.714C158.794 149.026 158.9 149.382 158.9 149.784ZM157.934 149.763C157.934 149.483 157.873 149.235 157.752 149.02C157.631 148.802 157.461 148.632 157.243 148.511C157.025 148.39 156.772 148.329 156.484 148.329C156.19 148.329 155.935 148.39 155.721 148.511C155.509 148.632 155.345 148.802 155.227 149.02C155.109 149.235 155.05 149.483 155.05 149.763C155.05 150.054 155.108 150.304 155.222 150.511C155.34 150.716 155.506 150.873 155.721 150.984C155.939 151.092 156.197 151.145 156.495 151.145C156.793 151.145 157.049 151.092 157.264 150.984C157.478 150.873 157.643 150.716 157.757 150.511C157.875 150.304 157.934 150.054 157.934 149.763ZM158.723 146.236C158.723 146.603 158.626 146.934 158.433 147.228C158.239 147.522 157.974 147.754 157.638 147.924C157.302 148.094 156.921 148.179 156.495 148.179C156.062 148.179 155.676 148.094 155.336 147.924C155 147.754 154.737 147.522 154.546 147.228C154.356 146.934 154.261 146.603 154.261 146.236C154.261 145.796 154.356 145.422 154.546 145.114C154.74 144.805 155.005 144.57 155.341 144.407C155.677 144.244 156.06 144.163 156.489 144.163C156.922 144.163 157.307 144.244 157.643 144.407C157.979 144.57 158.242 144.805 158.433 145.114C158.626 145.422 158.723 145.796 158.723 146.236ZM157.762 146.251C157.762 145.998 157.709 145.775 157.601 145.581C157.494 145.387 157.345 145.235 157.154 145.124C156.964 145.01 156.742 144.952 156.489 144.952C156.237 144.952 156.015 145.006 155.824 145.114C155.637 145.217 155.49 145.366 155.383 145.56C155.279 145.754 155.227 145.985 155.227 146.251C155.227 146.511 155.279 146.738 155.383 146.932C155.49 147.126 155.639 147.276 155.83 147.384C156.02 147.491 156.242 147.545 156.495 147.545C156.748 147.545 156.967 147.491 157.154 147.384C157.345 147.276 157.494 147.126 157.601 146.932C157.709 146.738 157.762 146.511 157.762 146.251Z" fill="#181716"/>
<line opacity="0.3" x1="21.9883" y1="178.496" x2="160.403" y2="178.496" stroke="#181716" stroke-width="0.665"/>
<path d="M114.469 194.502L122.179 185.485C122.646 184.939 123.741 185.256 123.636 185.908L122.911 190.436C122.757 191.4 124.014 192.125 125.15 191.727L130.773 189.76C131.499 189.506 132.201 190.139 131.761 190.656C129.493 193.318 126.589 196.593 123.549 199.794M123.549 199.794C117.717 205.936 111.385 211.807 108.079 212.565C102.262 213.899 110.516 195.347 123.549 199.794ZM123.549 199.794C125.537 200.473 127.636 201.686 129.814 203.587C130.141 203.873 130.737 203.894 131.059 203.605L133.249 201.634C134.378 200.619 136.472 200.837 137.22 202.048L137.885 203.127C138.035 203.369 138.368 203.512 138.701 203.438C139.788 203.197 141.258 202.597 142.594 201.975M142.594 201.975C143.884 201.375 145.05 200.755 145.623 200.419C147.167 199.516 144.234 196.286 142.594 201.975ZM142.594 201.975C142.537 202.172 142.482 202.38 142.428 202.599C141.15 207.831 153.878 203.326 160.401 200.419" stroke="#181716" stroke-width="0.665"/>
<rect opacity="0.15" x="21.9883" y="185.206" width="71.4399" height="3.82714" rx="1.91357" fill="#9A8A7E"/>
<rect opacity="0.15" x="21.9883" y="193.498" width="48.4771" height="3.82714" rx="1.91357" fill="#9A8A7E"/>
<path fill-rule="evenodd" clip-rule="evenodd" d="M21.9866 207.216C21.9866 204.219 31.6956 201.79 43.6737 201.79C55.6512 201.79 65.3608 204.219 65.3608 207.216C65.3608 210.213 55.6512 212.643 43.6737 212.643C31.6959 212.643 21.9866 210.213 21.9866 207.216Z" fill="#181716"/>
<path fill-rule="evenodd" clip-rule="evenodd" d="M56.5676 208.305C56.5745 208.271 56.5838 208.231 56.5936 208.187H59.5244C59.8586 206.865 60.0068 206.255 59.4483 205.731C59.0775 205.383 58.4475 205.245 57.7434 205.245C56.794 205.245 56.1996 205.382 55.7191 205.719C55.1859 206.093 54.8827 206.681 54.6501 207.567C54.3269 208.799 54.3237 209.451 54.7402 209.929C55.0269 210.259 55.5622 210.507 56.4731 210.509C57.5431 210.513 58.0781 210.348 58.4545 210.094C58.9601 209.752 59.2226 209.372 59.406 208.63H57.434C57.3874 208.817 57.3492 209.104 57.2303 209.253C57.145 209.359 57.0147 209.447 56.7751 209.437C56.6183 209.431 56.4997 209.377 56.4464 209.277C56.3904 209.171 56.4062 209.026 56.4244 208.932C56.4751 208.666 56.5138 208.548 56.5676 208.305ZM57.5366 206.318C57.8414 206.318 57.9301 206.497 57.8952 206.721C57.879 206.826 57.8261 207.039 57.7654 207.245H56.8227C56.8782 207.041 56.9465 206.822 56.9936 206.698C57.079 206.474 57.231 206.318 57.5366 206.318ZM31.5997 207.743L31.6337 207.591H35.4058C35.8354 205.891 36.0255 205.106 35.3073 204.432C34.831 203.985 34.02 203.807 33.1146 203.807C31.4819 203.807 29.7956 204.203 29.3059 206.167C29.2332 206.458 28.9834 207.319 28.9339 207.545C28.7551 208.365 28.6807 209.114 29.0267 209.635C29.4589 210.286 30.2704 210.556 31.4819 210.577C32.8568 210.602 33.5454 210.37 34.03 210.042C34.6799 209.603 35.017 209.114 35.2532 208.16H32.7203C32.6603 208.4 32.6108 208.77 32.459 208.96C32.3488 209.098 32.1778 209.211 31.8699 209.198C31.6679 209.19 31.5294 209.129 31.4493 208.998C31.374 208.875 31.3896 208.686 31.4125 208.564C31.478 208.222 31.5309 208.054 31.5997 207.743ZM32.8487 205.186C33.2411 205.186 33.3565 205.417 33.3133 205.705C33.2941 205.831 33.2346 206.1 33.1669 206.338H31.9431C32.0153 206.074 32.0865 205.835 32.148 205.675C32.2575 205.388 32.4564 205.186 32.8487 205.186ZM52.7912 203.768H54.9014L53.2586 210.375H51.1396L52.7912 203.768ZM51.4557 205.401L50.2122 210.375H48.0931L49.3366 205.401H51.4557ZM49.0485 203.768L48.7851 204.832H48.3994C48.1206 204.832 47.9717 204.92 47.9169 205.138L47.8512 205.401H48.644L48.3535 206.563H47.5573L46.6075 210.375H44.4884L45.441 206.563H44.7708L45.0608 205.401H45.7319L45.8617 204.882C46.0162 204.264 46.3908 203.768 47.4751 203.768H49.0485Z" fill="#D9E4EA"/>
<path fill-rule="evenodd" clip-rule="evenodd" d="M24.0596 204.898H24.9181L24.2819 207.441H23.4241L24.0596 204.898ZM25.4341 204.898H26.5233C26.8583 204.898 27.1129 204.918 27.2827 205.102C27.39 205.22 27.435 205.371 27.375 205.618C27.2882 205.976 27.0835 206.105 26.8033 206.169L26.8016 206.181C27.0455 206.245 27.1507 206.414 27.0955 206.672C27.0496 206.887 27.0233 206.988 27.0003 207.126C26.9817 207.241 26.9903 207.344 27.0391 207.441H26.1339C26.1131 207.269 26.1764 207.017 26.2513 206.701C26.2991 206.498 26.2195 206.451 26.1085 206.451H25.9065L25.6564 207.441H24.7981L25.4341 204.898ZM26.0258 205.973H26.1528C26.384 205.973 26.4767 205.865 26.5233 205.679C26.5645 205.514 26.4691 205.42 26.3684 205.42H26.1621L26.0258 205.973ZM28.8855 204.865C29.5712 204.865 29.8622 205.084 29.7398 205.624H28.9644C28.9893 205.529 28.9962 205.461 28.9687 205.417C28.9408 205.372 28.8752 205.351 28.7911 205.349C28.6897 205.346 28.5881 205.387 28.5606 205.508C28.5212 205.68 28.5773 205.739 28.9427 205.903C29.351 206.086 29.6198 206.285 29.4918 206.787C29.3601 207.306 28.9393 207.495 28.338 207.495C28.0315 207.495 27.7262 207.448 27.5708 207.306C27.4154 207.165 27.3656 206.988 27.4481 206.658H28.2359C28.2359 206.658 28.2254 206.699 28.2187 206.727C28.163 206.95 28.2665 207.013 28.4186 207.011C28.5929 207.008 28.6474 206.905 28.6634 206.814C28.6933 206.644 28.6132 206.57 28.1071 206.308C27.7573 206.127 27.6738 205.874 27.7687 205.505C27.8876 205.038 28.3478 204.865 28.8855 204.865ZM35.9068 207.912L40.9606 205.558L40.6486 207.102L44.5046 205.533L39.3406 208.764L39.6279 207.068L35.9068 207.912Z" fill="#D9E4EA"/>
</g>
<defs>
<filter id="filter0_d_1_539" x="0.0277362" y="0.70336" width="182.332" height="234.636" filterUnits="userSpaceOnUse" color-interpolation-filters="sRGB">
<feFlood flood-opacity="0" result="BackgroundImageFix"/>
<feColorMatrix in="SourceAlpha" type="matrix" values="0 0 0 0 0 0 0 0 0 0 0 0 0 0 0 0 0 0 127 0" result="hardAlpha"/>
<feOffset dy="2.66"/>
<feGaussianBlur stdDeviation="3.325"/>
<feComposite in2="hardAlpha" operator="out"/>
<feColorMatrix type="matrix" values="0 0 0 0 0 0 0 0 0 0 0 0 0 0 0 0 0 0 0.1 0"/>
<feBlend mode="normal" in2="BackgroundImageFix" result="effect1_dropShadow_1_539"/>
<feBlend mode="normal" in="SourceGraphic" in2="effect1_dropShadow_1_539" result="shape"/>
</filter>
</defs>
</svg>
