<svg width="183" height="235" viewBox="0 0 183 235" fill="none" xmlns="http://www.w3.org/2000/svg">
<g filter="url(#filter0_d_1_571)">
<rect x="7" y="4.35645" width="169.032" height="221.335" rx="11.97" fill="white" shape-rendering="crispEdges"/>
<path d="M24.9975 28.9589H26.1197C26.0612 29.4967 25.9073 29.9779 25.658 30.4026C25.4086 30.8273 25.056 31.1643 24.6001 31.4137C24.1442 31.6592 23.5753 31.7819 22.8934 31.7819C22.3947 31.7819 21.9407 31.6884 21.5316 31.5014C21.1264 31.3144 20.7776 31.0494 20.4854 30.7065C20.1932 30.3597 19.9672 29.9447 19.8074 29.4616C19.6515 28.9745 19.5736 28.4329 19.5736 27.8368V26.9893C19.5736 26.3931 19.6515 25.8535 19.8074 25.3703C19.9672 24.8832 20.1951 24.4663 20.4912 24.1195C20.7913 23.7727 21.1517 23.5058 21.5725 23.3188C21.9933 23.1318 22.4668 23.0382 22.9928 23.0382C23.6357 23.0382 24.1793 23.159 24.6234 23.4006C25.0676 23.6422 25.4125 23.9773 25.658 24.4059C25.9073 24.8306 26.0612 25.3235 26.1197 25.8846H24.9975C24.943 25.4872 24.8417 25.1462 24.6936 24.8618C24.5455 24.5735 24.3351 24.3514 24.0624 24.1955C23.7896 24.0396 23.4331 23.9617 22.9928 23.9617C22.6148 23.9617 22.2817 24.0338 21.9933 24.178C21.7089 24.3221 21.4693 24.5267 21.2744 24.7917C21.0835 25.0566 20.9393 25.3742 20.8419 25.7443C20.7445 26.1145 20.6958 26.5256 20.6958 26.9776V27.8368C20.6958 28.2537 20.7387 28.6453 20.8244 29.0115C20.914 29.3778 21.0484 29.6993 21.2277 29.9759C21.4069 30.2526 21.6349 30.4708 21.9115 30.6305C22.1882 30.7864 22.5155 30.8643 22.8934 30.8643C23.3727 30.8643 23.7545 30.7883 24.039 30.6364C24.3234 30.4844 24.5377 30.2662 24.6819 29.9818C24.83 29.6973 24.9352 29.3564 24.9975 28.9589ZM31.2221 30.5838V27.3283C31.2221 27.0789 31.1715 26.8626 31.0702 26.6795C30.9727 26.4925 30.8247 26.3483 30.626 26.247C30.4272 26.1457 30.1818 26.095 29.8895 26.095C29.6168 26.095 29.3771 26.1418 29.1706 26.2353C28.968 26.3288 28.8083 26.4516 28.6914 26.6035C28.5784 26.7555 28.5219 26.9191 28.5219 27.0945H27.4406C27.4406 26.8685 27.499 26.6444 27.6159 26.4223C27.7328 26.2002 27.9004 25.9996 28.1186 25.8203C28.3407 25.6372 28.6056 25.493 28.9135 25.3878C29.2252 25.2787 29.572 25.2242 29.9538 25.2242C30.4136 25.2242 30.8188 25.3021 31.1695 25.458C31.5241 25.6138 31.8007 25.8496 31.9995 26.1652C32.2021 26.4769 32.3034 26.8685 32.3034 27.34V30.2857C32.3034 30.4961 32.3209 30.7201 32.356 30.9578C32.395 31.1955 32.4515 31.4001 32.5255 31.5715V31.665H31.3975C31.3429 31.5404 31.3001 31.3748 31.2689 31.1682C31.2377 30.9578 31.2221 30.763 31.2221 30.5838ZM31.4092 27.8309L31.4208 28.5907H30.3279C30.0201 28.5907 29.7454 28.616 29.5038 28.6667C29.2622 28.7135 29.0596 28.7855 28.8959 28.883C28.7323 28.9804 28.6076 29.1031 28.5219 29.2512C28.4361 29.3953 28.3933 29.5648 28.3933 29.7597C28.3933 29.9584 28.4381 30.1396 28.5277 30.3032C28.6173 30.4669 28.7518 30.5974 28.931 30.6948C29.1141 30.7883 29.3382 30.8351 29.6031 30.8351C29.9343 30.8351 30.2266 30.765 30.4798 30.6247C30.7331 30.4844 30.9338 30.313 31.0819 30.1103C31.2338 29.9077 31.3156 29.711 31.3273 29.52L31.7891 30.0402C31.7618 30.2039 31.6878 30.385 31.567 30.5838C31.4462 30.7825 31.2845 30.9734 31.0819 31.1565C30.8831 31.3358 30.6454 31.4858 30.3688 31.6066C30.096 31.7235 29.7882 31.7819 29.4453 31.7819C29.0167 31.7819 28.6407 31.6982 28.3173 31.5306C27.9978 31.3631 27.7484 31.139 27.5692 30.8585C27.3938 30.574 27.3062 30.2565 27.3062 29.9058C27.3062 29.5668 27.3724 29.2687 27.5049 29.0115C27.6374 28.7505 27.8283 28.5342 28.0777 28.3628C28.327 28.1874 28.6271 28.055 28.9778 27.9653C29.3284 27.8757 29.72 27.8309 30.1525 27.8309H31.4092ZM37.6864 29.9876C37.6864 29.8317 37.6513 29.6876 37.5812 29.5551C37.5149 29.4187 37.3766 29.296 37.1662 29.1869C36.9597 29.0739 36.648 28.9765 36.231 28.8946C35.8804 28.8206 35.5628 28.7329 35.2784 28.6316C34.9978 28.5303 34.7582 28.4076 34.5595 28.2634C34.3646 28.1192 34.2146 27.9498 34.1094 27.7549C34.0042 27.5601 33.9516 27.3322 33.9516 27.0711C33.9516 26.8217 34.0062 26.586 34.1153 26.3639C34.2283 26.1418 34.3861 25.945 34.5887 25.7736C34.7952 25.6021 35.0426 25.4677 35.331 25.3703C35.6193 25.2729 35.9408 25.2242 36.2953 25.2242C36.8019 25.2242 37.2344 25.3138 37.5929 25.493C37.9513 25.6723 38.226 25.9119 38.417 26.2119C38.6079 26.5081 38.7034 26.8373 38.7034 27.1997H37.6221C37.6221 27.0243 37.5695 26.8548 37.4643 26.6912C37.363 26.5236 37.2129 26.3853 37.0142 26.2762C36.8194 26.1671 36.5798 26.1126 36.2953 26.1126C35.9953 26.1126 35.7518 26.1593 35.5647 26.2528C35.3816 26.3425 35.2472 26.4574 35.1615 26.5977C35.0796 26.738 35.0387 26.886 35.0387 27.0419C35.0387 27.1588 35.0582 27.264 35.0972 27.3575C35.14 27.4471 35.2141 27.5309 35.3193 27.6088C35.4245 27.6828 35.5725 27.753 35.7635 27.8192C35.9544 27.8855 36.1979 27.9517 36.4941 28.0179C37.0123 28.1348 37.4389 28.2751 37.774 28.4388C38.1091 28.6024 38.3585 28.8031 38.5222 29.0408C38.6858 29.2784 38.7676 29.5668 38.7676 29.9058C38.7676 30.1824 38.7092 30.4357 38.5923 30.6656C38.4793 30.8955 38.3137 31.0942 38.0955 31.2618C37.8812 31.4254 37.624 31.554 37.324 31.6475C37.0279 31.7371 36.6947 31.7819 36.3246 31.7819C35.7674 31.7819 35.2959 31.6826 34.9101 31.4839C34.5244 31.2851 34.2321 31.028 34.0334 30.7124C33.8347 30.3967 33.7353 30.0636 33.7353 29.7129H34.8225C34.8381 30.009 34.9238 30.2448 35.0796 30.4201C35.2355 30.5916 35.4264 30.7143 35.6524 30.7883C35.8784 30.8585 36.1025 30.8935 36.3246 30.8935C36.6207 30.8935 36.8681 30.8546 37.0668 30.7766C37.2694 30.6987 37.4234 30.5916 37.5286 30.4552C37.6338 30.3188 37.6864 30.1629 37.6864 29.9876ZM41.2692 22.6876V31.665H40.1879V22.6876H41.2692ZM41.012 28.2634L40.562 28.2459C40.5659 27.8134 40.6302 27.414 40.7548 27.0477C40.8795 26.6776 41.0549 26.3561 41.2809 26.0833C41.5069 25.8106 41.7757 25.6002 42.0874 25.4521C42.4031 25.3002 42.7518 25.2242 43.1336 25.2242C43.4454 25.2242 43.7259 25.267 43.9753 25.3528C44.2247 25.4346 44.437 25.5671 44.6123 25.7502C44.7916 25.9333 44.928 26.171 45.0215 26.4632C45.115 26.7516 45.1618 27.1042 45.1618 27.5211V31.665H44.0746V27.5095C44.0746 27.1783 44.0259 26.9133 43.9285 26.7146C43.8311 26.512 43.6889 26.3658 43.5019 26.2762C43.3148 26.1827 43.0849 26.1359 42.8122 26.1359C42.5433 26.1359 42.2978 26.1924 42.0757 26.3054C41.8575 26.4184 41.6686 26.5743 41.5088 26.773C41.353 26.9717 41.2302 27.1997 41.1406 27.4568C41.0549 27.7101 41.012 27.979 41.012 28.2634ZM51.0415 23.1551V31.665H49.9135V23.1551H51.0415ZM54.6068 26.9834V27.9069H50.7961V26.9834H54.6068ZM55.1854 23.1551V24.0786H50.7961V23.1551H55.1854ZM57.5408 22.6876V31.665H56.4537V22.6876H57.5408ZM58.9903 28.5732V28.4388C58.9903 27.9829 59.0566 27.5601 59.1891 27.1705C59.3215 26.7769 59.5125 26.436 59.7618 26.1476C60.0112 25.8554 60.3132 25.6294 60.6678 25.4696C61.0223 25.306 61.4198 25.2242 61.8601 25.2242C62.3043 25.2242 62.7037 25.306 63.0583 25.4696C63.4167 25.6294 63.7207 25.8554 63.97 26.1476C64.2233 26.436 64.4162 26.7769 64.5487 27.1705C64.6811 27.5601 64.7474 27.9829 64.7474 28.4388V28.5732C64.7474 29.0291 64.6811 29.4518 64.5487 29.8415C64.4162 30.2311 64.2233 30.5721 63.97 30.8643C63.7207 31.1527 63.4187 31.3786 63.0641 31.5423C62.7134 31.7021 62.316 31.7819 61.8718 31.7819C61.4276 31.7819 61.0282 31.7021 60.6736 31.5423C60.319 31.3786 60.0151 31.1527 59.7618 30.8643C59.5125 30.5721 59.3215 30.2311 59.1891 29.8415C59.0566 29.4518 58.9903 29.0291 58.9903 28.5732ZM60.0716 28.4388V28.5732C60.0716 28.8888 60.1086 29.1869 60.1827 29.4674C60.2567 29.7441 60.3677 29.9896 60.5158 30.2039C60.6678 30.4182 60.8567 30.5877 61.0827 30.7124C61.3087 30.8331 61.5717 30.8935 61.8718 30.8935C62.1679 30.8935 62.427 30.8331 62.6491 30.7124C62.8751 30.5877 63.0621 30.4182 63.2102 30.2039C63.3583 29.9896 63.4693 29.7441 63.5434 29.4674C63.6213 29.1869 63.6603 28.8888 63.6603 28.5732V28.4388C63.6603 28.127 63.6213 27.8329 63.5434 27.5562C63.4693 27.2757 63.3563 27.0282 63.2044 26.8139C63.0563 26.5957 62.8693 26.4243 62.6433 26.2996C62.4212 26.1749 62.1601 26.1126 61.8601 26.1126C61.564 26.1126 61.3029 26.1749 61.0769 26.2996C60.8548 26.4243 60.6678 26.5957 60.5158 26.8139C60.3677 27.0282 60.2567 27.2757 60.1827 27.5562C60.1086 27.8329 60.0716 28.127 60.0716 28.4388ZM67.7048 30.5429L69.3296 25.3411H70.0427L69.9024 26.3756L68.2483 31.665H67.5528L67.7048 30.5429ZM66.6118 25.3411L67.997 30.6013L68.0964 31.665H67.3658L65.5306 25.3411H66.6118ZM71.5974 30.5604L72.9183 25.3411H73.9937L72.1585 31.665H71.4337L71.5974 30.5604ZM70.2005 25.3411L71.7902 30.4552L71.9714 31.665H71.2818L69.5809 26.3639L69.4407 25.3411H70.2005Z" fill="#181716"/>
<path opacity="0.5" d="M24.8828 51.9366V52.3548C24.8828 52.8518 24.8207 53.2973 24.6965 53.6913C24.5722 54.0853 24.3934 54.4201 24.16 54.6959C23.9267 54.9717 23.6464 55.1823 23.3191 55.3278C22.9948 55.4733 22.6311 55.546 22.228 55.546C21.8371 55.546 21.478 55.4733 21.1507 55.3278C20.8264 55.1823 20.5446 54.9717 20.3051 54.6959C20.0688 54.4201 19.8854 54.0853 19.7551 53.6913C19.6248 53.2973 19.5596 52.8518 19.5596 52.3548V51.9366C19.5596 51.4395 19.6233 50.9956 19.7505 50.6046C19.8809 50.2106 20.0642 49.8758 20.3006 49.6C20.537 49.3212 20.8173 49.109 21.1416 48.9636C21.4689 48.8181 21.828 48.7454 22.219 48.7454C22.622 48.7454 22.9857 48.8181 23.31 48.9636C23.6373 49.109 23.9176 49.3212 24.151 49.6C24.3873 49.8758 24.5677 50.2106 24.6919 50.6046C24.8192 50.9956 24.8828 51.4395 24.8828 51.9366ZM24.0146 52.3548V51.9275C24.0146 51.5335 23.9737 51.185 23.8918 50.8819C23.813 50.5789 23.6964 50.3243 23.5418 50.1182C23.3872 49.9121 23.1978 49.7561 22.9736 49.65C22.7523 49.5439 22.5008 49.4909 22.219 49.4909C21.9462 49.4909 21.6992 49.5439 21.478 49.65C21.2598 49.7561 21.0719 49.9121 20.9143 50.1182C20.7597 50.3243 20.64 50.5789 20.5552 50.8819C20.4703 51.185 20.4279 51.5335 20.4279 51.9275V52.3548C20.4279 52.7518 20.4703 53.1033 20.5552 53.4094C20.64 53.7125 20.7612 53.9686 20.9188 54.1777C21.0795 54.3838 21.2689 54.5398 21.4871 54.6459C21.7083 54.752 21.9553 54.805 22.228 54.805C22.5129 54.805 22.766 54.752 22.9872 54.6459C23.2084 54.5398 23.3948 54.3838 23.5464 54.1777C23.7009 53.9686 23.8176 53.7125 23.8964 53.4094C23.9752 53.1033 24.0146 52.7518 24.0146 52.3548ZM26.9103 51.482V57.3462H26.0648V50.5364H26.8376L26.9103 51.482ZM30.2243 52.9548V53.0503C30.2243 53.4079 30.1818 53.7398 30.097 54.0459C30.0121 54.3489 29.8879 54.6126 29.7242 54.8368C29.5636 55.0611 29.3651 55.2354 29.1287 55.3596C28.8923 55.4839 28.6211 55.546 28.315 55.546C28.0028 55.546 27.7271 55.4945 27.4876 55.3914C27.2482 55.2884 27.0452 55.1384 26.8785 54.9414C26.7118 54.7444 26.5785 54.508 26.4785 54.2322C26.3815 53.9565 26.3148 53.6458 26.2784 53.3003V52.7912C26.3148 52.4275 26.383 52.1017 26.483 51.8138C26.583 51.5259 26.7148 51.2804 26.8785 51.0774C27.0452 50.8713 27.2467 50.7152 27.4831 50.6092C27.7195 50.5001 27.9922 50.4455 28.3014 50.4455C28.6105 50.4455 28.8847 50.5061 29.1242 50.6273C29.3636 50.7455 29.5651 50.9153 29.7288 51.1365C29.8924 51.3577 30.0151 51.6229 30.097 51.932C30.1818 52.2381 30.2243 52.579 30.2243 52.9548ZM29.3787 53.0503V52.9548C29.3787 52.7094 29.353 52.479 29.3014 52.2639C29.2499 52.0457 29.1696 51.8547 29.0605 51.6911C28.9544 51.5244 28.8181 51.3941 28.6514 51.3001C28.4847 51.2032 28.2862 51.1547 28.0559 51.1547C27.8437 51.1547 27.6589 51.191 27.5013 51.2638C27.3467 51.3365 27.2149 51.435 27.1058 51.5593C26.9967 51.6805 26.9073 51.8199 26.8376 51.9775C26.7709 52.132 26.7209 52.2927 26.6876 52.4593V53.6367C26.7482 53.8489 26.833 54.0489 26.9421 54.2368C27.0512 54.4216 27.1967 54.5717 27.3785 54.6868C27.5604 54.799 27.7892 54.855 28.065 54.855C28.2923 54.855 28.4877 54.808 28.6514 54.7141C28.8181 54.6171 28.9544 54.4853 29.0605 54.3186C29.1696 54.1519 29.2499 53.961 29.3014 53.7458C29.353 53.5276 29.3787 53.2958 29.3787 53.0503ZM33.3382 55.546C32.9957 55.546 32.6851 55.4884 32.4063 55.3733C32.1305 55.2551 31.8926 55.0899 31.6926 54.8778C31.4956 54.6656 31.3441 54.4141 31.238 54.1231C31.1319 53.8322 31.0789 53.514 31.0789 53.1685V52.9776C31.0789 52.5775 31.138 52.2214 31.2562 51.9093C31.3744 51.5941 31.535 51.3274 31.738 51.1092C31.9411 50.891 32.1714 50.7258 32.429 50.6137C32.6866 50.5016 32.9533 50.4455 33.2291 50.4455C33.5806 50.4455 33.8837 50.5061 34.1383 50.6273C34.3959 50.7486 34.6065 50.9183 34.7701 51.1365C34.9338 51.3517 35.055 51.6062 35.1338 51.9002C35.2126 52.1911 35.252 52.5093 35.252 52.8548V53.2321H31.5789V52.5457H34.411V52.4821C34.3989 52.2639 34.3534 52.0517 34.2746 51.8456C34.1989 51.6396 34.0777 51.4699 33.911 51.3365C33.7443 51.2032 33.517 51.1365 33.2291 51.1365C33.0382 51.1365 32.8624 51.1774 32.7018 51.2592C32.5411 51.338 32.4033 51.4562 32.2881 51.6138C32.1729 51.7714 32.0835 51.9638 32.0199 52.1911C31.9562 52.4184 31.9244 52.6806 31.9244 52.9776V53.1685C31.9244 53.4019 31.9562 53.6216 32.0199 53.8277C32.0866 54.0307 32.182 54.2095 32.3063 54.3641C32.4336 54.5186 32.5866 54.6398 32.7654 54.7277C32.9472 54.8156 33.1533 54.8596 33.3836 54.8596C33.6806 54.8596 33.9322 54.799 34.1383 54.6777C34.3443 54.5565 34.5247 54.3944 34.6792 54.1913L35.1884 54.5959C35.0823 54.7565 34.9474 54.9096 34.7838 55.055C34.6201 55.2005 34.4186 55.3187 34.1792 55.4096C33.9428 55.5005 33.6625 55.546 33.3382 55.546ZM37.0749 51.3092V55.4551H36.2339V50.5364H37.0522L37.0749 51.3092ZM38.6114 50.5092L38.6069 51.291C38.5372 51.2759 38.4705 51.2668 38.4069 51.2638C38.3462 51.2577 38.2765 51.2547 38.1977 51.2547C38.0038 51.2547 37.8326 51.285 37.6841 51.3456C37.5356 51.4062 37.4098 51.4911 37.3067 51.6002C37.2037 51.7093 37.1219 51.8396 37.0613 51.9911C37.0037 52.1396 36.9658 52.3033 36.9476 52.4821L36.7112 52.6184C36.7112 52.3214 36.74 52.0426 36.7976 51.782C36.8582 51.5214 36.9507 51.291 37.0749 51.091C37.1992 50.888 37.3568 50.7304 37.5477 50.6183C37.7416 50.5031 37.972 50.4455 38.2387 50.4455C38.2993 50.4455 38.369 50.4531 38.4478 50.4682C38.5266 50.4804 38.5811 50.494 38.6114 50.5092ZM42.1072 54.6141V52.082C42.1072 51.8881 42.0678 51.7199 41.989 51.5774C41.9132 51.432 41.7981 51.3198 41.6435 51.241C41.489 51.1622 41.298 51.1229 41.0707 51.1229C40.8586 51.1229 40.6722 51.1592 40.5116 51.232C40.354 51.3047 40.2298 51.4001 40.1388 51.5183C40.0509 51.6365 40.007 51.7638 40.007 51.9002H39.166C39.166 51.7244 39.2115 51.5502 39.3024 51.3774C39.3933 51.2047 39.5236 51.0486 39.6933 50.9092C39.8661 50.7668 40.0722 50.6546 40.3116 50.5728C40.554 50.4879 40.8237 50.4455 41.1207 50.4455C41.4784 50.4455 41.7935 50.5061 42.0663 50.6273C42.3421 50.7486 42.5572 50.9319 42.7118 51.1774C42.8694 51.4198 42.9482 51.7244 42.9482 52.0911V54.3822C42.9482 54.5459 42.9618 54.7202 42.9891 54.905C43.0194 55.0899 43.0634 55.249 43.1209 55.3823V55.4551H42.2436C42.2012 55.3581 42.1678 55.2293 42.1436 55.0687C42.1193 54.905 42.1072 54.7535 42.1072 54.6141ZM42.2527 52.473L42.2618 53.0639H41.4117C41.1723 53.0639 40.9586 53.0836 40.7707 53.123C40.5828 53.1594 40.4252 53.2155 40.2979 53.2912C40.1707 53.367 40.0737 53.4625 40.007 53.5776C39.9403 53.6898 39.907 53.8216 39.907 53.9731C39.907 54.1277 39.9418 54.2686 40.0115 54.3959C40.0813 54.5232 40.1858 54.6247 40.3252 54.7005C40.4677 54.7732 40.6419 54.8096 40.848 54.8096C41.1056 54.8096 41.3329 54.755 41.5299 54.6459C41.7269 54.5368 41.8829 54.4035 41.9981 54.2459C42.1163 54.0883 42.1799 53.9352 42.189 53.7867L42.5482 54.1913C42.5269 54.3186 42.4694 54.4595 42.3754 54.6141C42.2815 54.7686 42.1557 54.9171 41.9981 55.0596C41.8435 55.199 41.6587 55.3157 41.4435 55.4096C41.2314 55.5005 40.9919 55.546 40.7253 55.546C40.3919 55.546 40.0994 55.4808 39.8479 55.3505C39.5994 55.2202 39.4054 55.0459 39.266 54.8277C39.1296 54.6065 39.0615 54.3595 39.0615 54.0868C39.0615 53.8231 39.113 53.5913 39.216 53.3912C39.3191 53.1882 39.4676 53.02 39.6615 52.8867C39.8555 52.7503 40.0888 52.6472 40.3616 52.5775C40.6343 52.5078 40.9389 52.473 41.2753 52.473H42.2527ZM46.3303 50.5364V51.1819H43.671V50.5364H46.3303ZM44.5711 49.3409H45.4121V54.2368C45.4121 54.4035 45.4378 54.5292 45.4893 54.6141C45.5409 54.6989 45.6075 54.755 45.6894 54.7823C45.7712 54.8096 45.8591 54.8232 45.953 54.8232C46.0227 54.8232 46.0955 54.8171 46.1712 54.805C46.25 54.7899 46.3091 54.7777 46.3485 54.7686L46.3531 55.4551C46.2864 55.4763 46.1985 55.496 46.0894 55.5142C45.9833 55.5354 45.8545 55.546 45.703 55.546C45.4969 55.546 45.3075 55.5051 45.1348 55.4233C44.962 55.3414 44.8241 55.2051 44.7211 55.0141C44.6211 54.8202 44.5711 54.5595 44.5711 54.2322V49.3409ZM48.2305 50.5364V55.4551H47.385V50.5364H48.2305ZM47.3213 49.2318C47.3213 49.0954 47.3622 48.9802 47.4441 48.8863C47.5289 48.7923 47.6532 48.7454 47.8168 48.7454C47.9775 48.7454 48.1002 48.7923 48.185 48.8863C48.2729 48.9802 48.3169 49.0954 48.3169 49.2318C48.3169 49.3621 48.2729 49.4742 48.185 49.5682C48.1002 49.6591 47.9775 49.7045 47.8168 49.7045C47.6532 49.7045 47.5289 49.6591 47.4441 49.5682C47.3622 49.4742 47.3213 49.3621 47.3213 49.2318ZM50.4216 51.5865V55.4551H49.5806V50.5364H50.3762L50.4216 51.5865ZM50.2216 52.8094L49.8716 52.7957C49.8746 52.4593 49.9246 52.1487 50.0216 51.8638C50.1186 51.5759 50.2549 51.3259 50.4307 51.1138C50.6065 50.9016 50.8156 50.738 51.058 50.6228C51.3035 50.5046 51.5748 50.4455 51.8718 50.4455C52.1142 50.4455 52.3324 50.4788 52.5264 50.5455C52.7203 50.6092 52.8855 50.7122 53.0219 50.8546C53.1613 50.9971 53.2673 51.1819 53.3401 51.4092C53.4128 51.6335 53.4492 51.9078 53.4492 52.232V55.4551H52.6036V52.223C52.6036 51.9654 52.5658 51.7593 52.49 51.6047C52.4142 51.4471 52.3036 51.3335 52.1582 51.2638C52.0127 51.191 51.8339 51.1547 51.6217 51.1547C51.4126 51.1547 51.2217 51.1986 51.049 51.2865C50.8792 51.3744 50.7323 51.4956 50.608 51.6502C50.4868 51.8047 50.3913 51.982 50.3216 52.182C50.2549 52.379 50.2216 52.5881 50.2216 52.8094ZM57.9132 50.5364H58.677V55.3505C58.677 55.7839 58.5891 56.1536 58.4133 56.4597C58.2375 56.7658 57.992 56.9976 57.6769 57.1552C57.3647 57.3159 57.0041 57.3962 56.5949 57.3962C56.4252 57.3962 56.2252 57.3689 55.9949 57.3143C55.7676 57.2628 55.5433 57.1734 55.3221 57.0461C55.1039 56.9219 54.9205 56.7537 54.772 56.5415L55.213 56.0415C55.4191 56.29 55.6342 56.4627 55.8585 56.5597C56.0858 56.6567 56.3101 56.7052 56.5313 56.7052C56.798 56.7052 57.0283 56.6552 57.2223 56.5552C57.4162 56.4552 57.5662 56.3067 57.6723 56.1097C57.7814 55.9157 57.836 55.6763 57.836 55.3914V51.6184L57.9132 50.5364ZM54.5266 53.0503V52.9548C54.5266 52.579 54.5705 52.2381 54.6584 51.932C54.7493 51.6229 54.8781 51.3577 55.0448 51.1365C55.2145 50.9153 55.4191 50.7455 55.6585 50.6273C55.8979 50.5061 56.1676 50.4455 56.4677 50.4455C56.7768 50.4455 57.0465 50.5001 57.2768 50.6092C57.5102 50.7152 57.7072 50.8713 57.8678 51.0774C58.0314 51.2804 58.1602 51.5259 58.2542 51.8138C58.3481 52.1017 58.4133 52.4275 58.4497 52.7912V53.2094C58.4163 53.5701 58.3512 53.8943 58.2542 54.1822C58.1602 54.4701 58.0314 54.7156 57.8678 54.9187C57.7072 55.1217 57.5102 55.2778 57.2768 55.3869C57.0435 55.493 56.7707 55.546 56.4586 55.546C56.1646 55.546 55.8979 55.4839 55.6585 55.3596C55.4221 55.2354 55.2191 55.0611 55.0493 54.8368C54.8796 54.6126 54.7493 54.3489 54.6584 54.0459C54.5705 53.7398 54.5266 53.4079 54.5266 53.0503ZM55.3675 52.9548V53.0503C55.3675 53.2958 55.3918 53.5261 55.4403 53.7413C55.4918 53.9565 55.5691 54.1459 55.6721 54.3095C55.7782 54.4732 55.9131 54.602 56.0767 54.6959C56.2404 54.7868 56.4358 54.8323 56.6631 54.8323C56.9419 54.8323 57.1723 54.7732 57.3541 54.655C57.5359 54.5368 57.6799 54.3807 57.786 54.1868C57.8951 53.9928 57.9799 53.7822 58.0405 53.5549V52.4593C58.0072 52.2927 57.9557 52.132 57.886 51.9775C57.8193 51.8199 57.7314 51.6805 57.6223 51.5593C57.5162 51.435 57.3844 51.3365 57.2268 51.2638C57.0692 51.191 56.8844 51.1547 56.6722 51.1547C56.4419 51.1547 56.2434 51.2032 56.0767 51.3001C55.9131 51.3941 55.7782 51.5244 55.6721 51.6911C55.5691 51.8547 55.4918 52.0457 55.4403 52.2639C55.3918 52.479 55.3675 52.7094 55.3675 52.9548Z" fill="#181716"/>
<path d="M118.575 46.3892V47.9738H117.796V46.3892H118.575ZM118.482 54.8732V56.2603H117.707V54.8732H118.482ZM119.521 53.2315C119.521 53.0236 119.474 52.8366 119.38 52.6704C119.287 52.5041 119.133 52.3517 118.918 52.2132C118.703 52.0746 118.416 51.9465 118.056 51.8287C117.619 51.6936 117.242 51.5291 116.923 51.3352C116.608 51.1412 116.364 50.9005 116.19 50.613C116.021 50.3255 115.936 49.9775 115.936 49.5688C115.936 49.1428 116.028 48.7756 116.211 48.4674C116.395 48.1591 116.655 47.9219 116.99 47.7556C117.326 47.5894 117.721 47.5062 118.175 47.5062C118.528 47.5062 118.843 47.5599 119.121 47.6673C119.398 47.7712 119.631 47.9271 119.822 48.1349C120.016 48.3427 120.163 48.5972 120.264 48.8986C120.367 49.1999 120.419 49.548 120.419 49.9428H119.463C119.463 49.7108 119.436 49.4978 119.38 49.3038C119.325 49.1099 119.242 48.9419 119.131 48.7999C119.02 48.6544 118.885 48.5436 118.726 48.4674C118.566 48.3877 118.383 48.3479 118.175 48.3479C117.884 48.3479 117.643 48.3981 117.453 48.4985C117.266 48.599 117.127 48.741 117.037 48.9246C116.947 49.1047 116.902 49.3142 116.902 49.5532C116.902 49.7748 116.947 49.9688 117.037 50.1351C117.127 50.3013 117.28 50.452 117.494 50.587C117.713 50.7187 118.012 50.8485 118.393 50.9767C118.84 51.1187 119.219 51.2867 119.531 51.4806C119.843 51.6711 120.08 51.9067 120.243 52.1872C120.406 52.4643 120.487 52.8089 120.487 53.2211C120.487 53.6679 120.386 54.0454 120.186 54.3536C119.985 54.6584 119.702 54.8905 119.339 55.0498C118.975 55.2091 118.549 55.2888 118.061 55.2888C117.766 55.2888 117.475 55.249 117.188 55.1693C116.9 55.0896 116.641 54.9598 116.409 54.7796C116.177 54.5961 115.991 54.3554 115.853 54.0575C115.714 53.7562 115.645 53.3873 115.645 52.9509H116.611C116.611 53.2453 116.653 53.4895 116.736 53.6834C116.823 53.8739 116.937 54.0263 117.079 54.1406C117.221 54.2515 117.377 54.3311 117.546 54.3796C117.72 54.4246 117.891 54.4472 118.061 54.4472C118.372 54.4472 118.636 54.3987 118.85 54.3017C119.069 54.2012 119.235 54.0592 119.349 53.8757C119.463 53.6921 119.521 53.4774 119.521 53.2315ZM123.09 50.9247H123.776C124.112 50.9247 124.389 50.8693 124.607 50.7585C124.828 50.6442 124.993 50.4901 125.1 50.2961C125.211 50.0987 125.267 49.877 125.267 49.6311C125.267 49.3402 125.218 49.096 125.121 48.8986C125.024 48.7012 124.879 48.5522 124.685 48.4518C124.491 48.3513 124.245 48.3011 123.947 48.3011C123.677 48.3011 123.438 48.3548 123.23 48.4622C123.026 48.5661 122.865 48.715 122.747 48.909C122.633 49.1029 122.575 49.3315 122.575 49.5947H121.614C121.614 49.2103 121.711 48.8605 121.905 48.5453C122.099 48.2301 122.371 47.979 122.721 47.792C123.074 47.6049 123.483 47.5114 123.947 47.5114C124.404 47.5114 124.804 47.5928 125.147 47.7556C125.49 47.9149 125.757 48.1539 125.947 48.4726C126.138 48.7877 126.233 49.1809 126.233 49.6519C126.233 49.8424 126.188 50.0467 126.098 50.2649C126.011 50.4797 125.874 50.6806 125.687 50.8676C125.504 51.0546 125.265 51.2087 124.97 51.33C124.676 51.4477 124.323 51.5066 123.911 51.5066H123.09V50.9247ZM123.09 51.7144V51.1377H123.911C124.392 51.1377 124.79 51.1949 125.106 51.3092C125.421 51.4235 125.668 51.5759 125.848 51.7664C126.032 51.9569 126.16 52.1664 126.233 52.395C126.309 52.6201 126.347 52.8453 126.347 53.0704C126.347 53.4237 126.287 53.7371 126.165 54.0107C126.048 54.2844 125.88 54.5164 125.661 54.7069C125.447 54.8974 125.194 55.0411 124.903 55.1381C124.612 55.2351 124.295 55.2836 123.952 55.2836C123.623 55.2836 123.313 55.2368 123.022 55.1433C122.735 55.0498 122.48 54.9147 122.259 54.7381C122.037 54.558 121.864 54.338 121.739 54.0783C121.614 53.8151 121.552 53.5155 121.552 53.1795H122.513C122.513 53.4427 122.57 53.6731 122.685 53.8705C122.802 54.0679 122.969 54.222 123.183 54.3329C123.401 54.4402 123.658 54.4939 123.952 54.4939C124.247 54.4939 124.499 54.4437 124.711 54.3432C124.925 54.2393 125.09 54.0835 125.204 53.8757C125.322 53.6679 125.381 53.4064 125.381 53.0912C125.381 52.776 125.315 52.518 125.183 52.3171C125.052 52.1127 124.865 51.9621 124.622 51.8651C124.383 51.7646 124.101 51.7144 123.776 51.7144H123.09ZM128.888 51.5793L128.119 51.3819L128.498 47.6153H132.379V48.5037H129.314L129.085 50.5611C129.224 50.4814 129.399 50.4069 129.61 50.3377C129.825 50.2684 130.071 50.2338 130.348 50.2338C130.697 50.2338 131.011 50.2944 131.288 50.4156C131.565 50.5334 131.801 50.7031 131.995 50.9247C132.192 51.1464 132.343 51.4131 132.446 51.7248C132.55 52.0365 132.602 52.3846 132.602 52.7691C132.602 53.1327 132.552 53.467 132.452 53.7718C132.355 54.0766 132.208 54.3432 132.01 54.5718C131.813 54.797 131.563 54.9719 131.262 55.0966C130.964 55.2212 130.613 55.2836 130.207 55.2836C129.903 55.2836 129.613 55.242 129.34 55.1589C129.07 55.0723 128.827 54.9424 128.612 54.7693C128.401 54.5926 128.228 54.3744 128.093 54.1147C127.961 53.8514 127.878 53.5432 127.843 53.1899H128.758C128.799 53.4739 128.883 53.7129 129.007 53.9068C129.132 54.1008 129.295 54.248 129.496 54.3484C129.7 54.4454 129.937 54.4939 130.207 54.4939C130.436 54.4939 130.639 54.4541 130.815 54.3744C130.992 54.2948 131.141 54.1805 131.262 54.0315C131.383 53.8826 131.475 53.7025 131.537 53.4912C131.603 53.2799 131.636 53.0427 131.636 52.7795C131.636 52.5405 131.603 52.3188 131.537 52.1145C131.472 51.9101 131.373 51.7317 131.241 51.5793C131.113 51.427 130.955 51.3092 130.768 51.2261C130.581 51.1395 130.367 51.0962 130.124 51.0962C129.802 51.0962 129.558 51.1395 129.392 51.2261C129.229 51.3127 129.061 51.4304 128.888 51.5793ZM138.406 50.7949V51.9482C138.406 52.5682 138.35 53.0912 138.239 53.5172C138.128 53.9432 137.969 54.2861 137.761 54.5459C137.553 54.8056 137.302 54.9944 137.008 55.1121C136.717 55.2264 136.388 55.2836 136.021 55.2836C135.73 55.2836 135.462 55.2472 135.216 55.1745C134.97 55.1018 134.748 54.9857 134.551 54.8264C134.357 54.6636 134.19 54.4523 134.052 54.1926C133.913 53.9328 133.808 53.6176 133.735 53.247C133.662 52.8764 133.626 52.4435 133.626 51.9482V50.7949C133.626 50.1749 133.681 49.6554 133.792 49.2363C133.906 48.8172 134.067 48.4812 134.275 48.2284C134.483 47.9721 134.732 47.7885 135.023 47.6777C135.318 47.5668 135.647 47.5114 136.01 47.5114C136.305 47.5114 136.575 47.5478 136.821 47.6205C137.07 47.6898 137.292 47.8024 137.486 47.9582C137.68 48.1106 137.844 48.315 137.979 48.5713C138.118 48.8241 138.224 49.1341 138.296 49.5012C138.369 49.8684 138.406 50.2996 138.406 50.7949ZM137.439 52.1041V50.6338C137.439 50.2944 137.418 49.9965 137.377 49.7402C137.339 49.4804 137.282 49.2588 137.205 49.0752C137.129 48.8916 137.032 48.7427 136.914 48.6284C136.8 48.5141 136.667 48.431 136.514 48.379C136.365 48.3236 136.198 48.2959 136.01 48.2959C135.782 48.2959 135.579 48.3392 135.403 48.4258C135.226 48.5089 135.077 48.6423 134.956 48.8258C134.838 49.0094 134.748 49.2501 134.686 49.548C134.623 49.8459 134.592 50.2078 134.592 50.6338V52.1041C134.592 52.4435 134.611 52.7431 134.649 53.0029C134.691 53.2626 134.751 53.4878 134.831 53.6782C134.911 53.8653 135.008 54.0194 135.122 54.1406C135.236 54.2619 135.368 54.3519 135.517 54.4108C135.669 54.4662 135.837 54.4939 136.021 54.4939C136.256 54.4939 136.462 54.4489 136.639 54.3588C136.816 54.2688 136.963 54.1285 137.081 53.938C137.202 53.7441 137.292 53.4964 137.351 53.1951C137.41 52.8903 137.439 52.5266 137.439 52.1041ZM140.619 54.0367V54.8108C140.619 55.126 140.539 55.4585 140.38 55.8083C140.22 56.1616 139.997 56.456 139.71 56.6915L139.164 56.3123C139.275 56.1599 139.368 56.004 139.445 55.8447C139.521 55.6888 139.578 55.526 139.616 55.3563C139.658 55.1901 139.678 55.0134 139.678 54.8264V54.0367H140.619ZM146.697 54.39V55.1797H141.746V54.4887L144.224 51.73C144.529 51.3906 144.765 51.1031 144.931 50.8676C145.101 50.6286 145.218 50.4156 145.284 50.2286C145.353 50.0381 145.388 49.8441 145.388 49.6467C145.388 49.3973 145.336 49.1722 145.232 48.9713C145.132 48.767 144.983 48.6042 144.785 48.483C144.588 48.3617 144.349 48.3011 144.068 48.3011C143.732 48.3011 143.452 48.3669 143.227 48.4985C143.005 48.6267 142.839 48.8068 142.728 49.0388C142.617 49.2709 142.562 49.5376 142.562 49.8389H141.601C141.601 49.4129 141.694 49.0233 141.881 48.67C142.068 48.3167 142.345 48.0362 142.712 47.8283C143.08 47.6171 143.532 47.5114 144.068 47.5114C144.546 47.5114 144.955 47.5963 145.294 47.766C145.634 47.9322 145.894 48.1678 146.074 48.4726C146.257 48.7739 146.349 49.1272 146.349 49.5324C146.349 49.7541 146.311 49.9792 146.235 50.2078C146.162 50.4329 146.06 50.658 145.928 50.8832C145.8 51.1083 145.649 51.33 145.476 51.5482C145.307 51.7664 145.125 51.9811 144.931 52.1924L142.905 54.39H146.697ZM152.838 52.634V53.4237H147.373V52.8574L150.76 47.6153H151.544L150.703 49.1324L148.464 52.634H152.838ZM151.783 47.6153V55.1797H150.822V47.6153H151.783ZM158.459 50.7949V51.9482C158.459 52.5682 158.404 53.0912 158.293 53.5172C158.182 53.9432 158.023 54.2861 157.815 54.5459C157.607 54.8056 157.356 54.9944 157.062 55.1121C156.771 55.2264 156.442 55.2836 156.075 55.2836C155.784 55.2836 155.515 55.2472 155.269 55.1745C155.024 55.1018 154.802 54.9857 154.604 54.8264C154.41 54.6636 154.244 54.4523 154.106 54.1926C153.967 53.9328 153.862 53.6176 153.789 53.247C153.716 52.8764 153.68 52.4435 153.68 51.9482V50.7949C153.68 50.1749 153.735 49.6554 153.846 49.2363C153.96 48.8172 154.121 48.4812 154.329 48.2284C154.537 47.9721 154.786 47.7885 155.077 47.6777C155.372 47.5668 155.701 47.5114 156.064 47.5114C156.359 47.5114 156.629 47.5478 156.875 47.6205C157.124 47.6898 157.346 47.8024 157.54 47.9582C157.734 48.1106 157.898 48.315 158.033 48.5713C158.172 48.8241 158.278 49.1341 158.35 49.5012C158.423 49.8684 158.459 50.2996 158.459 50.7949ZM157.493 52.1041V50.6338C157.493 50.2944 157.472 49.9965 157.431 49.7402C157.393 49.4804 157.335 49.2588 157.259 49.0752C157.183 48.8916 157.086 48.7427 156.968 48.6284C156.854 48.5141 156.721 48.431 156.568 48.379C156.419 48.3236 156.251 48.2959 156.064 48.2959C155.836 48.2959 155.633 48.3392 155.456 48.4258C155.28 48.5089 155.131 48.6423 155.01 48.8258C154.892 49.0094 154.802 49.2501 154.74 49.548C154.677 49.8459 154.646 50.2078 154.646 50.6338V52.1041C154.646 52.4435 154.665 52.7431 154.703 53.0029C154.745 53.2626 154.805 53.4878 154.885 53.6782C154.965 53.8653 155.062 54.0194 155.176 54.1406C155.29 54.2619 155.422 54.3519 155.571 54.4108C155.723 54.4662 155.891 54.4939 156.075 54.4939C156.31 54.4939 156.516 54.4489 156.693 54.3588C156.87 54.2688 157.017 54.1285 157.135 53.938C157.256 53.7441 157.346 53.4964 157.405 53.1951C157.464 52.8903 157.493 52.5266 157.493 52.1041Z" fill="#181716"/>
<line opacity="0.3" x1="19.2305" y1="38.4673" x2="157.645" y2="38.4673" stroke="#181716" stroke-width="0.664998"/>
<path opacity="0.5" d="M20.9397 87.1078V93.7266H20.0624V87.1078H20.9397ZM23.249 89.858V93.7266H22.408V88.8079H23.2036L23.249 89.858ZM23.049 91.0809L22.699 91.0672C22.702 90.7308 22.752 90.4202 22.849 90.1353C22.946 89.8474 23.0823 89.5974 23.2581 89.3852C23.4339 89.1731 23.643 89.0094 23.8855 88.8943C24.1309 88.7761 24.4022 88.717 24.6992 88.717C24.9416 88.717 25.1598 88.7503 25.3538 88.817C25.5477 88.8806 25.7129 88.9837 25.8493 89.1261C25.9887 89.2686 26.0948 89.4534 26.1675 89.6807C26.2402 89.905 26.2766 90.1793 26.2766 90.5035V93.7266H25.4311V90.4944C25.4311 90.2368 25.3932 90.0308 25.3174 89.8762C25.2416 89.7186 25.131 89.605 24.9856 89.5353C24.8401 89.4625 24.6613 89.4262 24.4491 89.4262C24.24 89.4262 24.0491 89.4701 23.8764 89.558C23.7066 89.6459 23.5597 89.7671 23.4354 89.9217C23.3142 90.0762 23.2187 90.2535 23.149 90.4535C23.0823 90.6505 23.049 90.8596 23.049 91.0809ZM29.0496 92.9674L30.3952 88.8079H31.2543L29.486 93.7266H28.9223L29.0496 92.9674ZM27.9267 88.8079L29.3132 92.9901L29.4087 93.7266H28.845L27.063 88.8079H27.9267ZM34.041 93.8175C33.6985 93.8175 33.3879 93.7599 33.1091 93.6447C32.8333 93.5265 32.5954 93.3614 32.3954 93.1492C32.1984 92.9371 32.0468 92.6856 31.9408 92.3946C31.8347 92.1037 31.7817 91.7855 31.7817 91.44V91.2491C31.7817 90.849 31.8408 90.4929 31.9589 90.1808C32.0771 89.8656 32.2378 89.5989 32.4408 89.3807C32.6439 89.1625 32.8742 88.9973 33.1318 88.8852C33.3894 88.7731 33.6561 88.717 33.9319 88.717C34.2834 88.717 34.5865 88.7776 34.841 88.8988C35.0986 89.0201 35.3093 89.1898 35.4729 89.408C35.6366 89.6231 35.7578 89.8777 35.8366 90.1717C35.9154 90.4626 35.9548 90.7808 35.9548 91.1263V91.5036H32.2817V90.8172H35.1138V90.7536C35.1017 90.5354 35.0562 90.3232 34.9774 90.1171C34.9016 89.911 34.7804 89.7413 34.6137 89.608C34.4471 89.4746 34.2198 89.408 33.9319 89.408C33.7409 89.408 33.5652 89.4489 33.4045 89.5307C33.2439 89.6095 33.106 89.7277 32.9909 89.8853C32.8757 90.0429 32.7863 90.2353 32.7227 90.4626C32.659 90.6899 32.6272 90.9521 32.6272 91.2491V91.44C32.6272 91.6733 32.659 91.8931 32.7227 92.0991C32.7893 92.3022 32.8848 92.481 33.009 92.6356C33.1363 92.7901 33.2894 92.9113 33.4682 92.9992C33.65 93.0871 33.8561 93.1311 34.0864 93.1311C34.3834 93.1311 34.635 93.0704 34.841 92.9492C35.0471 92.828 35.2274 92.6659 35.382 92.4628L35.8911 92.8674C35.7851 93.028 35.6502 93.1811 35.4866 93.3265C35.3229 93.472 35.1214 93.5902 34.8819 93.6811C34.6456 93.772 34.3652 93.8175 34.041 93.8175ZM39.8006 92.4219C39.8006 92.3007 39.7733 92.1885 39.7188 92.0855C39.6673 91.9794 39.5597 91.884 39.396 91.7991C39.2354 91.7112 38.9929 91.6355 38.6687 91.5718C38.3959 91.5142 38.1489 91.446 37.9277 91.3672C37.7095 91.2885 37.5231 91.193 37.3685 91.0809C37.217 90.9687 37.1003 90.8369 37.0185 90.6854C36.9367 90.5338 36.8958 90.3565 36.8958 90.1535C36.8958 89.9595 36.9382 89.7762 37.0231 89.6034C37.1109 89.4307 37.2337 89.2777 37.3913 89.1443C37.5519 89.011 37.7443 88.9064 37.9686 88.8306C38.1929 88.7549 38.4429 88.717 38.7187 88.717C39.1127 88.717 39.449 88.7867 39.7279 88.9261C40.0067 89.0655 40.2203 89.2519 40.3688 89.4853C40.5173 89.7156 40.5916 89.9717 40.5916 90.2535H39.7506C39.7506 90.1171 39.7097 89.9853 39.6279 89.858C39.5491 89.7277 39.4324 89.6201 39.2778 89.5353C39.1263 89.4504 38.9399 89.408 38.7187 89.408C38.4853 89.408 38.2959 89.4443 38.1504 89.5171C38.008 89.5868 37.9034 89.6762 37.8368 89.7853C37.7731 89.8944 37.7413 90.0095 37.7413 90.1308C37.7413 90.2217 37.7565 90.3035 37.7868 90.3762C37.8201 90.4459 37.8777 90.5111 37.9595 90.5717C38.0413 90.6293 38.1565 90.6839 38.305 90.7354C38.4535 90.7869 38.6429 90.8384 38.8732 90.8899C39.2763 90.9808 39.6082 91.0899 39.8688 91.2172C40.1294 91.3445 40.3234 91.5006 40.4507 91.6855C40.5779 91.8703 40.6416 92.0946 40.6416 92.3583C40.6416 92.5734 40.5961 92.7704 40.5052 92.9492C40.4173 93.128 40.2885 93.2826 40.1188 93.4129C39.9521 93.5402 39.7521 93.6402 39.5188 93.7129C39.2884 93.7826 39.0293 93.8175 38.7414 93.8175C38.308 93.8175 37.9413 93.7402 37.6413 93.5856C37.3413 93.4311 37.114 93.2311 36.9594 92.9856C36.8049 92.7401 36.7276 92.481 36.7276 92.2082H37.5731C37.5852 92.4386 37.6519 92.6219 37.7731 92.7583C37.8944 92.8916 38.0429 92.9871 38.2186 93.0447C38.3944 93.0992 38.5687 93.1265 38.7414 93.1265C38.9717 93.1265 39.1642 93.0962 39.3187 93.0356C39.4763 92.975 39.596 92.8916 39.6779 92.7856C39.7597 92.6795 39.8006 92.5583 39.8006 92.4219ZM43.8055 88.8079V89.4534H41.1462V88.8079H43.8055ZM42.0463 87.6123H42.8873V92.5083C42.8873 92.6749 42.913 92.8007 42.9645 92.8856C43.0161 92.9704 43.0827 93.0265 43.1646 93.0538C43.2464 93.081 43.3343 93.0947 43.4282 93.0947C43.4979 93.0947 43.5706 93.0886 43.6464 93.0765C43.7252 93.0613 43.7843 93.0492 43.8237 93.0401L43.8282 93.7266C43.7616 93.7478 43.6737 93.7675 43.5646 93.7857C43.4585 93.8069 43.3297 93.8175 43.1782 93.8175C42.9721 93.8175 42.7827 93.7766 42.61 93.6947C42.4372 93.6129 42.2993 93.4765 42.1963 93.2856C42.0963 93.0917 42.0463 92.831 42.0463 92.5037V87.6123ZM45.7057 88.8079V93.7266H44.8602V88.8079H45.7057ZM44.7965 87.5032C44.7965 87.3669 44.8374 87.2517 44.9193 87.1578C45.0041 87.0638 45.1284 87.0168 45.292 87.0168C45.4526 87.0168 45.5754 87.0638 45.6602 87.1578C45.7481 87.2517 45.7921 87.3669 45.7921 87.5032C45.7921 87.6336 45.7481 87.7457 45.6602 87.8396C45.5754 87.9306 45.4526 87.976 45.292 87.976C45.1284 87.976 45.0041 87.9306 44.9193 87.8396C44.8374 87.7457 44.7965 87.6336 44.7965 87.5032ZM47.8968 89.858V93.7266H47.0558V88.8079H47.8514L47.8968 89.858ZM47.6968 91.0809L47.3468 91.0672C47.3498 90.7308 47.3998 90.4202 47.4968 90.1353C47.5938 89.8474 47.7301 89.5974 47.9059 89.3852C48.0817 89.1731 48.2908 89.0094 48.5332 88.8943C48.7787 88.7761 49.05 88.717 49.347 88.717C49.5894 88.717 49.8076 88.7503 50.0016 88.817C50.1955 88.8806 50.3607 88.9837 50.4971 89.1261C50.6365 89.2686 50.7425 89.4534 50.8153 89.6807C50.888 89.905 50.9244 90.1793 50.9244 90.5035V93.7266H50.0788V90.4944C50.0788 90.2368 50.041 90.0308 49.9652 89.8762C49.8894 89.7186 49.7788 89.605 49.6333 89.5353C49.4879 89.4625 49.3091 89.4262 49.0969 89.4262C48.8878 89.4262 48.6969 89.4701 48.5241 89.558C48.3544 89.6459 48.2075 89.7671 48.0832 89.9217C47.962 90.0762 47.8665 90.2535 47.7968 90.4535C47.7301 90.6505 47.6968 90.8596 47.6968 91.0809ZM55.3884 88.8079H56.1521V93.622C56.1521 94.0554 56.0643 94.4251 55.8885 94.7312C55.7127 95.0373 55.4672 95.2691 55.152 95.4267C54.8399 95.5873 54.4793 95.6677 54.0701 95.6677C53.9004 95.6677 53.7004 95.6404 53.4701 95.5858C53.2428 95.5343 53.0185 95.4449 52.7973 95.3176C52.5791 95.1934 52.3957 95.0252 52.2472 94.813L52.6882 94.313C52.8943 94.5615 53.1094 94.7342 53.3337 94.8312C53.561 94.9282 53.7853 94.9767 54.0065 94.9767C54.2732 94.9767 54.5035 94.9267 54.6975 94.8267C54.8914 94.7267 55.0414 94.5782 55.1475 94.3812C55.2566 94.1872 55.3112 93.9478 55.3112 93.6629V89.8898L55.3884 88.8079ZM52.0017 91.3218V91.2263C52.0017 90.8505 52.0457 90.5096 52.1336 90.2035C52.2245 89.8944 52.3533 89.6292 52.52 89.408C52.6897 89.1867 52.8943 89.017 53.1337 88.8988C53.3731 88.7776 53.6428 88.717 53.9428 88.717C54.252 88.717 54.5217 88.7715 54.752 88.8806C54.9854 88.9867 55.1824 89.1428 55.343 89.3489C55.5066 89.5519 55.6354 89.7974 55.7294 90.0853C55.8233 90.3732 55.8885 90.699 55.9248 91.0627V91.4809C55.8915 91.8415 55.8264 92.1658 55.7294 92.4537C55.6354 92.7416 55.5066 92.9871 55.343 93.1901C55.1824 93.3932 54.9854 93.5493 54.752 93.6584C54.5187 93.7644 54.2459 93.8175 53.9338 93.8175C53.6398 93.8175 53.3731 93.7554 53.1337 93.6311C52.8973 93.5068 52.6942 93.3326 52.5245 93.1083C52.3548 92.8841 52.2245 92.6204 52.1336 92.3173C52.0457 92.0112 52.0017 91.6794 52.0017 91.3218ZM52.8427 91.2263V91.3218C52.8427 91.5673 52.867 91.7976 52.9155 92.0128C52.967 92.2279 53.0443 92.4173 53.1473 92.581C53.2534 92.7447 53.3882 92.8735 53.5519 92.9674C53.7155 93.0583 53.911 93.1038 54.1383 93.1038C54.4171 93.1038 54.6475 93.0447 54.8293 92.9265C55.0111 92.8083 55.1551 92.6522 55.2611 92.4583C55.3703 92.2643 55.4551 92.0537 55.5157 91.8264V90.7308C55.4824 90.5641 55.4309 90.4035 55.3612 90.249C55.2945 90.0914 55.2066 89.952 55.0975 89.8307C54.9914 89.7065 54.8596 89.608 54.702 89.5353C54.5444 89.4625 54.3595 89.4262 54.1474 89.4262C53.9171 89.4262 53.7186 89.4746 53.5519 89.5716C53.3882 89.6656 53.2534 89.7959 53.1473 89.9626C53.0443 90.1262 52.967 90.3171 52.9155 90.5354C52.867 90.7505 52.8427 90.9808 52.8427 91.2263Z" fill="#181716"/>
<path d="M114.84 89.8385V90.6282H112.304V89.8385H114.84ZM118.549 84.6588V86.2433H117.77V84.6588H118.549ZM118.456 93.1427V94.5298H117.682V93.1427H118.456ZM119.495 91.501C119.495 91.2932 119.448 91.1061 119.355 90.9399C119.261 90.7736 119.107 90.6212 118.892 90.4827C118.677 90.3442 118.39 90.216 118.03 90.0983C117.593 89.9632 117.216 89.7987 116.897 89.6047C116.582 89.4107 116.338 89.17 116.165 88.8826C115.995 88.5951 115.91 88.247 115.91 87.8383C115.91 87.4123 116.002 87.0452 116.185 86.7369C116.369 86.4286 116.629 86.1914 116.965 86.0251C117.301 85.8589 117.695 85.7758 118.149 85.7758C118.502 85.7758 118.818 85.8295 119.095 85.9368C119.372 86.0407 119.606 86.1966 119.796 86.4044C119.99 86.6122 120.137 86.8668 120.238 87.1681C120.342 87.4694 120.394 87.8175 120.394 88.2124H119.438C119.438 87.9803 119.41 87.7673 119.355 87.5733C119.299 87.3794 119.216 87.2114 119.105 87.0694C118.994 86.9239 118.859 86.8131 118.7 86.7369C118.541 86.6572 118.357 86.6174 118.149 86.6174C117.858 86.6174 117.618 86.6676 117.427 86.7681C117.24 86.8685 117.101 87.0105 117.011 87.1941C116.921 87.3742 116.876 87.5837 116.876 87.8227C116.876 88.0444 116.921 88.2383 117.011 88.4046C117.101 88.5708 117.254 88.7215 117.469 88.8566C117.687 88.9882 117.986 89.1181 118.367 89.2462C118.814 89.3882 119.193 89.5562 119.505 89.7502C119.817 89.9407 120.054 90.1762 120.217 90.4567C120.38 90.7338 120.461 91.0784 120.461 91.4906C120.461 91.9374 120.361 92.3149 120.16 92.6232C119.959 92.928 119.677 93.16 119.313 93.3193C118.949 93.4787 118.523 93.5583 118.035 93.5583C117.74 93.5583 117.45 93.5185 117.162 93.4388C116.875 93.3592 116.615 93.2293 116.383 93.0492C116.151 92.8656 115.965 92.6249 115.827 92.327C115.688 92.0257 115.619 91.6568 115.619 91.2204H116.585C116.585 91.5148 116.627 91.759 116.71 91.953C116.797 92.1435 116.911 92.2959 117.053 92.4102C117.195 92.521 117.351 92.6007 117.521 92.6491C117.694 92.6942 117.865 92.7167 118.035 92.7167C118.347 92.7167 118.61 92.6682 118.825 92.5712C119.043 92.4708 119.209 92.3288 119.323 92.1452C119.438 91.9616 119.495 91.7469 119.495 91.501ZM126.618 92.6595V93.4492H121.666V92.7582L124.145 89.9995C124.449 89.6601 124.685 89.3726 124.851 89.1371C125.021 88.8981 125.139 88.6851 125.204 88.4981C125.274 88.3076 125.308 88.1136 125.308 87.9162C125.308 87.6669 125.256 87.4417 125.152 87.2408C125.052 87.0365 124.903 86.8737 124.706 86.7525C124.508 86.6313 124.269 86.5706 123.989 86.5706C123.653 86.5706 123.372 86.6365 123.147 86.7681C122.925 86.8962 122.759 87.0763 122.648 87.3084C122.537 87.5404 122.482 87.8071 122.482 88.1085H121.521C121.521 87.6824 121.614 87.2928 121.801 86.9395C121.989 86.5862 122.266 86.3057 122.633 86.0979C123 85.8866 123.452 85.781 123.989 85.781C124.467 85.781 124.875 85.8658 125.215 86.0355C125.554 86.2018 125.814 86.4373 125.994 86.7421C126.178 87.0434 126.269 87.3967 126.269 87.8019C126.269 88.0236 126.231 88.2487 126.155 88.4773C126.082 88.7025 125.98 88.9276 125.849 89.1527C125.72 89.3778 125.57 89.5995 125.397 89.8177C125.227 90.0359 125.045 90.2506 124.851 90.4619L122.825 92.6595H126.618ZM130.805 85.8433V93.4492H129.844V87.0434L127.906 87.75V86.8824L130.654 85.8433H130.805ZM135.034 89.1943H135.72C136.056 89.1943 136.333 89.1389 136.551 89.028C136.773 88.9137 136.937 88.7596 137.044 88.5656C137.155 88.3682 137.211 88.1466 137.211 87.9006C137.211 87.6097 137.162 87.3655 137.065 87.1681C136.968 86.9707 136.823 86.8218 136.629 86.7213C136.435 86.6209 136.189 86.5706 135.891 86.5706C135.621 86.5706 135.382 86.6243 135.174 86.7317C134.97 86.8356 134.809 86.9845 134.691 87.1785C134.577 87.3725 134.52 87.601 134.52 87.8643H133.558C133.558 87.4798 133.655 87.13 133.849 86.8148C134.043 86.4996 134.315 86.2485 134.665 86.0615C135.018 85.8745 135.427 85.781 135.891 85.781C136.348 85.781 136.748 85.8624 137.091 86.0251C137.434 86.1845 137.701 86.4234 137.891 86.7421C138.082 87.0573 138.177 87.4504 138.177 87.9214C138.177 88.1119 138.132 88.3163 138.042 88.5345C137.955 88.7492 137.819 88.9501 137.632 89.1371C137.448 89.3242 137.209 89.4783 136.915 89.5995C136.62 89.7173 136.267 89.7761 135.855 89.7761H135.034V89.1943ZM135.034 89.984V89.4073H135.855C136.336 89.4073 136.735 89.4644 137.05 89.5787C137.365 89.693 137.613 89.8454 137.793 90.0359C137.976 90.2264 138.104 90.4359 138.177 90.6645C138.253 90.8897 138.291 91.1148 138.291 91.3399C138.291 91.6932 138.231 92.0067 138.11 92.2803C137.992 92.5539 137.824 92.786 137.606 92.9764C137.391 93.1669 137.138 93.3107 136.847 93.4077C136.556 93.5046 136.239 93.5531 135.896 93.5531C135.567 93.5531 135.257 93.5064 134.966 93.4129C134.679 93.3193 134.424 93.1843 134.203 93.0076C133.981 92.8275 133.808 92.6076 133.683 92.3478C133.558 92.0846 133.496 91.785 133.496 91.449H134.457C134.457 91.7123 134.514 91.9426 134.629 92.14C134.746 92.3374 134.913 92.4916 135.127 92.6024C135.346 92.7098 135.602 92.7634 135.896 92.7634C136.191 92.7634 136.444 92.7132 136.655 92.6128C136.87 92.5089 137.034 92.353 137.148 92.1452C137.266 91.9374 137.325 91.6759 137.325 91.3607C137.325 91.0455 137.259 90.7875 137.128 90.5866C136.996 90.3823 136.809 90.2316 136.567 90.1346C136.328 90.0342 136.045 89.984 135.72 89.984H135.034ZM140.593 92.3063V93.0804C140.593 93.3955 140.513 93.728 140.354 94.0778C140.195 94.4311 139.971 94.7255 139.684 94.961L139.138 94.5818C139.249 94.4294 139.343 94.2735 139.419 94.1142C139.495 93.9584 139.552 93.7956 139.59 93.6259C139.632 93.4596 139.653 93.283 139.653 93.0959V92.3063H140.593ZM146.827 90.9035V91.6932H141.362V91.1269L144.749 85.8849H145.534L144.692 87.4019L142.453 90.9035H146.827ZM145.773 85.8849V93.4492H144.811V85.8849H145.773ZM148.916 89.8489L148.147 89.6515L148.526 85.8849H152.407V86.7733H149.342L149.113 88.8306C149.252 88.7509 149.427 88.6765 149.638 88.6072C149.853 88.5379 150.099 88.5033 150.376 88.5033C150.725 88.5033 151.039 88.5639 151.316 88.6851C151.593 88.8029 151.829 88.9726 152.023 89.1943C152.22 89.4159 152.371 89.6826 152.475 89.9943C152.578 90.3061 152.63 90.6541 152.63 91.0386C152.63 91.4023 152.58 91.7365 152.48 92.0413C152.383 92.3461 152.236 92.6128 152.038 92.8414C151.841 93.0665 151.591 93.2414 151.29 93.3661C150.992 93.4908 150.641 93.5531 150.235 93.5531C149.931 93.5531 149.641 93.5116 149.368 93.4284C149.098 93.3418 148.855 93.212 148.64 93.0388C148.429 92.8622 148.256 92.6439 148.121 92.3842C147.989 92.121 147.906 91.8127 147.871 91.4594H148.786C148.827 91.7434 148.911 91.9824 149.035 92.1764C149.16 92.3703 149.323 92.5175 149.524 92.618C149.728 92.715 149.965 92.7634 150.235 92.7634C150.464 92.7634 150.667 92.7236 150.843 92.6439C151.02 92.5643 151.169 92.45 151.29 92.3011C151.411 92.1521 151.503 91.972 151.565 91.7607C151.631 91.5495 151.664 91.3122 151.664 91.049C151.664 90.81 151.631 90.5883 151.565 90.384C151.5 90.1796 151.401 90.0013 151.269 89.8489C151.141 89.6965 150.983 89.5787 150.796 89.4956C150.609 89.409 150.395 89.3657 150.152 89.3657C149.83 89.3657 149.586 89.409 149.42 89.4956C149.257 89.5822 149.089 89.6999 148.916 89.8489ZM158.434 89.0644V90.2177C158.434 90.8377 158.378 91.3607 158.267 91.7867C158.156 92.2127 157.997 92.5556 157.789 92.8154C157.581 93.0752 157.33 93.2639 157.036 93.3817C156.745 93.496 156.416 93.5531 156.049 93.5531C155.758 93.5531 155.49 93.5168 155.244 93.444C154.998 93.3713 154.776 93.2553 154.579 93.0959C154.385 92.9332 154.218 92.7219 154.08 92.4621C153.941 92.2023 153.836 91.8872 153.763 91.5166C153.69 91.146 153.654 90.713 153.654 90.2177V89.0644C153.654 88.4444 153.709 87.9249 153.82 87.5058C153.934 87.0867 154.095 86.7508 154.303 86.4979C154.511 86.2416 154.76 86.058 155.051 85.9472C155.346 85.8364 155.675 85.781 156.038 85.781C156.333 85.781 156.603 85.8173 156.849 85.8901C157.098 85.9593 157.32 86.0719 157.514 86.2278C157.708 86.3802 157.872 86.5845 158.008 86.8408C158.146 87.0936 158.252 87.4036 158.324 87.7708C158.397 88.1379 158.434 88.5691 158.434 89.0644ZM157.467 90.3736V88.9033C157.467 88.5639 157.446 88.266 157.405 88.0097C157.367 87.75 157.31 87.5283 157.233 87.3447C157.157 87.1612 157.06 87.0122 156.942 86.898C156.828 86.7837 156.695 86.7005 156.542 86.6486C156.394 86.5932 156.226 86.5655 156.038 86.5655C155.81 86.5655 155.607 86.6087 155.431 86.6953C155.254 86.7785 155.105 86.9118 154.984 87.0954C154.866 87.2789 154.776 87.5197 154.714 87.8175C154.651 88.1154 154.62 88.4773 154.62 88.9033V90.3736C154.62 90.713 154.639 91.0126 154.677 91.2724C154.719 91.5322 154.779 91.7573 154.859 91.9478C154.939 92.1348 155.036 92.2889 155.15 92.4102C155.264 92.5314 155.396 92.6214 155.545 92.6803C155.697 92.7357 155.865 92.7634 156.049 92.7634C156.284 92.7634 156.49 92.7184 156.667 92.6284C156.844 92.5383 156.991 92.398 157.109 92.2075C157.23 92.0136 157.32 91.7659 157.379 91.4646C157.438 91.1598 157.467 90.7962 157.467 90.3736Z" fill="#181716"/>
<path opacity="0.5" d="M20.8761 123.656V130.274H19.9987V123.656H20.8761ZM23.6491 126.633V127.351H20.6852V126.633H23.6491ZM24.0991 123.656V124.374H20.6852V123.656H24.0991ZM25.9311 125.356V130.274H25.0856V125.356H25.9311ZM25.0219 124.051C25.0219 123.915 25.0628 123.8 25.1447 123.706C25.2295 123.612 25.3538 123.565 25.5174 123.565C25.678 123.565 25.8008 123.612 25.8856 123.706C25.9735 123.8 26.0175 123.915 26.0175 124.051C26.0175 124.181 25.9735 124.294 25.8856 124.387C25.8008 124.478 25.678 124.524 25.5174 124.524C25.3538 124.524 25.2295 124.478 25.1447 124.387C25.0628 124.294 25.0219 124.181 25.0219 124.051ZM28.1222 126.406V130.274H27.2812V125.356H28.0768L28.1222 126.406ZM27.9222 127.629L27.5722 127.615C27.5752 127.279 27.6252 126.968 27.7222 126.683C27.8192 126.395 27.9555 126.145 28.1313 125.933C28.3071 125.721 28.5162 125.557 28.7586 125.442C29.0041 125.324 29.2754 125.265 29.5724 125.265C29.8148 125.265 30.033 125.298 30.227 125.365C30.4209 125.429 30.5861 125.532 30.7225 125.674C30.8619 125.816 30.9679 126.001 31.0407 126.229C31.1134 126.453 31.1498 126.727 31.1498 127.051V130.274H30.3042V127.042C30.3042 126.785 30.2664 126.579 30.1906 126.424C30.1148 126.266 30.0042 126.153 29.8587 126.083C29.7133 126.01 29.5345 125.974 29.3223 125.974C29.1132 125.974 28.9223 126.018 28.7496 126.106C28.5798 126.194 28.4329 126.315 28.3086 126.47C28.1874 126.624 28.0919 126.801 28.0222 127.001C27.9555 127.198 27.9222 127.407 27.9222 127.629ZM35.3274 129.433V126.901C35.3274 126.707 35.288 126.539 35.2093 126.397C35.1335 126.251 35.0183 126.139 34.8638 126.06C34.7092 125.982 34.5183 125.942 34.291 125.942C34.0788 125.942 33.8925 125.979 33.7318 126.051C33.5742 126.124 33.45 126.219 33.3591 126.338C33.2712 126.456 33.2272 126.583 33.2272 126.72H32.3863C32.3863 126.544 32.4317 126.369 32.5226 126.197C32.6136 126.024 32.7439 125.868 32.9136 125.729C33.0863 125.586 33.2924 125.474 33.5318 125.392C33.7743 125.307 34.044 125.265 34.341 125.265C34.6986 125.265 35.0138 125.325 35.2865 125.447C35.5623 125.568 35.7775 125.751 35.932 125.997C36.0896 126.239 36.1684 126.544 36.1684 126.91V129.202C36.1684 129.365 36.1821 129.539 36.2093 129.724C36.2397 129.909 36.2836 130.068 36.3412 130.202V130.274H35.4638C35.4214 130.177 35.3881 130.049 35.3638 129.888C35.3396 129.724 35.3274 129.573 35.3274 129.433ZM35.4729 127.292L35.482 127.883H34.6319C34.3925 127.883 34.1789 127.903 33.991 127.942C33.8031 127.979 33.6455 128.035 33.5182 128.111C33.3909 128.186 33.2939 128.282 33.2272 128.397C33.1606 128.509 33.1272 128.641 33.1272 128.792C33.1272 128.947 33.1621 129.088 33.2318 129.215C33.3015 129.343 33.4061 129.444 33.5455 129.52C33.6879 129.593 33.8622 129.629 34.0682 129.629C34.3258 129.629 34.5531 129.574 34.7501 129.465C34.9471 129.356 35.1032 129.223 35.2183 129.065C35.3365 128.908 35.4002 128.755 35.4093 128.606L35.7684 129.011C35.7472 129.138 35.6896 129.279 35.5957 129.433C35.5017 129.588 35.3759 129.736 35.2183 129.879C35.0638 130.018 34.8789 130.135 34.6637 130.229C34.4516 130.32 34.2122 130.365 33.9455 130.365C33.6121 130.365 33.3197 130.3 33.0681 130.17C32.8196 130.04 32.6257 129.865 32.4863 129.647C32.3499 129.426 32.2817 129.179 32.2817 128.906C32.2817 128.642 32.3332 128.411 32.4363 128.211C32.5393 128.008 32.6878 127.839 32.8818 127.706C33.0757 127.57 33.3091 127.467 33.5818 127.397C33.8546 127.327 34.1592 127.292 34.4955 127.292H35.4729ZM38.3323 126.406V130.274H37.4913V125.356H38.2868L38.3323 126.406ZM38.1323 127.629L37.7822 127.615C37.7853 127.279 37.8353 126.968 37.9322 126.683C38.0292 126.395 38.1656 126.145 38.3414 125.933C38.5171 125.721 38.7263 125.557 38.9687 125.442C39.2142 125.324 39.4854 125.265 39.7824 125.265C40.0249 125.265 40.2431 125.298 40.437 125.365C40.631 125.429 40.7961 125.532 40.9325 125.674C41.0719 125.816 41.178 126.001 41.2507 126.229C41.3235 126.453 41.3598 126.727 41.3598 127.051V130.274H40.5143V127.042C40.5143 126.785 40.4764 126.579 40.4007 126.424C40.3249 126.266 40.2143 126.153 40.0688 126.083C39.9233 126.01 39.7445 125.974 39.5324 125.974C39.3233 125.974 39.1324 126.018 38.9596 126.106C38.7899 126.194 38.6429 126.315 38.5187 126.47C38.3974 126.624 38.302 126.801 38.2323 127.001C38.1656 127.198 38.1323 127.407 38.1323 127.629ZM44.6056 129.674C44.8056 129.674 44.9905 129.633 45.1602 129.552C45.3299 129.47 45.4693 129.358 45.5784 129.215C45.6875 129.07 45.7496 128.905 45.7648 128.72H46.5649C46.5497 129.011 46.4512 129.282 46.2694 129.533C46.0906 129.782 45.8557 129.983 45.5648 130.138C45.2738 130.29 44.9541 130.365 44.6056 130.365C44.2359 130.365 43.9131 130.3 43.6373 130.17C43.3646 130.04 43.1373 129.861 42.9554 129.633C42.7766 129.406 42.6418 129.146 42.5509 128.852C42.463 128.555 42.419 128.241 42.419 127.911V127.72C42.419 127.389 42.463 127.077 42.5509 126.783C42.6418 126.486 42.7766 126.224 42.9554 125.997C43.1373 125.769 43.3646 125.591 43.6373 125.46C43.9131 125.33 44.2359 125.265 44.6056 125.265C44.9905 125.265 45.3269 125.344 45.6148 125.501C45.9027 125.656 46.1285 125.868 46.2921 126.138C46.4588 126.404 46.5497 126.707 46.5649 127.047H45.7648C45.7496 126.844 45.6921 126.66 45.5921 126.497C45.4951 126.333 45.3617 126.203 45.192 126.106C45.0253 126.006 44.8299 125.956 44.6056 125.956C44.348 125.956 44.1313 126.007 43.9555 126.11C43.7828 126.21 43.6449 126.347 43.5419 126.52C43.4418 126.689 43.3691 126.879 43.3237 127.088C43.2812 127.294 43.26 127.504 43.26 127.72V127.911C43.26 128.126 43.2812 128.338 43.3237 128.547C43.3661 128.756 43.4373 128.946 43.5373 129.115C43.6404 129.285 43.7782 129.421 43.951 129.524C44.1268 129.624 44.345 129.674 44.6056 129.674ZM48.4241 125.356V130.274H47.5786V125.356H48.4241ZM47.515 124.051C47.515 123.915 47.5559 123.8 47.6377 123.706C47.7226 123.612 47.8468 123.565 48.0105 123.565C48.1711 123.565 48.2938 123.612 48.3787 123.706C48.4666 123.8 48.5105 123.915 48.5105 124.051C48.5105 124.181 48.4666 124.294 48.3787 124.387C48.2938 124.478 48.1711 124.524 48.0105 124.524C47.8468 124.524 47.7226 124.478 47.6377 124.387C47.5559 124.294 47.515 124.181 47.515 124.051ZM50.6153 126.406V130.274H49.7743V125.356H50.5698L50.6153 126.406ZM50.4152 127.629L50.0652 127.615C50.0682 127.279 50.1182 126.968 50.2152 126.683C50.3122 126.395 50.4486 126.145 50.6243 125.933C50.8001 125.721 51.0092 125.557 51.2517 125.442C51.4972 125.324 51.7684 125.265 52.0654 125.265C52.3078 125.265 52.526 125.298 52.72 125.365C52.914 125.429 53.0791 125.532 53.2155 125.674C53.3549 125.816 53.461 126.001 53.5337 126.229C53.6064 126.453 53.6428 126.727 53.6428 127.051V130.274H52.7973V127.042C52.7973 126.785 52.7594 126.579 52.6836 126.424C52.6079 126.266 52.4973 126.153 52.3518 126.083C52.2063 126.01 52.0275 125.974 51.8154 125.974C51.6063 125.974 51.4153 126.018 51.2426 126.106C51.0729 126.194 50.9259 126.315 50.8016 126.47C50.6804 126.624 50.5849 126.801 50.5152 127.001C50.4486 127.198 50.4152 127.407 50.4152 127.629ZM58.1069 125.356H58.8706V130.17C58.8706 130.603 58.7827 130.973 58.6069 131.279C58.4311 131.585 58.1857 131.817 57.8705 131.975C57.5583 132.135 57.1977 132.216 56.7886 132.216C56.6189 132.216 56.4188 132.188 56.1885 132.134C55.9612 132.082 55.737 131.993 55.5157 131.865C55.2975 131.741 55.1142 131.573 54.9657 131.361L55.4066 130.861C55.6127 131.109 55.8279 131.282 56.0521 131.379C56.2794 131.476 56.5037 131.525 56.7249 131.525C56.9916 131.525 57.2219 131.475 57.4159 131.375C57.6099 131.275 57.7599 131.126 57.8659 130.929C57.975 130.735 58.0296 130.496 58.0296 130.211V126.438L58.1069 125.356ZM54.7202 127.87V127.774C54.7202 127.398 54.7641 127.057 54.852 126.751C54.9429 126.442 55.0717 126.177 55.2384 125.956C55.4081 125.735 55.6127 125.565 55.8521 125.447C56.0915 125.325 56.3613 125.265 56.6613 125.265C56.9704 125.265 57.2401 125.319 57.4705 125.429C57.7038 125.535 57.9008 125.691 58.0614 125.897C58.2251 126.1 58.3539 126.345 58.4478 126.633C58.5418 126.921 58.6069 127.247 58.6433 127.611V128.029C58.61 128.389 58.5448 128.714 58.4478 129.002C58.3539 129.289 58.2251 129.535 58.0614 129.738C57.9008 129.941 57.7038 130.097 57.4705 130.206C57.2371 130.312 56.9643 130.365 56.6522 130.365C56.3582 130.365 56.0915 130.303 55.8521 130.179C55.6157 130.055 55.4127 129.88 55.243 129.656C55.0733 129.432 54.9429 129.168 54.852 128.865C54.7641 128.559 54.7202 128.227 54.7202 127.87ZM55.5612 127.774V127.87C55.5612 128.115 55.5854 128.345 55.6339 128.561C55.6854 128.776 55.7627 128.965 55.8658 129.129C55.9718 129.293 56.1067 129.421 56.2703 129.515C56.434 129.606 56.6295 129.652 56.8568 129.652C57.1356 129.652 57.3659 129.593 57.5477 129.474C57.7296 129.356 57.8735 129.2 57.9796 129.006C58.0887 128.812 58.1735 128.602 58.2342 128.374V127.279C58.2008 127.112 58.1493 126.951 58.0796 126.797C58.0129 126.639 57.925 126.5 57.8159 126.379C57.7099 126.254 57.578 126.156 57.4204 126.083C57.2629 126.01 57.078 125.974 56.8658 125.974C56.6355 125.974 56.437 126.022 56.2703 126.119C56.1067 126.213 55.9718 126.344 55.8658 126.51C55.7627 126.674 55.6854 126.865 55.6339 127.083C55.5854 127.298 55.5612 127.529 55.5612 127.774Z" fill="#181716"/>
<path d="M118.575 121.655V123.239H117.796V121.655H118.575ZM118.482 130.139V131.526H117.707V130.139H118.482ZM119.521 128.497C119.521 128.289 119.474 128.102 119.38 127.936C119.287 127.77 119.133 127.617 118.918 127.479C118.703 127.34 118.416 127.212 118.056 127.094C117.619 126.959 117.242 126.795 116.923 126.601C116.608 126.407 116.364 126.166 116.19 125.879C116.021 125.591 115.936 125.243 115.936 124.834C115.936 124.408 116.028 124.041 116.211 123.733C116.395 123.425 116.655 123.187 116.99 123.021C117.326 122.855 117.721 122.772 118.175 122.772C118.528 122.772 118.843 122.826 119.121 122.933C119.398 123.037 119.631 123.193 119.822 123.4C120.016 123.608 120.163 123.863 120.264 124.164C120.367 124.466 120.419 124.814 120.419 125.208H119.463C119.463 124.976 119.436 124.763 119.38 124.569C119.325 124.375 119.242 124.207 119.131 124.065C119.02 123.92 118.885 123.809 118.726 123.733C118.566 123.653 118.383 123.613 118.175 123.613C117.884 123.613 117.643 123.664 117.453 123.764C117.266 123.865 117.127 124.007 117.037 124.19C116.947 124.37 116.902 124.58 116.902 124.819C116.902 125.04 116.947 125.234 117.037 125.401C117.127 125.567 117.28 125.718 117.494 125.853C117.713 125.984 118.012 126.114 118.393 126.242C118.84 126.384 119.219 126.552 119.531 126.746C119.843 126.937 120.08 127.172 120.243 127.453C120.406 127.73 120.487 128.075 120.487 128.487C120.487 128.933 120.386 129.311 120.186 129.619C119.985 129.924 119.702 130.156 119.339 130.315C118.975 130.475 118.549 130.554 118.061 130.554C117.766 130.554 117.475 130.515 117.188 130.435C116.9 130.355 116.641 130.225 116.409 130.045C116.177 129.862 115.991 129.621 115.853 129.323C115.714 129.022 115.645 128.653 115.645 128.217H116.611C116.611 128.511 116.653 128.755 116.736 128.949C116.823 129.14 116.937 129.292 117.079 129.406C117.221 129.517 117.377 129.597 117.546 129.645C117.72 129.69 117.891 129.713 118.061 129.713C118.372 129.713 118.636 129.664 118.85 129.567C119.069 129.467 119.235 129.325 119.349 129.141C119.463 128.958 119.521 128.743 119.521 128.497ZM123.09 126.19H123.776C124.112 126.19 124.389 126.135 124.607 126.024C124.828 125.91 124.993 125.756 125.1 125.562C125.211 125.364 125.267 125.143 125.267 124.897C125.267 124.606 125.218 124.362 125.121 124.164C125.024 123.967 124.879 123.818 124.685 123.717C124.491 123.617 124.245 123.567 123.947 123.567C123.677 123.567 123.438 123.62 123.23 123.728C123.026 123.832 122.865 123.981 122.747 124.175C122.633 124.369 122.575 124.597 122.575 124.86H121.614C121.614 124.476 121.711 124.126 121.905 123.811C122.099 123.496 122.371 123.245 122.721 123.058C123.074 122.871 123.483 122.777 123.947 122.777C124.404 122.777 124.804 122.858 125.147 123.021C125.49 123.181 125.757 123.42 125.947 123.738C126.138 124.053 126.233 124.446 126.233 124.918C126.233 125.108 126.188 125.312 126.098 125.531C126.011 125.745 125.874 125.946 125.687 126.133C125.504 126.32 125.265 126.474 124.97 126.596C124.676 126.713 124.323 126.772 123.911 126.772H123.09V126.19ZM123.09 126.98V126.403H123.911C124.392 126.403 124.79 126.461 125.106 126.575C125.421 126.689 125.668 126.842 125.848 127.032C126.032 127.222 126.16 127.432 126.233 127.661C126.309 127.886 126.347 128.111 126.347 128.336C126.347 128.689 126.287 129.003 126.165 129.276C126.048 129.55 125.88 129.782 125.661 129.973C125.447 130.163 125.194 130.307 124.903 130.404C124.612 130.501 124.295 130.549 123.952 130.549C123.623 130.549 123.313 130.502 123.022 130.409C122.735 130.315 122.48 130.18 122.259 130.004C122.037 129.824 121.864 129.604 121.739 129.344C121.614 129.081 121.552 128.781 121.552 128.445H122.513C122.513 128.708 122.57 128.939 122.685 129.136C122.802 129.334 122.969 129.488 123.183 129.598C123.401 129.706 123.658 129.76 123.952 129.76C124.247 129.76 124.499 129.709 124.711 129.609C124.925 129.505 125.09 129.349 125.204 129.141C125.322 128.933 125.381 128.672 125.381 128.357C125.381 128.042 125.315 127.784 125.183 127.583C125.052 127.378 124.865 127.228 124.622 127.131C124.383 127.03 124.101 126.98 123.776 126.98H123.09ZM132.628 129.656V130.445H127.677V129.754L130.155 126.996C130.46 126.656 130.696 126.369 130.862 126.133C131.032 125.894 131.149 125.681 131.215 125.494C131.284 125.304 131.319 125.11 131.319 124.912C131.319 124.663 131.267 124.438 131.163 124.237C131.063 124.033 130.914 123.87 130.716 123.749C130.519 123.627 130.28 123.567 130 123.567C129.664 123.567 129.383 123.633 129.158 123.764C128.936 123.892 128.77 124.072 128.659 124.304C128.548 124.537 128.493 124.803 128.493 125.105H127.532C127.532 124.679 127.625 124.289 127.812 123.936C127.999 123.582 128.276 123.302 128.644 123.094C129.011 122.883 129.463 122.777 130 122.777C130.477 122.777 130.886 122.862 131.226 123.032C131.565 123.198 131.825 123.433 132.005 123.738C132.188 124.04 132.28 124.393 132.28 124.798C132.28 125.02 132.242 125.245 132.166 125.473C132.093 125.699 131.991 125.924 131.859 126.149C131.731 126.374 131.581 126.596 131.407 126.814C131.238 127.032 131.056 127.247 130.862 127.458L128.836 129.656H132.628ZM138.406 126.06V127.214C138.406 127.834 138.35 128.357 138.239 128.783C138.128 129.209 137.969 129.552 137.761 129.811C137.553 130.071 137.302 130.26 137.008 130.378C136.717 130.492 136.388 130.549 136.021 130.549C135.73 130.549 135.462 130.513 135.216 130.44C134.97 130.367 134.748 130.251 134.551 130.092C134.357 129.929 134.19 129.718 134.052 129.458C133.913 129.198 133.808 128.883 133.735 128.513C133.662 128.142 133.626 127.709 133.626 127.214V126.06C133.626 125.441 133.681 124.921 133.792 124.502C133.906 124.083 134.067 123.747 134.275 123.494C134.483 123.238 134.732 123.054 135.023 122.943C135.318 122.832 135.647 122.777 136.01 122.777C136.305 122.777 136.575 122.813 136.821 122.886C137.07 122.955 137.292 123.068 137.486 123.224C137.68 123.376 137.844 123.581 137.979 123.837C138.118 124.09 138.224 124.4 138.296 124.767C138.369 125.134 138.406 125.565 138.406 126.06ZM137.439 127.37V125.899C137.439 125.56 137.418 125.262 137.377 125.006C137.339 124.746 137.282 124.524 137.205 124.341C137.129 124.157 137.032 124.008 136.914 123.894C136.8 123.78 136.667 123.697 136.514 123.645C136.365 123.589 136.198 123.562 136.01 123.562C135.782 123.562 135.579 123.605 135.403 123.691C135.226 123.775 135.077 123.908 134.956 124.091C134.838 124.275 134.748 124.516 134.686 124.814C134.623 125.111 134.592 125.473 134.592 125.899V127.37C134.592 127.709 134.611 128.009 134.649 128.268C134.691 128.528 134.751 128.753 134.831 128.944C134.911 129.131 135.008 129.285 135.122 129.406C135.236 129.527 135.368 129.618 135.517 129.676C135.669 129.732 135.837 129.76 136.021 129.76C136.256 129.76 136.462 129.715 136.639 129.624C136.816 129.534 136.963 129.394 137.081 129.204C137.202 129.01 137.292 128.762 137.351 128.461C137.41 128.156 137.439 127.792 137.439 127.37ZM140.619 129.302V130.076C140.619 130.392 140.539 130.724 140.38 131.074C140.22 131.427 139.997 131.722 139.71 131.957L139.164 131.578C139.275 131.425 139.368 131.27 139.445 131.11C139.521 130.954 139.578 130.792 139.616 130.622C139.658 130.456 139.678 130.279 139.678 130.092V129.302H140.619ZM144.9 122.839V130.445H143.938V124.04L142.001 124.746V123.878L144.749 122.839H144.9ZM152.615 122.881V123.421L149.482 130.445H148.469L151.596 123.671H147.502V122.881H152.615ZM158.459 126.06V127.214C158.459 127.834 158.404 128.357 158.293 128.783C158.182 129.209 158.023 129.552 157.815 129.811C157.607 130.071 157.356 130.26 157.062 130.378C156.771 130.492 156.442 130.549 156.075 130.549C155.784 130.549 155.515 130.513 155.269 130.44C155.024 130.367 154.802 130.251 154.604 130.092C154.41 129.929 154.244 129.718 154.106 129.458C153.967 129.198 153.862 128.883 153.789 128.513C153.716 128.142 153.68 127.709 153.68 127.214V126.06C153.68 125.441 153.735 124.921 153.846 124.502C153.96 124.083 154.121 123.747 154.329 123.494C154.537 123.238 154.786 123.054 155.077 122.943C155.372 122.832 155.701 122.777 156.064 122.777C156.359 122.777 156.629 122.813 156.875 122.886C157.124 122.955 157.346 123.068 157.54 123.224C157.734 123.376 157.898 123.581 158.033 123.837C158.172 124.09 158.278 124.4 158.35 124.767C158.423 125.134 158.459 125.565 158.459 126.06ZM157.493 127.37V125.899C157.493 125.56 157.472 125.262 157.431 125.006C157.393 124.746 157.335 124.524 157.259 124.341C157.183 124.157 157.086 124.008 156.968 123.894C156.854 123.78 156.721 123.697 156.568 123.645C156.419 123.589 156.251 123.562 156.064 123.562C155.836 123.562 155.633 123.605 155.456 123.691C155.28 123.775 155.131 123.908 155.01 124.091C154.892 124.275 154.802 124.516 154.74 124.814C154.677 125.111 154.646 125.473 154.646 125.899V127.37C154.646 127.709 154.665 128.009 154.703 128.268C154.745 128.528 154.805 128.753 154.885 128.944C154.965 129.131 155.062 129.285 155.176 129.406C155.29 129.527 155.422 129.618 155.571 129.676C155.723 129.732 155.891 129.76 156.075 129.76C156.31 129.76 156.516 129.715 156.693 129.624C156.87 129.534 157.017 129.394 157.135 129.204C157.256 129.01 157.346 128.762 157.405 128.461C157.464 128.156 157.493 127.792 157.493 127.37Z" fill="#181716"/>
<rect opacity="0.15" x="19.2305" y="61.7617" width="45.2878" height="3.82712" rx="1.91356" fill="#9A8A7E"/>
<rect opacity="0.15" x="19.2305" y="100.672" width="39.5471" height="3.82712" rx="1.91356" fill="#9A8A7E"/>
<rect opacity="0.15" x="19.2305" y="137.668" width="24.2385" height="3.82712" rx="1.91356" fill="#9A8A7E"/>
<rect opacity="0.15" x="129.467" y="61.7617" width="31.2549" height="3.82712" rx="1.91356" fill="#9A8A7E"/>
<rect opacity="0.15" x="129.467" y="100.672" width="31.2549" height="3.82712" rx="1.91356" fill="#9A8A7E"/>
<rect opacity="0.15" x="139.035" y="137.668" width="21.6871" height="3.82712" rx="1.91356" fill="#9A8A7E"/>
<rect opacity="0.15" x="19.2305" y="68.1426" width="33.8064" height="3.82713" rx="1.91356" fill="#9A8A7E"/>
<rect opacity="0.15" x="19.2305" y="107.05" width="40.8228" height="3.82712" rx="1.91356" fill="#9A8A7E"/>
<rect opacity="0.15" x="19.2305" y="144.048" width="45.2878" height="3.82712" rx="1.91356" fill="#9A8A7E"/>
<rect opacity="0.15" x="126.922" y="68.1426" width="33.8064" height="3.82713" rx="1.91356" fill="#9A8A7E"/>
<rect opacity="0.15" x="139.035" y="107.05" width="21.6871" height="3.82712" rx="1.91356" fill="#9A8A7E"/>
<rect opacity="0.15" x="139.035" y="144.048" width="21.6871" height="3.82712" rx="1.91356" fill="#9A8A7E"/>
<line opacity="0.3" x1="19.2305" y1="157.747" x2="157.645" y2="157.747" stroke="#181716" stroke-width="0.664998"/>
<path d="M22.3086 185.582L38.3031 201.866L42.7577 206.401C44.5681 208.244 47.5331 208.261 49.3636 206.437L53.9537 201.866L58.2045 197.632C60.1615 195.683 63.3754 195.857 65.1108 198.006L67.1223 200.496L69.9684 204.02C72.1159 206.68 76.3012 206.195 77.784 203.115L79.0449 200.496L88.1285 181.631C89.7184 178.328 94.3239 178.074 96.2684 181.18L106.163 196.988L109.337 202.06C111.348 205.272 116.151 204.863 117.59 201.357L119.382 196.988L123.211 187.657C124.368 184.837 127.88 183.872 130.316 185.705L135.847 189.867L138.044 191.52C139.917 192.93 142.547 192.726 144.181 191.045L145.326 189.867L160.723 174.025" stroke="#338B3C" stroke-width="1.33"/>
<path d="M135.848 189.867L138.044 191.52C139.918 192.93 142.547 192.726 144.181 191.045L145.326 189.867" stroke="#D1581F" stroke-width="1.33"/>
<path d="M106.164 196.987L109.338 202.059C111.349 205.272 116.152 204.863 117.591 201.356L119.383 196.987" stroke="#D1581F" stroke-width="1.33"/>
<path d="M53.9533 201.866L49.3632 206.438C47.5327 208.261 44.5677 208.245 42.7574 206.401L38.3027 201.866" stroke="#D1581F" stroke-width="1.33"/>
<path d="M67.123 200.495L69.9692 204.019C72.1167 206.678 76.302 206.194 77.7848 203.114L79.0457 200.495" stroke="#D1581F" stroke-width="1.33"/>
</g>
<defs>
<filter id="filter0_d_1_571" x="0.350021" y="0.366458" width="182.332" height="234.635" filterUnits="userSpaceOnUse" color-interpolation-filters="sRGB">
<feFlood flood-opacity="0" result="BackgroundImageFix"/>
<feColorMatrix in="SourceAlpha" type="matrix" values="0 0 0 0 0 0 0 0 0 0 0 0 0 0 0 0 0 0 127 0" result="hardAlpha"/>
<feOffset dy="2.65999"/>
<feGaussianBlur stdDeviation="3.32499"/>
<feComposite in2="hardAlpha" operator="out"/>
<feColorMatrix type="matrix" values="0 0 0 0 0 0 0 0 0 0 0 0 0 0 0 0 0 0 0.1 0"/>
<feBlend mode="normal" in2="BackgroundImageFix" result="effect1_dropShadow_1_571"/>
<feBlend mode="normal" in="SourceGraphic" in2="effect1_dropShadow_1_571" result="shape"/>
</filter>
</defs>
</svg>
