<svg width="183" height="236" viewBox="0 0 183 236" fill="none" xmlns="http://www.w3.org/2000/svg">
<g filter="url(#filter0_d_1_477)">
<rect x="6.67773" y="4.69336" width="169.032" height="221.335" rx="11.97" fill="white" shape-rendering="crispEdges"/>
<path d="M22.4699 28.0217H20.3132L20.3015 27.1158H22.2595C22.5829 27.1158 22.8654 27.0612 23.107 26.9521C23.3486 26.843 23.5356 26.6872 23.6681 26.4845C23.8045 26.278 23.8726 26.0326 23.8726 25.7481C23.8726 25.4364 23.8122 25.1831 23.6915 24.9883C23.5746 24.7896 23.3934 24.6454 23.1479 24.5558C22.9063 24.4623 22.5985 24.4155 22.2244 24.4155H20.5645V32.002H19.4365V23.4921H22.2244C22.6608 23.4921 23.0505 23.5369 23.3934 23.6265C23.7363 23.7122 24.0265 23.8486 24.2642 24.0356C24.5058 24.2188 24.6889 24.4525 24.8136 24.737C24.9383 25.0214 25.0007 25.3624 25.0007 25.7598C25.0007 26.1105 24.911 26.428 24.7318 26.7125C24.5526 26.993 24.3032 27.2229 23.9837 27.4022C23.6681 27.5814 23.2979 27.6964 22.8732 27.747L22.4699 28.0217ZM22.4173 32.002H19.869L20.5061 31.0843H22.4173C22.7758 31.0843 23.0797 31.022 23.3291 30.8973C23.5824 30.7726 23.7752 30.5973 23.9077 30.3713C24.0402 30.1414 24.1064 29.8706 24.1064 29.5589C24.1064 29.2433 24.0499 28.9705 23.9369 28.7406C23.8239 28.5107 23.6466 28.3334 23.4051 28.2087C23.1635 28.0841 22.8518 28.0217 22.4699 28.0217H20.8626L20.8743 27.1158H23.0719L23.3115 27.4431C23.7207 27.4781 24.0675 27.595 24.3519 27.7938C24.6363 27.9886 24.8526 28.238 25.0007 28.5419C25.1526 28.8458 25.2286 29.1809 25.2286 29.5472C25.2286 30.0771 25.1117 30.5252 24.8779 30.8915C24.648 31.2538 24.3227 31.5305 23.9019 31.7214C23.481 31.9084 22.9862 32.002 22.4173 32.002ZM30.4596 30.9207V27.6652C30.4596 27.4158 30.409 27.1996 30.3077 27.0164C30.2103 26.8294 30.0622 26.6852 29.8635 26.5839C29.6647 26.4826 29.4193 26.4319 29.127 26.4319C28.8543 26.4319 28.6146 26.4787 28.4081 26.5722C28.2055 26.6657 28.0458 26.7885 27.9289 26.9404C27.8159 27.0924 27.7594 27.2561 27.7594 27.4314H26.6781C26.6781 27.2054 26.7365 26.9813 26.8534 26.7592C26.9703 26.5372 27.1379 26.3365 27.3561 26.1572C27.5782 25.9741 27.8431 25.8299 28.151 25.7247C28.4627 25.6156 28.8095 25.5611 29.1913 25.5611C29.6511 25.5611 30.0563 25.639 30.407 25.7949C30.7616 25.9507 31.0383 26.1865 31.237 26.5021C31.4396 26.8138 31.5409 27.2054 31.5409 27.6769V30.6226C31.5409 30.833 31.5584 31.0571 31.5935 31.2947C31.6325 31.5324 31.689 31.737 31.763 31.9084V32.002H30.635C30.5804 31.8773 30.5376 31.7117 30.5064 31.5052C30.4752 31.2947 30.4596 31.0999 30.4596 30.9207ZM30.6467 28.1678L30.6583 28.9276H29.5654C29.2576 28.9276 28.9829 28.953 28.7413 29.0036C28.4997 29.0504 28.2971 29.1225 28.1334 29.2199C27.9698 29.3173 27.8451 29.44 27.7594 29.5881C27.6736 29.7323 27.6308 29.9018 27.6308 30.0966C27.6308 30.2953 27.6756 30.4765 27.7652 30.6401C27.8548 30.8038 27.9893 30.9343 28.1685 31.0317C28.3516 31.1252 28.5757 31.172 28.8406 31.172C29.1718 31.172 29.4641 31.1019 29.7173 30.9616C29.9706 30.8213 30.1713 30.6499 30.3194 30.4473C30.4713 30.2446 30.5531 30.0479 30.5648 29.8569L31.0266 30.3771C30.9993 30.5408 30.9253 30.722 30.8045 30.9207C30.6837 31.1194 30.522 31.3103 30.3194 31.4935C30.1206 31.6727 29.8829 31.8227 29.6063 31.9435C29.3335 32.0604 29.0257 32.1188 28.6828 32.1188C28.2542 32.1188 27.8782 32.0351 27.5548 31.8675C27.2353 31.7 26.9859 31.4759 26.8067 31.1954C26.6313 30.9109 26.5437 30.5934 26.5437 30.2427C26.5437 29.9037 26.6099 29.6056 26.7424 29.3485C26.8749 29.0874 27.0658 28.8711 27.3152 28.6997C27.5645 28.5244 27.8646 28.3919 28.2153 28.3023C28.5659 28.2126 28.9575 28.1678 29.39 28.1678H30.6467ZM34.4165 23.0245V32.002H33.3294V23.0245H34.4165ZM39.8813 30.9207V27.6652C39.8813 27.4158 39.8306 27.1996 39.7293 27.0164C39.6319 26.8294 39.4839 26.6852 39.2851 26.5839C39.0864 26.4826 38.8409 26.4319 38.5487 26.4319C38.2759 26.4319 38.0363 26.4787 37.8298 26.5722C37.6272 26.6657 37.4674 26.7885 37.3505 26.9404C37.2375 27.0924 37.181 27.2561 37.181 27.4314H36.0998C36.0998 27.2054 36.1582 26.9813 36.2751 26.7592C36.392 26.5372 36.5596 26.3365 36.7778 26.1572C36.9999 25.9741 37.2648 25.8299 37.5726 25.7247C37.8844 25.6156 38.2311 25.5611 38.613 25.5611C39.0728 25.5611 39.478 25.639 39.8287 25.7949C40.1833 25.9507 40.4599 26.1865 40.6586 26.5021C40.8613 26.8138 40.9626 27.2054 40.9626 27.6769V30.6226C40.9626 30.833 40.9801 31.0571 41.0152 31.2947C41.0541 31.5324 41.1106 31.737 41.1847 31.9084V32.002H40.0566C40.0021 31.8773 39.9592 31.7117 39.9281 31.5052C39.8969 31.2947 39.8813 31.0999 39.8813 30.9207ZM40.0683 28.1678L40.08 28.9276H38.9871C38.6792 28.9276 38.4045 28.953 38.1629 29.0036C37.9214 29.0504 37.7188 29.1225 37.5551 29.2199C37.3914 29.3173 37.2668 29.44 37.181 29.5881C37.0953 29.7323 37.0525 29.9018 37.0525 30.0966C37.0525 30.2953 37.0973 30.4765 37.1869 30.6401C37.2765 30.8038 37.4109 30.9343 37.5902 31.0317C37.7733 31.1252 37.9973 31.172 38.2623 31.172C38.5935 31.172 38.8857 31.1019 39.139 30.9616C39.3923 30.8213 39.593 30.6499 39.741 30.4473C39.893 30.2446 39.9748 30.0479 39.9865 29.8569L40.4482 30.3771C40.421 30.5408 40.3469 30.722 40.2261 30.9207C40.1053 31.1194 39.9436 31.3103 39.741 31.4935C39.5423 31.6727 39.3046 31.8227 39.028 31.9435C38.7552 32.0604 38.4474 32.1188 38.1045 32.1188C37.6759 32.1188 37.2999 32.0351 36.9765 31.8675C36.657 31.7 36.4076 31.4759 36.2284 31.1954C36.053 30.9109 35.9653 30.5934 35.9653 30.2427C35.9653 29.9037 36.0316 29.6056 36.1641 29.3485C36.2965 29.0874 36.4875 28.8711 36.7368 28.6997C36.9862 28.5244 37.2862 28.3919 37.6369 28.3023C37.9876 28.2126 38.3792 28.1678 38.8117 28.1678H40.0683ZM43.7446 27.0281V32.002H42.6634V25.678H43.6862L43.7446 27.0281ZM43.4875 28.6003L43.0374 28.5828C43.0413 28.1503 43.1056 27.7509 43.2303 27.3846C43.355 27.0145 43.5303 26.693 43.7563 26.4203C43.9823 26.1475 44.2512 25.9371 44.5629 25.789C44.8785 25.6371 45.2273 25.5611 45.6091 25.5611C45.9208 25.5611 46.2014 25.6039 46.4507 25.6897C46.7001 25.7715 46.9125 25.904 47.0878 26.0871C47.2671 26.2702 47.4034 26.5079 47.4969 26.8002C47.5905 27.0885 47.6372 27.4411 47.6372 27.8581V32.002H46.5501V27.8464C46.5501 27.5152 46.5014 27.2502 46.404 27.0515C46.3066 26.8489 46.1644 26.7028 45.9773 26.6131C45.7903 26.5196 45.5604 26.4729 45.2876 26.4729C45.0188 26.4729 44.7733 26.5294 44.5512 26.6424C44.333 26.7554 44.144 26.9112 43.9843 27.1099C43.8284 27.3087 43.7057 27.5366 43.6161 27.7938C43.5303 28.047 43.4875 28.3159 43.4875 28.6003ZM51.8103 31.2305C52.0675 31.2305 52.3052 31.1778 52.5234 31.0726C52.7416 30.9674 52.9208 30.8233 53.0611 30.6401C53.2014 30.4531 53.2813 30.2407 53.3007 30.0031H54.3294C54.3099 30.3771 54.1833 30.7259 53.9495 31.0493C53.7196 31.3688 53.4176 31.6279 53.0436 31.8266C52.6695 32.0214 52.2584 32.1188 51.8103 32.1188C51.335 32.1188 50.92 32.0351 50.5654 31.8675C50.2147 31.7 49.9225 31.4701 49.6887 31.1778C49.4588 30.8856 49.2854 30.5505 49.1685 30.1726C49.0555 29.7907 48.999 29.3874 48.999 28.9627V28.7172C48.999 28.2925 49.0555 27.8912 49.1685 27.5132C49.2854 27.1314 49.4588 26.7943 49.6887 26.5021C49.9225 26.2098 50.2147 25.98 50.5654 25.8124C50.92 25.6449 51.335 25.5611 51.8103 25.5611C52.3052 25.5611 52.7377 25.6624 53.1079 25.865C53.478 26.0637 53.7683 26.3365 53.9787 26.6833C54.193 27.0262 54.3099 27.4158 54.3294 27.8522H53.3007C53.2813 27.5911 53.2072 27.3554 53.0786 27.145C52.954 26.9346 52.7825 26.767 52.5643 26.6424C52.35 26.5138 52.0987 26.4495 51.8103 26.4495C51.4791 26.4495 51.2005 26.5157 50.9745 26.6482C50.7525 26.7768 50.5752 26.9521 50.4427 27.1742C50.3141 27.3924 50.2206 27.636 50.1621 27.9048C50.1076 28.1698 50.0803 28.4406 50.0803 28.7172V28.9627C50.0803 29.2394 50.1076 29.5121 50.1621 29.781C50.2167 30.0498 50.3083 30.2934 50.4368 30.5116C50.5693 30.7298 50.7466 30.9051 50.9687 31.0376C51.1947 31.1662 51.4752 31.2305 51.8103 31.2305ZM58.1694 32.1188C57.7291 32.1188 57.3297 32.0448 56.9712 31.8967C56.6166 31.7448 56.3108 31.5324 56.0536 31.2597C55.8003 30.9869 55.6055 30.6635 55.4691 30.2895C55.3328 29.9154 55.2646 29.5063 55.2646 29.0621V28.8166C55.2646 28.3023 55.3405 27.8444 55.4925 27.4431C55.6445 27.0378 55.851 26.695 56.112 26.4144C56.3731 26.1339 56.6692 25.9215 57.0004 25.7773C57.3316 25.6332 57.6745 25.5611 58.0291 25.5611C58.4811 25.5611 58.8708 25.639 59.1981 25.7949C59.5293 25.9507 59.8001 26.1689 60.0105 26.4495C60.2209 26.7261 60.3767 27.0534 60.478 27.4314C60.5794 27.8055 60.63 28.2146 60.63 28.6588V29.1439H55.9075V28.2613H59.5487V28.1795C59.5332 27.899 59.4747 27.6262 59.3734 27.3613C59.276 27.0963 59.1201 26.8781 58.9058 26.7066C58.6915 26.5352 58.3993 26.4495 58.0291 26.4495C57.7836 26.4495 57.5576 26.5021 57.3511 26.6073C57.1446 26.7086 56.9673 26.8606 56.8193 27.0632C56.6712 27.2658 56.5562 27.5132 56.4744 27.8055C56.3926 28.0977 56.3517 28.4347 56.3517 28.8166V29.0621C56.3517 29.3621 56.3926 29.6446 56.4744 29.9095C56.5601 30.1706 56.6829 30.4005 56.8426 30.5992C57.0063 30.7979 57.2031 30.9538 57.433 31.0668C57.6667 31.1798 57.9317 31.2363 58.2278 31.2363C58.6097 31.2363 58.9331 31.1584 59.1981 31.0025C59.463 30.8466 59.6949 30.6382 59.8936 30.3771L60.5482 30.8973C60.4118 31.1038 60.2384 31.3006 60.028 31.4876C59.8176 31.6746 59.5585 31.8266 59.2507 31.9435C58.9467 32.0604 58.5863 32.1188 58.1694 32.1188ZM69.5607 29.8511C69.5607 29.6524 69.5295 29.477 69.4672 29.3251C69.4088 29.1692 69.3036 29.0289 69.1516 28.9043C69.0035 28.7796 68.797 28.6607 68.5321 28.5477C68.271 28.4347 67.9398 28.3198 67.5385 28.2029C67.1176 28.0782 66.7377 27.9399 66.3987 27.7879C66.0597 27.6321 65.7695 27.4548 65.5279 27.2561C65.2863 27.0573 65.1012 26.8294 64.9726 26.5722C64.844 26.3151 64.7797 26.0209 64.7797 25.6897C64.7797 25.3585 64.8479 25.0526 64.9843 24.772C65.1207 24.4915 65.3155 24.248 65.5688 24.0415C65.826 23.8311 66.1318 23.6674 66.4864 23.5505C66.841 23.4336 67.2365 23.3752 67.6729 23.3752C68.3119 23.3752 68.8535 23.4979 69.2977 23.7434C69.7458 23.985 70.0867 24.3025 70.3205 24.6961C70.5543 25.0857 70.6712 25.5026 70.6712 25.9468H69.549C69.549 25.6273 69.4808 25.3448 69.3445 25.0994C69.2081 24.85 69.0016 24.6552 68.7249 24.5149C68.4483 24.3707 68.0976 24.2986 67.6729 24.2986C67.2715 24.2986 66.9403 24.359 66.6793 24.4798C66.4182 24.6006 66.2234 24.7643 66.0948 24.9708C65.9701 25.1773 65.9078 25.413 65.9078 25.678C65.9078 25.8572 65.9448 26.0209 66.0188 26.1689C66.0968 26.3131 66.2156 26.4475 66.3754 26.5722C66.539 26.6969 66.7455 26.8119 66.9949 26.9171C67.2482 27.0223 67.5501 27.1236 67.9008 27.221C68.384 27.3574 68.8009 27.5093 69.1516 27.6769C69.5023 27.8444 69.7906 28.0334 70.0166 28.2438C70.2465 28.4503 70.416 28.6861 70.5251 28.951C70.6381 29.2121 70.6946 29.5082 70.6946 29.8394C70.6946 30.1862 70.6245 30.4999 70.4842 30.7804C70.3439 31.061 70.1432 31.3006 69.8822 31.4993C69.6211 31.698 69.3075 31.8519 68.9412 31.961C68.5788 32.0662 68.1736 32.1188 67.7255 32.1188C67.3319 32.1188 66.9442 32.0643 66.5624 31.9552C66.1844 31.8461 65.8396 31.6824 65.5279 31.4642C65.2201 31.246 64.9726 30.9772 64.7856 30.6577C64.6025 30.3343 64.5109 29.9602 64.5109 29.5355H65.6331C65.6331 29.8277 65.6896 30.079 65.8026 30.2895C65.9156 30.496 66.0695 30.6674 66.2643 30.8038C66.463 30.9402 66.6871 31.0415 66.9364 31.1077C67.1897 31.1701 67.4527 31.2012 67.7255 31.2012C68.119 31.2012 68.4522 31.1467 68.7249 31.0376C68.9977 30.9285 69.2042 30.7726 69.3445 30.57C69.4886 30.3674 69.5607 30.1278 69.5607 29.8511ZM73.05 23.0245V32.002H71.9687V23.0245H73.05ZM72.7928 28.6003L72.3428 28.5828C72.3467 28.1503 72.411 27.7509 72.5357 27.3846C72.6604 27.0145 72.8357 26.693 73.0617 26.4203C73.2877 26.1475 73.5566 25.9371 73.8683 25.789C74.1839 25.6371 74.5326 25.5611 74.9145 25.5611C75.2262 25.5611 75.5067 25.6039 75.7561 25.6897C76.0055 25.7715 76.2178 25.904 76.3932 26.0871C76.5724 26.2702 76.7088 26.5079 76.8023 26.8002C76.8958 27.0885 76.9426 27.4411 76.9426 27.8581V32.002H75.8555V27.8464C75.8555 27.5152 75.8068 27.2502 75.7094 27.0515C75.6119 26.8489 75.4697 26.7028 75.2827 26.6131C75.0957 26.5196 74.8658 26.4729 74.593 26.4729C74.3242 26.4729 74.0787 26.5294 73.8566 26.6424C73.6384 26.7554 73.4494 26.9112 73.2896 27.1099C73.1338 27.3087 73.011 27.5366 72.9214 27.7938C72.8357 28.047 72.7928 28.3159 72.7928 28.6003ZM81.1858 32.1188C80.7455 32.1188 80.3462 32.0448 79.9877 31.8967C79.6331 31.7448 79.3272 31.5324 79.0701 31.2597C78.8168 30.9869 78.622 30.6635 78.4856 30.2895C78.3492 29.9154 78.281 29.5063 78.281 29.0621V28.8166C78.281 28.3023 78.357 27.8444 78.509 27.4431C78.6609 27.0378 78.8674 26.695 79.1285 26.4144C79.3896 26.1339 79.6857 25.9215 80.0169 25.7773C80.3481 25.6332 80.691 25.5611 81.0456 25.5611C81.4976 25.5611 81.8872 25.639 82.2145 25.7949C82.5457 25.9507 82.8165 26.1689 83.0269 26.4495C83.2373 26.7261 83.3932 27.0534 83.4945 27.4314C83.5958 27.8055 83.6465 28.2146 83.6465 28.6588V29.1439H78.9239V28.2613H82.5652V28.1795C82.5496 27.899 82.4912 27.6262 82.3899 27.3613C82.2924 27.0963 82.1366 26.8781 81.9223 26.7066C81.708 26.5352 81.4157 26.4495 81.0456 26.4495C80.8001 26.4495 80.5741 26.5021 80.3676 26.6073C80.1611 26.7086 79.9838 26.8606 79.8357 27.0632C79.6877 27.2658 79.5727 27.5132 79.4909 27.8055C79.4091 28.0977 79.3681 28.4347 79.3681 28.8166V29.0621C79.3681 29.3621 79.4091 29.6446 79.4909 29.9095C79.5766 30.1706 79.6993 30.4005 79.8591 30.5992C80.0227 30.7979 80.2195 30.9538 80.4494 31.0668C80.6832 31.1798 80.9482 31.2363 81.2443 31.2363C81.6261 31.2363 81.9496 31.1584 82.2145 31.0025C82.4795 30.8466 82.7113 30.6382 82.91 30.3771L83.5646 30.8973C83.4283 31.1038 83.2549 31.3006 83.0445 31.4876C82.8341 31.6746 82.5749 31.8266 82.2671 31.9435C81.9632 32.0604 81.6028 32.1188 81.1858 32.1188ZM87.5332 32.1188C87.0929 32.1188 86.6935 32.0448 86.335 31.8967C85.9805 31.7448 85.6746 31.5324 85.4174 31.2597C85.1641 30.9869 84.9693 30.6635 84.8329 30.2895C84.6966 29.9154 84.6284 29.5063 84.6284 29.0621V28.8166C84.6284 28.3023 84.7044 27.8444 84.8563 27.4431C85.0083 27.0378 85.2148 26.695 85.4759 26.4144C85.7369 26.1339 86.0331 25.9215 86.3643 25.7773C86.6955 25.6332 87.0383 25.5611 87.3929 25.5611C87.8449 25.5611 88.2346 25.639 88.5619 25.7949C88.8931 25.9507 89.1639 26.1689 89.3743 26.4495C89.5847 26.7261 89.7406 27.0534 89.8419 27.4314C89.9432 27.8055 89.9938 28.2146 89.9938 28.6588V29.1439H85.2713V28.2613H88.9126V28.1795C88.897 27.899 88.8385 27.6262 88.7372 27.3613C88.6398 27.0963 88.4839 26.8781 88.2696 26.7066C88.0553 26.5352 87.7631 26.4495 87.3929 26.4495C87.1475 26.4495 86.9215 26.5021 86.7149 26.6073C86.5084 26.7086 86.3311 26.8606 86.1831 27.0632C86.035 27.2658 85.9201 27.5132 85.8382 27.8055C85.7564 28.0977 85.7155 28.4347 85.7155 28.8166V29.0621C85.7155 29.3621 85.7564 29.6446 85.8382 29.9095C85.924 30.1706 86.0467 30.4005 86.2065 30.5992C86.3701 30.7979 86.5669 30.9538 86.7968 31.0668C87.0306 31.1798 87.2955 31.2363 87.5916 31.2363C87.9735 31.2363 88.2969 31.1584 88.5619 31.0025C88.8268 30.8466 89.0587 30.6382 89.2574 30.3771L89.912 30.8973C89.7756 31.1038 89.6022 31.3006 89.3918 31.4876C89.1814 31.6746 88.9223 31.8266 88.6145 31.9435C88.3105 32.0604 87.9501 32.1188 87.5332 32.1188ZM93.9039 25.678V26.5079H90.4848V25.678H93.9039ZM91.642 24.1408H92.7233V30.4356C92.7233 30.6499 92.7564 30.8116 92.8227 30.9207C92.8889 31.0298 92.9746 31.1019 93.0798 31.1369C93.185 31.172 93.298 31.1895 93.4188 31.1895C93.5084 31.1895 93.602 31.1817 93.6994 31.1662C93.8007 31.1467 93.8767 31.1311 93.9273 31.1194L93.9332 32.002C93.8474 32.0292 93.7344 32.0546 93.5942 32.0779C93.4578 32.1052 93.2922 32.1188 93.0974 32.1188C92.8324 32.1188 92.5889 32.0662 92.3668 31.961C92.1447 31.8558 91.9674 31.6805 91.8349 31.435C91.7063 31.1856 91.642 30.8505 91.642 30.4297V24.1408Z" fill="#181716"/>
<path opacity="0.5" d="M19.2458 49.7577L17.0547 55.7901H16.1591L18.6821 49.1713H19.2594L19.2458 49.7577ZM21.0823 55.7901L18.8867 49.7577L18.873 49.1713H19.4504L21.9824 55.7901H21.0823ZM20.9687 53.3399V54.0581H17.2501V53.3399H20.9687ZM25.6055 54.4855C25.6055 54.3642 25.5782 54.2521 25.5237 54.1491C25.4721 54.043 25.3646 53.9475 25.2009 53.8627C25.0403 53.7748 24.7978 53.699 24.4736 53.6354C24.2008 53.5778 23.9538 53.5096 23.7326 53.4308C23.5144 53.352 23.328 53.2566 23.1734 53.1444C23.0219 53.0323 22.9052 52.9005 22.8234 52.7489C22.7416 52.5974 22.7007 52.4201 22.7007 52.2171C22.7007 52.0231 22.7431 51.8398 22.8279 51.667C22.9158 51.4943 23.0386 51.3412 23.1962 51.2079C23.3568 51.0745 23.5492 50.97 23.7735 50.8942C23.9978 50.8184 24.2478 50.7806 24.5236 50.7806C24.9175 50.7806 25.2539 50.8503 25.5328 50.9897C25.8116 51.1291 26.0252 51.3155 26.1737 51.5488C26.3222 51.7791 26.3965 52.0352 26.3965 52.3171H25.5555C25.5555 52.1807 25.5146 52.0489 25.4327 51.9216C25.3539 51.7913 25.2373 51.6837 25.0827 51.5988C24.9312 51.514 24.7448 51.4715 24.5236 51.4715C24.2902 51.4715 24.1008 51.5079 23.9553 51.5806C23.8129 51.6503 23.7083 51.7397 23.6417 51.8488C23.578 51.9579 23.5462 52.0731 23.5462 52.1943C23.5462 52.2853 23.5614 52.3671 23.5917 52.4398C23.625 52.5095 23.6826 52.5747 23.7644 52.6353C23.8462 52.6929 23.9614 52.7474 24.1099 52.7989C24.2584 52.8505 24.4478 52.902 24.6781 52.9535C25.0812 53.0444 25.413 53.1535 25.6737 53.2808C25.9343 53.4081 26.1283 53.5642 26.2555 53.749C26.3828 53.9339 26.4465 54.1582 26.4465 54.4218C26.4465 54.637 26.401 54.834 26.3101 55.0128C26.2222 55.1916 26.0934 55.3461 25.9237 55.4765C25.757 55.6037 25.557 55.7038 25.3236 55.7765C25.0933 55.8462 24.8342 55.881 24.5463 55.881C24.1129 55.881 23.7462 55.8038 23.4462 55.6492C23.1462 55.4946 22.9189 55.2946 22.7643 55.0492C22.6097 54.8037 22.5325 54.5446 22.5325 54.2718H23.378C23.3901 54.5021 23.4568 54.6855 23.578 54.8219C23.6992 54.9552 23.8477 55.0507 24.0235 55.1082C24.1993 55.1628 24.3735 55.1901 24.5463 55.1901C24.7766 55.1901 24.9691 55.1598 25.1236 55.0992C25.2812 55.0385 25.4009 54.9552 25.4827 54.8491C25.5646 54.7431 25.6055 54.6218 25.6055 54.4855ZM30.415 54.4855C30.415 54.3642 30.3878 54.2521 30.3332 54.1491C30.2817 54.043 30.1741 53.9475 30.0104 53.8627C29.8498 53.7748 29.6074 53.699 29.2831 53.6354C29.0104 53.5778 28.7634 53.5096 28.5421 53.4308C28.3239 53.352 28.1375 53.2566 27.983 53.1444C27.8315 53.0323 27.7148 52.9005 27.6329 52.7489C27.5511 52.5974 27.5102 52.4201 27.5102 52.2171C27.5102 52.0231 27.5526 51.8398 27.6375 51.667C27.7254 51.4943 27.8481 51.3412 28.0057 51.2079C28.1663 51.0745 28.3588 50.97 28.583 50.8942C28.8073 50.8184 29.0573 50.7806 29.3331 50.7806C29.7271 50.7806 30.0635 50.8503 30.3423 50.9897C30.6211 51.1291 30.8348 51.3155 30.9833 51.5488C31.1318 51.7791 31.206 52.0352 31.206 52.3171H30.365C30.365 52.1807 30.3241 52.0489 30.2423 51.9216C30.1635 51.7913 30.0468 51.6837 29.8923 51.5988C29.7407 51.514 29.5543 51.4715 29.3331 51.4715C29.0998 51.4715 28.9103 51.5079 28.7649 51.5806C28.6224 51.6503 28.5179 51.7397 28.4512 51.8488C28.3876 51.9579 28.3557 52.0731 28.3557 52.1943C28.3557 52.2853 28.3709 52.3671 28.4012 52.4398C28.4345 52.5095 28.4921 52.5747 28.5739 52.6353C28.6558 52.6929 28.7709 52.7474 28.9194 52.7989C29.0679 52.8505 29.2573 52.902 29.4877 52.9535C29.8907 53.0444 30.2226 53.1535 30.4832 53.2808C30.7438 53.4081 30.9378 53.5642 31.0651 53.749C31.1924 53.9339 31.256 54.1582 31.256 54.4218C31.256 54.637 31.2106 54.834 31.1196 55.0128C31.0318 55.1916 30.903 55.3461 30.7332 55.4765C30.5666 55.6037 30.3665 55.7038 30.1332 55.7765C29.9029 55.8462 29.6437 55.881 29.3558 55.881C28.9225 55.881 28.5558 55.8038 28.2557 55.6492C27.9557 55.4946 27.7284 55.2946 27.5739 55.0492C27.4193 54.8037 27.342 54.5446 27.342 54.2718H28.1875C28.1997 54.5021 28.2663 54.6855 28.3876 54.8219C28.5088 54.9552 28.6573 55.0507 28.8331 55.1082C29.0088 55.1628 29.1831 55.1901 29.3558 55.1901C29.5862 55.1901 29.7786 55.1598 29.9332 55.0992C30.0908 55.0385 30.2105 54.9552 30.2923 54.8491C30.3741 54.7431 30.415 54.6218 30.415 54.4855ZM34.4018 55.881C34.0593 55.881 33.7487 55.8235 33.4699 55.7083C33.1941 55.5901 32.9562 55.4249 32.7562 55.2128C32.5592 55.0007 32.4076 54.7491 32.3016 54.4582C32.1955 54.1672 32.1425 53.849 32.1425 53.5036V53.3126C32.1425 52.9126 32.2016 52.5565 32.3198 52.2443C32.4379 51.9292 32.5986 51.6625 32.8016 51.4443C33.0047 51.2261 33.235 51.0609 33.4926 50.9488C33.7502 50.8366 34.0169 50.7806 34.2927 50.7806C34.6442 50.7806 34.9473 50.8412 35.2018 50.9624C35.4594 51.0836 35.6701 51.2533 35.8337 51.4715C35.9974 51.6867 36.1186 51.9413 36.1974 52.2352C36.2762 52.5262 36.3156 52.8444 36.3156 53.1899V53.5672H32.6425V52.8808H35.4746V52.8171C35.4625 52.5989 35.417 52.3868 35.3382 52.1807C35.2625 51.9746 35.1412 51.8049 34.9746 51.6716C34.8079 51.5382 34.5806 51.4715 34.2927 51.4715C34.1017 51.4715 33.926 51.5125 33.7653 51.5943C33.6047 51.6731 33.4668 51.7913 33.3517 51.9489C33.2365 52.1064 33.1471 52.2989 33.0835 52.5262C33.0198 52.7535 32.988 53.0156 32.988 53.3126V53.5036C32.988 53.7369 33.0198 53.9566 33.0835 54.1627C33.1501 54.3658 33.2456 54.5446 33.3699 54.6991C33.4971 54.8537 33.6502 54.9749 33.829 55.0628C34.0108 55.1507 34.2169 55.1946 34.4472 55.1946C34.7442 55.1946 34.9958 55.134 35.2018 55.0128C35.4079 54.8916 35.5882 54.7294 35.7428 54.5264L36.2519 54.931C36.1459 55.0916 36.011 55.2446 35.8474 55.3901C35.6837 55.5356 35.4822 55.6538 35.2428 55.7447C35.0064 55.8356 34.726 55.881 34.4018 55.881ZM39.3568 50.8715V51.517H36.6974V50.8715H39.3568ZM37.5975 49.6759H38.4385V54.5718C38.4385 54.7385 38.4643 54.8643 38.5158 54.9491C38.5673 55.034 38.634 55.0901 38.7158 55.1173C38.7976 55.1446 38.8855 55.1583 38.9795 55.1583C39.0492 55.1583 39.1219 55.1522 39.1977 55.1401C39.2765 55.1249 39.3356 55.1128 39.375 55.1037L39.3795 55.7901C39.3128 55.8113 39.225 55.831 39.1159 55.8492C39.0098 55.8704 38.881 55.881 38.7295 55.881C38.5234 55.881 38.334 55.8401 38.1612 55.7583C37.9885 55.6765 37.8506 55.5401 37.7475 55.3492C37.6475 55.1552 37.5975 54.8946 37.5975 54.5673V49.6759ZM43.2071 54.4855C43.2071 54.3642 43.1799 54.2521 43.1253 54.1491C43.0738 54.043 42.9662 53.9475 42.8026 53.8627C42.6419 53.7748 42.3995 53.699 42.0752 53.6354C41.8025 53.5778 41.5555 53.5096 41.3342 53.4308C41.116 53.352 40.9297 53.2566 40.7751 53.1444C40.6236 53.0323 40.5069 52.9005 40.4251 52.7489C40.3432 52.5974 40.3023 52.4201 40.3023 52.2171C40.3023 52.0231 40.3448 51.8398 40.4296 51.667C40.5175 51.4943 40.6402 51.3412 40.7978 51.2079C40.9585 51.0745 41.1509 50.97 41.3752 50.8942C41.5994 50.8184 41.8494 50.7806 42.1252 50.7806C42.5192 50.7806 42.8556 50.8503 43.1344 50.9897C43.4132 51.1291 43.6269 51.3155 43.7754 51.5488C43.9239 51.7791 43.9981 52.0352 43.9981 52.3171H43.1571C43.1571 52.1807 43.1162 52.0489 43.0344 51.9216C42.9556 51.7913 42.8389 51.6837 42.6844 51.5988C42.5328 51.514 42.3465 51.4715 42.1252 51.4715C41.8919 51.4715 41.7025 51.5079 41.557 51.5806C41.4146 51.6503 41.31 51.7397 41.2433 51.8488C41.1797 51.9579 41.1479 52.0731 41.1479 52.1943C41.1479 52.2853 41.163 52.3671 41.1933 52.4398C41.2267 52.5095 41.2842 52.5747 41.3661 52.6353C41.4479 52.6929 41.5631 52.7474 41.7116 52.7989C41.8601 52.8505 42.0495 52.902 42.2798 52.9535C42.6829 53.0444 43.0147 53.1535 43.2753 53.2808C43.536 53.4081 43.7299 53.5642 43.8572 53.749C43.9845 53.9339 44.0481 54.1582 44.0481 54.4218C44.0481 54.637 44.0027 54.834 43.9118 55.0128C43.8239 55.1916 43.6951 55.3461 43.5254 55.4765C43.3587 55.6037 43.1587 55.7038 42.9253 55.7765C42.695 55.8462 42.4359 55.881 42.148 55.881C41.7146 55.881 41.3479 55.8038 41.0479 55.6492C40.7478 55.4946 40.5205 55.2946 40.366 55.0492C40.2114 54.8037 40.1341 54.5446 40.1341 54.2718H40.9797C40.9918 54.5021 41.0585 54.6855 41.1797 54.8219C41.3009 54.9552 41.4494 55.0507 41.6252 55.1082C41.801 55.1628 41.9752 55.1901 42.148 55.1901C42.3783 55.1901 42.5707 55.1598 42.7253 55.0992C42.8829 55.0385 43.0026 54.9552 43.0844 54.8491C43.1662 54.7431 43.2071 54.6218 43.2071 54.4855Z" fill="#181716"/>
<path d="M118.249 46.7252V48.3097H117.47V46.7252H118.249ZM118.155 55.2091V56.5962H117.381V55.2091H118.155ZM119.194 53.5674C119.194 53.3596 119.148 53.1725 119.054 53.0063C118.961 52.84 118.807 52.6877 118.592 52.5491C118.377 52.4106 118.09 52.2824 117.729 52.1647C117.293 52.0296 116.915 51.8651 116.597 51.6711C116.282 51.4771 116.037 51.2364 115.864 50.949C115.695 50.6615 115.61 50.3134 115.61 49.9047C115.61 49.4787 115.701 49.1116 115.885 48.8033C116.069 48.495 116.328 48.2578 116.664 48.0915C117 47.9253 117.395 47.8422 117.849 47.8422C118.202 47.8422 118.517 47.8959 118.794 48.0032C119.071 48.1071 119.305 48.263 119.496 48.4708C119.69 48.6786 119.837 48.9332 119.937 49.2345C120.041 49.5358 120.093 49.8839 120.093 50.2788H119.137C119.137 50.0467 119.11 49.8337 119.054 49.6397C118.999 49.4458 118.916 49.2778 118.805 49.1358C118.694 48.9903 118.559 48.8795 118.4 48.8033C118.24 48.7236 118.057 48.6838 117.849 48.6838C117.558 48.6838 117.317 48.734 117.127 48.8345C116.94 48.9349 116.801 49.0769 116.711 49.2605C116.621 49.4406 116.576 49.6501 116.576 49.8891C116.576 50.1108 116.621 50.3047 116.711 50.471C116.801 50.6372 116.954 50.7879 117.168 50.923C117.386 51.0546 117.686 51.1845 118.067 51.3126C118.514 51.4546 118.893 51.6226 119.205 51.8166C119.517 52.0071 119.754 52.2426 119.917 52.5231C120.079 52.8002 120.161 53.1448 120.161 53.557C120.161 54.0038 120.06 54.3813 119.859 54.6896C119.659 54.9944 119.376 55.2264 119.013 55.3857C118.649 55.5451 118.223 55.6247 117.735 55.6247C117.44 55.6247 117.149 55.5849 116.862 55.5052C116.574 55.4256 116.315 55.2957 116.082 55.1156C115.85 54.932 115.665 54.6913 115.527 54.3934C115.388 54.0921 115.319 53.7232 115.319 53.2868H116.285C116.285 53.5812 116.327 53.8254 116.41 54.0194C116.496 54.2099 116.611 54.3623 116.753 54.4766C116.895 54.5874 117.051 54.6671 117.22 54.7155C117.393 54.7606 117.565 54.7831 117.735 54.7831C118.046 54.7831 118.309 54.7346 118.524 54.6376C118.742 54.5372 118.909 54.3952 119.023 54.2116C119.137 54.028 119.194 53.8133 119.194 53.5674ZM126.25 47.9513V48.4916L123.117 55.5156H122.104L125.231 48.741H121.137V47.9513H126.25ZM128.562 51.9153L127.793 51.7179L128.172 47.9513H132.053V48.8397H128.988L128.759 50.897C128.898 50.8173 129.072 50.7429 129.284 50.6736C129.498 50.6043 129.744 50.5697 130.021 50.5697C130.371 50.5697 130.685 50.6303 130.962 50.7515C131.239 50.8693 131.474 51.039 131.668 51.2607C131.866 51.4823 132.016 51.749 132.12 52.0608C132.224 52.3725 132.276 52.7206 132.276 53.105C132.276 53.4687 132.226 53.8029 132.126 54.1077C132.029 54.4125 131.881 54.6792 131.684 54.9078C131.487 55.1329 131.237 55.3078 130.936 55.4325C130.638 55.5572 130.286 55.6195 129.881 55.6195C129.576 55.6195 129.287 55.578 129.014 55.4948C128.743 55.4083 128.501 55.2784 128.286 55.1052C128.075 54.9286 127.902 54.7104 127.767 54.4506C127.635 54.1874 127.552 53.8791 127.517 53.5258H128.432C128.473 53.8098 128.556 54.0488 128.681 54.2428C128.806 54.4367 128.969 54.5839 129.169 54.6844C129.374 54.7814 129.611 54.8298 129.881 54.8298C130.11 54.8298 130.312 54.79 130.489 54.7104C130.666 54.6307 130.815 54.5164 130.936 54.3675C131.057 54.2185 131.149 54.0384 131.211 53.8272C131.277 53.6159 131.31 53.3786 131.31 53.1154C131.31 52.8764 131.277 52.6547 131.211 52.4504C131.145 52.2461 131.047 52.0677 130.915 51.9153C130.787 51.7629 130.629 51.6451 130.442 51.562C130.255 51.4754 130.04 51.4321 129.798 51.4321C129.476 51.4321 129.232 51.4754 129.065 51.562C128.903 51.6486 128.735 51.7664 128.562 51.9153ZM138.287 54.7259V55.5156H133.336V54.8247L135.814 52.0659C136.119 51.7265 136.354 51.439 136.521 51.2035C136.69 50.9645 136.808 50.7515 136.874 50.5645C136.943 50.374 136.978 50.1801 136.978 49.9826C136.978 49.7333 136.926 49.5081 136.822 49.3072C136.722 49.1029 136.573 48.9401 136.375 48.8189C136.178 48.6977 135.939 48.6371 135.658 48.6371C135.322 48.6371 135.042 48.7029 134.817 48.8345C134.595 48.9626 134.429 49.1427 134.318 49.3748C134.207 49.6068 134.152 49.8735 134.152 50.1749H133.191C133.191 49.7488 133.284 49.3592 133.471 49.0059C133.658 48.6526 133.935 48.3721 134.302 48.1643C134.669 47.953 135.121 47.8474 135.658 47.8474C136.136 47.8474 136.545 47.9322 136.884 48.1019C137.224 48.2682 137.484 48.5037 137.664 48.8085C137.847 49.1098 137.939 49.4631 137.939 49.8683C137.939 50.09 137.901 50.3151 137.825 50.5437C137.752 50.7689 137.65 50.994 137.518 51.2191C137.39 51.4442 137.239 51.6659 137.066 51.8841C136.897 52.1023 136.715 52.3171 136.521 52.5283L134.495 54.7259H138.287ZM140.293 54.3727V55.1468C140.293 55.4619 140.213 55.7944 140.054 56.1443C139.894 56.4975 139.671 56.7919 139.383 57.0275L138.838 56.6482C138.949 56.4958 139.042 56.3399 139.118 56.1806C139.195 56.0248 139.252 55.862 139.29 55.6923C139.331 55.526 139.352 55.3494 139.352 55.1623V54.3727H140.293ZM146.163 51.1308V52.2842C146.163 52.9041 146.108 53.4271 145.997 53.8531C145.886 54.2791 145.727 54.622 145.519 54.8818C145.311 55.1416 145.06 55.3303 144.766 55.4481C144.475 55.5624 144.146 55.6195 143.779 55.6195C143.488 55.6195 143.219 55.5832 142.973 55.5104C142.727 55.4377 142.506 55.3217 142.308 55.1623C142.114 54.9996 141.948 54.7883 141.81 54.5285C141.671 54.2688 141.565 53.9536 141.493 53.583C141.42 53.2124 141.384 52.7794 141.384 52.2842V51.1308C141.384 50.5108 141.439 49.9913 141.55 49.5722C141.664 49.1531 141.825 48.8172 142.033 48.5643C142.241 48.308 142.49 48.1245 142.781 48.0136C143.075 47.9028 143.405 47.8474 143.768 47.8474C144.063 47.8474 144.333 47.8837 144.579 47.9565C144.828 48.0257 145.05 48.1383 145.244 48.2942C145.438 48.4466 145.602 48.6509 145.737 48.9072C145.876 49.16 145.981 49.47 146.054 49.8372C146.127 50.2043 146.163 50.6355 146.163 51.1308ZM145.197 52.44V50.9697C145.197 50.6303 145.176 50.3325 145.135 50.0762C145.096 49.8164 145.039 49.5947 144.963 49.4112C144.887 49.2276 144.79 49.0787 144.672 48.9644C144.558 48.8501 144.425 48.7669 144.272 48.715C144.123 48.6596 143.955 48.6319 143.768 48.6319C143.54 48.6319 143.337 48.6752 143.16 48.7617C142.984 48.8449 142.835 48.9782 142.714 49.1618C142.596 49.3453 142.506 49.5861 142.443 49.8839C142.381 50.1818 142.35 50.5437 142.35 50.9697V52.44C142.35 52.7794 142.369 53.079 142.407 53.3388C142.449 53.5986 142.509 53.8237 142.589 54.0142C142.669 54.2012 142.765 54.3553 142.88 54.4766C142.994 54.5978 143.126 54.6878 143.275 54.7467C143.427 54.8021 143.595 54.8298 143.779 54.8298C144.014 54.8298 144.22 54.7848 144.397 54.6948C144.573 54.6047 144.721 54.4644 144.838 54.2739C144.96 54.08 145.05 53.8323 145.109 53.531C145.167 53.2262 145.197 52.8626 145.197 52.44ZM152.169 53.4687C152.169 53.9293 152.062 54.3207 151.847 54.6428C151.636 54.9615 151.348 55.2039 150.984 55.3702C150.624 55.5364 150.217 55.6195 149.764 55.6195C149.31 55.6195 148.901 55.5364 148.537 55.3702C148.174 55.2039 147.886 54.9615 147.675 54.6428C147.464 54.3207 147.358 53.9293 147.358 53.4687C147.358 53.1674 147.415 52.892 147.53 52.6426C147.647 52.3898 147.812 52.1699 148.023 51.9828C148.238 51.7958 148.491 51.6521 148.782 51.5516C149.076 51.4477 149.4 51.3958 149.753 51.3958C150.217 51.3958 150.631 51.4858 150.995 51.6659C151.359 51.8426 151.644 52.0867 151.852 52.3984C152.063 52.7102 152.169 53.0669 152.169 53.4687ZM151.203 53.4479C151.203 53.1674 151.142 52.9197 151.021 52.705C150.9 52.4868 150.73 52.3171 150.512 52.1958C150.293 52.0746 150.041 52.014 149.753 52.014C149.459 52.014 149.204 52.0746 148.989 52.1958C148.778 52.3171 148.614 52.4868 148.496 52.705C148.378 52.9197 148.319 53.1674 148.319 53.4479C148.319 53.7388 148.376 53.9882 148.491 54.196C148.608 54.4004 148.775 54.558 148.989 54.6688C149.208 54.7762 149.466 54.8298 149.764 54.8298C150.061 54.8298 150.318 54.7762 150.532 54.6688C150.747 54.558 150.912 54.4004 151.026 54.196C151.144 53.9882 151.203 53.7388 151.203 53.4479ZM151.992 49.9203C151.992 50.2874 151.895 50.6182 151.701 50.9126C151.507 51.207 151.242 51.439 150.907 51.6088C150.571 51.7785 150.19 51.8633 149.764 51.8633C149.331 51.8633 148.944 51.7785 148.605 51.6088C148.269 51.439 148.006 51.207 147.815 50.9126C147.625 50.6182 147.53 50.2874 147.53 49.9203C147.53 49.4804 147.625 49.1064 147.815 48.7981C148.009 48.4899 148.274 48.2543 148.61 48.0915C148.946 47.9288 149.329 47.8474 149.758 47.8474C150.191 47.8474 150.576 47.9288 150.912 48.0915C151.248 48.2543 151.511 48.4899 151.701 48.7981C151.895 49.1064 151.992 49.4804 151.992 49.9203ZM151.031 49.9359C151.031 49.683 150.978 49.4596 150.87 49.2657C150.763 49.0717 150.614 48.9193 150.423 48.8085C150.233 48.6942 150.011 48.6371 149.758 48.6371C149.506 48.6371 149.284 48.6907 149.093 48.7981C148.906 48.902 148.759 49.0509 148.652 49.2449C148.548 49.4389 148.496 49.6692 148.496 49.9359C148.496 50.1956 148.548 50.4225 148.652 50.6165C148.759 50.8104 148.908 50.9611 149.099 51.0685C149.289 51.1758 149.511 51.2295 149.764 51.2295C150.016 51.2295 150.236 51.1758 150.423 51.0685C150.614 50.9611 150.763 50.8104 150.87 50.6165C150.978 50.4225 151.031 50.1956 151.031 49.9359ZM158.154 53.4687C158.154 53.9293 158.047 54.3207 157.832 54.6428C157.621 54.9615 157.333 55.2039 156.969 55.3702C156.609 55.5364 156.202 55.6195 155.749 55.6195C155.295 55.6195 154.886 55.5364 154.522 55.3702C154.159 55.2039 153.871 54.9615 153.66 54.6428C153.449 54.3207 153.343 53.9293 153.343 53.4687C153.343 53.1674 153.4 52.892 153.515 52.6426C153.632 52.3898 153.797 52.1699 154.008 51.9828C154.223 51.7958 154.476 51.6521 154.767 51.5516C155.061 51.4477 155.385 51.3958 155.738 51.3958C156.202 51.3958 156.616 51.4858 156.98 51.6659C157.343 51.8426 157.629 52.0867 157.837 52.3984C158.048 52.7102 158.154 53.0669 158.154 53.4687ZM157.188 53.4479C157.188 53.1674 157.127 52.9197 157.006 52.705C156.885 52.4868 156.715 52.3171 156.497 52.1958C156.278 52.0746 156.026 52.014 155.738 52.014C155.444 52.014 155.189 52.0746 154.974 52.1958C154.763 52.3171 154.599 52.4868 154.481 52.705C154.363 52.9197 154.304 53.1674 154.304 53.4479C154.304 53.7388 154.361 53.9882 154.476 54.196C154.593 54.4004 154.76 54.558 154.974 54.6688C155.193 54.7762 155.451 54.8298 155.749 54.8298C156.046 54.8298 156.303 54.7762 156.517 54.6688C156.732 54.558 156.897 54.4004 157.011 54.196C157.129 53.9882 157.188 53.7388 157.188 53.4479ZM157.977 49.9203C157.977 50.2874 157.88 50.6182 157.686 50.9126C157.492 51.207 157.227 51.439 156.891 51.6088C156.556 51.7785 156.175 51.8633 155.749 51.8633C155.316 51.8633 154.929 51.7785 154.59 51.6088C154.254 51.439 153.991 51.207 153.8 50.9126C153.61 50.6182 153.515 50.2874 153.515 49.9203C153.515 49.4804 153.61 49.1064 153.8 48.7981C153.994 48.4899 154.259 48.2543 154.595 48.0915C154.931 47.9288 155.314 47.8474 155.743 47.8474C156.176 47.8474 156.561 47.9288 156.897 48.0915C157.233 48.2543 157.496 48.4899 157.686 48.7981C157.88 49.1064 157.977 49.4804 157.977 49.9203ZM157.016 49.9359C157.016 49.683 156.963 49.4596 156.855 49.2657C156.748 49.0717 156.599 48.9193 156.408 48.8085C156.218 48.6942 155.996 48.6371 155.743 48.6371C155.49 48.6371 155.269 48.6907 155.078 48.7981C154.891 48.902 154.744 49.0509 154.637 49.2449C154.533 49.4389 154.481 49.6692 154.481 49.9359C154.481 50.1956 154.533 50.4225 154.637 50.6165C154.744 50.8104 154.893 50.9611 155.084 51.0685C155.274 51.1758 155.496 51.2295 155.749 51.2295C156.001 51.2295 156.221 51.1758 156.408 51.0685C156.599 50.9611 156.748 50.8104 156.855 50.6165C156.963 50.4225 157.016 50.1956 157.016 49.9359Z" fill="#181716"/>
<path opacity="0.5" d="M22.378 93.9875V94.7012H19.0686V93.9875H22.378ZM19.2413 88.0824V94.7012H18.3639V88.0824H19.2413ZM24.169 89.7825V94.7012H23.3235V89.7825H24.169ZM23.2599 88.4779C23.2599 88.3415 23.3008 88.2263 23.3826 88.1324C23.4675 88.0384 23.5917 87.9914 23.7554 87.9914C23.916 87.9914 24.0387 88.0384 24.1236 88.1324C24.2115 88.2263 24.2554 88.3415 24.2554 88.4779C24.2554 88.6082 24.2115 88.7203 24.1236 88.8143C24.0387 88.9052 23.916 88.9506 23.7554 88.9506C23.5917 88.9506 23.4675 88.9052 23.3826 88.8143C23.3008 88.7203 23.2599 88.6082 23.2599 88.4779ZM28.4194 93.8602V91.3281C28.4194 91.1342 28.38 90.966 28.3012 90.8235C28.2255 90.6781 28.1103 90.5659 27.9558 90.4871C27.8012 90.4083 27.6103 90.3689 27.383 90.3689C27.1708 90.3689 26.9845 90.4053 26.8238 90.478C26.6662 90.5508 26.542 90.6462 26.4511 90.7644C26.3632 90.8826 26.3192 91.0099 26.3192 91.1463H25.4782C25.4782 90.9705 25.5237 90.7963 25.6146 90.6235C25.7055 90.4508 25.8359 90.2947 26.0056 90.1553C26.1783 90.0128 26.3844 89.9007 26.6238 89.8189C26.8663 89.734 27.136 89.6916 27.433 89.6916C27.7906 89.6916 28.1058 89.7522 28.3785 89.8734C28.6543 89.9947 28.8695 90.178 29.024 90.4235C29.1816 90.6659 29.2604 90.9705 29.2604 91.3372V93.6283C29.2604 93.792 29.2741 93.9663 29.3013 94.1511C29.3316 94.336 29.3756 94.4951 29.4332 94.6284V94.7012H28.5558C28.5134 94.6042 28.48 94.4754 28.4558 94.3148C28.4316 94.1511 28.4194 93.9996 28.4194 93.8602ZM28.5649 91.7191L28.574 92.31H27.7239C27.4845 92.31 27.2708 92.3297 27.0829 92.3691C26.895 92.4055 26.7375 92.4616 26.6102 92.5373C26.4829 92.6131 26.3859 92.7086 26.3192 92.8237C26.2526 92.9359 26.2192 93.0677 26.2192 93.2192C26.2192 93.3738 26.2541 93.5147 26.3238 93.642C26.3935 93.7693 26.498 93.8708 26.6374 93.9466C26.7799 94.0193 26.9541 94.0557 27.1602 94.0557C27.4178 94.0557 27.6451 94.0011 27.8421 93.892C28.0391 93.7829 28.1952 93.6496 28.3103 93.492C28.4285 93.3344 28.4922 93.1813 28.5013 93.0328L28.8604 93.4374C28.8392 93.5647 28.7816 93.7056 28.6876 93.8602C28.5937 94.0147 28.4679 94.1632 28.3103 94.3057C28.1558 94.4451 27.9709 94.5618 27.7557 94.6557C27.5436 94.7466 27.3042 94.7921 27.0375 94.7921C26.7041 94.7921 26.4117 94.7269 26.1601 94.5966C25.9116 94.4663 25.7177 94.292 25.5783 94.0738C25.4419 93.8526 25.3737 93.6056 25.3737 93.3329C25.3737 93.0692 25.4252 92.8374 25.5283 92.6373C25.6313 92.4343 25.7798 92.2661 25.9737 92.1327C26.1677 91.9964 26.4011 91.8933 26.6738 91.8236C26.9466 91.7539 27.2511 91.7191 27.5875 91.7191H28.5649ZM30.5787 87.7187H31.4243V93.7465L31.3515 94.7012H30.5787V87.7187ZM34.7473 92.2009V92.2964C34.7473 92.654 34.7049 92.9859 34.62 93.2919C34.5352 93.595 34.4109 93.8587 34.2473 94.0829C34.0836 94.3072 33.8836 94.4815 33.6472 94.6057C33.4108 94.73 33.1396 94.7921 32.8335 94.7921C32.5213 94.7921 32.2471 94.7391 32.0107 94.633C31.7773 94.5239 31.5803 94.3678 31.4197 94.1648C31.2591 93.9617 31.1303 93.7162 31.0333 93.4283C30.9394 93.1404 30.8742 92.8161 30.8378 92.4555V92.0373C30.8742 91.6736 30.9394 91.3478 31.0333 91.0599C31.1303 90.772 31.2591 90.5265 31.4197 90.3235C31.5803 90.1174 31.7773 89.9613 32.0107 89.8553C32.244 89.7462 32.5153 89.6916 32.8244 89.6916C33.1335 89.6916 33.4078 89.7522 33.6472 89.8734C33.8866 89.9916 34.0866 90.1613 34.2473 90.3826C34.4109 90.6038 34.5352 90.869 34.62 91.1781C34.7049 91.4842 34.7473 91.8251 34.7473 92.2009ZM33.9018 92.2964V92.2009C33.9018 91.9555 33.879 91.7251 33.8336 91.51C33.7881 91.2918 33.7154 91.1008 33.6154 90.9372C33.5154 90.7705 33.3835 90.6402 33.2199 90.5462C33.0562 90.4493 32.8547 90.4008 32.6153 90.4008C32.4031 90.4008 32.2183 90.4371 32.0607 90.5099C31.9061 90.5826 31.7743 90.6811 31.6652 90.8053C31.5561 90.9266 31.4667 91.066 31.397 91.2236C31.3303 91.3781 31.2803 91.5388 31.247 91.7054V92.801C31.2955 93.0131 31.3743 93.2177 31.4834 93.4147C31.5955 93.6086 31.744 93.7678 31.9289 93.892C32.1168 94.0163 32.3486 94.0784 32.6244 94.0784C32.8517 94.0784 33.0456 94.0329 33.2063 93.942C33.3699 93.8481 33.5017 93.7193 33.6017 93.5556C33.7048 93.392 33.7805 93.2025 33.829 92.9874C33.8775 92.7722 33.9018 92.5419 33.9018 92.2964ZM36.7248 89.7825V94.7012H35.8792V89.7825H36.7248ZM35.8156 88.4779C35.8156 88.3415 35.8565 88.2263 35.9383 88.1324C36.0232 88.0384 36.1474 87.9914 36.3111 87.9914C36.4717 87.9914 36.5945 88.0384 36.6793 88.1324C36.7672 88.2263 36.8111 88.3415 36.8111 88.4779C36.8111 88.6082 36.7672 88.7203 36.6793 88.8143C36.5945 88.9052 36.4717 88.9506 36.3111 88.9506C36.1474 88.9506 36.0232 88.9052 35.9383 88.8143C35.8565 88.7203 35.8156 88.6082 35.8156 88.4779ZM38.9886 87.7187V94.7012H38.1431V87.7187H38.9886ZM41.2525 89.7825V94.7012H40.4069V89.7825H41.2525ZM40.3433 88.4779C40.3433 88.3415 40.3842 88.2263 40.466 88.1324C40.5509 88.0384 40.6751 87.9914 40.8388 87.9914C40.9994 87.9914 41.1222 88.0384 41.207 88.1324C41.2949 88.2263 41.3388 88.3415 41.3388 88.4779C41.3388 88.6082 41.2949 88.7203 41.207 88.8143C41.1222 88.9052 40.9994 88.9506 40.8388 88.9506C40.6751 88.9506 40.5509 88.9052 40.466 88.8143C40.3842 88.7203 40.3433 88.6082 40.3433 88.4779ZM44.6619 89.7825V90.428H42.0025V89.7825H44.6619ZM42.9026 88.587H43.7436V93.4829C43.7436 93.6496 43.7694 93.7753 43.8209 93.8602C43.8724 93.945 43.9391 94.0011 44.0209 94.0284C44.1027 94.0557 44.1906 94.0693 44.2846 94.0693C44.3543 94.0693 44.427 94.0632 44.5028 94.0511C44.5816 94.036 44.6407 94.0238 44.6801 94.0147L44.6846 94.7012C44.6179 94.7224 44.5301 94.7421 44.4209 94.7603C44.3149 94.7815 44.1861 94.7921 44.0345 94.7921C43.8285 94.7921 43.6391 94.7512 43.4663 94.6694C43.2936 94.5875 43.1557 94.4511 43.0526 94.2602C42.9526 94.0663 42.9026 93.8056 42.9026 93.4783V88.587ZM46.5621 89.7825V94.7012H45.7165V89.7825H46.5621ZM45.6529 88.4779C45.6529 88.3415 45.6938 88.2263 45.7756 88.1324C45.8605 88.0384 45.9847 87.9914 46.1484 87.9914C46.309 87.9914 46.4317 88.0384 46.5166 88.1324C46.6045 88.2263 46.6484 88.3415 46.6484 88.4779C46.6484 88.6082 46.6045 88.7203 46.5166 88.8143C46.4317 88.9052 46.309 88.9506 46.1484 88.9506C45.9847 88.9506 45.8605 88.9052 45.7756 88.8143C45.6938 88.7203 45.6529 88.6082 45.6529 88.4779ZM49.9533 94.7921C49.6108 94.7921 49.3002 94.7345 49.0214 94.6193C48.7456 94.5012 48.5077 94.336 48.3077 94.1238C48.1107 93.9117 47.9592 93.6602 47.8531 93.3692C47.747 93.0783 47.694 92.7601 47.694 92.4146V92.2237C47.694 91.8236 47.7531 91.4675 47.8713 91.1554C47.9895 90.8402 48.1501 90.5735 48.3531 90.3553C48.5562 90.1371 48.7865 89.9719 49.0441 89.8598C49.3017 89.7477 49.5684 89.6916 49.8442 89.6916C50.1957 89.6916 50.4988 89.7522 50.7534 89.8734C51.011 89.9947 51.2216 90.1644 51.3852 90.3826C51.5489 90.5978 51.6701 90.8523 51.7489 91.1463C51.8277 91.4372 51.8671 91.7554 51.8671 92.1009V92.4782H48.194V91.7918H51.0261V91.7282C51.014 91.51 50.9685 91.2978 50.8897 91.0917C50.814 90.8857 50.6928 90.7159 50.5261 90.5826C50.3594 90.4493 50.1321 90.3826 49.8442 90.3826C49.6533 90.3826 49.4775 90.4235 49.3169 90.5053C49.1562 90.5841 49.0184 90.7023 48.9032 90.8599C48.788 91.0175 48.6986 91.2099 48.635 91.4372C48.5713 91.6645 48.5395 91.9267 48.5395 92.2237V92.4146C48.5395 92.6479 48.5713 92.8677 48.635 93.0737C48.7017 93.2768 48.7971 93.4556 48.9214 93.6102C49.0487 93.7647 49.2017 93.8859 49.3805 93.9738C49.5623 94.0617 49.7684 94.1057 49.9988 94.1057C50.2957 94.1057 50.5473 94.045 50.7534 93.9238C50.9594 93.8026 51.1398 93.6405 51.2943 93.4374L51.8035 93.842C51.6974 94.0026 51.5625 94.1557 51.3989 94.3011C51.2352 94.4466 51.0337 94.5648 50.7943 94.6557C50.5579 94.7466 50.2776 94.7921 49.9533 94.7921ZM55.7129 93.3965C55.7129 93.2753 55.6857 93.1631 55.6311 93.0601C55.5796 92.954 55.472 92.8586 55.3083 92.7737C55.1477 92.6858 54.9053 92.6101 54.581 92.5464C54.3082 92.4888 54.0613 92.4207 53.84 92.3419C53.6218 92.2631 53.4354 92.1676 53.2809 92.0555C53.1293 91.9433 53.0127 91.8115 52.9308 91.66C52.849 91.5084 52.8081 91.3312 52.8081 91.1281C52.8081 90.9341 52.8505 90.7508 52.9354 90.5781C53.0233 90.4053 53.146 90.2523 53.3036 90.1189C53.4642 89.9856 53.6567 89.881 53.8809 89.8053C54.1052 89.7295 54.3552 89.6916 54.631 89.6916C55.025 89.6916 55.3614 89.7613 55.6402 89.9007C55.919 90.0401 56.1327 90.2265 56.2812 90.4599C56.4297 90.6902 56.5039 90.9463 56.5039 91.2281H55.6629C55.6629 91.0917 55.622 90.9599 55.5402 90.8326C55.4614 90.7023 55.3447 90.5947 55.1902 90.5099C55.0386 90.425 54.8522 90.3826 54.631 90.3826C54.3977 90.3826 54.2082 90.4189 54.0628 90.4917C53.9203 90.5614 53.8158 90.6508 53.7491 90.7599C53.6855 90.869 53.6536 90.9842 53.6536 91.1054C53.6536 91.1963 53.6688 91.2781 53.6991 91.3509C53.7324 91.4206 53.79 91.4857 53.8718 91.5463C53.9537 91.6039 54.0688 91.6585 54.2173 91.71C54.3658 91.7615 54.5552 91.813 54.7856 91.8645C55.1886 91.9555 55.5205 92.0646 55.7811 92.1918C56.0417 92.3191 56.2357 92.4752 56.363 92.6601C56.4903 92.8449 56.5539 93.0692 56.5539 93.3329C56.5539 93.548 56.5085 93.745 56.4175 93.9238C56.3297 94.1026 56.2009 94.2572 56.0311 94.3875C55.8645 94.5148 55.6644 94.6148 55.4311 94.6875C55.2008 94.7572 54.9416 94.7921 54.6537 94.7921C54.2204 94.7921 53.8537 94.7148 53.5536 94.5602C53.2536 94.4057 53.0263 94.2057 52.8717 93.9602C52.7172 93.7147 52.6399 93.4556 52.6399 93.1828H53.4854C53.4976 93.4132 53.5642 93.5965 53.6855 93.7329C53.8067 93.8662 53.9552 93.9617 54.131 94.0193C54.3067 94.0738 54.481 94.1011 54.6537 94.1011C54.8841 94.1011 55.0765 94.0708 55.2311 94.0102C55.3887 93.9496 55.5084 93.8662 55.5902 93.7602C55.672 93.6541 55.7129 93.5329 55.7129 93.3965Z" fill="#181716"/>
<path d="M118.249 85.6344V87.2189H117.47V85.6344H118.249ZM118.155 94.1183V95.5054H117.381V94.1183H118.155ZM119.194 92.4766C119.194 92.2688 119.148 92.0817 119.054 91.9155C118.961 91.7492 118.807 91.5968 118.592 91.4583C118.377 91.3197 118.09 91.1916 117.729 91.0738C117.293 90.9388 116.915 90.7742 116.597 90.5803C116.282 90.3863 116.037 90.1456 115.864 89.8581C115.695 89.5707 115.61 89.2226 115.61 88.8139C115.61 88.3879 115.701 88.0207 115.885 87.7125C116.069 87.4042 116.328 87.167 116.664 87.0007C117 86.8345 117.395 86.7514 117.849 86.7514C118.202 86.7514 118.517 86.805 118.794 86.9124C119.071 87.0163 119.305 87.1722 119.496 87.38C119.69 87.5878 119.837 87.8424 119.937 88.1437C120.041 88.445 120.093 88.7931 120.093 89.1879H119.137C119.137 88.9559 119.11 88.7429 119.054 88.5489C118.999 88.355 118.916 88.187 118.805 88.045C118.694 87.8995 118.559 87.7887 118.4 87.7125C118.24 87.6328 118.057 87.593 117.849 87.593C117.558 87.593 117.317 87.6432 117.127 87.7437C116.94 87.8441 116.801 87.9861 116.711 88.1697C116.621 88.3498 116.576 88.5593 116.576 88.7983C116.576 89.02 116.621 89.2139 116.711 89.3802C116.801 89.5464 116.954 89.6971 117.168 89.8322C117.386 89.9638 117.686 90.0937 118.067 90.2218C118.514 90.3638 118.893 90.5318 119.205 90.7258C119.517 90.9162 119.754 91.1518 119.917 91.4323C120.079 91.7094 120.161 92.054 120.161 92.4662C120.161 92.913 120.06 93.2905 119.859 93.5988C119.659 93.9035 119.376 94.1356 119.013 94.2949C118.649 94.4542 118.223 94.5339 117.735 94.5339C117.44 94.5339 117.149 94.4941 116.862 94.4144C116.574 94.3348 116.315 94.2049 116.082 94.0248C115.85 93.8412 115.665 93.6005 115.527 93.3026C115.388 93.0013 115.319 92.6324 115.319 92.196H116.285C116.285 92.4904 116.327 92.7346 116.41 92.9286C116.496 93.1191 116.611 93.2714 116.753 93.3857C116.895 93.4966 117.051 93.5762 117.22 93.6247C117.393 93.6698 117.565 93.6923 117.735 93.6923C118.046 93.6923 118.309 93.6438 118.524 93.5468C118.742 93.4464 118.909 93.3044 119.023 93.1208C119.137 92.9372 119.194 92.7225 119.194 92.4766ZM122.764 90.1699H123.449C123.785 90.1699 124.062 90.1144 124.281 90.0036C124.502 89.8893 124.667 89.7352 124.774 89.5412C124.885 89.3438 124.94 89.1221 124.94 88.8762C124.94 88.5853 124.892 88.3411 124.795 88.1437C124.698 87.9463 124.553 87.7973 124.359 87.6969C124.165 87.5965 123.919 87.5462 123.621 87.5462C123.351 87.5462 123.112 87.5999 122.904 87.7073C122.7 87.8112 122.538 87.9601 122.421 88.1541C122.306 88.348 122.249 88.5766 122.249 88.8399H121.288C121.288 88.4554 121.385 88.1056 121.579 87.7904C121.773 87.4752 122.045 87.2241 122.395 87.0371C122.748 86.8501 123.157 86.7565 123.621 86.7565C124.078 86.7565 124.478 86.8379 124.821 87.0007C125.164 87.16 125.431 87.399 125.621 87.7177C125.812 88.0329 125.907 88.426 125.907 88.897C125.907 89.0875 125.862 89.2919 125.772 89.5101C125.685 89.7248 125.548 89.9257 125.361 90.1127C125.178 90.2997 124.939 90.4539 124.644 90.5751C124.35 90.6929 123.997 90.7517 123.584 90.7517H122.764V90.1699ZM122.764 90.9595V90.3829H123.584C124.066 90.3829 124.464 90.44 124.779 90.5543C125.095 90.6686 125.342 90.821 125.522 91.0115C125.706 91.202 125.834 91.4115 125.907 91.6401C125.983 91.8653 126.021 92.0904 126.021 92.3155C126.021 92.6688 125.96 92.9822 125.839 93.2559C125.721 93.5295 125.553 93.7615 125.335 93.952C125.121 94.1425 124.868 94.2863 124.577 94.3832C124.286 94.4802 123.969 94.5287 123.626 94.5287C123.297 94.5287 122.987 94.482 122.696 94.3884C122.409 94.2949 122.154 94.1598 121.932 93.9832C121.711 93.8031 121.538 93.5832 121.413 93.3234C121.288 93.0602 121.226 92.7606 121.226 92.4246H122.187C122.187 92.6878 122.244 92.9182 122.358 93.1156C122.476 93.313 122.642 93.4671 122.857 93.578C123.075 93.6853 123.332 93.739 123.626 93.739C123.92 93.739 124.173 93.6888 124.385 93.5884C124.599 93.4845 124.764 93.3286 124.878 93.1208C124.996 92.913 125.055 92.6515 125.055 92.3363C125.055 92.0211 124.989 91.7631 124.857 91.5622C124.726 91.3578 124.539 91.2072 124.296 91.1102C124.057 91.0098 123.775 90.9595 123.449 90.9595H122.764ZM132.094 90.04V91.1933C132.094 91.8133 132.039 92.3363 131.928 92.7623C131.817 93.1883 131.658 93.5312 131.45 93.791C131.242 94.0507 130.991 94.2395 130.697 94.3573C130.406 94.4716 130.077 94.5287 129.71 94.5287C129.419 94.5287 129.15 94.4923 128.904 94.4196C128.659 94.3469 128.437 94.2308 128.239 94.0715C128.045 93.9087 127.879 93.6975 127.741 93.4377C127.602 93.1779 127.497 92.8628 127.424 92.4922C127.351 92.1216 127.315 91.6886 127.315 91.1933V90.04C127.315 89.42 127.37 88.9005 127.481 88.4814C127.595 88.0623 127.756 87.7263 127.964 87.4735C128.172 87.2172 128.421 87.0336 128.712 86.9228C129.007 86.812 129.336 86.7565 129.699 86.7565C129.994 86.7565 130.264 86.7929 130.51 86.8656C130.759 86.9349 130.981 87.0475 131.175 87.2033C131.369 87.3557 131.533 87.5601 131.668 87.8164C131.807 88.0692 131.913 88.3792 131.985 88.7463C132.058 89.1135 132.094 89.5447 132.094 90.04ZM131.128 91.3492V89.8789C131.128 89.5395 131.107 89.2416 131.066 88.9853C131.028 88.7256 130.97 88.5039 130.894 88.3203C130.818 88.1368 130.721 87.9878 130.603 87.8735C130.489 87.7592 130.356 87.6761 130.203 87.6242C130.054 87.5687 129.886 87.541 129.699 87.541C129.471 87.541 129.268 87.5843 129.091 87.6709C128.915 87.754 128.766 87.8874 128.645 88.071C128.527 88.2545 128.437 88.4952 128.375 88.7931C128.312 89.091 128.281 89.4529 128.281 89.8789V91.3492C128.281 91.6886 128.3 91.9882 128.338 92.248C128.38 92.5077 128.44 92.7329 128.52 92.9234C128.6 93.1104 128.697 93.2645 128.811 93.3857C128.925 93.507 129.057 93.597 129.206 93.6559C129.358 93.7113 129.526 93.739 129.71 93.739C129.945 93.739 130.151 93.694 130.328 93.6039C130.505 93.5139 130.652 93.3736 130.77 93.1831C130.891 92.9892 130.981 92.7415 131.04 92.4402C131.099 92.1354 131.128 91.7717 131.128 91.3492ZM138.079 90.04V91.1933C138.079 91.8133 138.024 92.3363 137.913 92.7623C137.802 93.1883 137.643 93.5312 137.435 93.791C137.227 94.0507 136.976 94.2395 136.682 94.3573C136.391 94.4716 136.062 94.5287 135.695 94.5287C135.404 94.5287 135.135 94.4923 134.889 94.4196C134.644 94.3469 134.422 94.2308 134.224 94.0715C134.03 93.9087 133.864 93.6975 133.726 93.4377C133.587 93.1779 133.481 92.8628 133.409 92.4922C133.336 92.1216 133.3 91.6886 133.3 91.1933V90.04C133.3 89.42 133.355 88.9005 133.466 88.4814C133.58 88.0623 133.741 87.7263 133.949 87.4735C134.157 87.2172 134.406 87.0336 134.697 86.9228C134.992 86.812 135.321 86.7565 135.684 86.7565C135.979 86.7565 136.249 86.7929 136.495 86.8656C136.744 86.9349 136.966 87.0475 137.16 87.2033C137.354 87.3557 137.518 87.5601 137.653 87.8164C137.792 88.0692 137.897 88.3792 137.97 88.7463C138.043 89.1135 138.079 89.5447 138.079 90.04ZM137.113 91.3492V89.8789C137.113 89.5395 137.092 89.2416 137.051 88.9853C137.013 88.7256 136.955 88.5039 136.879 88.3203C136.803 88.1368 136.706 87.9878 136.588 87.8735C136.474 87.7592 136.341 87.6761 136.188 87.6242C136.039 87.5687 135.871 87.541 135.684 87.541C135.456 87.541 135.253 87.5843 135.076 87.6709C134.9 87.754 134.751 87.8874 134.63 88.071C134.512 88.2545 134.422 88.4952 134.359 88.7931C134.297 89.091 134.266 89.4529 134.266 89.8789V91.3492C134.266 91.6886 134.285 91.9882 134.323 92.248C134.365 92.5077 134.425 92.7329 134.505 92.9234C134.585 93.1104 134.682 93.2645 134.796 93.3857C134.91 93.507 135.042 93.597 135.191 93.6559C135.343 93.7113 135.511 93.739 135.695 93.739C135.93 93.739 136.136 93.694 136.313 93.6039C136.49 93.5139 136.637 93.3736 136.755 93.1831C136.876 92.9892 136.966 92.7415 137.025 92.4402C137.084 92.1354 137.113 91.7717 137.113 91.3492ZM140.293 93.2818V94.0559C140.293 94.3711 140.213 94.7036 140.054 95.0534C139.894 95.4067 139.671 95.7011 139.383 95.9366L138.838 95.5574C138.949 95.405 139.042 95.2491 139.118 95.0898C139.195 94.9339 139.252 94.7712 139.29 94.6014C139.331 94.4352 139.352 94.2586 139.352 94.0715V93.2818H140.293ZM146.371 93.6351V94.4248H141.42V93.7338L143.898 90.9751C144.203 90.6357 144.438 90.3482 144.605 90.1127C144.774 89.8737 144.892 89.6607 144.958 89.4737C145.027 89.2832 145.062 89.0892 145.062 88.8918C145.062 88.6424 145.01 88.4173 144.906 88.2164C144.806 88.0121 144.657 87.8493 144.459 87.7281C144.262 87.6068 144.023 87.5462 143.742 87.5462C143.406 87.5462 143.126 87.612 142.901 87.7437C142.679 87.8718 142.513 88.0519 142.402 88.284C142.291 88.516 142.236 88.7827 142.236 89.084H141.274C141.274 88.658 141.368 88.2684 141.555 87.9151C141.742 87.5618 142.019 87.2813 142.386 87.0735C142.753 86.8622 143.205 86.7565 143.742 86.7565C144.22 86.7565 144.629 86.8414 144.968 87.0111C145.308 87.1774 145.567 87.4129 145.748 87.7177C145.931 88.019 146.023 88.3723 146.023 88.7775C146.023 88.9992 145.985 89.2243 145.909 89.4529C145.836 89.678 145.734 89.9032 145.602 90.1283C145.474 90.3534 145.323 90.5751 145.15 90.7933C144.98 91.0115 144.799 91.2262 144.605 91.4375L142.578 93.6351H146.371ZM148.802 90.1699H149.488C149.824 90.1699 150.101 90.1144 150.319 90.0036C150.541 89.8893 150.706 89.7352 150.813 89.5412C150.924 89.3438 150.979 89.1221 150.979 88.8762C150.979 88.5853 150.931 88.3411 150.834 88.1437C150.737 87.9463 150.591 87.7973 150.397 87.6969C150.203 87.5965 149.958 87.5462 149.66 87.5462C149.389 87.5462 149.151 87.5999 148.943 87.7073C148.738 87.8112 148.577 87.9601 148.46 88.1541C148.345 88.348 148.288 88.5766 148.288 88.8399H147.327C147.327 88.4554 147.424 88.1056 147.618 87.7904C147.812 87.4752 148.084 87.2241 148.434 87.0371C148.787 86.8501 149.196 86.7565 149.66 86.7565C150.117 86.7565 150.517 86.8379 150.86 87.0007C151.203 87.16 151.469 87.399 151.66 87.7177C151.85 88.0329 151.946 88.426 151.946 88.897C151.946 89.0875 151.901 89.2919 151.81 89.5101C151.724 89.7248 151.587 89.9257 151.4 90.1127C151.217 90.2997 150.978 90.4539 150.683 90.5751C150.389 90.6929 150.035 90.7517 149.623 90.7517H148.802V90.1699ZM148.802 90.9595V90.3829H149.623C150.105 90.3829 150.503 90.44 150.818 90.5543C151.133 90.6686 151.381 90.821 151.561 91.0115C151.745 91.202 151.873 91.4115 151.946 91.6401C152.022 91.8653 152.06 92.0904 152.06 92.3155C152.06 92.6688 151.999 92.9822 151.878 93.2559C151.76 93.5295 151.592 93.7615 151.374 93.952C151.159 94.1425 150.907 94.2863 150.616 94.3832C150.325 94.4802 150.008 94.5287 149.665 94.5287C149.336 94.5287 149.026 94.482 148.735 94.3884C148.447 94.2949 148.193 94.1598 147.971 93.9832C147.75 93.8031 147.576 93.5832 147.452 93.3234C147.327 93.0602 147.265 92.7606 147.265 92.4246H148.226C148.226 92.6878 148.283 92.9182 148.397 93.1156C148.515 93.313 148.681 93.4671 148.896 93.578C149.114 93.6853 149.37 93.739 149.665 93.739C149.959 93.739 150.212 93.6888 150.423 93.5884C150.638 93.4845 150.803 93.3286 150.917 93.1208C151.035 92.913 151.094 92.6515 151.094 92.3363C151.094 92.0211 151.028 91.7631 150.896 91.5622C150.765 91.3578 150.577 91.2072 150.335 91.1102C150.096 91.0098 149.814 90.9595 149.488 90.9595H148.802ZM156.543 86.8189V94.4248H155.582V88.019L153.644 88.7256V87.858L156.393 86.8189H156.543Z" fill="#181716"/>
<path opacity="0.5" d="M22.8227 134.171V134.885H19.3178V134.171H22.8227ZM19.4951 128.266V134.885H18.6178V128.266H19.4951ZM22.359 131.112V131.825H19.3178V131.112H22.359ZM22.7773 128.266V128.984H19.3178V128.266H22.7773ZM26.7867 136.776V130.912L26.8595 129.966H27.6323V136.776H26.7867ZM23.4819 132.48V132.385C23.4819 132.009 23.5258 131.668 23.6137 131.362C23.7016 131.053 23.8304 130.787 24.0001 130.566C24.1698 130.345 24.3744 130.175 24.6138 130.057C24.8562 129.936 25.132 129.875 25.4411 129.875C25.7503 129.875 26.0215 129.93 26.2549 130.039C26.4912 130.145 26.6913 130.301 26.8549 130.507C27.0216 130.71 27.1534 130.956 27.2504 131.244C27.3474 131.531 27.4141 131.857 27.4504 132.221V132.639C27.4171 133 27.3519 133.324 27.2549 133.612C27.158 133.9 27.0261 134.145 26.8595 134.348C26.6958 134.551 26.4943 134.707 26.2549 134.817C26.0185 134.923 25.7442 134.976 25.432 134.976C25.129 134.976 24.8562 134.914 24.6138 134.789C24.3744 134.665 24.1698 134.491 24.0001 134.267C23.8334 134.042 23.7046 133.779 23.6137 133.476C23.5258 133.169 23.4819 132.838 23.4819 132.48ZM24.3274 132.385V132.48C24.3274 132.725 24.3532 132.957 24.4047 133.176C24.4562 133.391 24.535 133.582 24.6411 133.748C24.7502 133.915 24.8865 134.047 25.0502 134.144C25.2169 134.238 25.4139 134.285 25.6412 134.285C25.92 134.285 26.1518 134.224 26.3367 134.103C26.5246 133.982 26.6746 133.823 26.7867 133.626C26.8989 133.426 26.9852 133.212 27.0458 132.985V131.889C27.0125 131.722 26.9595 131.56 26.8867 131.403C26.817 131.245 26.7261 131.104 26.614 130.98C26.5018 130.853 26.3655 130.753 26.2048 130.68C26.0473 130.604 25.8624 130.566 25.6502 130.566C25.4199 130.566 25.2214 130.615 25.0547 130.712C24.8881 130.809 24.7502 130.942 24.6411 131.112C24.535 131.278 24.4562 131.471 24.4047 131.689C24.3532 131.907 24.3274 132.139 24.3274 132.385ZM31.9918 133.748V129.966H32.8373V134.885H32.0327L31.9918 133.748ZM32.1509 132.712L32.5009 132.703C32.5009 133.03 32.466 133.333 32.3963 133.612C32.3297 133.888 32.2206 134.127 32.069 134.33C31.9175 134.533 31.719 134.692 31.4735 134.807C31.228 134.92 30.9295 134.976 30.578 134.976C30.3386 134.976 30.1189 134.941 29.9188 134.871C29.7218 134.801 29.5521 134.694 29.4097 134.548C29.2673 134.403 29.1566 134.213 29.0778 133.98C29.0021 133.747 28.9642 133.466 28.9642 133.139V129.966H29.8052V133.148C29.8052 133.369 29.8294 133.553 29.8779 133.698C29.9294 133.841 29.9976 133.954 30.0825 134.039C30.1704 134.121 30.2674 134.179 30.3734 134.212C30.4825 134.245 30.5947 134.262 30.7098 134.262C31.0674 134.262 31.3508 134.194 31.5599 134.057C31.769 133.918 31.919 133.732 32.0099 133.498C32.1039 133.262 32.1509 133 32.1509 132.712ZM35.033 129.966V134.885H34.1874V129.966H35.033ZM34.1238 128.661C34.1238 128.525 34.1647 128.41 34.2465 128.316C34.3314 128.222 34.4556 128.175 34.6193 128.175C34.7799 128.175 34.9026 128.222 34.9875 128.316C35.0754 128.41 35.1193 128.525 35.1193 128.661C35.1193 128.792 35.0754 128.904 34.9875 128.998C34.9026 129.089 34.7799 129.134 34.6193 129.134C34.4556 129.134 34.3314 129.089 34.2465 128.998C34.1647 128.904 34.1238 128.792 34.1238 128.661ZM38.4424 129.966V130.612H35.783V129.966H38.4424ZM36.6831 128.771H37.5241V133.666C37.5241 133.833 37.5499 133.959 37.6014 134.044C37.6529 134.129 37.7196 134.185 37.8014 134.212C37.8832 134.239 37.9711 134.253 38.0651 134.253C38.1348 134.253 38.2075 134.247 38.2833 134.235C38.3621 134.22 38.4212 134.207 38.4606 134.198L38.4651 134.885C38.3984 134.906 38.3105 134.926 38.2014 134.944C38.0954 134.965 37.9666 134.976 37.815 134.976C37.609 134.976 37.4195 134.935 37.2468 134.853C37.0741 134.771 36.9362 134.635 36.8331 134.444C36.7331 134.25 36.6831 133.989 36.6831 133.662V128.771ZM40.8108 134.376L42.1791 129.966H43.0792L41.1063 135.644C41.0608 135.765 41.0002 135.895 40.9244 136.035C40.8517 136.177 40.7577 136.312 40.6426 136.439C40.5274 136.567 40.388 136.67 40.2244 136.749C40.0637 136.83 39.8713 136.871 39.647 136.871C39.5804 136.871 39.4955 136.862 39.3925 136.844C39.2894 136.826 39.2167 136.811 39.1743 136.799L39.1697 136.117C39.194 136.12 39.2318 136.123 39.2834 136.126C39.3379 136.132 39.3758 136.135 39.397 136.135C39.5879 136.135 39.7501 136.109 39.8834 136.058C40.0168 136.009 40.1289 135.926 40.2198 135.808C40.3138 135.692 40.3941 135.533 40.4607 135.33L40.8108 134.376ZM39.8061 129.966L41.0835 133.785L41.3017 134.671L40.6971 134.98L38.8879 129.966H39.8061Z" fill="#181716"/>
<path d="M118.249 125.819V127.403H117.47V125.819H118.249ZM118.155 134.303V135.69H117.381V134.303H118.155ZM119.194 132.661C119.194 132.453 119.148 132.266 119.054 132.1C118.961 131.934 118.807 131.781 118.592 131.643C118.377 131.504 118.09 131.376 117.729 131.258C117.293 131.123 116.915 130.959 116.597 130.765C116.282 130.571 116.037 130.33 115.864 130.043C115.695 129.755 115.61 129.407 115.61 128.998C115.61 128.572 115.701 128.205 115.885 127.897C116.069 127.589 116.328 127.352 116.664 127.185C117 127.019 117.395 126.936 117.849 126.936C118.202 126.936 118.517 126.99 118.794 127.097C119.071 127.201 119.305 127.357 119.496 127.565C119.69 127.772 119.837 128.027 119.937 128.328C120.041 128.63 120.093 128.978 120.093 129.373H119.137C119.137 129.14 119.11 128.927 119.054 128.733C118.999 128.54 118.916 128.372 118.805 128.23C118.694 128.084 118.559 127.973 118.4 127.897C118.24 127.817 118.057 127.778 117.849 127.778C117.558 127.778 117.317 127.828 117.127 127.928C116.94 128.029 116.801 128.171 116.711 128.354C116.621 128.534 116.576 128.744 116.576 128.983C116.576 129.205 116.621 129.398 116.711 129.565C116.801 129.731 116.954 129.882 117.168 130.017C117.386 130.148 117.686 130.278 118.067 130.406C118.514 130.548 118.893 130.716 119.205 130.91C119.517 131.101 119.754 131.336 119.917 131.617C120.079 131.894 120.161 132.239 120.161 132.651C120.161 133.098 120.06 133.475 119.859 133.783C119.659 134.088 119.376 134.32 119.013 134.479C118.649 134.639 118.223 134.718 117.735 134.718C117.44 134.718 117.149 134.679 116.862 134.599C116.574 134.519 116.315 134.389 116.082 134.209C115.85 134.026 115.665 133.785 115.527 133.487C115.388 133.186 115.319 132.817 115.319 132.381H116.285C116.285 132.675 116.327 132.919 116.41 133.113C116.496 133.304 116.611 133.456 116.753 133.57C116.895 133.681 117.051 133.761 117.22 133.809C117.393 133.854 117.565 133.877 117.735 133.877C118.046 133.877 118.309 133.828 118.524 133.731C118.742 133.631 118.909 133.489 119.023 133.305C119.137 133.122 119.194 132.907 119.194 132.661ZM126.473 132.064V132.853H121.008V132.287L124.395 127.045H125.179L124.338 128.562L122.099 132.064H126.473ZM125.418 127.045V134.609H124.457V127.045H125.418ZM128.562 131.009L127.793 130.812L128.172 127.045H132.053V127.933H128.988L128.759 129.991C128.898 129.911 129.072 129.837 129.284 129.767C129.498 129.698 129.744 129.663 130.021 129.663C130.371 129.663 130.685 129.724 130.962 129.845C131.239 129.963 131.474 130.133 131.668 130.354C131.866 130.576 132.016 130.843 132.12 131.155C132.224 131.466 132.276 131.814 132.276 132.199C132.276 132.562 132.226 132.897 132.126 133.201C132.029 133.506 131.881 133.773 131.684 134.002C131.487 134.227 131.237 134.402 130.936 134.526C130.638 134.651 130.286 134.713 129.881 134.713C129.576 134.713 129.287 134.672 129.014 134.589C128.743 134.502 128.501 134.372 128.286 134.199C128.075 134.022 127.902 133.804 127.767 133.544C127.635 133.281 127.552 132.973 127.517 132.62H128.432C128.473 132.904 128.556 133.143 128.681 133.337C128.806 133.53 128.969 133.678 129.169 133.778C129.374 133.875 129.611 133.924 129.881 133.924C130.11 133.924 130.312 133.884 130.489 133.804C130.666 133.724 130.815 133.61 130.936 133.461C131.057 133.312 131.149 133.132 131.211 132.921C131.277 132.71 131.31 132.472 131.31 132.209C131.31 131.97 131.277 131.748 131.211 131.544C131.145 131.34 131.047 131.161 130.915 131.009C130.787 130.857 130.629 130.739 130.442 130.656C130.255 130.569 130.04 130.526 129.798 130.526C129.476 130.526 129.232 130.569 129.065 130.656C128.903 130.742 128.735 130.86 128.562 131.009ZM138.079 130.225V131.378C138.079 131.998 138.024 132.521 137.913 132.947C137.802 133.373 137.643 133.716 137.435 133.976C137.227 134.235 136.976 134.424 136.682 134.542C136.391 134.656 136.062 134.713 135.695 134.713C135.404 134.713 135.135 134.677 134.889 134.604C134.644 134.531 134.422 134.415 134.224 134.256C134.03 134.093 133.864 133.882 133.726 133.622C133.587 133.363 133.481 133.047 133.409 132.677C133.336 132.306 133.3 131.873 133.3 131.378V130.225C133.3 129.605 133.355 129.085 133.466 128.666C133.58 128.247 133.741 127.911 133.949 127.658C134.157 127.402 134.406 127.218 134.697 127.107C134.992 126.997 135.321 126.941 135.684 126.941C135.979 126.941 136.249 126.977 136.495 127.05C136.744 127.119 136.966 127.232 137.16 127.388C137.354 127.54 137.518 127.745 137.653 128.001C137.792 128.254 137.897 128.564 137.97 128.931C138.043 129.298 138.079 129.729 138.079 130.225ZM137.113 131.534V130.063C137.113 129.724 137.092 129.426 137.051 129.17C137.013 128.91 136.955 128.688 136.879 128.505C136.803 128.321 136.706 128.172 136.588 128.058C136.474 127.944 136.341 127.861 136.188 127.809C136.039 127.753 135.871 127.726 135.684 127.726C135.456 127.726 135.253 127.769 135.076 127.855C134.9 127.939 134.751 128.072 134.63 128.256C134.512 128.439 134.422 128.68 134.359 128.978C134.297 129.276 134.266 129.637 134.266 130.063V131.534C134.266 131.873 134.285 132.173 134.323 132.433C134.365 132.692 134.425 132.917 134.505 133.108C134.585 133.295 134.682 133.449 134.796 133.57C134.91 133.692 135.042 133.782 135.191 133.84C135.343 133.896 135.511 133.924 135.695 133.924C135.93 133.924 136.136 133.879 136.313 133.789C136.49 133.698 136.637 133.558 136.755 133.368C136.876 133.174 136.966 132.926 137.025 132.625C137.084 132.32 137.113 131.956 137.113 131.534ZM140.293 133.466V134.241C140.293 134.556 140.213 134.888 140.054 135.238C139.894 135.591 139.671 135.886 139.383 136.121L138.838 135.742C138.949 135.59 139.042 135.434 139.118 135.274C139.195 135.119 139.252 134.956 139.29 134.786C139.331 134.62 139.352 134.443 139.352 134.256V133.466H140.293ZM146.163 130.225V131.378C146.163 131.998 146.108 132.521 145.997 132.947C145.886 133.373 145.727 133.716 145.519 133.976C145.311 134.235 145.06 134.424 144.766 134.542C144.475 134.656 144.146 134.713 143.779 134.713C143.488 134.713 143.219 134.677 142.973 134.604C142.727 134.531 142.506 134.415 142.308 134.256C142.114 134.093 141.948 133.882 141.81 133.622C141.671 133.363 141.565 133.047 141.493 132.677C141.42 132.306 141.384 131.873 141.384 131.378V130.225C141.384 129.605 141.439 129.085 141.55 128.666C141.664 128.247 141.825 127.911 142.033 127.658C142.241 127.402 142.49 127.218 142.781 127.107C143.075 126.997 143.405 126.941 143.768 126.941C144.063 126.941 144.333 126.977 144.579 127.05C144.828 127.119 145.05 127.232 145.244 127.388C145.438 127.54 145.602 127.745 145.737 128.001C145.876 128.254 145.981 128.564 146.054 128.931C146.127 129.298 146.163 129.729 146.163 130.225ZM145.197 131.534V130.063C145.197 129.724 145.176 129.426 145.135 129.17C145.096 128.91 145.039 128.688 144.963 128.505C144.887 128.321 144.79 128.172 144.672 128.058C144.558 127.944 144.425 127.861 144.272 127.809C144.123 127.753 143.955 127.726 143.768 127.726C143.54 127.726 143.337 127.769 143.16 127.855C142.984 127.939 142.835 128.072 142.714 128.256C142.596 128.439 142.506 128.68 142.443 128.978C142.381 129.276 142.35 129.637 142.35 130.063V131.534C142.35 131.873 142.369 132.173 142.407 132.433C142.449 132.692 142.509 132.917 142.589 133.108C142.669 133.295 142.765 133.449 142.88 133.57C142.994 133.692 143.126 133.782 143.275 133.84C143.427 133.896 143.595 133.924 143.779 133.924C144.014 133.924 144.22 133.879 144.397 133.789C144.573 133.698 144.721 133.558 144.838 133.368C144.96 133.174 145.05 132.926 145.109 132.625C145.167 132.32 145.197 131.956 145.197 131.534ZM148.615 131.009L147.846 130.812L148.226 127.045H152.107V127.933H149.041L148.813 129.991C148.951 129.911 149.126 129.837 149.338 129.767C149.552 129.698 149.798 129.663 150.075 129.663C150.425 129.663 150.739 129.724 151.016 129.845C151.293 129.963 151.528 130.133 151.722 130.354C151.92 130.576 152.07 130.843 152.174 131.155C152.278 131.466 152.33 131.814 152.33 132.199C152.33 132.562 152.28 132.897 152.179 133.201C152.082 133.506 151.935 133.773 151.738 134.002C151.54 134.227 151.291 134.402 150.99 134.526C150.692 134.651 150.34 134.713 149.935 134.713C149.63 134.713 149.341 134.672 149.067 134.589C148.797 134.502 148.555 134.372 148.34 134.199C148.129 134.022 147.956 133.804 147.821 133.544C147.689 133.281 147.606 132.973 147.571 132.62H148.486C148.527 132.904 148.61 133.143 148.735 133.337C148.86 133.53 149.022 133.678 149.223 133.778C149.428 133.875 149.665 133.924 149.935 133.924C150.164 133.924 150.366 133.884 150.543 133.804C150.719 133.724 150.868 133.61 150.99 133.461C151.111 133.312 151.203 133.132 151.265 132.921C151.331 132.71 151.364 132.472 151.364 132.209C151.364 131.97 151.331 131.748 151.265 131.544C151.199 131.34 151.1 131.161 150.969 131.009C150.841 130.857 150.683 130.739 150.496 130.656C150.309 130.569 150.094 130.526 149.852 130.526C149.53 130.526 149.286 130.569 149.119 130.656C148.957 130.742 148.789 130.86 148.615 131.009ZM158.273 127.045V127.585L155.141 134.609H154.128L157.255 127.835H153.161V127.045H158.273Z" fill="#181716"/>
<line opacity="0.3" x1="18.3066" y1="38.8042" x2="156.721" y2="38.8042" stroke="#181716" stroke-width="0.664998"/>
<rect opacity="0.15" x="18.3066" y="62.7373" width="37.6335" height="3.82712" rx="1.91356" fill="#9A8A7E"/>
<rect opacity="0.15" x="18.3066" y="101.646" width="33.8064" height="3.82712" rx="1.91356" fill="#9A8A7E"/>
<rect opacity="0.15" x="18.3066" y="141.831" width="33.8064" height="3.82712" rx="1.91356" fill="#9A8A7E"/>
<rect opacity="0.15" x="129.145" y="62.7363" width="31.2549" height="3.82712" rx="1.91356" fill="#9A8A7E"/>
<rect opacity="0.15" x="136.797" y="101.646" width="23.6007" height="3.82712" rx="1.91356" fill="#9A8A7E"/>
<rect opacity="0.15" x="147.643" y="141.831" width="12.7571" height="3.82712" rx="1.91356" fill="#9A8A7E"/>
<rect opacity="0.15" x="18.3066" y="69.1152" width="33.8064" height="3.82712" rx="1.91356" fill="#9A8A7E"/>
<rect opacity="0.15" x="18.3066" y="108.024" width="41.4607" height="3.82712" rx="1.91356" fill="#9A8A7E"/>
<rect opacity="0.15" x="18.3066" y="148.211" width="25.5142" height="3.82713" rx="1.91356" fill="#9A8A7E"/>
<rect opacity="0.15" x="141.266" y="69.1152" width="19.1357" height="3.82712" rx="1.91356" fill="#9A8A7E"/>
<rect opacity="0.15" x="141.266" y="108.023" width="19.1357" height="3.82712" rx="1.91356" fill="#9A8A7E"/>
<rect opacity="0.15" x="136.797" y="148.211" width="23.6007" height="3.82713" rx="1.91356" fill="#9A8A7E"/>
<line opacity="0.3" x1="18.541" y1="163.185" x2="156.956" y2="163.185" stroke="#181716" stroke-width="0.664998"/>
<path d="M27.0899 208.167L49.0189 182.901C50.9665 180.658 54.5547 181.081 55.9295 183.718L62.7082 196.716C63.7232 198.663 66.4642 198.762 67.6169 196.894C68.5998 195.302 70.8247 195.086 72.094 196.459L79.3857 204.351C81.2037 206.318 84.3654 206.111 85.9123 203.922L94.1097 192.327C95.4778 190.392 98.1657 189.965 100.063 191.382L110.755 199.369C112.168 200.424 114.085 200.486 115.563 199.526L129.021 190.776C130.77 189.639 133.085 189.956 134.467 191.52L138.766 196.389C140.756 198.643 144.393 198.145 145.707 195.436L155.937 174.36" stroke="#338B3C" stroke-width="1.33"/>
</g>
<defs>
<filter id="filter0_d_1_477" x="0.0277557" y="0.703372" width="182.332" height="234.635" filterUnits="userSpaceOnUse" color-interpolation-filters="sRGB">
<feFlood flood-opacity="0" result="BackgroundImageFix"/>
<feColorMatrix in="SourceAlpha" type="matrix" values="0 0 0 0 0 0 0 0 0 0 0 0 0 0 0 0 0 0 127 0" result="hardAlpha"/>
<feOffset dy="2.65999"/>
<feGaussianBlur stdDeviation="3.32499"/>
<feComposite in2="hardAlpha" operator="out"/>
<feColorMatrix type="matrix" values="0 0 0 0 0 0 0 0 0 0 0 0 0 0 0 0 0 0 0.1 0"/>
<feBlend mode="normal" in2="BackgroundImageFix" result="effect1_dropShadow_1_477"/>
<feBlend mode="normal" in="SourceGraphic" in2="effect1_dropShadow_1_477" result="shape"/>
</filter>
</defs>
</svg>
